<?xml version="1.0" ?><!DOCTYPE svg  PUBLIC '-//W3C//DTD SVG 1.1//EN'  'http://www.w3.org/Graphics/SVG/1.1/DTD/svg11.dtd'><svg xmlns="http://www.w3.org/2000/svg" width="486.000" height="427.000" viewBox="-1.000 -5.000 486.000 427.000"><circle cx="344.0" cy="281.08000000000004" r="2.0" stroke="#d82626" fill="#d82626"/><circle cx="344.0" cy="406.68" r="2.0" stroke="#d82626" fill="#d82626"/><circle cx="281.1428571428571" cy="406.68" r="2.0" stroke="#d82626" fill="#d82626"/><circle cx="281.1428571428571" cy="155.48000000000002" r="2.0" stroke="#d82626" fill="#d82626"/><circle cx="469.7142857142857" cy="155.48000000000002" r="2.0" stroke="#d82626" fill="#d82626"/><circle cx="469.7142857142857" cy="218.28" r="2.0" stroke="#d82626" fill="#d82626"/><circle cx="155.42857142857142" cy="218.28" r="2.0" stroke="#d82626" fill="#d82626"/><circle cx="155.42857142857142" cy="281.08000000000004" r="2.0" stroke="#d82626" fill="#d82626"/><circle cx="218.28571428571428" cy="155.48000000000002" r="2.0" stroke="#2626d8" fill="#2626d8"/><circle cx="92.57142857142857" cy="155.48000000000002" r="2.0" stroke="#2626d8" fill="#2626d8"/><circle cx="92.57142857142857" cy="406.68" r="2.0" stroke="#2626d8" fill="#2626d8"/><circle cx="218.28571428571428" cy="406.68" r="2.0" stroke="#2626d8" fill="#2626d8"/><circle cx="29.714285714285715" cy="343.88" r="2.0" stroke="#26d826" fill="#26d826"/><circle cx="29.714285714285715" cy="92.68" r="2.0" stroke="#26d826" fill="#26d826"/><circle cx="406.85714285714283" cy="92.68" r="2.0" stroke="#26d826" fill="#26d826"/><circle cx="406.85714285714283" cy="343.88" r="2.0" stroke="#26d826" fill="#26d826"/><line x1="344.0" y1="281.08000000000004" x2="344.0" y2="406.68" stroke="#d82626" fill="none" stroke-width="6.0"/><line x1="344.0" y1="406.68" x2="281.1428571428571" y2="406.68" stroke="#d82626" fill="none" stroke-width="6.0"/><line x1="281.1428571428571" y1="406.68" x2="281.1428571428571" y2="155.48000000000002" stroke="#d82626" fill="none" stroke-width="6.0"/><line x1="281.1428571428571" y1="155.48000000000002" x2="469.7142857142857" y2="155.48000000000002" stroke="#d82626" fill="none" stroke-width="6.0"/><line x1="469.7142857142857" y1="155.48000000000002" x2="469.7142857142857" y2="218.28" stroke="#d82626" fill="none" stroke-width="6.0"/><line x1="469.7142857142857" y1="218.28" x2="155.42857142857142" y2="218.28" stroke="#d82626" fill="none" stroke-width="6.0"/><line x1="155.42857142857142" y1="218.28" x2="155.42857142857142" y2="281.08000000000004" stroke="#d82626" fill="none" stroke-width="6.0"/><line x1="155.42857142857142" y1="281.08000000000004" x2="344.0" y2="281.08000000000004" stroke="#d82626" fill="none" stroke-width="6.0"/><line x1="218.28571428571428" y1="155.48000000000002" x2="92.57142857142857" y2="155.48000000000002" stroke="#2626d8" fill="none" stroke-width="6.0"/><line x1="92.57142857142857" y1="155.48000000000002" x2="92.57142857142857" y2="406.68" stroke="#2626d8" fill="none" stroke-width="6.0"/><line x1="92.57142857142857" y1="406.68" x2="218.28571428571428" y2="406.68" stroke="#2626d8" fill="none" stroke-width="6.0"/><line x1="218.28571428571428" y1="406.68" x2="218.28571428571428" y2="155.48000000000002" stroke="#2626d8" fill="none" stroke-width="6.0"/><line x1="29.714285714285715" y1="343.88" x2="29.714285714285715" y2="92.68" stroke="#26d826" fill="none" stroke-width="6.0"/><line x1="29.714285714285715" y1="92.68" x2="406.85714285714283" y2="92.68" stroke="#26d826" fill="none" stroke-width="6.0"/><line x1="406.85714285714283" y1="92.68" x2="406.85714285714283" y2="343.88" stroke="#26d826" fill="none" stroke-width="6.0"/><line x1="406.85714285714283" y1="343.88" x2="29.714285714285715" y2="343.88" stroke="#26d826" fill="none" stroke-width="6.0"/><text x="285.3295238095238" y="234" fill="#000" stroke-width="0.0" font-family="Nimbus Sans" font-size="12.0pt" font-weight="bold">1</text><text x="285.3295238095238" y="297" fill="#000" stroke-width="0.0" font-family="Nimbus Sans" font-size="12.0pt" font-weight="bold">3</text><text x="33.900952380952376" y="360" fill="#000" stroke-width="0.0" font-family="Nimbus Sans" font-size="12.0pt" font-weight="bold">12</text><text x="285.3295238095238" y="360" fill="#000" stroke-width="0.0" font-family="Nimbus Sans" font-size="12.0pt" font-weight="bold">2</text><text x="222.47238095238095" y="297" fill="#000" stroke-width="0.0" font-family="Nimbus Sans" font-size="12.0pt" font-weight="bold">6</text><text x="33.900952380952376" y="109" fill="#000" stroke-width="0.0" font-family="Nimbus Sans" font-size="12.0pt" font-weight="bold">9</text><text x="285.3295238095238" y="172" fill="#000" stroke-width="0.0" font-family="Nimbus Sans" font-size="12.0pt" font-weight="bold">5</text><text x="222.47238095238095" y="234" fill="#000" stroke-width="0.0" font-family="Nimbus Sans" font-size="12.0pt" font-weight="bold">8</text><text x="411.0438095238095" y="172" fill="#000" stroke-width="0.0" font-family="Nimbus Sans" font-size="12.0pt" font-weight="bold">4</text><text x="159.61523809523808" y="234" fill="#000" stroke-width="0.0" font-family="Nimbus Sans" font-size="12.0pt" font-weight="bold">7</text><text x="96.75809523809524" y="172" fill="#000" stroke-width="0.0" font-family="Nimbus Sans" font-size="12.0pt" font-weight="bold">10</text><text x="96.75809523809522" y="360" fill="#000" stroke-width="0.0" font-family="Nimbus Sans" font-size="12.0pt" font-weight="bold">11</text></svg>