<?xml version="1.0" ?><!DOCTYPE svg  PUBLIC '-//W3C//DTD SVG 1.1//EN'  'http://www.w3.org/Graphics/SVG/1.1/DTD/svg11.dtd'><svg xmlns="http://www.w3.org/2000/svg" width="486.000" height="396.000" viewBox="-1.000 -5.000 486.000 396.000"><circle cx="469.7142857142857" cy="186.9" r="2.0" stroke="#d82626" fill="#d82626"/><circle cx="469.7142857142857" cy="249.65" r="2.0" stroke="#d82626" fill="#d82626"/><circle cx="281.1428571428571" cy="249.65" r="2.0" stroke="#d82626" fill="#d82626"/><circle cx="281.1428571428571" cy="124.15" r="2.0" stroke="#d82626" fill="#d82626"/><circle cx="218.28571428571428" cy="124.15" r="2.0" stroke="#d82626" fill="#d82626"/><circle cx="218.28571428571428" cy="249.65" r="2.0" stroke="#d82626" fill="#d82626"/><circle cx="155.42857142857142" cy="249.65" r="2.0" stroke="#d82626" fill="#d82626"/><circle cx="155.42857142857142" cy="124.15" r="2.0" stroke="#d82626" fill="#d82626"/><circle cx="92.57142857142857" cy="124.15" r="2.0" stroke="#d82626" fill="#d82626"/><circle cx="92.57142857142857" cy="375.15000000000003" r="2.0" stroke="#d82626" fill="#d82626"/><circle cx="344.0" cy="375.15000000000003" r="2.0" stroke="#d82626" fill="#d82626"/><circle cx="344.0" cy="124.15" r="2.0" stroke="#d82626" fill="#d82626"/><circle cx="406.85714285714283" cy="124.15" r="2.0" stroke="#d82626" fill="#d82626"/><circle cx="406.85714285714283" cy="312.4" r="2.0" stroke="#d82626" fill="#d82626"/><circle cx="29.714285714285715" cy="312.4" r="2.0" stroke="#d82626" fill="#d82626"/><circle cx="29.714285714285715" cy="186.9" r="2.0" stroke="#d82626" fill="#d82626"/><line x1="469.7142857142857" y1="186.9" x2="469.7142857142857" y2="249.65" stroke="#d82626" fill="none" stroke-width="6.0"/><line x1="469.7142857142857" y1="249.65" x2="281.1428571428571" y2="249.65" stroke="#d82626" fill="none" stroke-width="6.0"/><line x1="281.1428571428571" y1="249.65" x2="281.1428571428571" y2="124.15" stroke="#d82626" fill="none" stroke-width="6.0"/><line x1="281.1428571428571" y1="124.15" x2="218.28571428571428" y2="124.15" stroke="#d82626" fill="none" stroke-width="6.0"/><line x1="218.28571428571428" y1="124.15" x2="218.28571428571428" y2="249.65" stroke="#d82626" fill="none" stroke-width="6.0"/><line x1="218.28571428571428" y1="249.65" x2="155.42857142857142" y2="249.65" stroke="#d82626" fill="none" stroke-width="6.0"/><line x1="155.42857142857142" y1="249.65" x2="155.42857142857142" y2="124.15" stroke="#d82626" fill="none" stroke-width="6.0"/><line x1="155.42857142857142" y1="124.15" x2="92.57142857142857" y2="124.15" stroke="#d82626" fill="none" stroke-width="6.0"/><line x1="92.57142857142857" y1="124.15" x2="92.57142857142857" y2="375.15000000000003" stroke="#d82626" fill="none" stroke-width="6.0"/><line x1="92.57142857142857" y1="375.15000000000003" x2="344.0" y2="375.15000000000003" stroke="#d82626" fill="none" stroke-width="6.0"/><line x1="344.0" y1="375.15000000000003" x2="344.0" y2="124.15" stroke="#d82626" fill="none" stroke-width="6.0"/><line x1="344.0" y1="124.15" x2="406.85714285714283" y2="124.15" stroke="#d82626" fill="none" stroke-width="6.0"/><line x1="406.85714285714283" y1="124.15" x2="406.85714285714283" y2="312.4" stroke="#d82626" fill="none" stroke-width="6.0"/><line x1="406.85714285714283" y1="312.4" x2="29.714285714285715" y2="312.4" stroke="#d82626" fill="none" stroke-width="6.0"/><line x1="29.714285714285715" y1="312.4" x2="29.714285714285715" y2="186.9" stroke="#d82626" fill="none" stroke-width="6.0"/><line x1="29.714285714285715" y1="186.9" x2="469.7142857142857" y2="186.9" stroke="#d82626" fill="none" stroke-width="6.0"/></svg>