<?xml version="1.0" ?><!DOCTYPE svg  PUBLIC '-//W3C//DTD SVG 1.1//EN'  'http://www.w3.org/Graphics/SVG/1.1/DTD/svg11.dtd'><svg xmlns="http://www.w3.org/2000/svg" width="487.000" height="466.000" viewBox="-1.000 -5.000 487.000 466.000"><circle cx="372.5555555555556" cy="299.2" r="2.0" stroke="#d82626" fill="#d82626"/><circle cx="372.5555555555556" cy="201.45000000000002" r="2.0" stroke="#d82626" fill="#d82626"/><circle cx="225.8888888888889" cy="201.45000000000002" r="2.0" stroke="#d82626" fill="#d82626"/><circle cx="225.8888888888889" cy="152.575" r="2.0" stroke="#d82626" fill="#d82626"/><circle cx="470.33333333333337" cy="152.575" r="2.0" stroke="#d82626" fill="#d82626"/><circle cx="470.33333333333337" cy="396.95" r="2.0" stroke="#d82626" fill="#d82626"/><circle cx="30.333333333333336" cy="396.95" r="2.0" stroke="#d82626" fill="#d82626"/><circle cx="30.333333333333336" cy="299.2" r="2.0" stroke="#d82626" fill="#d82626"/><circle cx="421.44444444444446" cy="54.825" r="2.0" stroke="#2626d8" fill="#2626d8"/><circle cx="177.0" cy="54.825" r="2.0" stroke="#2626d8" fill="#2626d8"/><circle cx="177.0" cy="250.32500000000002" r="2.0" stroke="#2626d8" fill="#2626d8"/><circle cx="274.7777777777778" cy="250.32500000000002" r="2.0" stroke="#2626d8" fill="#2626d8"/><circle cx="274.7777777777778" cy="103.7" r="2.0" stroke="#2626d8" fill="#2626d8"/><circle cx="323.6666666666667" cy="103.7" r="2.0" stroke="#2626d8" fill="#2626d8"/><circle cx="323.6666666666667" cy="348.075" r="2.0" stroke="#2626d8" fill="#2626d8"/><circle cx="128.11111111111111" cy="348.075" r="2.0" stroke="#2626d8" fill="#2626d8"/><circle cx="128.11111111111111" cy="250.32500000000002" r="2.0" stroke="#2626d8" fill="#2626d8"/><circle cx="79.22222222222223" cy="250.32500000000002" r="2.0" stroke="#2626d8" fill="#2626d8"/><circle cx="79.22222222222223" cy="445.825" r="2.0" stroke="#2626d8" fill="#2626d8"/><circle cx="421.44444444444446" cy="445.825" r="2.0" stroke="#2626d8" fill="#2626d8"/><line x1="372.5555555555556" y1="299.2" x2="372.5555555555556" y2="201.45000000000002" stroke="#d82626" fill="none" stroke-width="6.0"/><line x1="372.5555555555556" y1="201.45000000000002" x2="225.8888888888889" y2="201.45000000000002" stroke="#d82626" fill="none" stroke-width="6.0"/><line x1="225.8888888888889" y1="201.45000000000002" x2="225.8888888888889" y2="152.575" stroke="#d82626" fill="none" stroke-width="6.0"/><line x1="225.8888888888889" y1="152.575" x2="470.33333333333337" y2="152.575" stroke="#d82626" fill="none" stroke-width="6.0"/><line x1="470.33333333333337" y1="152.575" x2="470.33333333333337" y2="396.95" stroke="#d82626" fill="none" stroke-width="6.0"/><line x1="470.33333333333337" y1="396.95" x2="30.333333333333336" y2="396.95" stroke="#d82626" fill="none" stroke-width="6.0"/><line x1="30.333333333333336" y1="396.95" x2="30.333333333333336" y2="299.2" stroke="#d82626" fill="none" stroke-width="6.0"/><line x1="30.333333333333336" y1="299.2" x2="372.5555555555556" y2="299.2" stroke="#d82626" fill="none" stroke-width="6.0"/><line x1="421.44444444444446" y1="54.825" x2="177.0" y2="54.825" stroke="#2626d8" fill="none" stroke-width="6.0"/><line x1="177.0" y1="54.825" x2="177.0" y2="250.32500000000002" stroke="#2626d8" fill="none" stroke-width="6.0"/><line x1="177.0" y1="250.32500000000002" x2="274.7777777777778" y2="250.32500000000002" stroke="#2626d8" fill="none" stroke-width="6.0"/><line x1="274.7777777777778" y1="250.32500000000002" x2="274.7777777777778" y2="103.7" stroke="#2626d8" fill="none" stroke-width="6.0"/><line x1="274.7777777777778" y1="103.7" x2="323.6666666666667" y2="103.7" stroke="#2626d8" fill="none" stroke-width="6.0"/><line x1="323.6666666666667" y1="103.7" x2="323.6666666666667" y2="348.075" stroke="#2626d8" fill="none" stroke-width="6.0"/><line x1="323.6666666666667" y1="348.075" x2="128.11111111111111" y2="348.075" stroke="#2626d8" fill="none" stroke-width="6.0"/><line x1="128.11111111111111" y1="348.075" x2="128.11111111111111" y2="250.32500000000002" stroke="#2626d8" fill="none" stroke-width="6.0"/><line x1="128.11111111111111" y1="250.32500000000002" x2="79.22222222222223" y2="250.32500000000002" stroke="#2626d8" fill="none" stroke-width="6.0"/><line x1="79.22222222222223" y1="250.32500000000002" x2="79.22222222222223" y2="445.825" stroke="#2626d8" fill="none" stroke-width="6.0"/><line x1="79.22222222222223" y1="445.825" x2="421.44444444444446" y2="445.825" stroke="#2626d8" fill="none" stroke-width="6.0"/><line x1="421.44444444444446" y1="445.825" x2="421.44444444444446" y2="54.825" stroke="#2626d8" fill="none" stroke-width="6.0"/><text x="326.925" y="214" fill="#000" stroke-width="0.0" font-family="Nimbus Sans" font-size="9.0pt" font-weight="bold">1</text><text x="82.48055555555557" y="311" fill="#000" stroke-width="0.0" font-family="Nimbus Sans" font-size="9.0pt" font-weight="bold">7</text><text x="33.59166666666667" y="409" fill="#000" stroke-width="0.0" font-family="Nimbus Sans" font-size="9.0pt" font-weight="bold">8</text><text x="278.03611111111115" y="165" fill="#000" stroke-width="0.0" font-family="Nimbus Sans" font-size="9.0pt" font-weight="bold">10</text><text x="180.25833333333333" y="67" fill="#000" stroke-width="0.0" font-family="Nimbus Sans" font-size="9.0pt" font-weight="bold">12</text><text x="229.14722222222224" y="165" fill="#000" stroke-width="0.0" font-family="Nimbus Sans" font-size="9.0pt" font-weight="bold">9</text><text x="424.7027777777778" y="165" fill="#000" stroke-width="0.0" font-family="Nimbus Sans" font-size="9.0pt" font-weight="bold">6</text><text x="33.59166666666667" y="311" fill="#000" stroke-width="0.0" font-family="Nimbus Sans" font-size="9.0pt" font-weight="bold">4</text><text x="82.48055555555557" y="409" fill="#000" stroke-width="0.0" font-family="Nimbus Sans" font-size="9.0pt" font-weight="bold">5</text><text x="131.36944444444444" y="311" fill="#000" stroke-width="0.0" font-family="Nimbus Sans" font-size="9.0pt" font-weight="bold">2</text><text x="82.48055555555557" y="263" fill="#000" stroke-width="0.0" font-family="Nimbus Sans" font-size="9.0pt" font-weight="bold">3</text><text x="278.03611111111115" y="116" fill="#000" stroke-width="0.0" font-family="Nimbus Sans" font-size="9.0pt" font-weight="bold">11</text></svg>