<?xml version="1.0" ?><!DOCTYPE svg  PUBLIC '-//W3C//DTD SVG 1.1//EN'  'http://www.w3.org/Graphics/SVG/1.1/DTD/svg11.dtd'><svg xmlns="http://www.w3.org/2000/svg" width="487.000" height="417.000" viewBox="-1.000 -5.000 487.000 417.000"><circle cx="470.33333333333337" cy="347.9666666666667" r="2.0" stroke="#d82626" fill="#d82626"/><circle cx="470.33333333333337" cy="103.80000000000001" r="2.0" stroke="#d82626" fill="#d82626"/><circle cx="274.7777777777778" cy="103.80000000000001" r="2.0" stroke="#d82626" fill="#d82626"/><circle cx="274.7777777777778" cy="201.4666666666667" r="2.0" stroke="#d82626" fill="#d82626"/><circle cx="421.44444444444446" cy="201.4666666666667" r="2.0" stroke="#d82626" fill="#d82626"/><circle cx="421.44444444444446" cy="250.3" r="2.0" stroke="#d82626" fill="#d82626"/><circle cx="30.333333333333336" cy="250.3" r="2.0" stroke="#d82626" fill="#d82626"/><circle cx="30.333333333333336" cy="347.9666666666667" r="2.0" stroke="#d82626" fill="#d82626"/><circle cx="128.11111111111111" cy="201.4666666666667" r="2.0" stroke="#2626d8" fill="#2626d8"/><circle cx="177.0" cy="201.4666666666667" r="2.0" stroke="#2626d8" fill="#2626d8"/><circle cx="177.0" cy="396.8" r="2.0" stroke="#2626d8" fill="#2626d8"/><circle cx="372.5555555555556" cy="396.8" r="2.0" stroke="#2626d8" fill="#2626d8"/><circle cx="372.5555555555556" cy="152.63333333333333" r="2.0" stroke="#2626d8" fill="#2626d8"/><circle cx="323.6666666666667" cy="152.63333333333333" r="2.0" stroke="#2626d8" fill="#2626d8"/><circle cx="323.6666666666667" cy="299.1333333333333" r="2.0" stroke="#2626d8" fill="#2626d8"/><circle cx="225.8888888888889" cy="299.1333333333333" r="2.0" stroke="#2626d8" fill="#2626d8"/><circle cx="225.8888888888889" cy="152.63333333333333" r="2.0" stroke="#2626d8" fill="#2626d8"/><circle cx="79.22222222222223" cy="152.63333333333333" r="2.0" stroke="#2626d8" fill="#2626d8"/><circle cx="79.22222222222223" cy="299.1333333333333" r="2.0" stroke="#2626d8" fill="#2626d8"/><circle cx="128.11111111111111" cy="299.1333333333333" r="2.0" stroke="#2626d8" fill="#2626d8"/><line x1="470.33333333333337" y1="347.9666666666667" x2="470.33333333333337" y2="103.80000000000001" stroke="#d82626" fill="none" stroke-width="3.0"/><line x1="470.33333333333337" y1="103.80000000000001" x2="274.7777777777778" y2="103.80000000000001" stroke="#d82626" fill="none" stroke-width="3.0"/><line x1="274.7777777777778" y1="103.80000000000001" x2="274.7777777777778" y2="201.4666666666667" stroke="#d82626" fill="none" stroke-width="3.0"/><line x1="274.7777777777778" y1="201.4666666666667" x2="421.44444444444446" y2="201.4666666666667" stroke="#d82626" fill="none" stroke-width="3.0"/><line x1="421.44444444444446" y1="201.4666666666667" x2="421.44444444444446" y2="250.3" stroke="#d82626" fill="none" stroke-width="3.0"/><line x1="421.44444444444446" y1="250.3" x2="30.333333333333336" y2="250.3" stroke="#d82626" fill="none" stroke-width="3.0"/><line x1="30.333333333333336" y1="250.3" x2="30.333333333333336" y2="347.9666666666667" stroke="#d82626" fill="none" stroke-width="3.0"/><line x1="30.333333333333336" y1="347.9666666666667" x2="470.33333333333337" y2="347.9666666666667" stroke="#d82626" fill="none" stroke-width="3.0"/><line x1="128.11111111111111" y1="201.4666666666667" x2="177.0" y2="201.4666666666667" stroke="#2626d8" fill="none" stroke-width="3.0"/><line x1="177.0" y1="201.4666666666667" x2="177.0" y2="396.8" stroke="#2626d8" fill="none" stroke-width="3.0"/><line x1="177.0" y1="396.8" x2="372.5555555555556" y2="396.8" stroke="#2626d8" fill="none" stroke-width="3.0"/><line x1="372.5555555555556" y1="396.8" x2="372.5555555555556" y2="152.63333333333333" stroke="#2626d8" fill="none" stroke-width="3.0"/><line x1="372.5555555555556" y1="152.63333333333333" x2="323.6666666666667" y2="152.63333333333333" stroke="#2626d8" fill="none" stroke-width="3.0"/><line x1="323.6666666666667" y1="152.63333333333333" x2="323.6666666666667" y2="299.1333333333333" stroke="#2626d8" fill="none" stroke-width="3.0"/><line x1="323.6666666666667" y1="299.1333333333333" x2="225.8888888888889" y2="299.1333333333333" stroke="#2626d8" fill="none" stroke-width="3.0"/><line x1="225.8888888888889" y1="299.1333333333333" x2="225.8888888888889" y2="152.63333333333333" stroke="#2626d8" fill="none" stroke-width="3.0"/><line x1="225.8888888888889" y1="152.63333333333333" x2="79.22222222222223" y2="152.63333333333333" stroke="#2626d8" fill="none" stroke-width="3.0"/><line x1="79.22222222222223" y1="152.63333333333333" x2="79.22222222222223" y2="299.1333333333333" stroke="#2626d8" fill="none" stroke-width="3.0"/><line x1="79.22222222222223" y1="299.1333333333333" x2="128.11111111111111" y2="299.1333333333333" stroke="#2626d8" fill="none" stroke-width="3.0"/><line x1="128.11111111111111" y1="299.1333333333333" x2="128.11111111111111" y2="201.4666666666667" stroke="#2626d8" fill="none" stroke-width="3.0"/><circle cx="379.2992063492064" cy="208.21031746031747" r="3.488095238095241" stroke="#f00" fill="#f00" stroke-width="0.0"/><text x="379.2992063492064" y="211" fill="#fff" stroke-width="0.0" text-anchor="middle" font-family="Nimbus Sans" font-size="6.0pt">A</text><circle cx="330.41031746031746" cy="159.37698412698413" r="3.488095238095241" stroke="#f00" fill="#f00" stroke-width="0.0"/><text x="330.41031746031746" y="162" fill="#fff" stroke-width="0.0" text-anchor="middle" font-family="Nimbus Sans" font-size="6.0pt">A</text><ellipse cx="232.63253968253971" cy="257.0436507936508" rx="3.488095238095241" ry="3.4880952380952266" stroke="#f00" fill="#f00" stroke-width="0.0"/><text x="232.63253968253971" y="260" fill="#fff" stroke-width="0.0" text-anchor="middle" font-family="Nimbus Sans" font-size="6.0pt">A</text><circle cx="134.85476190476192" cy="208.2103174603175" r="3.488095238095241" stroke="#f00" fill="#f00" stroke-width="0.0"/><text x="134.85476190476192" y="211" fill="#fff" stroke-width="0.0" text-anchor="middle" font-family="Nimbus Sans" font-size="6.0pt">A</text><ellipse cx="85.96587301587303" cy="257.0436507936508" rx="3.4880952380952337" ry="3.4880952380952266" stroke="#f00" fill="#f00" stroke-width="0.0"/><text x="85.96587301587303" y="260" fill="#fff" stroke-width="0.0" text-anchor="middle" font-family="Nimbus Sans" font-size="6.0pt">A</text><circle cx="183.7436507936508" cy="354.71031746031747" r="3.488095238095241" stroke="#f00" fill="#f00" stroke-width="0.0"/><text x="183.7436507936508" y="357" fill="#fff" stroke-width="0.0" text-anchor="middle" font-family="Nimbus Sans" font-size="6.0pt">A</text></svg>