<?xml version="1.0" ?><!DOCTYPE svg  PUBLIC '-//W3C//DTD SVG 1.1//EN'  'http://www.w3.org/Graphics/SVG/1.1/DTD/svg11.dtd'><svg xmlns="http://www.w3.org/2000/svg" width="487.000" height="466.000" viewBox="-1.000 -5.000 487.000 466.000"><circle cx="225.8888888888889" cy="299.2" r="2.0" stroke="#d82626" fill="#d82626"/><circle cx="274.7777777777778" cy="299.2" r="2.0" stroke="#d82626" fill="#d82626"/><circle cx="274.7777777777778" cy="152.575" r="2.0" stroke="#d82626" fill="#d82626"/><circle cx="372.5555555555556" cy="152.575" r="2.0" stroke="#d82626" fill="#d82626"/><circle cx="372.5555555555556" cy="348.075" r="2.0" stroke="#d82626" fill="#d82626"/><circle cx="177.0" cy="348.075" r="2.0" stroke="#d82626" fill="#d82626"/><circle cx="177.0" cy="54.825" r="2.0" stroke="#d82626" fill="#d82626"/><circle cx="470.33333333333337" cy="54.825" r="2.0" stroke="#d82626" fill="#d82626"/><circle cx="470.33333333333337" cy="445.825" r="2.0" stroke="#d82626" fill="#d82626"/><circle cx="79.22222222222223" cy="445.825" r="2.0" stroke="#d82626" fill="#d82626"/><circle cx="79.22222222222223" cy="152.575" r="2.0" stroke="#d82626" fill="#d82626"/><circle cx="128.11111111111111" cy="152.575" r="2.0" stroke="#d82626" fill="#d82626"/><circle cx="128.11111111111111" cy="396.95" r="2.0" stroke="#d82626" fill="#d82626"/><circle cx="421.44444444444446" cy="396.95" r="2.0" stroke="#d82626" fill="#d82626"/><circle cx="421.44444444444446" cy="103.7" r="2.0" stroke="#d82626" fill="#d82626"/><circle cx="225.8888888888889" cy="103.7" r="2.0" stroke="#d82626" fill="#d82626"/><circle cx="323.6666666666667" cy="201.45000000000002" r="2.0" stroke="#2626d8" fill="#2626d8"/><circle cx="323.6666666666667" cy="250.32500000000002" r="2.0" stroke="#2626d8" fill="#2626d8"/><circle cx="30.333333333333336" cy="250.32500000000002" r="2.0" stroke="#2626d8" fill="#2626d8"/><circle cx="30.333333333333336" cy="201.45000000000002" r="2.0" stroke="#2626d8" fill="#2626d8"/><line x1="225.8888888888889" y1="299.2" x2="274.7777777777778" y2="299.2" stroke="#d82626" fill="none" stroke-width="3.0"/><line x1="274.7777777777778" y1="299.2" x2="274.7777777777778" y2="152.575" stroke="#d82626" fill="none" stroke-width="3.0"/><line x1="274.7777777777778" y1="152.575" x2="372.5555555555556" y2="152.575" stroke="#d82626" fill="none" stroke-width="3.0"/><line x1="372.5555555555556" y1="152.575" x2="372.5555555555556" y2="348.075" stroke="#d82626" fill="none" stroke-width="3.0"/><line x1="372.5555555555556" y1="348.075" x2="177.0" y2="348.075" stroke="#d82626" fill="none" stroke-width="3.0"/><line x1="177.0" y1="348.075" x2="177.0" y2="54.825" stroke="#d82626" fill="none" stroke-width="3.0"/><line x1="177.0" y1="54.825" x2="470.33333333333337" y2="54.825" stroke="#d82626" fill="none" stroke-width="3.0"/><line x1="470.33333333333337" y1="54.825" x2="470.33333333333337" y2="445.825" stroke="#d82626" fill="none" stroke-width="3.0"/><line x1="470.33333333333337" y1="445.825" x2="79.22222222222223" y2="445.825" stroke="#d82626" fill="none" stroke-width="3.0"/><line x1="79.22222222222223" y1="445.825" x2="79.22222222222223" y2="152.575" stroke="#d82626" fill="none" stroke-width="3.0"/><line x1="79.22222222222223" y1="152.575" x2="128.11111111111111" y2="152.575" stroke="#d82626" fill="none" stroke-width="3.0"/><line x1="128.11111111111111" y1="152.575" x2="128.11111111111111" y2="396.95" stroke="#d82626" fill="none" stroke-width="3.0"/><line x1="128.11111111111111" y1="396.95" x2="421.44444444444446" y2="396.95" stroke="#d82626" fill="none" stroke-width="3.0"/><line x1="421.44444444444446" y1="396.95" x2="421.44444444444446" y2="103.7" stroke="#d82626" fill="none" stroke-width="3.0"/><line x1="421.44444444444446" y1="103.7" x2="225.8888888888889" y2="103.7" stroke="#d82626" fill="none" stroke-width="3.0"/><line x1="225.8888888888889" y1="103.7" x2="225.8888888888889" y2="299.2" stroke="#d82626" fill="none" stroke-width="3.0"/><line x1="323.6666666666667" y1="201.45000000000002" x2="323.6666666666667" y2="250.32500000000002" stroke="#2626d8" fill="none" stroke-width="3.0"/><line x1="323.6666666666667" y1="250.32500000000002" x2="30.333333333333336" y2="250.32500000000002" stroke="#2626d8" fill="none" stroke-width="3.0"/><line x1="30.333333333333336" y1="250.32500000000002" x2="30.333333333333336" y2="201.45000000000002" stroke="#2626d8" fill="none" stroke-width="3.0"/><line x1="30.333333333333336" y1="201.45000000000002" x2="323.6666666666667" y2="201.45000000000002" stroke="#2626d8" fill="none" stroke-width="3.0"/><circle cx="232.63829365079368" cy="257.07440476190476" r="3.4910714285714306" stroke="#f00" fill="#f00" stroke-width="0.0"/><text x="232.63829365079366" y="260" fill="#fff" stroke-width="0.0" text-anchor="middle" font-family="Nimbus Sans" font-size="6.0pt">A</text><ellipse cx="281.5271825396826" cy="208.19940476190482" rx="3.4910714285714164" ry="3.4910714285714306" stroke="#f00" fill="#f00" stroke-width="0.0"/><text x="281.5271825396826" y="211" fill="#fff" stroke-width="0.0" text-anchor="middle" font-family="Nimbus Sans" font-size="6.0pt">A</text><ellipse cx="85.97162698412697" cy="159.32440476190476" rx="3.4910714285714235" ry="3.4910714285714306" stroke="#f00" fill="#f00" stroke-width="0.0"/><text x="85.97162698412698" y="162" fill="#fff" stroke-width="0.0" text-anchor="middle" font-family="Nimbus Sans" font-size="6.0pt">A</text><ellipse cx="37.0827380952381" cy="208.19940476190476" rx="3.491071428571427" ry="3.4910714285714306" stroke="#f00" fill="#f00" stroke-width="0.0"/><text x="37.08273809523809" y="211" fill="#fff" stroke-width="0.0" text-anchor="middle" font-family="Nimbus Sans" font-size="6.0pt">A</text></svg>