<?xml version="1.0" ?><!DOCTYPE svg  PUBLIC '-//W3C//DTD SVG 1.1//EN'  'http://www.w3.org/Graphics/SVG/1.1/DTD/svg11.dtd'><svg xmlns="http://www.w3.org/2000/svg" width="487.000" height="417.000" viewBox="-1.000 -5.000 487.000 417.000"><circle cx="103.33333333333333" cy="103.45" r="2.0" stroke="#d82626" fill="#d82626"/><circle cx="176.66666666666666" cy="103.45" r="2.0" stroke="#d82626" fill="#d82626"/><circle cx="176.66666666666666" cy="323.2" r="2.0" stroke="#d82626" fill="#d82626"/><circle cx="250.0" cy="323.2" r="2.0" stroke="#d82626" fill="#d82626"/><circle cx="250.0" cy="103.45" r="2.0" stroke="#d82626" fill="#d82626"/><circle cx="323.3333333333333" cy="103.45" r="2.0" stroke="#d82626" fill="#d82626"/><circle cx="323.3333333333333" cy="323.2" r="2.0" stroke="#d82626" fill="#d82626"/><circle cx="396.66666666666663" cy="323.2" r="2.0" stroke="#d82626" fill="#d82626"/><circle cx="396.66666666666663" cy="176.7" r="2.0" stroke="#d82626" fill="#d82626"/><circle cx="30.0" cy="176.7" r="2.0" stroke="#d82626" fill="#d82626"/><circle cx="30.0" cy="249.95000000000002" r="2.0" stroke="#d82626" fill="#d82626"/><circle cx="470.0" cy="249.95000000000002" r="2.0" stroke="#d82626" fill="#d82626"/><circle cx="470.0" cy="396.45" r="2.0" stroke="#d82626" fill="#d82626"/><circle cx="103.33333333333333" cy="396.45" r="2.0" stroke="#d82626" fill="#d82626"/><line x1="103.33333333333333" y1="103.45" x2="176.66666666666666" y2="103.45" stroke="#d82626" fill="none" stroke-width="3.0"/><line x1="176.66666666666666" y1="103.45" x2="176.66666666666666" y2="323.2" stroke="#d82626" fill="none" stroke-width="3.0"/><line x1="176.66666666666666" y1="323.2" x2="250.0" y2="323.2" stroke="#d82626" fill="none" stroke-width="3.0"/><line x1="250.0" y1="323.2" x2="250.0" y2="103.45" stroke="#d82626" fill="none" stroke-width="3.0"/><line x1="250.0" y1="103.45" x2="323.3333333333333" y2="103.45" stroke="#d82626" fill="none" stroke-width="3.0"/><line x1="323.3333333333333" y1="103.45" x2="323.3333333333333" y2="323.2" stroke="#d82626" fill="none" stroke-width="3.0"/><line x1="323.3333333333333" y1="323.2" x2="396.66666666666663" y2="323.2" stroke="#d82626" fill="none" stroke-width="3.0"/><line x1="396.66666666666663" y1="323.2" x2="396.66666666666663" y2="176.7" stroke="#d82626" fill="none" stroke-width="3.0"/><line x1="396.66666666666663" y1="176.7" x2="30.0" y2="176.7" stroke="#d82626" fill="none" stroke-width="3.0"/><line x1="30.0" y1="176.7" x2="30.0" y2="249.95000000000002" stroke="#d82626" fill="none" stroke-width="3.0"/><line x1="30.0" y1="249.95000000000002" x2="470.0" y2="249.95000000000002" stroke="#d82626" fill="none" stroke-width="3.0"/><line x1="470.0" y1="249.95000000000002" x2="470.0" y2="396.45" stroke="#d82626" fill="none" stroke-width="3.0"/><line x1="470.0" y1="396.45" x2="103.33333333333333" y2="396.45" stroke="#d82626" fill="none" stroke-width="3.0"/><line x1="103.33333333333333" y1="396.45" x2="103.33333333333333" y2="103.45" stroke="#d82626" fill="none" stroke-width="3.0"/><circle cx="113.44880952380953" cy="113.5654761904762" r="5.232142857142854" stroke="#f00" fill="#f00" stroke-width="0.0"/><text x="113.44880952380953" y="117" fill="#fff" stroke-width="0.0" text-anchor="middle" font-family="Nimbus Sans" font-size="9.0pt">A</text><circle cx="186.78214285714284" cy="260.06547619047615" r="5.232142857142861" stroke="#f00" fill="#f00" stroke-width="0.0"/><text x="186.78214285714284" y="264" fill="#fff" stroke-width="0.0" text-anchor="middle" font-family="Nimbus Sans" font-size="9.0pt">A</text><ellipse cx="260.1154761904762" cy="113.5654761904762" rx="5.232142857142861" ry="5.232142857142854" stroke="#f00" fill="#f00" stroke-width="0.0"/><text x="260.11547619047616" y="117" fill="#fff" stroke-width="0.0" text-anchor="middle" font-family="Nimbus Sans" font-size="9.0pt">A</text><ellipse cx="333.4488095238095" cy="260.0654761904762" rx="5.232142857142861" ry="5.232142857142847" stroke="#f00" fill="#f00" stroke-width="0.0"/><text x="333.4488095238095" y="264" fill="#fff" stroke-width="0.0" text-anchor="middle" font-family="Nimbus Sans" font-size="9.0pt">A</text><ellipse cx="40.11547619047619" cy="186.81547619047618" rx="5.232142857142858" ry="5.232142857142861" stroke="#f00" fill="#f00" stroke-width="0.0"/><text x="40.11547619047619" y="191" fill="#fff" stroke-width="0.0" text-anchor="middle" font-family="Nimbus Sans" font-size="9.0pt">A</text></svg>