<?xml version="1.0" ?><!DOCTYPE svg  PUBLIC '-//W3C//DTD SVG 1.1//EN'  'http://www.w3.org/Graphics/SVG/1.1/DTD/svg11.dtd'><svg xmlns="http://www.w3.org/2000/svg" width="486.000" height="490.000" viewBox="-1.000 -5.000 486.000 490.000"><circle cx="155.42857142857142" cy="406.85714285714283" r="2.0" stroke="#d82626" fill="#d82626"/><circle cx="155.42857142857142" cy="344.0" r="2.0" stroke="#d82626" fill="#d82626"/><circle cx="406.85714285714283" cy="344.0" r="2.0" stroke="#d82626" fill="#d82626"/><circle cx="406.85714285714283" cy="281.1428571428571" r="2.0" stroke="#d82626" fill="#d82626"/><circle cx="281.1428571428571" cy="281.1428571428571" r="2.0" stroke="#d82626" fill="#d82626"/><circle cx="281.1428571428571" cy="29.714285714285715" r="2.0" stroke="#d82626" fill="#d82626"/><circle cx="29.714285714285715" cy="29.714285714285715" r="2.0" stroke="#d82626" fill="#d82626"/><circle cx="29.714285714285715" cy="281.1428571428571" r="2.0" stroke="#d82626" fill="#d82626"/><circle cx="155.42857142857142" cy="281.1428571428571" r="2.0" stroke="#d82626" fill="#d82626"/><circle cx="155.42857142857142" cy="92.57142857142857" r="2.0" stroke="#d82626" fill="#d82626"/><circle cx="218.28571428571428" cy="92.57142857142857" r="2.0" stroke="#d82626" fill="#d82626"/><circle cx="218.28571428571428" cy="469.7142857142857" r="2.0" stroke="#d82626" fill="#d82626"/><circle cx="469.7142857142857" cy="469.7142857142857" r="2.0" stroke="#d82626" fill="#d82626"/><circle cx="469.7142857142857" cy="155.42857142857142" r="2.0" stroke="#d82626" fill="#d82626"/><circle cx="92.57142857142857" cy="155.42857142857142" r="2.0" stroke="#d82626" fill="#d82626"/><circle cx="92.57142857142857" cy="218.28571428571428" r="2.0" stroke="#d82626" fill="#d82626"/><circle cx="344.0" cy="218.28571428571428" r="2.0" stroke="#d82626" fill="#d82626"/><circle cx="344.0" cy="406.85714285714283" r="2.0" stroke="#d82626" fill="#d82626"/><line x1="155.42857142857142" y1="406.85714285714283" x2="155.42857142857142" y2="344.0" stroke="#d82626" fill="none" stroke-width="3.0"/><line x1="155.42857142857142" y1="344.0" x2="406.85714285714283" y2="344.0" stroke="#d82626" fill="none" stroke-width="3.0"/><line x1="406.85714285714283" y1="344.0" x2="406.85714285714283" y2="281.1428571428571" stroke="#d82626" fill="none" stroke-width="3.0"/><line x1="406.85714285714283" y1="281.1428571428571" x2="281.1428571428571" y2="281.1428571428571" stroke="#d82626" fill="none" stroke-width="3.0"/><line x1="281.1428571428571" y1="281.1428571428571" x2="281.1428571428571" y2="29.714285714285715" stroke="#d82626" fill="none" stroke-width="3.0"/><line x1="281.1428571428571" y1="29.714285714285715" x2="29.714285714285715" y2="29.714285714285715" stroke="#d82626" fill="none" stroke-width="3.0"/><line x1="29.714285714285715" y1="29.714285714285715" x2="29.714285714285715" y2="281.1428571428571" stroke="#d82626" fill="none" stroke-width="3.0"/><line x1="29.714285714285715" y1="281.1428571428571" x2="155.42857142857142" y2="281.1428571428571" stroke="#d82626" fill="none" stroke-width="3.0"/><line x1="155.42857142857142" y1="281.1428571428571" x2="155.42857142857142" y2="92.57142857142857" stroke="#d82626" fill="none" stroke-width="3.0"/><line x1="155.42857142857142" y1="92.57142857142857" x2="218.28571428571428" y2="92.57142857142857" stroke="#d82626" fill="none" stroke-width="3.0"/><line x1="218.28571428571428" y1="92.57142857142857" x2="218.28571428571428" y2="469.7142857142857" stroke="#d82626" fill="none" stroke-width="3.0"/><line x1="218.28571428571428" y1="469.7142857142857" x2="469.7142857142857" y2="469.7142857142857" stroke="#d82626" fill="none" stroke-width="3.0"/><line x1="469.7142857142857" y1="469.7142857142857" x2="469.7142857142857" y2="155.42857142857142" stroke="#d82626" fill="none" stroke-width="3.0"/><line x1="469.7142857142857" y1="155.42857142857142" x2="92.57142857142857" y2="155.42857142857142" stroke="#d82626" fill="none" stroke-width="3.0"/><line x1="92.57142857142857" y1="155.42857142857142" x2="92.57142857142857" y2="218.28571428571428" stroke="#d82626" fill="none" stroke-width="3.0"/><line x1="92.57142857142857" y1="218.28571428571428" x2="344.0" y2="218.28571428571428" stroke="#d82626" fill="none" stroke-width="3.0"/><line x1="344.0" y1="218.28571428571428" x2="344.0" y2="406.85714285714283" stroke="#d82626" fill="none" stroke-width="3.0"/><line x1="344.0" y1="406.85714285714283" x2="155.42857142857142" y2="406.85714285714283" stroke="#d82626" fill="none" stroke-width="3.0"/><ellipse cx="164.10884353741494" cy="352.68027210884355" rx="4.489795918367335" ry="4.489795918367349" stroke="#f00" fill="#f00" stroke-width="0.0"/><text x="164.10884353741494" y="356" fill="#fff" stroke-width="0.0" text-anchor="middle" font-family="Nimbus Sans" font-size="8.0pt">A</text><circle cx="352.68027210884355" cy="289.82312925170066" r="4.489795918367349" stroke="#f00" fill="#f00" stroke-width="0.0"/><text x="352.68027210884355" y="294" fill="#fff" stroke-width="0.0" text-anchor="middle" font-family="Nimbus Sans" font-size="8.0pt">A</text><ellipse cx="289.82312925170066" cy="226.96598639455777" rx="4.489795918367349" ry="4.489795918367335" stroke="#f00" fill="#f00" stroke-width="0.0"/><text x="289.82312925170066" y="231" fill="#fff" stroke-width="0.0" text-anchor="middle" font-family="Nimbus Sans" font-size="8.0pt">A</text><ellipse cx="164.10884353741494" cy="101.25170068027211" rx="4.489795918367335" ry="4.489795918367342" stroke="#f00" fill="#f00" stroke-width="0.0"/><text x="164.10884353741494" y="105" fill="#fff" stroke-width="0.0" text-anchor="middle" font-family="Nimbus Sans" font-size="8.0pt">A</text><ellipse cx="101.25170068027211" cy="164.10884353741494" rx="4.489795918367342" ry="4.489795918367335" stroke="#f00" fill="#f00" stroke-width="0.0"/><text x="101.2517006802721" y="168" fill="#fff" stroke-width="0.0" text-anchor="middle" font-family="Nimbus Sans" font-size="8.0pt">A</text></svg>