<?xml version="1.0" ?><!DOCTYPE svg  PUBLIC '-//W3C//DTD SVG 1.1//EN'  'http://www.w3.org/Graphics/SVG/1.1/DTD/svg11.dtd'><svg xmlns="http://www.w3.org/2000/svg" width="487.000" height="381.000" viewBox="-1.000 -5.000 487.000 381.000"><circle cx="415.0" cy="305.0" r="2.0" stroke="#d82626" fill="#d82626"/><circle cx="415.0" cy="250.0" r="2.0" stroke="#d82626" fill="#d82626"/><circle cx="305.0" cy="250.0" r="2.0" stroke="#d82626" fill="#d82626"/><circle cx="305.0" cy="360.0" r="2.0" stroke="#d82626" fill="#d82626"/><circle cx="250.0" cy="360.0" r="2.0" stroke="#d82626" fill="#d82626"/><circle cx="250.0" cy="250.0" r="2.0" stroke="#d82626" fill="#d82626"/><circle cx="85.0" cy="250.0" r="2.0" stroke="#d82626" fill="#d82626"/><circle cx="85.0" cy="195.0" r="2.0" stroke="#d82626" fill="#d82626"/><circle cx="470.0" cy="195.0" r="2.0" stroke="#d82626" fill="#d82626"/><circle cx="470.0" cy="360.0" r="2.0" stroke="#d82626" fill="#d82626"/><circle cx="360.0" cy="360.0" r="2.0" stroke="#d82626" fill="#d82626"/><circle cx="360.0" cy="140.0" r="2.0" stroke="#d82626" fill="#d82626"/><circle cx="195.0" cy="140.0" r="2.0" stroke="#d82626" fill="#d82626"/><circle cx="195.0" cy="360.0" r="2.0" stroke="#d82626" fill="#d82626"/><circle cx="30.0" cy="360.0" r="2.0" stroke="#d82626" fill="#d82626"/><circle cx="30.0" cy="140.0" r="2.0" stroke="#d82626" fill="#d82626"/><circle cx="140.0" cy="140.0" r="2.0" stroke="#d82626" fill="#d82626"/><circle cx="140.0" cy="305.0" r="2.0" stroke="#d82626" fill="#d82626"/><line x1="415.0" y1="305.0" x2="415.0" y2="250.0" stroke="#d82626" fill="none" stroke-width="3.0"/><line x1="415.0" y1="250.0" x2="305.0" y2="250.0" stroke="#d82626" fill="none" stroke-width="3.0"/><line x1="305.0" y1="250.0" x2="305.0" y2="360.0" stroke="#d82626" fill="none" stroke-width="3.0"/><line x1="305.0" y1="360.0" x2="250.0" y2="360.0" stroke="#d82626" fill="none" stroke-width="3.0"/><line x1="250.0" y1="360.0" x2="250.0" y2="250.0" stroke="#d82626" fill="none" stroke-width="3.0"/><line x1="250.0" y1="250.0" x2="85.0" y2="250.0" stroke="#d82626" fill="none" stroke-width="3.0"/><line x1="85.0" y1="250.0" x2="85.0" y2="195.0" stroke="#d82626" fill="none" stroke-width="3.0"/><line x1="85.0" y1="195.0" x2="470.0" y2="195.0" stroke="#d82626" fill="none" stroke-width="3.0"/><line x1="470.0" y1="195.0" x2="470.0" y2="360.0" stroke="#d82626" fill="none" stroke-width="3.0"/><line x1="470.0" y1="360.0" x2="360.0" y2="360.0" stroke="#d82626" fill="none" stroke-width="3.0"/><line x1="360.0" y1="360.0" x2="360.0" y2="140.0" stroke="#d82626" fill="none" stroke-width="3.0"/><line x1="360.0" y1="140.0" x2="195.0" y2="140.0" stroke="#d82626" fill="none" stroke-width="3.0"/><line x1="195.0" y1="140.0" x2="195.0" y2="360.0" stroke="#d82626" fill="none" stroke-width="3.0"/><line x1="195.0" y1="360.0" x2="30.0" y2="360.0" stroke="#d82626" fill="none" stroke-width="3.0"/><line x1="30.0" y1="360.0" x2="30.0" y2="140.0" stroke="#d82626" fill="none" stroke-width="3.0"/><line x1="30.0" y1="140.0" x2="140.0" y2="140.0" stroke="#d82626" fill="none" stroke-width="3.0"/><line x1="140.0" y1="140.0" x2="140.0" y2="305.0" stroke="#d82626" fill="none" stroke-width="3.0"/><line x1="140.0" y1="305.0" x2="415.0" y2="305.0" stroke="#d82626" fill="none" stroke-width="3.0"/><ellipse cx="367.5952380952381" cy="257.5952380952381" rx="3.9285714285714164" ry="3.9285714285714306" stroke="#f00" fill="#f00" stroke-width="0.0"/><text x="367.59523809523813" y="260" fill="#fff" stroke-width="0.0" text-anchor="middle" font-family="Nimbus Sans" font-size="7.0pt">A</text><ellipse cx="376.2380952380953" cy="257.5952380952381" rx="3.9285714285714164" ry="3.9285714285714306" stroke="#0f0" fill="#0f0" stroke-width="0.0"/><text x="376.2380952380953" y="260" fill="#fff" stroke-width="0.0" text-anchor="middle" font-family="Nimbus Sans" font-size="7.0pt">a</text><ellipse cx="257.5952380952381" cy="312.5952380952381" rx="3.9285714285714306" ry="3.9285714285714164" stroke="#f00" fill="#f00" stroke-width="0.0"/><text x="257.5952380952381" y="315" fill="#fff" stroke-width="0.0" text-anchor="middle" font-family="Nimbus Sans" font-size="7.0pt">A</text><circle cx="266.2380952380952" cy="312.5952380952381" r="3.9285714285714164" stroke="#0f0" fill="#0f0" stroke-width="0.0"/><text x="266.23809523809524" y="315" fill="#fff" stroke-width="0.0" text-anchor="middle" font-family="Nimbus Sans" font-size="7.0pt">a</text><circle cx="202.59523809523807" cy="257.5952380952381" r="3.9285714285714306" stroke="#0f0" fill="#0f0" stroke-width="0.0"/><text x="202.59523809523807" y="260" fill="#fff" stroke-width="0.0" text-anchor="middle" font-family="Nimbus Sans" font-size="7.0pt">a</text><circle cx="147.59523809523807" cy="257.5952380952381" r="3.9285714285714306" stroke="#f00" fill="#f00" stroke-width="0.0"/><text x="147.59523809523807" y="260" fill="#fff" stroke-width="0.0" text-anchor="middle" font-family="Nimbus Sans" font-size="7.0pt">A</text><ellipse cx="37.59523809523809" cy="147.59523809523807" rx="3.928571428571427" ry="3.9285714285714306" stroke="#0f0" fill="#0f0" stroke-width="0.0"/><text x="37.595238095238095" y="150" fill="#fff" stroke-width="0.0" text-anchor="middle" font-family="Nimbus Sans" font-size="7.0pt">a</text><circle cx="92.5952380952381" cy="202.59523809523807" r="3.9285714285714306" stroke="#f00" fill="#f00" stroke-width="0.0"/><text x="92.5952380952381" y="205" fill="#fff" stroke-width="0.0" text-anchor="middle" font-family="Nimbus Sans" font-size="7.0pt">A</text><circle cx="101.23809523809524" cy="202.59523809523807" r="3.9285714285714306" stroke="#0f0" fill="#0f0" stroke-width="0.0"/><text x="101.23809523809524" y="205" fill="#fff" stroke-width="0.0" text-anchor="middle" font-family="Nimbus Sans" font-size="7.0pt">a</text><circle cx="202.59523809523807" cy="147.59523809523807" r="3.9285714285714306" stroke="#f00" fill="#f00" stroke-width="0.0"/><text x="202.59523809523807" y="150" fill="#fff" stroke-width="0.0" text-anchor="middle" font-family="Nimbus Sans" font-size="7.0pt">A</text><circle cx="211.23809523809524" cy="147.59523809523807" r="3.9285714285714306" stroke="#0f0" fill="#0f0" stroke-width="0.0"/><text x="211.2380952380952" y="150" fill="#fff" stroke-width="0.0" text-anchor="middle" font-family="Nimbus Sans" font-size="7.0pt">a</text></svg>