<?xml version="1.0" ?><!DOCTYPE svg  PUBLIC '-//W3C//DTD SVG 1.1//EN'  'http://www.w3.org/Graphics/SVG/1.1/DTD/svg11.dtd'><svg xmlns="http://www.w3.org/2000/svg" width="487.000" height="491.000" viewBox="-1.000 -5.000 487.000 491.000"><circle cx="30.0" cy="140.0" r="2.0" stroke="#d82626" fill="#d82626"/><circle cx="30.0" cy="250.0" r="2.0" stroke="#d82626" fill="#d82626"/><circle cx="470.0" cy="250.0" r="2.0" stroke="#d82626" fill="#d82626"/><circle cx="470.0" cy="470.0" r="2.0" stroke="#d82626" fill="#d82626"/><circle cx="140.0" cy="470.0" r="2.0" stroke="#d82626" fill="#d82626"/><circle cx="140.0" cy="30.0" r="2.0" stroke="#d82626" fill="#d82626"/><circle cx="250.0" cy="30.0" r="2.0" stroke="#d82626" fill="#d82626"/><circle cx="250.0" cy="360.0" r="2.0" stroke="#d82626" fill="#d82626"/><circle cx="360.0" cy="360.0" r="2.0" stroke="#d82626" fill="#d82626"/><circle cx="360.0" cy="140.0" r="2.0" stroke="#d82626" fill="#d82626"/><line x1="30.0" y1="140.0" x2="30.0" y2="250.0" stroke="#d82626" fill="none" stroke-width="3.0"/><line x1="30.0" y1="250.0" x2="470.0" y2="250.0" stroke="#d82626" fill="none" stroke-width="3.0"/><line x1="470.0" y1="250.0" x2="470.0" y2="470.0" stroke="#d82626" fill="none" stroke-width="3.0"/><line x1="470.0" y1="470.0" x2="140.0" y2="470.0" stroke="#d82626" fill="none" stroke-width="3.0"/><line x1="140.0" y1="470.0" x2="140.0" y2="30.0" stroke="#d82626" fill="none" stroke-width="3.0"/><line x1="140.0" y1="30.0" x2="250.0" y2="30.0" stroke="#d82626" fill="none" stroke-width="3.0"/><line x1="250.0" y1="30.0" x2="250.0" y2="360.0" stroke="#d82626" fill="none" stroke-width="3.0"/><line x1="250.0" y1="360.0" x2="360.0" y2="360.0" stroke="#d82626" fill="none" stroke-width="3.0"/><line x1="360.0" y1="360.0" x2="360.0" y2="140.0" stroke="#d82626" fill="none" stroke-width="3.0"/><line x1="360.0" y1="140.0" x2="30.0" y2="140.0" stroke="#d82626" fill="none" stroke-width="3.0"/><ellipse cx="45.19047619047619" cy="155.1904761904762" rx="7.857142857142858" ry="7.857142857142861" stroke="#f00" fill="#f00" stroke-width="0.0"/><text x="45.19047619047619" y="161" fill="#fff" stroke-width="0.0" text-anchor="middle" font-family="Nimbus Sans" font-size="14.0pt">A</text><circle cx="265.19047619047615" cy="265.19047619047615" r="7.857142857142861" stroke="#f00" fill="#f00" stroke-width="0.0"/><text x="265.19047619047615" y="271" fill="#fff" stroke-width="0.0" text-anchor="middle" font-family="Nimbus Sans" font-size="14.0pt">A</text><ellipse cx="155.1904761904762" cy="45.19047619047619" rx="7.857142857142861" ry="7.857142857142858" stroke="#f00" fill="#f00" stroke-width="0.0"/><text x="155.1904761904762" y="51" fill="#fff" stroke-width="0.0" text-anchor="middle" font-family="Nimbus Sans" font-size="14.0pt">A</text></svg>