<?xml version="1.0" ?><!DOCTYPE svg  PUBLIC '-//W3C//DTD SVG 1.1//EN'  'http://www.w3.org/Graphics/SVG/1.1/DTD/svg11.dtd'><svg xmlns="http://www.w3.org/2000/svg" width="487.000" height="463.000" viewBox="-1.000 -5.000 487.000 463.000"><circle cx="250.0" cy="57.5" r="2.0" stroke="#d82626" fill="#d82626"/><circle cx="85.0" cy="57.5" r="2.0" stroke="#d82626" fill="#d82626"/><circle cx="85.0" cy="387.5" r="2.0" stroke="#d82626" fill="#d82626"/><circle cx="250.0" cy="387.5" r="2.0" stroke="#d82626" fill="#d82626"/><circle cx="195.0" cy="167.5" r="2.0" stroke="#2626d8" fill="#2626d8"/><circle cx="305.0" cy="167.5" r="2.0" stroke="#2626d8" fill="#2626d8"/><circle cx="305.0" cy="222.5" r="2.0" stroke="#2626d8" fill="#2626d8"/><circle cx="140.0" cy="222.5" r="2.0" stroke="#2626d8" fill="#2626d8"/><circle cx="140.0" cy="112.5" r="2.0" stroke="#2626d8" fill="#2626d8"/><circle cx="470.0" cy="112.5" r="2.0" stroke="#2626d8" fill="#2626d8"/><circle cx="470.0" cy="332.5" r="2.0" stroke="#2626d8" fill="#2626d8"/><circle cx="30.0" cy="332.5" r="2.0" stroke="#2626d8" fill="#2626d8"/><circle cx="30.0" cy="442.5" r="2.0" stroke="#2626d8" fill="#2626d8"/><circle cx="415.0" cy="442.5" r="2.0" stroke="#2626d8" fill="#2626d8"/><circle cx="415.0" cy="57.5" r="2.0" stroke="#2626d8" fill="#2626d8"/><circle cx="360.0" cy="57.5" r="2.0" stroke="#2626d8" fill="#2626d8"/><circle cx="360.0" cy="277.5" r="2.0" stroke="#2626d8" fill="#2626d8"/><circle cx="195.0" cy="277.5" r="2.0" stroke="#2626d8" fill="#2626d8"/><line x1="250.0" y1="57.5" x2="85.0" y2="57.5" stroke="#d82626" fill="none" stroke-width="3.0"/><line x1="85.0" y1="57.5" x2="85.0" y2="387.5" stroke="#d82626" fill="none" stroke-width="3.0"/><line x1="85.0" y1="387.5" x2="250.0" y2="387.5" stroke="#d82626" fill="none" stroke-width="3.0"/><line x1="250.0" y1="387.5" x2="250.0" y2="57.5" stroke="#d82626" fill="none" stroke-width="3.0"/><line x1="195.0" y1="167.5" x2="305.0" y2="167.5" stroke="#2626d8" fill="none" stroke-width="3.0"/><line x1="305.0" y1="167.5" x2="305.0" y2="222.5" stroke="#2626d8" fill="none" stroke-width="3.0"/><line x1="305.0" y1="222.5" x2="140.0" y2="222.5" stroke="#2626d8" fill="none" stroke-width="3.0"/><line x1="140.0" y1="222.5" x2="140.0" y2="112.5" stroke="#2626d8" fill="none" stroke-width="3.0"/><line x1="140.0" y1="112.5" x2="470.0" y2="112.5" stroke="#2626d8" fill="none" stroke-width="3.0"/><line x1="470.0" y1="112.5" x2="470.0" y2="332.5" stroke="#2626d8" fill="none" stroke-width="3.0"/><line x1="470.0" y1="332.5" x2="30.0" y2="332.5" stroke="#2626d8" fill="none" stroke-width="3.0"/><line x1="30.0" y1="332.5" x2="30.0" y2="442.5" stroke="#2626d8" fill="none" stroke-width="3.0"/><line x1="30.0" y1="442.5" x2="415.0" y2="442.5" stroke="#2626d8" fill="none" stroke-width="3.0"/><line x1="415.0" y1="442.5" x2="415.0" y2="57.5" stroke="#2626d8" fill="none" stroke-width="3.0"/><line x1="415.0" y1="57.5" x2="360.0" y2="57.5" stroke="#2626d8" fill="none" stroke-width="3.0"/><line x1="360.0" y1="57.5" x2="360.0" y2="277.5" stroke="#2626d8" fill="none" stroke-width="3.0"/><line x1="360.0" y1="277.5" x2="195.0" y2="277.5" stroke="#2626d8" fill="none" stroke-width="3.0"/><line x1="195.0" y1="277.5" x2="195.0" y2="167.5" stroke="#2626d8" fill="none" stroke-width="3.0"/><ellipse cx="92.5952380952381" cy="340.0952380952381" rx="3.9285714285714306" ry="3.9285714285714164" stroke="#f00" fill="#f00" stroke-width="0.0"/><text x="92.5952380952381" y="343" fill="#fff" stroke-width="0.0" text-anchor="middle" font-family="Nimbus Sans" font-size="7.0pt">A</text><ellipse cx="101.23809523809524" cy="340.0952380952381" rx="3.9285714285714306" ry="3.9285714285714164" stroke="#0f0" fill="#0f0" stroke-width="0.0"/><text x="101.23809523809524" y="343" fill="#fff" stroke-width="0.0" text-anchor="middle" font-family="Nimbus Sans" font-size="7.0pt">a</text><circle cx="202.59523809523807" cy="230.09523809523807" r="3.9285714285714306" stroke="#0f0" fill="#0f0" stroke-width="0.0"/><text x="202.59523809523807" y="233" fill="#fff" stroke-width="0.0" text-anchor="middle" font-family="Nimbus Sans" font-size="7.0pt">a</text><circle cx="202.59523809523807" cy="175.09523809523807" r="3.9285714285714306" stroke="#f00" fill="#f00" stroke-width="0.0"/><text x="202.59523809523807" y="178" fill="#fff" stroke-width="0.0" text-anchor="middle" font-family="Nimbus Sans" font-size="7.0pt">A</text><circle cx="257.5952380952381" cy="175.09523809523807" r="3.9285714285714306" stroke="#f00" fill="#f00" stroke-width="0.0"/><text x="257.5952380952381" y="178" fill="#fff" stroke-width="0.0" text-anchor="middle" font-family="Nimbus Sans" font-size="7.0pt">A</text><ellipse cx="266.2380952380952" cy="175.09523809523807" rx="3.9285714285714164" ry="3.9285714285714306" stroke="#0f0" fill="#0f0" stroke-width="0.0"/><text x="266.23809523809524" y="178" fill="#fff" stroke-width="0.0" text-anchor="middle" font-family="Nimbus Sans" font-size="7.0pt">a</text><circle cx="147.59523809523807" cy="120.0952380952381" r="3.9285714285714306" stroke="#0f0" fill="#0f0" stroke-width="0.0"/><text x="147.59523809523807" y="123" fill="#fff" stroke-width="0.0" text-anchor="middle" font-family="Nimbus Sans" font-size="7.0pt">a</text><ellipse cx="422.5952380952381" cy="120.0952380952381" rx="3.9285714285714164" ry="3.9285714285714306" stroke="#f00" fill="#f00" stroke-width="0.0"/><text x="422.59523809523813" y="123" fill="#fff" stroke-width="0.0" text-anchor="middle" font-family="Nimbus Sans" font-size="7.0pt">A</text><ellipse cx="431.2380952380953" cy="120.0952380952381" rx="3.9285714285714164" ry="3.9285714285714306" stroke="#0f0" fill="#0f0" stroke-width="0.0"/><text x="431.2380952380953" y="123" fill="#fff" stroke-width="0.0" text-anchor="middle" font-family="Nimbus Sans" font-size="7.0pt">a</text><ellipse cx="367.5952380952381" cy="65.09523809523809" rx="3.9285714285714164" ry="3.928571428571427" stroke="#f00" fill="#f00" stroke-width="0.0"/><text x="367.59523809523813" y="68" fill="#fff" stroke-width="0.0" text-anchor="middle" font-family="Nimbus Sans" font-size="7.0pt">A</text><ellipse cx="376.2380952380953" cy="65.09523809523809" rx="3.9285714285714164" ry="3.928571428571427" stroke="#0f0" fill="#0f0" stroke-width="0.0"/><text x="376.2380952380953" y="68" fill="#fff" stroke-width="0.0" text-anchor="middle" font-family="Nimbus Sans" font-size="7.0pt">a</text></svg>