<?xml version="1.0" ?><!DOCTYPE svg  PUBLIC '-//W3C//DTD SVG 1.1//EN'  'http://www.w3.org/Graphics/SVG/1.1/DTD/svg11.dtd'><svg xmlns="http://www.w3.org/2000/svg" width="487.000" height="442.000" viewBox="-1.000 -5.000 487.000 442.000"><circle cx="421.44444444444446" cy="323.6" r="2.0" stroke="#d82626" fill="#d82626"/><circle cx="421.44444444444446" cy="128.17142857142858" r="2.0" stroke="#d82626" fill="#d82626"/><circle cx="372.5555555555556" cy="128.17142857142858" r="2.0" stroke="#d82626" fill="#d82626"/><circle cx="372.5555555555556" cy="372.4571428571429" r="2.0" stroke="#d82626" fill="#d82626"/><circle cx="323.6666666666667" cy="372.4571428571429" r="2.0" stroke="#d82626" fill="#d82626"/><circle cx="323.6666666666667" cy="225.8857142857143" r="2.0" stroke="#d82626" fill="#d82626"/><circle cx="177.0" cy="225.8857142857143" r="2.0" stroke="#d82626" fill="#d82626"/><circle cx="177.0" cy="372.4571428571429" r="2.0" stroke="#d82626" fill="#d82626"/><circle cx="225.8888888888889" cy="372.4571428571429" r="2.0" stroke="#d82626" fill="#d82626"/><circle cx="225.8888888888889" cy="274.74285714285713" r="2.0" stroke="#d82626" fill="#d82626"/><circle cx="274.7777777777778" cy="274.74285714285713" r="2.0" stroke="#d82626" fill="#d82626"/><circle cx="274.7777777777778" cy="421.31428571428575" r="2.0" stroke="#d82626" fill="#d82626"/><circle cx="128.11111111111111" cy="421.31428571428575" r="2.0" stroke="#d82626" fill="#d82626"/><circle cx="128.11111111111111" cy="128.17142857142858" r="2.0" stroke="#d82626" fill="#d82626"/><circle cx="79.22222222222223" cy="128.17142857142858" r="2.0" stroke="#d82626" fill="#d82626"/><circle cx="79.22222222222223" cy="323.6" r="2.0" stroke="#d82626" fill="#d82626"/><circle cx="470.33333333333337" cy="177.02857142857144" r="2.0" stroke="#2626d8" fill="#2626d8"/><circle cx="470.33333333333337" cy="79.31428571428572" r="2.0" stroke="#2626d8" fill="#2626d8"/><circle cx="30.333333333333336" cy="79.31428571428572" r="2.0" stroke="#2626d8" fill="#2626d8"/><circle cx="30.333333333333336" cy="177.02857142857144" r="2.0" stroke="#2626d8" fill="#2626d8"/><line x1="421.44444444444446" y1="323.6" x2="421.44444444444446" y2="128.17142857142858" stroke="#d82626" fill="none" stroke-width="3.0"/><line x1="421.44444444444446" y1="128.17142857142858" x2="372.5555555555556" y2="128.17142857142858" stroke="#d82626" fill="none" stroke-width="3.0"/><line x1="372.5555555555556" y1="128.17142857142858" x2="372.5555555555556" y2="372.4571428571429" stroke="#d82626" fill="none" stroke-width="3.0"/><line x1="372.5555555555556" y1="372.4571428571429" x2="323.6666666666667" y2="372.4571428571429" stroke="#d82626" fill="none" stroke-width="3.0"/><line x1="323.6666666666667" y1="372.4571428571429" x2="323.6666666666667" y2="225.8857142857143" stroke="#d82626" fill="none" stroke-width="3.0"/><line x1="323.6666666666667" y1="225.8857142857143" x2="177.0" y2="225.8857142857143" stroke="#d82626" fill="none" stroke-width="3.0"/><line x1="177.0" y1="225.8857142857143" x2="177.0" y2="372.4571428571429" stroke="#d82626" fill="none" stroke-width="3.0"/><line x1="177.0" y1="372.4571428571429" x2="225.8888888888889" y2="372.4571428571429" stroke="#d82626" fill="none" stroke-width="3.0"/><line x1="225.8888888888889" y1="372.4571428571429" x2="225.8888888888889" y2="274.74285714285713" stroke="#d82626" fill="none" stroke-width="3.0"/><line x1="225.8888888888889" y1="274.74285714285713" x2="274.7777777777778" y2="274.74285714285713" stroke="#d82626" fill="none" stroke-width="3.0"/><line x1="274.7777777777778" y1="274.74285714285713" x2="274.7777777777778" y2="421.31428571428575" stroke="#d82626" fill="none" stroke-width="3.0"/><line x1="274.7777777777778" y1="421.31428571428575" x2="128.11111111111111" y2="421.31428571428575" stroke="#d82626" fill="none" stroke-width="3.0"/><line x1="128.11111111111111" y1="421.31428571428575" x2="128.11111111111111" y2="128.17142857142858" stroke="#d82626" fill="none" stroke-width="3.0"/><line x1="128.11111111111111" y1="128.17142857142858" x2="79.22222222222223" y2="128.17142857142858" stroke="#d82626" fill="none" stroke-width="3.0"/><line x1="79.22222222222223" y1="128.17142857142858" x2="79.22222222222223" y2="323.6" stroke="#d82626" fill="none" stroke-width="3.0"/><line x1="79.22222222222223" y1="323.6" x2="421.44444444444446" y2="323.6" stroke="#d82626" fill="none" stroke-width="3.0"/><line x1="470.33333333333337" y1="177.02857142857144" x2="470.33333333333337" y2="79.31428571428572" stroke="#2626d8" fill="none" stroke-width="3.0"/><line x1="470.33333333333337" y1="79.31428571428572" x2="30.333333333333336" y2="79.31428571428572" stroke="#2626d8" fill="none" stroke-width="3.0"/><line x1="30.333333333333336" y1="79.31428571428572" x2="30.333333333333336" y2="177.02857142857144" stroke="#2626d8" fill="none" stroke-width="3.0"/><line x1="30.333333333333336" y1="177.02857142857144" x2="470.33333333333337" y2="177.02857142857144" stroke="#2626d8" fill="none" stroke-width="3.0"/><circle cx="379.30687830687833" cy="134.92275132275134" r="3.492063492063494" stroke="#f00" fill="#f00" stroke-width="0.0"/><text x="379.30687830687833" y="138" fill="#fff" stroke-width="0.0" text-anchor="middle" font-family="Nimbus Sans" font-size="6.0pt">A</text><circle cx="330.4179894179894" cy="330.35132275132275" r="3.492063492063494" stroke="#f00" fill="#f00" stroke-width="0.0"/><text x="330.4179894179894" y="333" fill="#fff" stroke-width="0.0" text-anchor="middle" font-family="Nimbus Sans" font-size="6.0pt">A</text><circle cx="183.75132275132276" cy="330.35132275132275" r="3.492063492063494" stroke="#f00" fill="#f00" stroke-width="0.0"/><text x="183.75132275132276" y="333" fill="#fff" stroke-width="0.0" text-anchor="middle" font-family="Nimbus Sans" font-size="6.0pt">A</text><circle cx="232.64021164021167" cy="281.49417989417987" r="3.492063492063494" stroke="#f00" fill="#f00" stroke-width="0.0"/><text x="232.64021164021167" y="284" fill="#fff" stroke-width="0.0" text-anchor="middle" font-family="Nimbus Sans" font-size="6.0pt">A</text><ellipse cx="85.97354497354496" cy="134.92275132275134" rx="3.4920634920634868" ry="3.492063492063494" stroke="#f00" fill="#f00" stroke-width="0.0"/><text x="85.97354497354497" y="138" fill="#fff" stroke-width="0.0" text-anchor="middle" font-family="Nimbus Sans" font-size="6.0pt">A</text></svg>