<?xml version="1.0" ?><!DOCTYPE svg  PUBLIC '-//W3C//DTD SVG 1.1//EN'  'http://www.w3.org/Graphics/SVG/1.1/DTD/svg11.dtd'><svg xmlns="http://www.w3.org/2000/svg" width="486.000" height="459.000" viewBox="-1.000 -5.000 486.000 459.000"><circle cx="281.1428571428571" cy="61.2" r="2.0" stroke="#d82626" fill="#d82626"/><circle cx="406.85714285714283" cy="61.2" r="2.0" stroke="#d82626" fill="#d82626"/><circle cx="406.85714285714283" cy="375.3666666666667" r="2.0" stroke="#d82626" fill="#d82626"/><circle cx="344.0" cy="375.3666666666667" r="2.0" stroke="#d82626" fill="#d82626"/><circle cx="344.0" cy="249.7" r="2.0" stroke="#d82626" fill="#d82626"/><circle cx="155.42857142857142" cy="249.7" r="2.0" stroke="#d82626" fill="#d82626"/><circle cx="155.42857142857142" cy="312.5333333333333" r="2.0" stroke="#d82626" fill="#d82626"/><circle cx="469.7142857142857" cy="312.5333333333333" r="2.0" stroke="#d82626" fill="#d82626"/><circle cx="469.7142857142857" cy="124.03333333333333" r="2.0" stroke="#d82626" fill="#d82626"/><circle cx="29.714285714285715" cy="124.03333333333333" r="2.0" stroke="#d82626" fill="#d82626"/><circle cx="29.714285714285715" cy="375.3666666666667" r="2.0" stroke="#d82626" fill="#d82626"/><circle cx="281.1428571428571" cy="375.3666666666667" r="2.0" stroke="#d82626" fill="#d82626"/><circle cx="218.28571428571428" cy="186.86666666666667" r="2.0" stroke="#2626d8" fill="#2626d8"/><circle cx="92.57142857142857" cy="186.86666666666667" r="2.0" stroke="#2626d8" fill="#2626d8"/><circle cx="92.57142857142857" cy="438.2" r="2.0" stroke="#2626d8" fill="#2626d8"/><circle cx="218.28571428571428" cy="438.2" r="2.0" stroke="#2626d8" fill="#2626d8"/><line x1="281.1428571428571" y1="61.2" x2="406.85714285714283" y2="61.2" stroke="#d82626" fill="none" stroke-width="6.0"/><line x1="406.85714285714283" y1="61.2" x2="406.85714285714283" y2="375.3666666666667" stroke="#d82626" fill="none" stroke-width="6.0"/><line x1="406.85714285714283" y1="375.3666666666667" x2="344.0" y2="375.3666666666667" stroke="#d82626" fill="none" stroke-width="6.0"/><line x1="344.0" y1="375.3666666666667" x2="344.0" y2="249.7" stroke="#d82626" fill="none" stroke-width="6.0"/><line x1="344.0" y1="249.7" x2="155.42857142857142" y2="249.7" stroke="#d82626" fill="none" stroke-width="6.0"/><line x1="155.42857142857142" y1="249.7" x2="155.42857142857142" y2="312.5333333333333" stroke="#d82626" fill="none" stroke-width="6.0"/><line x1="155.42857142857142" y1="312.5333333333333" x2="469.7142857142857" y2="312.5333333333333" stroke="#d82626" fill="none" stroke-width="6.0"/><line x1="469.7142857142857" y1="312.5333333333333" x2="469.7142857142857" y2="124.03333333333333" stroke="#d82626" fill="none" stroke-width="6.0"/><line x1="469.7142857142857" y1="124.03333333333333" x2="29.714285714285715" y2="124.03333333333333" stroke="#d82626" fill="none" stroke-width="6.0"/><line x1="29.714285714285715" y1="124.03333333333333" x2="29.714285714285715" y2="375.3666666666667" stroke="#d82626" fill="none" stroke-width="6.0"/><line x1="29.714285714285715" y1="375.3666666666667" x2="281.1428571428571" y2="375.3666666666667" stroke="#d82626" fill="none" stroke-width="6.0"/><line x1="281.1428571428571" y1="375.3666666666667" x2="281.1428571428571" y2="61.2" stroke="#d82626" fill="none" stroke-width="6.0"/><line x1="218.28571428571428" y1="186.86666666666667" x2="92.57142857142857" y2="186.86666666666667" stroke="#2626d8" fill="none" stroke-width="6.0"/><line x1="92.57142857142857" y1="186.86666666666667" x2="92.57142857142857" y2="438.2" stroke="#2626d8" fill="none" stroke-width="6.0"/><line x1="92.57142857142857" y1="438.2" x2="218.28571428571428" y2="438.2" stroke="#2626d8" fill="none" stroke-width="6.0"/><line x1="218.28571428571428" y1="438.2" x2="218.28571428571428" y2="186.86666666666667" stroke="#2626d8" fill="none" stroke-width="6.0"/><ellipse cx="289.8198412698412" cy="69.87698412698413" rx="4.488095238095241" ry="4.488095238095234" stroke="#f00" fill="#f00" stroke-width="0.0"/><text x="289.8198412698412" y="74" fill="#fff" stroke-width="0.0" text-anchor="middle" font-family="Nimbus Sans" font-size="8.0pt">A</text><circle cx="352.6769841269841" cy="321.2103174603174" r="4.488095238095241" stroke="#f00" fill="#f00" stroke-width="0.0"/><text x="352.6769841269841" y="325" fill="#fff" stroke-width="0.0" text-anchor="middle" font-family="Nimbus Sans" font-size="8.0pt">A</text><circle cx="415.53412698412694" cy="132.71031746031747" r="4.488095238095241" stroke="#f00" fill="#f00" stroke-width="0.0"/><text x="415.53412698412694" y="137" fill="#fff" stroke-width="0.0" text-anchor="middle" font-family="Nimbus Sans" font-size="8.0pt">A</text><ellipse cx="164.10555555555555" cy="258.3769841269841" rx="4.488095238095241" ry="4.488095238095227" stroke="#f00" fill="#f00" stroke-width="0.0"/><text x="164.10555555555555" y="262" fill="#fff" stroke-width="0.0" text-anchor="middle" font-family="Nimbus Sans" font-size="8.0pt">A</text><ellipse cx="101.2484126984127" cy="384.0436507936508" rx="4.488095238095234" ry="4.488095238095241" stroke="#f00" fill="#f00" stroke-width="0.0"/><text x="101.24841269841271" y="388" fill="#fff" stroke-width="0.0" text-anchor="middle" font-family="Nimbus Sans" font-size="8.0pt">A</text></svg>