<?xml version="1.0" ?><!DOCTYPE svg  PUBLIC '-//W3C//DTD SVG 1.1//EN'  'http://www.w3.org/Graphics/SVG/1.1/DTD/svg11.dtd'><svg xmlns="http://www.w3.org/2000/svg" width="487.000" height="417.000" viewBox="-1.000 -5.000 487.000 417.000"><circle cx="103.33333333333333" cy="103.45" r="2.0" stroke="#d82626" fill="#d82626"/><circle cx="176.66666666666666" cy="103.45" r="2.0" stroke="#d82626" fill="#d82626"/><circle cx="176.66666666666666" cy="323.2" r="2.0" stroke="#d82626" fill="#d82626"/><circle cx="250.0" cy="323.2" r="2.0" stroke="#d82626" fill="#d82626"/><circle cx="250.0" cy="103.45" r="2.0" stroke="#d82626" fill="#d82626"/><circle cx="323.3333333333333" cy="103.45" r="2.0" stroke="#d82626" fill="#d82626"/><circle cx="323.3333333333333" cy="323.2" r="2.0" stroke="#d82626" fill="#d82626"/><circle cx="396.66666666666663" cy="323.2" r="2.0" stroke="#d82626" fill="#d82626"/><circle cx="396.66666666666663" cy="176.7" r="2.0" stroke="#d82626" fill="#d82626"/><circle cx="30.0" cy="176.7" r="2.0" stroke="#d82626" fill="#d82626"/><circle cx="30.0" cy="249.95000000000002" r="2.0" stroke="#d82626" fill="#d82626"/><circle cx="470.0" cy="249.95000000000002" r="2.0" stroke="#d82626" fill="#d82626"/><circle cx="470.0" cy="396.45" r="2.0" stroke="#d82626" fill="#d82626"/><circle cx="103.33333333333333" cy="396.45" r="2.0" stroke="#d82626" fill="#d82626"/><line x1="103.33333333333333" y1="103.45" x2="176.66666666666666" y2="103.45" stroke="#d82626" fill="none" stroke-width="6.0"/><line x1="176.66666666666666" y1="103.45" x2="176.66666666666666" y2="323.2" stroke="#d82626" fill="none" stroke-width="6.0"/><line x1="176.66666666666666" y1="323.2" x2="250.0" y2="323.2" stroke="#d82626" fill="none" stroke-width="6.0"/><line x1="250.0" y1="323.2" x2="250.0" y2="103.45" stroke="#d82626" fill="none" stroke-width="6.0"/><line x1="250.0" y1="103.45" x2="323.3333333333333" y2="103.45" stroke="#d82626" fill="none" stroke-width="6.0"/><line x1="323.3333333333333" y1="103.45" x2="323.3333333333333" y2="323.2" stroke="#d82626" fill="none" stroke-width="6.0"/><line x1="323.3333333333333" y1="323.2" x2="396.66666666666663" y2="323.2" stroke="#d82626" fill="none" stroke-width="6.0"/><line x1="396.66666666666663" y1="323.2" x2="396.66666666666663" y2="176.7" stroke="#d82626" fill="none" stroke-width="6.0"/><line x1="396.66666666666663" y1="176.7" x2="30.0" y2="176.7" stroke="#d82626" fill="none" stroke-width="6.0"/><line x1="30.0" y1="176.7" x2="30.0" y2="249.95000000000002" stroke="#d82626" fill="none" stroke-width="6.0"/><line x1="30.0" y1="249.95000000000002" x2="470.0" y2="249.95000000000002" stroke="#d82626" fill="none" stroke-width="6.0"/><line x1="470.0" y1="249.95000000000002" x2="470.0" y2="396.45" stroke="#d82626" fill="none" stroke-width="6.0"/><line x1="470.0" y1="396.45" x2="103.33333333333333" y2="396.45" stroke="#d82626" fill="none" stroke-width="6.0"/><line x1="103.33333333333333" y1="396.45" x2="103.33333333333333" y2="103.45" stroke="#d82626" fill="none" stroke-width="6.0"/><text x="34.88333333333333" y="269" fill="#000" stroke-width="0.0" font-family="Nimbus Sans" font-size="14.0pt" font-weight="bold">11</text><text x="108.21666666666667" y="122" fill="#000" stroke-width="0.0" font-family="Nimbus Sans" font-size="14.0pt" font-weight="bold">10</text><text x="181.54999999999998" y="269" fill="#000" stroke-width="0.0" font-family="Nimbus Sans" font-size="14.0pt" font-weight="bold">2</text><text x="108.21666666666667" y="269" fill="#000" stroke-width="0.0" font-family="Nimbus Sans" font-size="14.0pt" font-weight="bold">7</text><text x="254.88333333333333" y="122" fill="#000" stroke-width="0.0" font-family="Nimbus Sans" font-size="14.0pt" font-weight="bold">1</text><text x="254.88333333333333" y="196" fill="#000" stroke-width="0.0" font-family="Nimbus Sans" font-size="14.0pt" font-weight="bold">4</text><text x="181.54999999999998" y="196" fill="#000" stroke-width="0.0" font-family="Nimbus Sans" font-size="14.0pt" font-weight="bold">3</text><text x="328.21666666666664" y="269" fill="#000" stroke-width="0.0" font-family="Nimbus Sans" font-size="14.0pt" font-weight="bold">5</text><text x="328.21666666666664" y="196" fill="#000" stroke-width="0.0" font-family="Nimbus Sans" font-size="14.0pt" font-weight="bold">6</text><text x="108.21666666666671" y="196" fill="#000" stroke-width="0.0" font-family="Nimbus Sans" font-size="14.0pt" font-weight="bold">9</text><text x="34.88333333333333" y="196" fill="#000" stroke-width="0.0" font-family="Nimbus Sans" font-size="14.0pt" font-weight="bold">8</text></svg>