<?xml version="1.0" ?><!DOCTYPE svg  PUBLIC '-//W3C//DTD SVG 1.1//EN'  'http://www.w3.org/Graphics/SVG/1.1/DTD/svg11.dtd'><svg xmlns="http://www.w3.org/2000/svg" width="487.000" height="454.000" viewBox="-1.000 -5.000 487.000 454.000"><circle cx="396.66666666666663" cy="66.53999999999999" r="2.0" stroke="#d82626" fill="#d82626"/><circle cx="323.3333333333333" cy="66.53999999999999" r="2.0" stroke="#d82626" fill="#d82626"/><circle cx="323.3333333333333" cy="360.14" r="2.0" stroke="#d82626" fill="#d82626"/><circle cx="176.66666666666666" cy="360.14" r="2.0" stroke="#d82626" fill="#d82626"/><circle cx="176.66666666666666" cy="139.94" r="2.0" stroke="#d82626" fill="#d82626"/><circle cx="30.0" cy="139.94" r="2.0" stroke="#d82626" fill="#d82626"/><circle cx="30.0" cy="433.53999999999996" r="2.0" stroke="#d82626" fill="#d82626"/><circle cx="250.0" cy="433.53999999999996" r="2.0" stroke="#d82626" fill="#d82626"/><circle cx="250.0" cy="139.94" r="2.0" stroke="#d82626" fill="#d82626"/><circle cx="470.0" cy="139.94" r="2.0" stroke="#d82626" fill="#d82626"/><circle cx="470.0" cy="213.34" r="2.0" stroke="#d82626" fill="#d82626"/><circle cx="103.33333333333333" cy="213.34" r="2.0" stroke="#d82626" fill="#d82626"/><circle cx="103.33333333333333" cy="286.74" r="2.0" stroke="#d82626" fill="#d82626"/><circle cx="396.66666666666663" cy="286.74" r="2.0" stroke="#d82626" fill="#d82626"/><line x1="396.66666666666663" y1="66.53999999999999" x2="323.3333333333333" y2="66.53999999999999" stroke="#d82626" fill="none" stroke-width="6.0"/><line x1="323.3333333333333" y1="66.53999999999999" x2="323.3333333333333" y2="360.14" stroke="#d82626" fill="none" stroke-width="6.0"/><line x1="323.3333333333333" y1="360.14" x2="176.66666666666666" y2="360.14" stroke="#d82626" fill="none" stroke-width="6.0"/><line x1="176.66666666666666" y1="360.14" x2="176.66666666666666" y2="139.94" stroke="#d82626" fill="none" stroke-width="6.0"/><line x1="176.66666666666666" y1="139.94" x2="30.0" y2="139.94" stroke="#d82626" fill="none" stroke-width="6.0"/><line x1="30.0" y1="139.94" x2="30.0" y2="433.53999999999996" stroke="#d82626" fill="none" stroke-width="6.0"/><line x1="30.0" y1="433.53999999999996" x2="250.0" y2="433.53999999999996" stroke="#d82626" fill="none" stroke-width="6.0"/><line x1="250.0" y1="433.53999999999996" x2="250.0" y2="139.94" stroke="#d82626" fill="none" stroke-width="6.0"/><line x1="250.0" y1="139.94" x2="470.0" y2="139.94" stroke="#d82626" fill="none" stroke-width="6.0"/><line x1="470.0" y1="139.94" x2="470.0" y2="213.34" stroke="#d82626" fill="none" stroke-width="6.0"/><line x1="470.0" y1="213.34" x2="103.33333333333333" y2="213.34" stroke="#d82626" fill="none" stroke-width="6.0"/><line x1="103.33333333333333" y1="213.34" x2="103.33333333333333" y2="286.74" stroke="#d82626" fill="none" stroke-width="6.0"/><line x1="103.33333333333333" y1="286.74" x2="396.66666666666663" y2="286.74" stroke="#d82626" fill="none" stroke-width="6.0"/><line x1="396.66666666666663" y1="286.74" x2="396.66666666666663" y2="66.53999999999999" stroke="#d82626" fill="none" stroke-width="6.0"/></svg>