<?xml version="1.0" ?><!DOCTYPE svg  PUBLIC '-//W3C//DTD SVG 1.1//EN'  'http://www.w3.org/Graphics/SVG/1.1/DTD/svg11.dtd'><svg xmlns="http://www.w3.org/2000/svg" width="487.000" height="491.000" viewBox="-1.000 -5.000 487.000 491.000"><text x="10.0" y="21" fill="#000000" stroke-width="0.0" font-family="Nimbus Sans" font-size="16.0pt" font-weight="bold">1 component, 12 regions</text><circle cx="30.0" cy="176.66666666666666" r="2.0" stroke="#d82626" fill="#d82626"/><circle cx="30.0" cy="323.3333333333333" r="2.0" stroke="#d82626" fill="#d82626"/><circle cx="396.66666666666663" cy="323.3333333333333" r="2.0" stroke="#d82626" fill="#d82626"/><circle cx="396.66666666666663" cy="103.33333333333333" r="2.0" stroke="#d82626" fill="#d82626"/><circle cx="176.66666666666666" cy="103.33333333333333" r="2.0" stroke="#d82626" fill="#d82626"/><circle cx="176.66666666666666" cy="470.0" r="2.0" stroke="#d82626" fill="#d82626"/><circle cx="323.3333333333333" cy="470.0" r="2.0" stroke="#d82626" fill="#d82626"/><circle cx="323.3333333333333" cy="30.0" r="2.0" stroke="#d82626" fill="#d82626"/><circle cx="103.33333333333333" cy="30.0" r="2.0" stroke="#d82626" fill="#d82626"/><circle cx="103.33333333333333" cy="250.0" r="2.0" stroke="#d82626" fill="#d82626"/><circle cx="250.0" cy="250.0" r="2.0" stroke="#d82626" fill="#d82626"/><circle cx="250.0" cy="396.66666666666663" r="2.0" stroke="#d82626" fill="#d82626"/><circle cx="470.0" cy="396.66666666666663" r="2.0" stroke="#d82626" fill="#d82626"/><circle cx="470.0" cy="176.66666666666666" r="2.0" stroke="#d82626" fill="#d82626"/><line x1="30.0" y1="176.66666666666666" x2="30.0" y2="323.3333333333333" stroke="#d82626" fill="none" stroke-width="3.0"/><polygon points="30.0 323.3333333333333 27.0 313.3333333333333 30.0 315.3333333333333 33.0 313.3333333333333" fill="#d82626"/><line x1="30.0" y1="323.3333333333333" x2="396.66666666666663" y2="323.3333333333333" stroke="#d82626" fill="none" stroke-width="3.0"/><polygon points="396.66666666666663 323.3333333333333 386.66666666666663 326.3333333333333 388.66666666666663 323.3333333333333 386.66666666666663 320.3333333333333" fill="#d82626"/><line x1="396.66666666666663" y1="323.3333333333333" x2="396.66666666666663" y2="103.33333333333333" stroke="#d82626" fill="none" stroke-width="3.0"/><polygon points="396.66666666666663 103.33333333333333 399.66666666666663 113.33333333333333 396.66666666666663 111.33333333333333 393.66666666666663 113.33333333333333" fill="#d82626"/><line x1="396.66666666666663" y1="103.33333333333333" x2="176.66666666666666" y2="103.33333333333333" stroke="#d82626" fill="none" stroke-width="3.0"/><polygon points="176.66666666666666 103.33333333333333 186.66666666666666 100.33333333333333 184.66666666666666 103.33333333333333 186.66666666666666 106.33333333333333" fill="#d82626"/><line x1="176.66666666666666" y1="103.33333333333333" x2="176.66666666666666" y2="470.0" stroke="#d82626" fill="none" stroke-width="3.0"/><polygon points="176.66666666666666 470.0 173.66666666666666 460.0 176.66666666666666 462.0 179.66666666666666 460.0" fill="#d82626"/><line x1="176.66666666666666" y1="470.0" x2="323.3333333333333" y2="470.0" stroke="#d82626" fill="none" stroke-width="3.0"/><polygon points="323.3333333333333 470.0 313.3333333333333 473.0 315.3333333333333 470.0 313.3333333333333 467.0" fill="#d82626"/><line x1="323.3333333333333" y1="470.0" x2="323.3333333333333" y2="30.0" stroke="#d82626" fill="none" stroke-width="3.0"/><polygon points="323.3333333333333 30.0 326.3333333333333 40.0 323.3333333333333 38.0 320.3333333333333 40.0" fill="#d82626"/><line x1="323.3333333333333" y1="30.0" x2="103.33333333333333" y2="30.0" stroke="#d82626" fill="none" stroke-width="3.0"/><polygon points="103.33333333333333 30.0 113.33333333333333 27.0 111.33333333333333 30.0 113.33333333333333 33.0" fill="#d82626"/><line x1="103.33333333333333" y1="30.0" x2="103.33333333333333" y2="250.0" stroke="#d82626" fill="none" stroke-width="3.0"/><polygon points="103.33333333333333 250.0 100.33333333333333 240.0 103.33333333333333 242.0 106.33333333333333 240.0" fill="#d82626"/><line x1="103.33333333333333" y1="250.0" x2="250.0" y2="250.0" stroke="#d82626" fill="none" stroke-width="3.0"/><polygon points="250.0 250.0 240.0 253.0 242.0 250.0 240.0 247.0" fill="#d82626"/><line x1="250.0" y1="250.0" x2="250.0" y2="396.66666666666663" stroke="#d82626" fill="none" stroke-width="3.0"/><polygon points="250.0 396.66666666666663 247.0 386.66666666666663 250.0 388.66666666666663 253.0 386.66666666666663" fill="#d82626"/><line x1="250.0" y1="396.66666666666663" x2="470.0" y2="396.66666666666663" stroke="#d82626" fill="none" stroke-width="3.0"/><polygon points="470.0 396.66666666666663 460.0 399.66666666666663 462.0 396.66666666666663 460.0 393.66666666666663" fill="#d82626"/><line x1="470.0" y1="396.66666666666663" x2="470.0" y2="176.66666666666666" stroke="#d82626" fill="none" stroke-width="3.0"/><polygon points="470.0 176.66666666666666 473.0 186.66666666666666 470.0 184.66666666666666 467.0 186.66666666666666" fill="#d82626"/><line x1="470.0" y1="176.66666666666666" x2="30.0" y2="176.66666666666666" stroke="#d82626" fill="none" stroke-width="3.0"/><polygon points="30.0 176.66666666666666 40.0 173.66666666666666 38.0 176.66666666666666 40.0 179.66666666666666" fill="#d82626"/><text x="34.888888888888886" y="196" fill="#000" stroke-width="0.0" font-family="Nimbus Sans" font-size="14.0pt" font-weight="bold">3</text><text x="34.888888888888886" y="342" fill="#000" stroke-width="0.0" font-family="Nimbus Sans" font-size="14.0pt" font-weight="bold">5</text><text x="328.22222222222223" y="196" fill="#000" stroke-width="0.0" font-family="Nimbus Sans" font-size="14.0pt" font-weight="bold">3</text><text x="328.22222222222223" y="342" fill="#000" stroke-width="0.0" font-family="Nimbus Sans" font-size="14.0pt" font-weight="bold">3</text><text x="181.55555555555554" y="196" fill="#000" stroke-width="0.0" font-family="Nimbus Sans" font-size="14.0pt" font-weight="bold">5</text><text x="254.88888888888886" y="342" fill="#000" stroke-width="0.0" font-family="Nimbus Sans" font-size="14.0pt" font-weight="bold">3</text><text x="328.22222222222223" y="122" fill="#000" stroke-width="0.0" font-family="Nimbus Sans" font-size="14.0pt" font-weight="bold">3</text><text x="181.55555555555554" y="122" fill="#000" stroke-width="0.0" font-family="Nimbus Sans" font-size="14.0pt" font-weight="bold">3</text><text x="108.22222222222221" y="49" fill="#000" stroke-width="0.0" font-family="Nimbus Sans" font-size="14.0pt" font-weight="bold">3</text><text x="181.55555555555554" y="269" fill="#000" stroke-width="0.0" font-family="Nimbus Sans" font-size="14.0pt" font-weight="bold">3</text><text x="181.55555555555551" y="342" fill="#000" stroke-width="0.0" font-family="Nimbus Sans" font-size="14.0pt" font-weight="bold">3</text><text x="108.2222222222222" y="196" fill="#000" stroke-width="0.0" font-family="Nimbus Sans" font-size="14.0pt" font-weight="bold">3</text></svg>