<?xml version="1.0" ?><!DOCTYPE svg  PUBLIC '-//W3C//DTD SVG 1.1//EN'  'http://www.w3.org/Graphics/SVG/1.1/DTD/svg11.dtd'><svg xmlns="http://www.w3.org/2000/svg" width="486.000" height="506.000" viewBox="-1.000 -5.000 486.000 506.000"><text x="10.0" y="21" fill="#d82626" stroke-width="0.0" font-family="Nimbus Sans" font-size="16.0pt" font-weight="bold">0</text><text x="26.0" y="21" fill="#2626d8" stroke-width="0.0" font-family="Nimbus Sans" font-size="16.0pt" font-weight="bold">1</text><text x="42.0" y="21" fill="#26d826" stroke-width="0.0" font-family="Nimbus Sans" font-size="16.0pt" font-weight="bold">2</text><circle cx="344.0" cy="29.714285714285715" r="2.0" stroke="#d82626" fill="#d82626"/><circle cx="92.57142857142857" cy="29.714285714285715" r="2.0" stroke="#d82626" fill="#d82626"/><circle cx="92.57142857142857" cy="344.0" r="2.0" stroke="#d82626" fill="#d82626"/><circle cx="406.85714285714283" cy="344.0" r="2.0" stroke="#d82626" fill="#d82626"/><circle cx="406.85714285714283" cy="155.42857142857142" r="2.0" stroke="#d82626" fill="#d82626"/><circle cx="218.28571428571428" cy="155.42857142857142" r="2.0" stroke="#d82626" fill="#d82626"/><circle cx="218.28571428571428" cy="406.85714285714283" r="2.0" stroke="#d82626" fill="#d82626"/><circle cx="344.0" cy="406.85714285714283" r="2.0" stroke="#d82626" fill="#d82626"/><circle cx="155.42857142857142" cy="218.28571428571428" r="2.0" stroke="#2626d8" fill="#2626d8"/><circle cx="155.42857142857142" cy="92.57142857142857" r="2.0" stroke="#2626d8" fill="#2626d8"/><circle cx="469.7142857142857" cy="92.57142857142857" r="2.0" stroke="#2626d8" fill="#2626d8"/><circle cx="469.7142857142857" cy="218.28571428571428" r="2.0" stroke="#2626d8" fill="#2626d8"/><circle cx="29.714285714285715" cy="281.1428571428571" r="2.0" stroke="#26d826" fill="#26d826"/><circle cx="29.714285714285715" cy="469.7142857142857" r="2.0" stroke="#26d826" fill="#26d826"/><circle cx="281.1428571428571" cy="469.7142857142857" r="2.0" stroke="#26d826" fill="#26d826"/><circle cx="281.1428571428571" cy="281.1428571428571" r="2.0" stroke="#26d826" fill="#26d826"/><line x1="344.0" y1="29.714285714285715" x2="92.57142857142857" y2="29.714285714285715" stroke="#d82626" fill="none" stroke-width="3.0"/><polygon points="92.57142857142857 29.714285714285715 102.57142857142857 26.714285714285715 100.57142857142857 29.714285714285715 102.57142857142857 32.714285714285715" fill="#d82626"/><line x1="92.57142857142857" y1="29.714285714285715" x2="92.57142857142857" y2="344.0" stroke="#d82626" fill="none" stroke-width="3.0"/><polygon points="92.57142857142857 344.0 89.57142857142857 334.0 92.57142857142857 336.0 95.57142857142857 334.0" fill="#d82626"/><line x1="92.57142857142857" y1="344.0" x2="406.85714285714283" y2="344.0" stroke="#d82626" fill="none" stroke-width="3.0"/><polygon points="406.85714285714283 344.0 396.85714285714283 347.0 398.85714285714283 344.0 396.85714285714283 341.0" fill="#d82626"/><line x1="406.85714285714283" y1="344.0" x2="406.85714285714283" y2="155.42857142857142" stroke="#d82626" fill="none" stroke-width="3.0"/><polygon points="406.85714285714283 155.42857142857142 409.85714285714283 165.42857142857142 406.85714285714283 163.42857142857142 403.85714285714283 165.42857142857142" fill="#d82626"/><line x1="406.85714285714283" y1="155.42857142857142" x2="218.28571428571428" y2="155.42857142857142" stroke="#d82626" fill="none" stroke-width="3.0"/><polygon points="218.28571428571428 155.42857142857142 228.28571428571428 152.42857142857142 226.28571428571428 155.42857142857142 228.28571428571428 158.42857142857142" fill="#d82626"/><line x1="218.28571428571428" y1="155.42857142857142" x2="218.28571428571428" y2="406.85714285714283" stroke="#d82626" fill="none" stroke-width="3.0"/><polygon points="218.28571428571428 406.85714285714283 215.28571428571428 396.85714285714283 218.28571428571428 398.85714285714283 221.28571428571428 396.85714285714283" fill="#d82626"/><line x1="218.28571428571428" y1="406.85714285714283" x2="344.0" y2="406.85714285714283" stroke="#d82626" fill="none" stroke-width="3.0"/><polygon points="344.0 406.85714285714283 334.0 409.85714285714283 336.0 406.85714285714283 334.0 403.85714285714283" fill="#d82626"/><line x1="344.0" y1="406.85714285714283" x2="344.0" y2="29.714285714285715" stroke="#d82626" fill="none" stroke-width="3.0"/><polygon points="344.0 29.714285714285715 347.0 39.714285714285715 344.0 37.714285714285715 341.0 39.714285714285715" fill="#d82626"/><line x1="155.42857142857142" y1="218.28571428571428" x2="155.42857142857142" y2="92.57142857142857" stroke="#2626d8" fill="none" stroke-width="3.0"/><polygon points="155.42857142857142 92.57142857142857 158.42857142857142 102.57142857142857 155.42857142857142 100.57142857142857 152.42857142857142 102.57142857142857" fill="#2626d8"/><line x1="155.42857142857142" y1="92.57142857142857" x2="469.7142857142857" y2="92.57142857142857" stroke="#2626d8" fill="none" stroke-width="3.0"/><polygon points="469.7142857142857 92.57142857142857 459.7142857142857 95.57142857142857 461.7142857142857 92.57142857142857 459.7142857142857 89.57142857142857" fill="#2626d8"/><line x1="469.7142857142857" y1="92.57142857142857" x2="469.7142857142857" y2="218.28571428571428" stroke="#2626d8" fill="none" stroke-width="3.0"/><polygon points="469.7142857142857 218.28571428571428 466.7142857142857 208.28571428571428 469.7142857142857 210.28571428571428 472.7142857142857 208.28571428571428" fill="#2626d8"/><line x1="469.7142857142857" y1="218.28571428571428" x2="155.42857142857142" y2="218.28571428571428" stroke="#2626d8" fill="none" stroke-width="3.0"/><polygon points="155.42857142857142 218.28571428571428 165.42857142857142 215.28571428571428 163.42857142857142 218.28571428571428 165.42857142857142 221.28571428571428" fill="#2626d8"/><line x1="29.714285714285715" y1="281.1428571428571" x2="29.714285714285715" y2="469.7142857142857" stroke="#26d826" fill="none" stroke-width="3.0"/><polygon points="29.714285714285715 469.7142857142857 26.714285714285715 459.7142857142857 29.714285714285715 461.7142857142857 32.714285714285715 459.7142857142857" fill="#26d826"/><line x1="29.714285714285715" y1="469.7142857142857" x2="281.1428571428571" y2="469.7142857142857" stroke="#26d826" fill="none" stroke-width="3.0"/><polygon points="281.1428571428571 469.7142857142857 271.1428571428571 472.7142857142857 273.1428571428571 469.7142857142857 271.1428571428571 466.7142857142857" fill="#26d826"/><line x1="281.1428571428571" y1="469.7142857142857" x2="281.1428571428571" y2="281.1428571428571" stroke="#26d826" fill="none" stroke-width="3.0"/><polygon points="281.1428571428571 281.1428571428571 284.1428571428571 291.1428571428571 281.1428571428571 289.1428571428571 278.1428571428571 291.1428571428571" fill="#26d826"/><line x1="281.1428571428571" y1="281.1428571428571" x2="29.714285714285715" y2="281.1428571428571" stroke="#26d826" fill="none" stroke-width="3.0"/><polygon points="29.714285714285715 281.1428571428571 39.714285714285715 278.1428571428571 37.714285714285715 281.1428571428571 39.714285714285715 284.1428571428571" fill="#26d826"/><text x="96.76190476190476" y="46" fill="#000" stroke-width="0.0" font-family="Nimbus Sans" font-size="12.0pt" font-weight="bold">4</text><text x="33.904761904761905" y="486" fill="#000" stroke-width="0.0" font-family="Nimbus Sans" font-size="12.0pt" font-weight="bold">5</text><text x="96.76190476190474" y="297" fill="#000" stroke-width="0.0" font-family="Nimbus Sans" font-size="12.0pt" font-weight="bold">3</text><text x="33.904761904761905" y="297" fill="#000" stroke-width="0.0" font-family="Nimbus Sans" font-size="12.0pt" font-weight="bold">3</text><text x="222.47619047619045" y="234" fill="#000" stroke-width="0.0" font-family="Nimbus Sans" font-size="12.0pt" font-weight="bold">5</text><text x="285.3333333333333" y="360" fill="#000" stroke-width="0.0" font-family="Nimbus Sans" font-size="12.0pt" font-weight="bold">3</text><text x="348.1904761904762" y="234" fill="#000" stroke-width="0.0" font-family="Nimbus Sans" font-size="12.0pt" font-weight="bold">3</text><text x="222.47619047619045" y="297" fill="#000" stroke-width="0.0" font-family="Nimbus Sans" font-size="12.0pt" font-weight="bold">3</text><text x="222.47619047619045" y="360" fill="#000" stroke-width="0.0" font-family="Nimbus Sans" font-size="12.0pt" font-weight="bold">3</text><text x="348.1904761904762" y="172" fill="#000" stroke-width="0.0" font-family="Nimbus Sans" font-size="12.0pt" font-weight="bold">3</text><text x="348.1904761904762" y="109" fill="#000" stroke-width="0.0" font-family="Nimbus Sans" font-size="12.0pt" font-weight="bold">3</text><text x="222.47619047619045" y="172" fill="#000" stroke-width="0.0" font-family="Nimbus Sans" font-size="12.0pt" font-weight="bold">3</text><text x="159.6190476190476" y="109" fill="#000" stroke-width="0.0" font-family="Nimbus Sans" font-size="12.0pt" font-weight="bold">3</text></svg>