<?xml version="1.0" ?><!DOCTYPE svg  PUBLIC '-//W3C//DTD SVG 1.1//EN'  'http://www.w3.org/Graphics/SVG/1.1/DTD/svg11.dtd'><svg xmlns="http://www.w3.org/2000/svg" width="487.000" height="463.000" viewBox="-1.000 -5.000 487.000 463.000"><text x="10.0" y="21" fill="#d82626" stroke-width="0.0" font-family="Nimbus Sans" font-size="16.0pt" font-weight="bold">0</text><text x="26.0" y="21" fill="#2626d8" stroke-width="0.0" font-family="Nimbus Sans" font-size="16.0pt" font-weight="bold">1</text><text x="42.0" y="21" fill="#26d826" stroke-width="0.0" font-family="Nimbus Sans" font-size="16.0pt" font-weight="bold">2</text><circle cx="30.0" cy="332.5" r="2.0" stroke="#d82626" fill="#d82626"/><circle cx="30.0" cy="167.5" r="2.0" stroke="#d82626" fill="#d82626"/><circle cx="360.0" cy="167.5" r="2.0" stroke="#d82626" fill="#d82626"/><circle cx="360.0" cy="387.5" r="2.0" stroke="#d82626" fill="#d82626"/><circle cx="140.0" cy="387.5" r="2.0" stroke="#d82626" fill="#d82626"/><circle cx="140.0" cy="222.5" r="2.0" stroke="#d82626" fill="#d82626"/><circle cx="415.0" cy="222.5" r="2.0" stroke="#d82626" fill="#d82626"/><circle cx="415.0" cy="112.5" r="2.0" stroke="#d82626" fill="#d82626"/><circle cx="195.0" cy="112.5" r="2.0" stroke="#d82626" fill="#d82626"/><circle cx="195.0" cy="332.5" r="2.0" stroke="#d82626" fill="#d82626"/><circle cx="250.0" cy="442.5" r="2.0" stroke="#2626d8" fill="#2626d8"/><circle cx="85.0" cy="442.5" r="2.0" stroke="#2626d8" fill="#2626d8"/><circle cx="85.0" cy="277.5" r="2.0" stroke="#2626d8" fill="#2626d8"/><circle cx="250.0" cy="277.5" r="2.0" stroke="#2626d8" fill="#2626d8"/><circle cx="305.0" cy="442.5" r="2.0" stroke="#26d826" fill="#26d826"/><circle cx="470.0" cy="442.5" r="2.0" stroke="#26d826" fill="#26d826"/><circle cx="470.0" cy="57.5" r="2.0" stroke="#26d826" fill="#26d826"/><circle cx="305.0" cy="57.5" r="2.0" stroke="#26d826" fill="#26d826"/><line x1="30.0" y1="332.5" x2="30.0" y2="167.5" stroke="#d82626" fill="none" stroke-width="3.0"/><polygon points="30.0 167.5 33.0 177.5 30.0 175.5 27.0 177.5" fill="#d82626"/><line x1="30.0" y1="167.5" x2="360.0" y2="167.5" stroke="#d82626" fill="none" stroke-width="3.0"/><polygon points="360.0 167.5 350.0 170.5 352.0 167.5 350.0 164.5" fill="#d82626"/><line x1="360.0" y1="167.5" x2="360.0" y2="387.5" stroke="#d82626" fill="none" stroke-width="3.0"/><polygon points="360.0 387.5 357.0 377.5 360.0 379.5 363.0 377.5" fill="#d82626"/><line x1="360.0" y1="387.5" x2="140.0" y2="387.5" stroke="#d82626" fill="none" stroke-width="3.0"/><polygon points="140.0 387.5 150.0 384.5 148.0 387.5 150.0 390.5" fill="#d82626"/><line x1="140.0" y1="387.5" x2="140.0" y2="222.5" stroke="#d82626" fill="none" stroke-width="3.0"/><polygon points="140.0 222.5 143.0 232.5 140.0 230.5 137.0 232.5" fill="#d82626"/><line x1="140.0" y1="222.5" x2="415.0" y2="222.5" stroke="#d82626" fill="none" stroke-width="3.0"/><polygon points="415.0 222.5 405.0 225.5 407.0 222.5 405.0 219.5" fill="#d82626"/><line x1="415.0" y1="222.5" x2="415.0" y2="112.5" stroke="#d82626" fill="none" stroke-width="3.0"/><polygon points="415.0 112.5 418.0 122.5 415.0 120.5 412.0 122.5" fill="#d82626"/><line x1="415.0" y1="112.5" x2="195.0" y2="112.5" stroke="#d82626" fill="none" stroke-width="3.0"/><polygon points="195.0 112.5 205.0 109.5 203.0 112.5 205.0 115.5" fill="#d82626"/><line x1="195.0" y1="112.5" x2="195.0" y2="332.5" stroke="#d82626" fill="none" stroke-width="3.0"/><polygon points="195.0 332.5 192.0 322.5 195.0 324.5 198.0 322.5" fill="#d82626"/><line x1="195.0" y1="332.5" x2="30.0" y2="332.5" stroke="#d82626" fill="none" stroke-width="3.0"/><polygon points="30.0 332.5 40.0 329.5 38.0 332.5 40.0 335.5" fill="#d82626"/><line x1="250.0" y1="442.5" x2="85.0" y2="442.5" stroke="#2626d8" fill="none" stroke-width="3.0"/><polygon points="85.0 442.5 95.0 439.5 93.0 442.5 95.0 445.5" fill="#2626d8"/><line x1="85.0" y1="442.5" x2="85.0" y2="277.5" stroke="#2626d8" fill="none" stroke-width="3.0"/><polygon points="85.0 277.5 88.0 287.5 85.0 285.5 82.0 287.5" fill="#2626d8"/><line x1="85.0" y1="277.5" x2="250.0" y2="277.5" stroke="#2626d8" fill="none" stroke-width="3.0"/><polygon points="250.0 277.5 240.0 280.5 242.0 277.5 240.0 274.5" fill="#2626d8"/><line x1="250.0" y1="277.5" x2="250.0" y2="442.5" stroke="#2626d8" fill="none" stroke-width="3.0"/><polygon points="250.0 442.5 247.0 432.5 250.0 434.5 253.0 432.5" fill="#2626d8"/><line x1="305.0" y1="442.5" x2="470.0" y2="442.5" stroke="#26d826" fill="none" stroke-width="3.0"/><polygon points="470.0 442.5 460.0 445.5 462.0 442.5 460.0 439.5" fill="#26d826"/><line x1="470.0" y1="442.5" x2="470.0" y2="57.5" stroke="#26d826" fill="none" stroke-width="3.0"/><polygon points="470.0 57.5 473.0 67.5 470.0 65.5 467.0 67.5" fill="#26d826"/><line x1="470.0" y1="57.5" x2="305.0" y2="57.5" stroke="#26d826" fill="none" stroke-width="3.0"/><polygon points="305.0 57.5 315.0 54.5 313.0 57.5 315.0 60.5" fill="#26d826"/><line x1="305.0" y1="57.5" x2="305.0" y2="442.5" stroke="#26d826" fill="none" stroke-width="3.0"/><polygon points="305.0 442.5 302.0 432.5 305.0 434.5 308.0 432.5" fill="#26d826"/><text x="33.666666666666664" y="347" fill="#000" stroke-width="0.0" font-family="Nimbus Sans" font-size="11.0pt" font-weight="bold">5</text><text x="33.666666666666664" y="182" fill="#000" stroke-width="0.0" font-family="Nimbus Sans" font-size="11.0pt" font-weight="bold">4</text><text x="308.6666666666667" y="127" fill="#000" stroke-width="0.0" font-family="Nimbus Sans" font-size="11.0pt" font-weight="bold">3</text><text x="308.6666666666667" y="182" fill="#000" stroke-width="0.0" font-family="Nimbus Sans" font-size="11.0pt" font-weight="bold">3</text><text x="308.6666666666667" y="72" fill="#000" stroke-width="0.0" font-family="Nimbus Sans" font-size="11.0pt" font-weight="bold">3</text><text x="308.6666666666667" y="237" fill="#000" stroke-width="0.0" font-family="Nimbus Sans" font-size="11.0pt" font-weight="bold">3</text><text x="198.66666666666666" y="237" fill="#000" stroke-width="0.0" font-family="Nimbus Sans" font-size="11.0pt" font-weight="bold">5</text><text x="88.66666666666667" y="347" fill="#000" stroke-width="0.0" font-family="Nimbus Sans" font-size="11.0pt" font-weight="bold">3</text><text x="143.66666666666666" y="347" fill="#000" stroke-width="0.0" font-family="Nimbus Sans" font-size="11.0pt" font-weight="bold">3</text><text x="143.66666666666666" y="237" fill="#000" stroke-width="0.0" font-family="Nimbus Sans" font-size="11.0pt" font-weight="bold">3</text><text x="198.66666666666666" y="182" fill="#000" stroke-width="0.0" font-family="Nimbus Sans" font-size="11.0pt" font-weight="bold">4</text><text x="198.66666666666666" y="127" fill="#000" stroke-width="0.0" font-family="Nimbus Sans" font-size="11.0pt" font-weight="bold">3</text><text x="143.66666666666666" y="292" fill="#000" stroke-width="0.0" font-family="Nimbus Sans" font-size="11.0pt" font-weight="bold">3</text><text x="88.66666666666667" y="292" fill="#000" stroke-width="0.0" font-family="Nimbus Sans" font-size="11.0pt" font-weight="bold">3</text></svg>