<?xml version="1.0" ?><!DOCTYPE svg  PUBLIC '-//W3C//DTD SVG 1.1//EN'  'http://www.w3.org/Graphics/SVG/1.1/DTD/svg11.dtd'><svg xmlns="http://www.w3.org/2000/svg" width="486.000" height="490.000" viewBox="-1.000 -5.000 486.000 490.000"><text x="10.0" y="21" fill="#d82626" stroke-width="0.0" font-family="Nimbus Sans" font-size="16.0pt" font-weight="bold">0</text><circle cx="406.85714285714283" cy="406.85714285714283" r="2.0" stroke="#d82626" fill="#d82626"/><circle cx="281.1428571428571" cy="406.85714285714283" r="2.0" stroke="#d82626" fill="#d82626"/><circle cx="281.1428571428571" cy="281.1428571428571" r="2.0" stroke="#d82626" fill="#d82626"/><circle cx="92.57142857142857" cy="281.1428571428571" r="2.0" stroke="#d82626" fill="#d82626"/><circle cx="92.57142857142857" cy="92.57142857142857" r="2.0" stroke="#d82626" fill="#d82626"/><circle cx="218.28571428571428" cy="92.57142857142857" r="2.0" stroke="#d82626" fill="#d82626"/><circle cx="218.28571428571428" cy="469.7142857142857" r="2.0" stroke="#d82626" fill="#d82626"/><circle cx="344.0" cy="469.7142857142857" r="2.0" stroke="#d82626" fill="#d82626"/><circle cx="344.0" cy="155.42857142857142" r="2.0" stroke="#d82626" fill="#d82626"/><circle cx="155.42857142857142" cy="155.42857142857142" r="2.0" stroke="#d82626" fill="#d82626"/><circle cx="155.42857142857142" cy="344.0" r="2.0" stroke="#d82626" fill="#d82626"/><circle cx="469.7142857142857" cy="344.0" r="2.0" stroke="#d82626" fill="#d82626"/><circle cx="469.7142857142857" cy="29.714285714285715" r="2.0" stroke="#d82626" fill="#d82626"/><circle cx="29.714285714285715" cy="29.714285714285715" r="2.0" stroke="#d82626" fill="#d82626"/><circle cx="29.714285714285715" cy="218.28571428571428" r="2.0" stroke="#d82626" fill="#d82626"/><circle cx="406.85714285714283" cy="218.28571428571428" r="2.0" stroke="#d82626" fill="#d82626"/><line x1="406.85714285714283" y1="406.85714285714283" x2="281.1428571428571" y2="406.85714285714283" stroke="#d82626" fill="none" stroke-width="3.0"/><polygon points="281.1428571428571 406.85714285714283 291.1428571428571 403.85714285714283 289.1428571428571 406.85714285714283 291.1428571428571 409.85714285714283" fill="#d82626"/><line x1="281.1428571428571" y1="406.85714285714283" x2="281.1428571428571" y2="281.1428571428571" stroke="#d82626" fill="none" stroke-width="3.0"/><polygon points="281.1428571428571 281.1428571428571 284.1428571428571 291.1428571428571 281.1428571428571 289.1428571428571 278.1428571428571 291.1428571428571" fill="#d82626"/><line x1="281.1428571428571" y1="281.1428571428571" x2="92.57142857142857" y2="281.1428571428571" stroke="#d82626" fill="none" stroke-width="3.0"/><polygon points="92.57142857142857 281.1428571428571 102.57142857142857 278.1428571428571 100.57142857142857 281.1428571428571 102.57142857142857 284.1428571428571" fill="#d82626"/><line x1="92.57142857142857" y1="281.1428571428571" x2="92.57142857142857" y2="92.57142857142857" stroke="#d82626" fill="none" stroke-width="3.0"/><polygon points="92.57142857142857 92.57142857142857 95.57142857142857 102.57142857142857 92.57142857142857 100.57142857142857 89.57142857142857 102.57142857142857" fill="#d82626"/><line x1="92.57142857142857" y1="92.57142857142857" x2="218.28571428571428" y2="92.57142857142857" stroke="#d82626" fill="none" stroke-width="3.0"/><polygon points="218.28571428571428 92.57142857142857 208.28571428571428 95.57142857142857 210.28571428571428 92.57142857142857 208.28571428571428 89.57142857142857" fill="#d82626"/><line x1="218.28571428571428" y1="92.57142857142857" x2="218.28571428571428" y2="469.7142857142857" stroke="#d82626" fill="none" stroke-width="3.0"/><polygon points="218.28571428571428 469.7142857142857 215.28571428571428 459.7142857142857 218.28571428571428 461.7142857142857 221.28571428571428 459.7142857142857" fill="#d82626"/><line x1="218.28571428571428" y1="469.7142857142857" x2="344.0" y2="469.7142857142857" stroke="#d82626" fill="none" stroke-width="3.0"/><polygon points="344.0 469.7142857142857 334.0 472.7142857142857 336.0 469.7142857142857 334.0 466.7142857142857" fill="#d82626"/><line x1="344.0" y1="469.7142857142857" x2="344.0" y2="155.42857142857142" stroke="#d82626" fill="none" stroke-width="3.0"/><polygon points="344.0 155.42857142857142 347.0 165.42857142857142 344.0 163.42857142857142 341.0 165.42857142857142" fill="#d82626"/><line x1="344.0" y1="155.42857142857142" x2="155.42857142857142" y2="155.42857142857142" stroke="#d82626" fill="none" stroke-width="3.0"/><polygon points="155.42857142857142 155.42857142857142 165.42857142857142 152.42857142857142 163.42857142857142 155.42857142857142 165.42857142857142 158.42857142857142" fill="#d82626"/><line x1="155.42857142857142" y1="155.42857142857142" x2="155.42857142857142" y2="344.0" stroke="#d82626" fill="none" stroke-width="3.0"/><polygon points="155.42857142857142 344.0 152.42857142857142 334.0 155.42857142857142 336.0 158.42857142857142 334.0" fill="#d82626"/><line x1="155.42857142857142" y1="344.0" x2="469.7142857142857" y2="344.0" stroke="#d82626" fill="none" stroke-width="3.0"/><polygon points="469.7142857142857 344.0 459.7142857142857 347.0 461.7142857142857 344.0 459.7142857142857 341.0" fill="#d82626"/><line x1="469.7142857142857" y1="344.0" x2="469.7142857142857" y2="29.714285714285715" stroke="#d82626" fill="none" stroke-width="3.0"/><polygon points="469.7142857142857 29.714285714285715 472.7142857142857 39.714285714285715 469.7142857142857 37.714285714285715 466.7142857142857 39.714285714285715" fill="#d82626"/><line x1="469.7142857142857" y1="29.714285714285715" x2="29.714285714285715" y2="29.714285714285715" stroke="#d82626" fill="none" stroke-width="3.0"/><polygon points="29.714285714285715 29.714285714285715 39.714285714285715 26.714285714285715 37.714285714285715 29.714285714285715 39.714285714285715 32.714285714285715" fill="#d82626"/><line x1="29.714285714285715" y1="29.714285714285715" x2="29.714285714285715" y2="218.28571428571428" stroke="#d82626" fill="none" stroke-width="3.0"/><polygon points="29.714285714285715 218.28571428571428 26.714285714285715 208.28571428571428 29.714285714285715 210.28571428571428 32.714285714285715 208.28571428571428" fill="#d82626"/><line x1="29.714285714285715" y1="218.28571428571428" x2="406.85714285714283" y2="218.28571428571428" stroke="#d82626" fill="none" stroke-width="3.0"/><polygon points="406.85714285714283 218.28571428571428 396.85714285714283 221.28571428571428 398.85714285714283 218.28571428571428 396.85714285714283 215.28571428571428" fill="#d82626"/><line x1="406.85714285714283" y1="218.28571428571428" x2="406.85714285714283" y2="406.85714285714283" stroke="#d82626" fill="none" stroke-width="3.0"/><polygon points="406.85714285714283 406.85714285714283 403.85714285714283 396.85714285714283 406.85714285714283 398.85714285714283 409.85714285714283 396.85714285714283" fill="#d82626"/><text x="33.904761904761905" y="234" fill="#000" stroke-width="0.0" font-family="Nimbus Sans" font-size="12.0pt" font-weight="bold">5</text><text x="348.1904761904762" y="360" fill="#000" stroke-width="0.0" font-family="Nimbus Sans" font-size="12.0pt" font-weight="bold">3</text><text x="222.47619047619045" y="360" fill="#000" stroke-width="0.0" font-family="Nimbus Sans" font-size="12.0pt" font-weight="bold">3</text><text x="285.3333333333333" y="360" fill="#000" stroke-width="0.0" font-family="Nimbus Sans" font-size="12.0pt" font-weight="bold">3</text><text x="222.47619047619045" y="234" fill="#000" stroke-width="0.0" font-family="Nimbus Sans" font-size="12.0pt" font-weight="bold">5</text><text x="222.47619047619045" y="297" fill="#000" stroke-width="0.0" font-family="Nimbus Sans" font-size="12.0pt" font-weight="bold">3</text><text x="96.76190476190476" y="234" fill="#000" stroke-width="0.0" font-family="Nimbus Sans" font-size="12.0pt" font-weight="bold">3</text><text x="159.6190476190476" y="297" fill="#000" stroke-width="0.0" font-family="Nimbus Sans" font-size="12.0pt" font-weight="bold">3</text><text x="159.6190476190476" y="234" fill="#000" stroke-width="0.0" font-family="Nimbus Sans" font-size="12.0pt" font-weight="bold">4</text><text x="33.904761904761905" y="46" fill="#000" stroke-width="0.0" font-family="Nimbus Sans" font-size="12.0pt" font-weight="bold">4</text><text x="96.76190476190476" y="109" fill="#000" stroke-width="0.0" font-family="Nimbus Sans" font-size="12.0pt" font-weight="bold">3</text><text x="222.47619047619045" y="172" fill="#000" stroke-width="0.0" font-family="Nimbus Sans" font-size="12.0pt" font-weight="bold">3</text><text x="159.6190476190476" y="172" fill="#000" stroke-width="0.0" font-family="Nimbus Sans" font-size="12.0pt" font-weight="bold">3</text><text x="348.1904761904762" y="234" fill="#000" stroke-width="0.0" font-family="Nimbus Sans" font-size="12.0pt" font-weight="bold">3</text></svg>