<?xml version="1.0" ?><!DOCTYPE svg  PUBLIC '-//W3C//DTD SVG 1.1//EN'  'http://www.w3.org/Graphics/SVG/1.1/DTD/svg11.dtd'><svg xmlns="http://www.w3.org/2000/svg" width="486.000" height="506.000" viewBox="-1.000 -5.000 486.000 506.000"><text x="10.0" y="21" fill="#d82626" stroke-width="0.0" font-family="Nimbus Sans" font-size="16.0pt" font-weight="bold">0</text><text x="26.0" y="21" fill="#2626d8" stroke-width="0.0" font-family="Nimbus Sans" font-size="16.0pt" font-weight="bold">1</text><circle cx="218.28571428571428" cy="92.57142857142857" r="2.0" stroke="#d82626" fill="#d82626"/><circle cx="218.28571428571428" cy="218.28571428571428" r="2.0" stroke="#d82626" fill="#d82626"/><circle cx="344.0" cy="218.28571428571428" r="2.0" stroke="#d82626" fill="#d82626"/><circle cx="344.0" cy="92.57142857142857" r="2.0" stroke="#d82626" fill="#d82626"/><circle cx="155.42857142857142" cy="155.42857142857142" r="2.0" stroke="#2626d8" fill="#2626d8"/><circle cx="155.42857142857142" cy="406.85714285714283" r="2.0" stroke="#2626d8" fill="#2626d8"/><circle cx="469.7142857142857" cy="406.85714285714283" r="2.0" stroke="#2626d8" fill="#2626d8"/><circle cx="469.7142857142857" cy="281.1428571428571" r="2.0" stroke="#2626d8" fill="#2626d8"/><circle cx="29.714285714285715" cy="281.1428571428571" r="2.0" stroke="#2626d8" fill="#2626d8"/><circle cx="29.714285714285715" cy="469.7142857142857" r="2.0" stroke="#2626d8" fill="#2626d8"/><circle cx="281.1428571428571" cy="469.7142857142857" r="2.0" stroke="#2626d8" fill="#2626d8"/><circle cx="281.1428571428571" cy="29.714285714285715" r="2.0" stroke="#2626d8" fill="#2626d8"/><circle cx="92.57142857142857" cy="29.714285714285715" r="2.0" stroke="#2626d8" fill="#2626d8"/><circle cx="92.57142857142857" cy="344.0" r="2.0" stroke="#2626d8" fill="#2626d8"/><circle cx="406.85714285714283" cy="344.0" r="2.0" stroke="#2626d8" fill="#2626d8"/><circle cx="406.85714285714283" cy="155.42857142857142" r="2.0" stroke="#2626d8" fill="#2626d8"/><line x1="218.28571428571428" y1="92.57142857142857" x2="218.28571428571428" y2="218.28571428571428" stroke="#d82626" fill="none" stroke-width="3.0"/><polygon points="218.28571428571428 218.28571428571428 215.28571428571428 208.28571428571428 218.28571428571428 210.28571428571428 221.28571428571428 208.28571428571428" fill="#d82626"/><line x1="218.28571428571428" y1="218.28571428571428" x2="344.0" y2="218.28571428571428" stroke="#d82626" fill="none" stroke-width="3.0"/><polygon points="344.0 218.28571428571428 334.0 221.28571428571428 336.0 218.28571428571428 334.0 215.28571428571428" fill="#d82626"/><line x1="344.0" y1="218.28571428571428" x2="344.0" y2="92.57142857142857" stroke="#d82626" fill="none" stroke-width="3.0"/><polygon points="344.0 92.57142857142857 347.0 102.57142857142857 344.0 100.57142857142857 341.0 102.57142857142857" fill="#d82626"/><line x1="344.0" y1="92.57142857142857" x2="218.28571428571428" y2="92.57142857142857" stroke="#d82626" fill="none" stroke-width="3.0"/><polygon points="218.28571428571428 92.57142857142857 228.28571428571428 89.57142857142857 226.28571428571428 92.57142857142857 228.28571428571428 95.57142857142857" fill="#d82626"/><line x1="155.42857142857142" y1="155.42857142857142" x2="155.42857142857142" y2="406.85714285714283" stroke="#2626d8" fill="none" stroke-width="3.0"/><polygon points="155.42857142857142 406.85714285714283 152.42857142857142 396.85714285714283 155.42857142857142 398.85714285714283 158.42857142857142 396.85714285714283" fill="#2626d8"/><line x1="155.42857142857142" y1="406.85714285714283" x2="469.7142857142857" y2="406.85714285714283" stroke="#2626d8" fill="none" stroke-width="3.0"/><polygon points="469.7142857142857 406.85714285714283 459.7142857142857 409.85714285714283 461.7142857142857 406.85714285714283 459.7142857142857 403.85714285714283" fill="#2626d8"/><line x1="469.7142857142857" y1="406.85714285714283" x2="469.7142857142857" y2="281.1428571428571" stroke="#2626d8" fill="none" stroke-width="3.0"/><polygon points="469.7142857142857 281.1428571428571 472.7142857142857 291.1428571428571 469.7142857142857 289.1428571428571 466.7142857142857 291.1428571428571" fill="#2626d8"/><line x1="469.7142857142857" y1="281.1428571428571" x2="29.714285714285715" y2="281.1428571428571" stroke="#2626d8" fill="none" stroke-width="3.0"/><polygon points="29.714285714285715 281.1428571428571 39.714285714285715 278.1428571428571 37.714285714285715 281.1428571428571 39.714285714285715 284.1428571428571" fill="#2626d8"/><line x1="29.714285714285715" y1="281.1428571428571" x2="29.714285714285715" y2="469.7142857142857" stroke="#2626d8" fill="none" stroke-width="3.0"/><polygon points="29.714285714285715 469.7142857142857 26.714285714285715 459.7142857142857 29.714285714285715 461.7142857142857 32.714285714285715 459.7142857142857" fill="#2626d8"/><line x1="29.714285714285715" y1="469.7142857142857" x2="281.1428571428571" y2="469.7142857142857" stroke="#2626d8" fill="none" stroke-width="3.0"/><polygon points="281.1428571428571 469.7142857142857 271.1428571428571 472.7142857142857 273.1428571428571 469.7142857142857 271.1428571428571 466.7142857142857" fill="#2626d8"/><line x1="281.1428571428571" y1="469.7142857142857" x2="281.1428571428571" y2="29.714285714285715" stroke="#2626d8" fill="none" stroke-width="3.0"/><polygon points="281.1428571428571 29.714285714285715 284.1428571428571 39.714285714285715 281.1428571428571 37.714285714285715 278.1428571428571 39.714285714285715" fill="#2626d8"/><line x1="281.1428571428571" y1="29.714285714285715" x2="92.57142857142857" y2="29.714285714285715" stroke="#2626d8" fill="none" stroke-width="3.0"/><polygon points="92.57142857142857 29.714285714285715 102.57142857142857 26.714285714285715 100.57142857142857 29.714285714285715 102.57142857142857 32.714285714285715" fill="#2626d8"/><line x1="92.57142857142857" y1="29.714285714285715" x2="92.57142857142857" y2="344.0" stroke="#2626d8" fill="none" stroke-width="3.0"/><polygon points="92.57142857142857 344.0 89.57142857142857 334.0 92.57142857142857 336.0 95.57142857142857 334.0" fill="#2626d8"/><line x1="92.57142857142857" y1="344.0" x2="406.85714285714283" y2="344.0" stroke="#2626d8" fill="none" stroke-width="3.0"/><polygon points="406.85714285714283 344.0 396.85714285714283 347.0 398.85714285714283 344.0 396.85714285714283 341.0" fill="#2626d8"/><line x1="406.85714285714283" y1="344.0" x2="406.85714285714283" y2="155.42857142857142" stroke="#2626d8" fill="none" stroke-width="3.0"/><polygon points="406.85714285714283 155.42857142857142 409.85714285714283 165.42857142857142 406.85714285714283 163.42857142857142 403.85714285714283 165.42857142857142" fill="#2626d8"/><line x1="406.85714285714283" y1="155.42857142857142" x2="155.42857142857142" y2="155.42857142857142" stroke="#2626d8" fill="none" stroke-width="3.0"/><polygon points="155.42857142857142 155.42857142857142 165.42857142857142 152.42857142857142 163.42857142857142 155.42857142857142 165.42857142857142 158.42857142857142" fill="#2626d8"/><text x="222.47619047619045" y="109" fill="#000" stroke-width="0.0" font-family="Nimbus Sans" font-size="12.0pt" font-weight="bold">3</text><text x="96.76190476190476" y="46" fill="#000" stroke-width="0.0" font-family="Nimbus Sans" font-size="12.0pt" font-weight="bold">4</text><text x="222.47619047619045" y="172" fill="#000" stroke-width="0.0" font-family="Nimbus Sans" font-size="12.0pt" font-weight="bold">3</text><text x="159.6190476190476" y="172" fill="#000" stroke-width="0.0" font-family="Nimbus Sans" font-size="12.0pt" font-weight="bold">4</text><text x="285.3333333333333" y="172" fill="#000" stroke-width="0.0" font-family="Nimbus Sans" font-size="12.0pt" font-weight="bold">3</text><text x="285.3333333333333" y="234" fill="#000" stroke-width="0.0" font-family="Nimbus Sans" font-size="12.0pt" font-weight="bold">4</text><text x="285.3333333333333" y="109" fill="#000" stroke-width="0.0" font-family="Nimbus Sans" font-size="12.0pt" font-weight="bold">3</text><text x="33.9047619047619" y="486" fill="#000" stroke-width="0.0" font-family="Nimbus Sans" font-size="12.0pt" font-weight="bold">5</text><text x="159.61904761904756" y="297" fill="#000" stroke-width="0.0" font-family="Nimbus Sans" font-size="12.0pt" font-weight="bold">4</text><text x="96.7619047619048" y="297" fill="#000" stroke-width="0.0" font-family="Nimbus Sans" font-size="12.0pt" font-weight="bold">3</text><text x="159.6190476190476" y="360" fill="#000" stroke-width="0.0" font-family="Nimbus Sans" font-size="12.0pt" font-weight="bold">3</text><text x="33.9047619047619" y="297" fill="#000" stroke-width="0.0" font-family="Nimbus Sans" font-size="12.0pt" font-weight="bold">3</text><text x="285.3333333333333" y="360" fill="#000" stroke-width="0.0" font-family="Nimbus Sans" font-size="12.0pt" font-weight="bold">3</text><text x="285.3333333333333" y="297" fill="#000" stroke-width="0.0" font-family="Nimbus Sans" font-size="12.0pt" font-weight="bold">3</text></svg>