<?xml version="1.0" ?><!DOCTYPE svg  PUBLIC '-//W3C//DTD SVG 1.1//EN'  'http://www.w3.org/Graphics/SVG/1.1/DTD/svg11.dtd'><svg xmlns="http://www.w3.org/2000/svg" width="486.000" height="459.000" viewBox="-1.000 -5.000 486.000 459.000"><text x="10.0" y="21" fill="#d82626" stroke-width="0.0" font-family="Nimbus Sans" font-size="16.0pt" font-weight="bold">0</text><circle cx="281.1428571428571" cy="61.2" r="2.0" stroke="#d82626" fill="#d82626"/><circle cx="29.714285714285715" cy="61.2" r="2.0" stroke="#d82626" fill="#d82626"/><circle cx="29.714285714285715" cy="312.5333333333333" r="2.0" stroke="#d82626" fill="#d82626"/><circle cx="406.85714285714283" cy="312.5333333333333" r="2.0" stroke="#d82626" fill="#d82626"/><circle cx="406.85714285714283" cy="186.86666666666667" r="2.0" stroke="#d82626" fill="#d82626"/><circle cx="218.28571428571428" cy="186.86666666666667" r="2.0" stroke="#d82626" fill="#d82626"/><circle cx="218.28571428571428" cy="438.2" r="2.0" stroke="#d82626" fill="#d82626"/><circle cx="92.57142857142857" cy="438.2" r="2.0" stroke="#d82626" fill="#d82626"/><circle cx="92.57142857142857" cy="249.7" r="2.0" stroke="#d82626" fill="#d82626"/><circle cx="344.0" cy="249.7" r="2.0" stroke="#d82626" fill="#d82626"/><circle cx="344.0" cy="375.3666666666667" r="2.0" stroke="#d82626" fill="#d82626"/><circle cx="155.42857142857142" cy="375.3666666666667" r="2.0" stroke="#d82626" fill="#d82626"/><circle cx="155.42857142857142" cy="124.03333333333333" r="2.0" stroke="#d82626" fill="#d82626"/><circle cx="469.7142857142857" cy="124.03333333333333" r="2.0" stroke="#d82626" fill="#d82626"/><circle cx="469.7142857142857" cy="438.2" r="2.0" stroke="#d82626" fill="#d82626"/><circle cx="281.1428571428571" cy="438.2" r="2.0" stroke="#d82626" fill="#d82626"/><line x1="281.1428571428571" y1="61.2" x2="29.714285714285715" y2="61.2" stroke="#d82626" fill="none" stroke-width="3.0"/><polygon points="29.714285714285715 61.2 39.714285714285715 58.2 37.714285714285715 61.2 39.714285714285715 64.2" fill="#d82626"/><line x1="29.714285714285715" y1="61.2" x2="29.714285714285715" y2="312.5333333333333" stroke="#d82626" fill="none" stroke-width="3.0"/><polygon points="29.714285714285715 312.5333333333333 26.714285714285715 302.5333333333333 29.714285714285715 304.5333333333333 32.714285714285715 302.5333333333333" fill="#d82626"/><line x1="29.714285714285715" y1="312.5333333333333" x2="406.85714285714283" y2="312.5333333333333" stroke="#d82626" fill="none" stroke-width="3.0"/><polygon points="406.85714285714283 312.5333333333333 396.85714285714283 315.5333333333333 398.85714285714283 312.5333333333333 396.85714285714283 309.5333333333333" fill="#d82626"/><line x1="406.85714285714283" y1="312.5333333333333" x2="406.85714285714283" y2="186.86666666666667" stroke="#d82626" fill="none" stroke-width="3.0"/><polygon points="406.85714285714283 186.86666666666667 409.85714285714283 196.86666666666667 406.85714285714283 194.86666666666667 403.85714285714283 196.86666666666667" fill="#d82626"/><line x1="406.85714285714283" y1="186.86666666666667" x2="218.28571428571428" y2="186.86666666666667" stroke="#d82626" fill="none" stroke-width="3.0"/><polygon points="218.28571428571428 186.86666666666667 228.28571428571428 183.86666666666667 226.28571428571428 186.86666666666667 228.28571428571428 189.86666666666667" fill="#d82626"/><line x1="218.28571428571428" y1="186.86666666666667" x2="218.28571428571428" y2="438.2" stroke="#d82626" fill="none" stroke-width="3.0"/><polygon points="218.28571428571428 438.2 215.28571428571428 428.2 218.28571428571428 430.2 221.28571428571428 428.2" fill="#d82626"/><line x1="218.28571428571428" y1="438.2" x2="92.57142857142857" y2="438.2" stroke="#d82626" fill="none" stroke-width="3.0"/><polygon points="92.57142857142857 438.2 102.57142857142857 435.2 100.57142857142857 438.2 102.57142857142857 441.2" fill="#d82626"/><line x1="92.57142857142857" y1="438.2" x2="92.57142857142857" y2="249.7" stroke="#d82626" fill="none" stroke-width="3.0"/><polygon points="92.57142857142857 249.7 95.57142857142857 259.7 92.57142857142857 257.7 89.57142857142857 259.7" fill="#d82626"/><line x1="92.57142857142857" y1="249.7" x2="344.0" y2="249.7" stroke="#d82626" fill="none" stroke-width="3.0"/><polygon points="344.0 249.7 334.0 252.7 336.0 249.7 334.0 246.7" fill="#d82626"/><line x1="344.0" y1="249.7" x2="344.0" y2="375.3666666666667" stroke="#d82626" fill="none" stroke-width="3.0"/><polygon points="344.0 375.3666666666667 341.0 365.3666666666667 344.0 367.3666666666667 347.0 365.3666666666667" fill="#d82626"/><line x1="344.0" y1="375.3666666666667" x2="155.42857142857142" y2="375.3666666666667" stroke="#d82626" fill="none" stroke-width="3.0"/><polygon points="155.42857142857142 375.3666666666667 165.42857142857142 372.3666666666667 163.42857142857142 375.3666666666667 165.42857142857142 378.3666666666667" fill="#d82626"/><line x1="155.42857142857142" y1="375.3666666666667" x2="155.42857142857142" y2="124.03333333333333" stroke="#d82626" fill="none" stroke-width="3.0"/><polygon points="155.42857142857142 124.03333333333333 158.42857142857142 134.03333333333333 155.42857142857142 132.03333333333333 152.42857142857142 134.03333333333333" fill="#d82626"/><line x1="155.42857142857142" y1="124.03333333333333" x2="469.7142857142857" y2="124.03333333333333" stroke="#d82626" fill="none" stroke-width="3.0"/><polygon points="469.7142857142857 124.03333333333333 459.7142857142857 127.03333333333333 461.7142857142857 124.03333333333333 459.7142857142857 121.03333333333333" fill="#d82626"/><line x1="469.7142857142857" y1="124.03333333333333" x2="469.7142857142857" y2="438.2" stroke="#d82626" fill="none" stroke-width="3.0"/><polygon points="469.7142857142857 438.2 466.7142857142857 428.2 469.7142857142857 430.2 472.7142857142857 428.2" fill="#d82626"/><line x1="469.7142857142857" y1="438.2" x2="281.1428571428571" y2="438.2" stroke="#d82626" fill="none" stroke-width="3.0"/><polygon points="281.1428571428571 438.2 291.1428571428571 435.2 289.1428571428571 438.2 291.1428571428571 441.2" fill="#d82626"/><line x1="281.1428571428571" y1="438.2" x2="281.1428571428571" y2="61.2" stroke="#d82626" fill="none" stroke-width="3.0"/><polygon points="281.1428571428571 61.2 284.1428571428571 71.2 281.1428571428571 69.2 278.1428571428571 71.2" fill="#d82626"/><text x="33.9031746031746" y="77" fill="#000" stroke-width="0.0" font-family="Nimbus Sans" font-size="12.0pt" font-weight="bold">3</text><text x="33.9031746031746" y="329" fill="#000" stroke-width="0.0" font-family="Nimbus Sans" font-size="12.0pt" font-weight="bold">4</text><text x="96.76031746031745" y="266" fill="#000" stroke-width="0.0" font-family="Nimbus Sans" font-size="12.0pt" font-weight="bold">3</text><text x="96.76031746031745" y="329" fill="#000" stroke-width="0.0" font-family="Nimbus Sans" font-size="12.0pt" font-weight="bold">3</text><text x="159.6174603174603" y="266" fill="#000" stroke-width="0.0" font-family="Nimbus Sans" font-size="12.0pt" font-weight="bold">4</text><text x="159.6174603174603" y="329" fill="#000" stroke-width="0.0" font-family="Nimbus Sans" font-size="12.0pt" font-weight="bold">3</text><text x="285.331746031746" y="266" fill="#000" stroke-width="0.0" font-family="Nimbus Sans" font-size="12.0pt" font-weight="bold">3</text><text x="285.331746031746" y="329" fill="#000" stroke-width="0.0" font-family="Nimbus Sans" font-size="12.0pt" font-weight="bold">3</text><text x="285.331746031746" y="203" fill="#000" stroke-width="0.0" font-family="Nimbus Sans" font-size="12.0pt" font-weight="bold">3</text><text x="285.331746031746" y="140" fill="#000" stroke-width="0.0" font-family="Nimbus Sans" font-size="12.0pt" font-weight="bold">4</text><text x="222.47460317460317" y="266" fill="#000" stroke-width="0.0" font-family="Nimbus Sans" font-size="12.0pt" font-weight="bold">4</text><text x="222.47460317460317" y="329" fill="#000" stroke-width="0.0" font-family="Nimbus Sans" font-size="12.0pt" font-weight="bold">4</text><text x="222.47460317460317" y="203" fill="#000" stroke-width="0.0" font-family="Nimbus Sans" font-size="12.0pt" font-weight="bold">3</text><text x="159.6174603174603" y="140" fill="#000" stroke-width="0.0" font-family="Nimbus Sans" font-size="12.0pt" font-weight="bold">4</text></svg>