<?xml version="1.0" ?><!DOCTYPE svg  PUBLIC '-//W3C//DTD SVG 1.1//EN'  'http://www.w3.org/Graphics/SVG/1.1/DTD/svg11.dtd'><svg xmlns="http://www.w3.org/2000/svg" width="486.000" height="490.000" viewBox="-1.000 -5.000 486.000 490.000"><text x="10.0" y="21" fill="#d82626" stroke-width="0.0" font-family="Nimbus Sans" font-size="16.0pt" font-weight="bold">0</text><text x="26.0" y="21" fill="#2626d8" stroke-width="0.0" font-family="Nimbus Sans" font-size="16.0pt" font-weight="bold">1</text><text x="42.0" y="21" fill="#26d826" stroke-width="0.0" font-family="Nimbus Sans" font-size="16.0pt" font-weight="bold">2</text><circle cx="344.0" cy="29.714285714285715" r="2.0" stroke="#d82626" fill="#d82626"/><circle cx="29.714285714285715" cy="29.714285714285715" r="2.0" stroke="#d82626" fill="#d82626"/><circle cx="29.714285714285715" cy="344.0" r="2.0" stroke="#d82626" fill="#d82626"/><circle cx="344.0" cy="344.0" r="2.0" stroke="#d82626" fill="#d82626"/><circle cx="281.1428571428571" cy="406.85714285714283" r="2.0" stroke="#2626d8" fill="#2626d8"/><circle cx="155.42857142857142" cy="406.85714285714283" r="2.0" stroke="#2626d8" fill="#2626d8"/><circle cx="155.42857142857142" cy="92.57142857142857" r="2.0" stroke="#2626d8" fill="#2626d8"/><circle cx="469.7142857142857" cy="92.57142857142857" r="2.0" stroke="#2626d8" fill="#2626d8"/><circle cx="469.7142857142857" cy="218.28571428571428" r="2.0" stroke="#2626d8" fill="#2626d8"/><circle cx="281.1428571428571" cy="218.28571428571428" r="2.0" stroke="#2626d8" fill="#2626d8"/><circle cx="218.28571428571428" cy="469.7142857142857" r="2.0" stroke="#26d826" fill="#26d826"/><circle cx="92.57142857142857" cy="469.7142857142857" r="2.0" stroke="#26d826" fill="#26d826"/><circle cx="92.57142857142857" cy="155.42857142857142" r="2.0" stroke="#26d826" fill="#26d826"/><circle cx="406.85714285714283" cy="155.42857142857142" r="2.0" stroke="#26d826" fill="#26d826"/><circle cx="406.85714285714283" cy="281.1428571428571" r="2.0" stroke="#26d826" fill="#26d826"/><circle cx="218.28571428571428" cy="281.1428571428571" r="2.0" stroke="#26d826" fill="#26d826"/><line x1="344.0" y1="29.714285714285715" x2="29.714285714285715" y2="29.714285714285715" stroke="#d82626" fill="none" stroke-width="3.0"/><polygon points="29.714285714285715 29.714285714285715 39.714285714285715 26.714285714285715 37.714285714285715 29.714285714285715 39.714285714285715 32.714285714285715" fill="#d82626"/><line x1="29.714285714285715" y1="29.714285714285715" x2="29.714285714285715" y2="344.0" stroke="#d82626" fill="none" stroke-width="3.0"/><polygon points="29.714285714285715 344.0 26.714285714285715 334.0 29.714285714285715 336.0 32.714285714285715 334.0" fill="#d82626"/><line x1="29.714285714285715" y1="344.0" x2="344.0" y2="344.0" stroke="#d82626" fill="none" stroke-width="3.0"/><polygon points="344.0 344.0 334.0 347.0 336.0 344.0 334.0 341.0" fill="#d82626"/><line x1="344.0" y1="344.0" x2="344.0" y2="29.714285714285715" stroke="#d82626" fill="none" stroke-width="3.0"/><polygon points="344.0 29.714285714285715 347.0 39.714285714285715 344.0 37.714285714285715 341.0 39.714285714285715" fill="#d82626"/><line x1="281.1428571428571" y1="406.85714285714283" x2="155.42857142857142" y2="406.85714285714283" stroke="#2626d8" fill="none" stroke-width="3.0"/><polygon points="155.42857142857142 406.85714285714283 165.42857142857142 403.85714285714283 163.42857142857142 406.85714285714283 165.42857142857142 409.85714285714283" fill="#2626d8"/><line x1="155.42857142857142" y1="406.85714285714283" x2="155.42857142857142" y2="92.57142857142857" stroke="#2626d8" fill="none" stroke-width="3.0"/><polygon points="155.42857142857142 92.57142857142857 158.42857142857142 102.57142857142857 155.42857142857142 100.57142857142857 152.42857142857142 102.57142857142857" fill="#2626d8"/><line x1="155.42857142857142" y1="92.57142857142857" x2="469.7142857142857" y2="92.57142857142857" stroke="#2626d8" fill="none" stroke-width="3.0"/><polygon points="469.7142857142857 92.57142857142857 459.7142857142857 95.57142857142857 461.7142857142857 92.57142857142857 459.7142857142857 89.57142857142857" fill="#2626d8"/><line x1="469.7142857142857" y1="92.57142857142857" x2="469.7142857142857" y2="218.28571428571428" stroke="#2626d8" fill="none" stroke-width="3.0"/><polygon points="469.7142857142857 218.28571428571428 466.7142857142857 208.28571428571428 469.7142857142857 210.28571428571428 472.7142857142857 208.28571428571428" fill="#2626d8"/><line x1="469.7142857142857" y1="218.28571428571428" x2="281.1428571428571" y2="218.28571428571428" stroke="#2626d8" fill="none" stroke-width="3.0"/><polygon points="281.1428571428571 218.28571428571428 291.1428571428571 215.28571428571428 289.1428571428571 218.28571428571428 291.1428571428571 221.28571428571428" fill="#2626d8"/><line x1="281.1428571428571" y1="218.28571428571428" x2="281.1428571428571" y2="406.85714285714283" stroke="#2626d8" fill="none" stroke-width="3.0"/><polygon points="281.1428571428571 406.85714285714283 278.1428571428571 396.85714285714283 281.1428571428571 398.85714285714283 284.1428571428571 396.85714285714283" fill="#2626d8"/><line x1="218.28571428571428" y1="469.7142857142857" x2="92.57142857142857" y2="469.7142857142857" stroke="#26d826" fill="none" stroke-width="3.0"/><polygon points="92.57142857142857 469.7142857142857 102.57142857142857 466.7142857142857 100.57142857142857 469.7142857142857 102.57142857142857 472.7142857142857" fill="#26d826"/><line x1="92.57142857142857" y1="469.7142857142857" x2="92.57142857142857" y2="155.42857142857142" stroke="#26d826" fill="none" stroke-width="3.0"/><polygon points="92.57142857142857 155.42857142857142 95.57142857142857 165.42857142857142 92.57142857142857 163.42857142857142 89.57142857142857 165.42857142857142" fill="#26d826"/><line x1="92.57142857142857" y1="155.42857142857142" x2="406.85714285714283" y2="155.42857142857142" stroke="#26d826" fill="none" stroke-width="3.0"/><polygon points="406.85714285714283 155.42857142857142 396.85714285714283 158.42857142857142 398.85714285714283 155.42857142857142 396.85714285714283 152.42857142857142" fill="#26d826"/><line x1="406.85714285714283" y1="155.42857142857142" x2="406.85714285714283" y2="281.1428571428571" stroke="#26d826" fill="none" stroke-width="3.0"/><polygon points="406.85714285714283 281.1428571428571 403.85714285714283 271.1428571428571 406.85714285714283 273.1428571428571 409.85714285714283 271.1428571428571" fill="#26d826"/><line x1="406.85714285714283" y1="281.1428571428571" x2="218.28571428571428" y2="281.1428571428571" stroke="#26d826" fill="none" stroke-width="3.0"/><polygon points="218.28571428571428 281.1428571428571 228.28571428571428 278.1428571428571 226.28571428571428 281.1428571428571 228.28571428571428 284.1428571428571" fill="#26d826"/><line x1="218.28571428571428" y1="281.1428571428571" x2="218.28571428571428" y2="469.7142857142857" stroke="#26d826" fill="none" stroke-width="3.0"/><polygon points="218.28571428571428 469.7142857142857 215.28571428571428 459.7142857142857 218.28571428571428 461.7142857142857 221.28571428571428 459.7142857142857" fill="#26d826"/><text x="33.904761904761905" y="46" fill="#000" stroke-width="0.0" font-family="Nimbus Sans" font-size="12.0pt" font-weight="bold">3</text><text x="33.904761904761905" y="360" fill="#000" stroke-width="0.0" font-family="Nimbus Sans" font-size="12.0pt" font-weight="bold">6</text><text x="96.76190476190476" y="172" fill="#000" stroke-width="0.0" font-family="Nimbus Sans" font-size="12.0pt" font-weight="bold">3</text><text x="96.76190476190476" y="360" fill="#000" stroke-width="0.0" font-family="Nimbus Sans" font-size="12.0pt" font-weight="bold">3</text><text x="159.6190476190476" y="172" fill="#000" stroke-width="0.0" font-family="Nimbus Sans" font-size="12.0pt" font-weight="bold">6</text><text x="159.6190476190476" y="360" fill="#000" stroke-width="0.0" font-family="Nimbus Sans" font-size="12.0pt" font-weight="bold">3</text><text x="285.3333333333333" y="297" fill="#000" stroke-width="0.0" font-family="Nimbus Sans" font-size="12.0pt" font-weight="bold">3</text><text x="285.3333333333333" y="234" fill="#000" stroke-width="0.0" font-family="Nimbus Sans" font-size="12.0pt" font-weight="bold">3</text><text x="348.1904761904762" y="234" fill="#000" stroke-width="0.0" font-family="Nimbus Sans" font-size="12.0pt" font-weight="bold">3</text><text x="348.1904761904762" y="172" fill="#000" stroke-width="0.0" font-family="Nimbus Sans" font-size="12.0pt" font-weight="bold">3</text><text x="159.6190476190476" y="109" fill="#000" stroke-width="0.0" font-family="Nimbus Sans" font-size="12.0pt" font-weight="bold">3</text><text x="348.1904761904762" y="109" fill="#000" stroke-width="0.0" font-family="Nimbus Sans" font-size="12.0pt" font-weight="bold">3</text><text x="222.47619047619045" y="360" fill="#000" stroke-width="0.0" font-family="Nimbus Sans" font-size="12.0pt" font-weight="bold">3</text><text x="222.47619047619045" y="297" fill="#000" stroke-width="0.0" font-family="Nimbus Sans" font-size="12.0pt" font-weight="bold">3</text></svg>