<?xml version="1.0" ?><!DOCTYPE svg  PUBLIC '-//W3C//DTD SVG 1.1//EN'  'http://www.w3.org/Graphics/SVG/1.1/DTD/svg11.dtd'><svg xmlns="http://www.w3.org/2000/svg" width="486.000" height="490.000" viewBox="-1.000 -5.000 486.000 490.000"><text x="10.0" y="21" fill="#d82626" stroke-width="0.0" font-family="Nimbus Sans" font-size="16.0pt" font-weight="bold">0</text><circle cx="92.57142857142857" cy="281.1428571428571" r="2.0" stroke="#d82626" fill="#d82626"/><circle cx="92.57142857142857" cy="406.85714285714283" r="2.0" stroke="#d82626" fill="#d82626"/><circle cx="281.1428571428571" cy="406.85714285714283" r="2.0" stroke="#d82626" fill="#d82626"/><circle cx="281.1428571428571" cy="155.42857142857142" r="2.0" stroke="#d82626" fill="#d82626"/><circle cx="469.7142857142857" cy="155.42857142857142" r="2.0" stroke="#d82626" fill="#d82626"/><circle cx="469.7142857142857" cy="469.7142857142857" r="2.0" stroke="#d82626" fill="#d82626"/><circle cx="155.42857142857142" cy="469.7142857142857" r="2.0" stroke="#d82626" fill="#d82626"/><circle cx="155.42857142857142" cy="29.714285714285715" r="2.0" stroke="#d82626" fill="#d82626"/><circle cx="406.85714285714283" cy="29.714285714285715" r="2.0" stroke="#d82626" fill="#d82626"/><circle cx="406.85714285714283" cy="218.28571428571428" r="2.0" stroke="#d82626" fill="#d82626"/><circle cx="29.714285714285715" cy="218.28571428571428" r="2.0" stroke="#d82626" fill="#d82626"/><circle cx="29.714285714285715" cy="344.0" r="2.0" stroke="#d82626" fill="#d82626"/><circle cx="218.28571428571428" cy="344.0" r="2.0" stroke="#d82626" fill="#d82626"/><circle cx="218.28571428571428" cy="92.57142857142857" r="2.0" stroke="#d82626" fill="#d82626"/><circle cx="344.0" cy="92.57142857142857" r="2.0" stroke="#d82626" fill="#d82626"/><circle cx="344.0" cy="281.1428571428571" r="2.0" stroke="#d82626" fill="#d82626"/><line x1="92.57142857142857" y1="281.1428571428571" x2="92.57142857142857" y2="406.85714285714283" stroke="#d82626" fill="none" stroke-width="3.0"/><polygon points="92.57142857142857 406.85714285714283 89.57142857142857 396.85714285714283 92.57142857142857 398.85714285714283 95.57142857142857 396.85714285714283" fill="#d82626"/><line x1="92.57142857142857" y1="406.85714285714283" x2="281.1428571428571" y2="406.85714285714283" stroke="#d82626" fill="none" stroke-width="3.0"/><polygon points="281.1428571428571 406.85714285714283 271.1428571428571 409.85714285714283 273.1428571428571 406.85714285714283 271.1428571428571 403.85714285714283" fill="#d82626"/><line x1="281.1428571428571" y1="406.85714285714283" x2="281.1428571428571" y2="155.42857142857142" stroke="#d82626" fill="none" stroke-width="3.0"/><polygon points="281.1428571428571 155.42857142857142 284.1428571428571 165.42857142857142 281.1428571428571 163.42857142857142 278.1428571428571 165.42857142857142" fill="#d82626"/><line x1="281.1428571428571" y1="155.42857142857142" x2="469.7142857142857" y2="155.42857142857142" stroke="#d82626" fill="none" stroke-width="3.0"/><polygon points="469.7142857142857 155.42857142857142 459.7142857142857 158.42857142857142 461.7142857142857 155.42857142857142 459.7142857142857 152.42857142857142" fill="#d82626"/><line x1="469.7142857142857" y1="155.42857142857142" x2="469.7142857142857" y2="469.7142857142857" stroke="#d82626" fill="none" stroke-width="3.0"/><polygon points="469.7142857142857 469.7142857142857 466.7142857142857 459.7142857142857 469.7142857142857 461.7142857142857 472.7142857142857 459.7142857142857" fill="#d82626"/><line x1="469.7142857142857" y1="469.7142857142857" x2="155.42857142857142" y2="469.7142857142857" stroke="#d82626" fill="none" stroke-width="3.0"/><polygon points="155.42857142857142 469.7142857142857 165.42857142857142 466.7142857142857 163.42857142857142 469.7142857142857 165.42857142857142 472.7142857142857" fill="#d82626"/><line x1="155.42857142857142" y1="469.7142857142857" x2="155.42857142857142" y2="29.714285714285715" stroke="#d82626" fill="none" stroke-width="3.0"/><polygon points="155.42857142857142 29.714285714285715 158.42857142857142 39.714285714285715 155.42857142857142 37.714285714285715 152.42857142857142 39.714285714285715" fill="#d82626"/><line x1="155.42857142857142" y1="29.714285714285715" x2="406.85714285714283" y2="29.714285714285715" stroke="#d82626" fill="none" stroke-width="3.0"/><polygon points="406.85714285714283 29.714285714285715 396.85714285714283 32.714285714285715 398.85714285714283 29.714285714285715 396.85714285714283 26.714285714285715" fill="#d82626"/><line x1="406.85714285714283" y1="29.714285714285715" x2="406.85714285714283" y2="218.28571428571428" stroke="#d82626" fill="none" stroke-width="3.0"/><polygon points="406.85714285714283 218.28571428571428 403.85714285714283 208.28571428571428 406.85714285714283 210.28571428571428 409.85714285714283 208.28571428571428" fill="#d82626"/><line x1="406.85714285714283" y1="218.28571428571428" x2="29.714285714285715" y2="218.28571428571428" stroke="#d82626" fill="none" stroke-width="3.0"/><polygon points="29.714285714285715 218.28571428571428 39.714285714285715 215.28571428571428 37.714285714285715 218.28571428571428 39.714285714285715 221.28571428571428" fill="#d82626"/><line x1="29.714285714285715" y1="218.28571428571428" x2="29.714285714285715" y2="344.0" stroke="#d82626" fill="none" stroke-width="3.0"/><polygon points="29.714285714285715 344.0 26.714285714285715 334.0 29.714285714285715 336.0 32.714285714285715 334.0" fill="#d82626"/><line x1="29.714285714285715" y1="344.0" x2="218.28571428571428" y2="344.0" stroke="#d82626" fill="none" stroke-width="3.0"/><polygon points="218.28571428571428 344.0 208.28571428571428 347.0 210.28571428571428 344.0 208.28571428571428 341.0" fill="#d82626"/><line x1="218.28571428571428" y1="344.0" x2="218.28571428571428" y2="92.57142857142857" stroke="#d82626" fill="none" stroke-width="3.0"/><polygon points="218.28571428571428 92.57142857142857 221.28571428571428 102.57142857142857 218.28571428571428 100.57142857142857 215.28571428571428 102.57142857142857" fill="#d82626"/><line x1="218.28571428571428" y1="92.57142857142857" x2="344.0" y2="92.57142857142857" stroke="#d82626" fill="none" stroke-width="3.0"/><polygon points="344.0 92.57142857142857 334.0 95.57142857142857 336.0 92.57142857142857 334.0 89.57142857142857" fill="#d82626"/><line x1="344.0" y1="92.57142857142857" x2="344.0" y2="281.1428571428571" stroke="#d82626" fill="none" stroke-width="3.0"/><polygon points="344.0 281.1428571428571 341.0 271.1428571428571 344.0 273.1428571428571 347.0 271.1428571428571" fill="#d82626"/><line x1="344.0" y1="281.1428571428571" x2="92.57142857142857" y2="281.1428571428571" stroke="#d82626" fill="none" stroke-width="3.0"/><polygon points="92.57142857142857 281.1428571428571 102.57142857142857 278.1428571428571 100.57142857142857 281.1428571428571 102.57142857142857 284.1428571428571" fill="#d82626"/><text x="96.76190476190476" y="297" fill="#000" stroke-width="0.0" font-family="Nimbus Sans" font-size="12.0pt" font-weight="bold">3</text><text x="33.904761904761905" y="234" fill="#000" stroke-width="0.0" font-family="Nimbus Sans" font-size="12.0pt" font-weight="bold">3</text><text x="96.76190476190477" y="360" fill="#000" stroke-width="0.0" font-family="Nimbus Sans" font-size="12.0pt" font-weight="bold">3</text><text x="33.904761904761905" y="360" fill="#000" stroke-width="0.0" font-family="Nimbus Sans" font-size="12.0pt" font-weight="bold">4</text><text x="159.6190476190476" y="360" fill="#000" stroke-width="0.0" font-family="Nimbus Sans" font-size="12.0pt" font-weight="bold">4</text><text x="159.6190476190476" y="423" fill="#000" stroke-width="0.0" font-family="Nimbus Sans" font-size="12.0pt" font-weight="bold">4</text><text x="222.47619047619045" y="234" fill="#000" stroke-width="0.0" font-family="Nimbus Sans" font-size="12.0pt" font-weight="bold">4</text><text x="285.3333333333333" y="234" fill="#000" stroke-width="0.0" font-family="Nimbus Sans" font-size="12.0pt" font-weight="bold">3</text><text x="222.47619047619045" y="109" fill="#000" stroke-width="0.0" font-family="Nimbus Sans" font-size="12.0pt" font-weight="bold">3</text><text x="285.3333333333333" y="172" fill="#000" stroke-width="0.0" font-family="Nimbus Sans" font-size="12.0pt" font-weight="bold">3</text><text x="159.6190476190476" y="297" fill="#000" stroke-width="0.0" font-family="Nimbus Sans" font-size="12.0pt" font-weight="bold">3</text><text x="159.6190476190476" y="46" fill="#000" stroke-width="0.0" font-family="Nimbus Sans" font-size="12.0pt" font-weight="bold">4</text><text x="159.61904761904762" y="234" fill="#000" stroke-width="0.0" font-family="Nimbus Sans" font-size="12.0pt" font-weight="bold">4</text><text x="348.1904761904762" y="172" fill="#000" stroke-width="0.0" font-family="Nimbus Sans" font-size="12.0pt" font-weight="bold">3</text></svg>