<?xml version="1.0" ?><!DOCTYPE svg  PUBLIC '-//W3C//DTD SVG 1.1//EN'  'http://www.w3.org/Graphics/SVG/1.1/DTD/svg11.dtd'><svg xmlns="http://www.w3.org/2000/svg" width="486.000" height="490.000" viewBox="-1.000 -5.000 486.000 490.000"><text x="10.0" y="21" fill="#000000" stroke-width="0.0" font-family="Nimbus Sans" font-size="16.0pt" font-weight="bold">1 component, 10 regions</text><circle cx="117.80000000000001" cy="205.8" r="2.0" stroke="#d82626" fill="#d82626"/><circle cx="117.80000000000001" cy="469.80000000000007" r="2.0" stroke="#d82626" fill="#d82626"/><circle cx="293.8" cy="469.80000000000007" r="2.0" stroke="#d82626" fill="#d82626"/><circle cx="293.8" cy="29.800000000000004" r="2.0" stroke="#d82626" fill="#d82626"/><circle cx="29.800000000000004" cy="29.800000000000004" r="2.0" stroke="#d82626" fill="#d82626"/><circle cx="29.800000000000004" cy="293.8" r="2.0" stroke="#d82626" fill="#d82626"/><circle cx="469.80000000000007" cy="293.8" r="2.0" stroke="#d82626" fill="#d82626"/><circle cx="469.80000000000007" cy="117.80000000000001" r="2.0" stroke="#d82626" fill="#d82626"/><circle cx="205.8" cy="117.80000000000001" r="2.0" stroke="#d82626" fill="#d82626"/><circle cx="205.8" cy="381.8" r="2.0" stroke="#d82626" fill="#d82626"/><circle cx="381.8" cy="381.8" r="2.0" stroke="#d82626" fill="#d82626"/><circle cx="381.8" cy="205.8" r="2.0" stroke="#d82626" fill="#d82626"/><line x1="117.80000000000001" y1="205.8" x2="117.80000000000001" y2="469.80000000000007" stroke="#d82626" fill="none" stroke-width="3.0"/><polygon points="117.80000000000001 469.80000000000007 114.80000000000001 459.80000000000007 117.80000000000001 461.80000000000007 120.80000000000001 459.80000000000007" fill="#d82626"/><line x1="117.80000000000001" y1="469.80000000000007" x2="293.8" y2="469.80000000000007" stroke="#d82626" fill="none" stroke-width="3.0"/><polygon points="293.8 469.80000000000007 283.8 472.80000000000007 285.8 469.80000000000007 283.8 466.80000000000007" fill="#d82626"/><line x1="293.8" y1="469.80000000000007" x2="293.8" y2="29.800000000000004" stroke="#d82626" fill="none" stroke-width="3.0"/><polygon points="293.8 29.800000000000004 296.8 39.800000000000004 293.8 37.800000000000004 290.8 39.800000000000004" fill="#d82626"/><line x1="293.8" y1="29.800000000000004" x2="29.800000000000004" y2="29.800000000000004" stroke="#d82626" fill="none" stroke-width="3.0"/><polygon points="29.800000000000004 29.800000000000004 39.800000000000004 26.800000000000004 37.800000000000004 29.800000000000004 39.800000000000004 32.800000000000004" fill="#d82626"/><line x1="29.800000000000004" y1="29.800000000000004" x2="29.800000000000004" y2="293.8" stroke="#d82626" fill="none" stroke-width="3.0"/><polygon points="29.800000000000004 293.8 26.800000000000004 283.8 29.800000000000004 285.8 32.800000000000004 283.8" fill="#d82626"/><line x1="29.800000000000004" y1="293.8" x2="469.80000000000007" y2="293.8" stroke="#d82626" fill="none" stroke-width="3.0"/><polygon points="469.80000000000007 293.8 459.80000000000007 296.8 461.80000000000007 293.8 459.80000000000007 290.8" fill="#d82626"/><line x1="469.80000000000007" y1="293.8" x2="469.80000000000007" y2="117.80000000000001" stroke="#d82626" fill="none" stroke-width="3.0"/><polygon points="469.80000000000007 117.80000000000001 472.80000000000007 127.80000000000001 469.80000000000007 125.80000000000001 466.80000000000007 127.80000000000001" fill="#d82626"/><line x1="469.80000000000007" y1="117.80000000000001" x2="205.8" y2="117.80000000000001" stroke="#d82626" fill="none" stroke-width="3.0"/><polygon points="205.8 117.80000000000001 215.8 114.80000000000001 213.8 117.80000000000001 215.8 120.80000000000001" fill="#d82626"/><line x1="205.8" y1="117.80000000000001" x2="205.8" y2="381.8" stroke="#d82626" fill="none" stroke-width="3.0"/><polygon points="205.8 381.8 202.8 371.8 205.8 373.8 208.8 371.8" fill="#d82626"/><line x1="205.8" y1="381.8" x2="381.8" y2="381.8" stroke="#d82626" fill="none" stroke-width="3.0"/><polygon points="381.8 381.8 371.8 384.8 373.8 381.8 371.8 378.8" fill="#d82626"/><line x1="381.8" y1="381.8" x2="381.8" y2="205.8" stroke="#d82626" fill="none" stroke-width="3.0"/><polygon points="381.8 205.8 384.8 215.8 381.8 213.8 378.8 215.8" fill="#d82626"/><line x1="381.8" y1="205.8" x2="117.80000000000001" y2="205.8" stroke="#d82626" fill="none" stroke-width="3.0"/><polygon points="117.80000000000001 205.8 127.80000000000001 202.8 125.80000000000001 205.8 127.80000000000001 208.8" fill="#d82626"/><text x="123.66666666666667" y="229" fill="#000" stroke-width="0.0" font-family="Nimbus Sans" font-size="17.0pt" font-weight="bold">3</text><text x="35.666666666666664" y="53" fill="#000" stroke-width="0.0" font-family="Nimbus Sans" font-size="17.0pt" font-weight="bold">3</text><text x="123.66666666666667" y="317" fill="#000" stroke-width="0.0" font-family="Nimbus Sans" font-size="17.0pt" font-weight="bold">3</text><text x="35.666666666666664" y="317" fill="#000" stroke-width="0.0" font-family="Nimbus Sans" font-size="17.0pt" font-weight="bold">4</text><text x="211.66666666666669" y="141" fill="#000" stroke-width="0.0" font-family="Nimbus Sans" font-size="17.0pt" font-weight="bold">3</text><text x="299.66666666666674" y="141" fill="#000" stroke-width="0.0" font-family="Nimbus Sans" font-size="17.0pt" font-weight="bold">3</text><text x="211.66666666666669" y="229" fill="#000" stroke-width="0.0" font-family="Nimbus Sans" font-size="17.0pt" font-weight="bold">4</text><text x="299.6666666666667" y="229" fill="#000" stroke-width="0.0" font-family="Nimbus Sans" font-size="17.0pt" font-weight="bold">3</text><text x="299.6666666666667" y="317" fill="#000" stroke-width="0.0" font-family="Nimbus Sans" font-size="17.0pt" font-weight="bold">3</text><text x="211.66666666666669" y="317" fill="#000" stroke-width="0.0" font-family="Nimbus Sans" font-size="17.0pt" font-weight="bold">3</text></svg>