<?xml version="1.0" ?><!DOCTYPE svg  PUBLIC '-//W3C//DTD SVG 1.1//EN'  'http://www.w3.org/Graphics/SVG/1.1/DTD/svg11.dtd'><svg xmlns="http://www.w3.org/2000/svg" width="486.000" height="446.000" viewBox="-1.000 -5.000 486.000 446.000"><text x="10.0" y="21" fill="#d82626" stroke-width="0.0" font-family="Nimbus Sans" font-size="16.0pt" font-weight="bold">0</text><circle cx="293.8" cy="425.8" r="2.0" stroke="#d82626" fill="#d82626"/><circle cx="205.8" cy="425.8" r="2.0" stroke="#d82626" fill="#d82626"/><circle cx="205.8" cy="161.8" r="2.0" stroke="#d82626" fill="#d82626"/><circle cx="29.800000000000004" cy="161.8" r="2.0" stroke="#d82626" fill="#d82626"/><circle cx="29.800000000000004" cy="249.8" r="2.0" stroke="#d82626" fill="#d82626"/><circle cx="469.80000000000007" cy="249.8" r="2.0" stroke="#d82626" fill="#d82626"/><circle cx="469.80000000000007" cy="73.80000000000001" r="2.0" stroke="#d82626" fill="#d82626"/><circle cx="117.80000000000001" cy="73.80000000000001" r="2.0" stroke="#d82626" fill="#d82626"/><circle cx="117.80000000000001" cy="337.8" r="2.0" stroke="#d82626" fill="#d82626"/><circle cx="381.8" cy="337.8" r="2.0" stroke="#d82626" fill="#d82626"/><circle cx="381.8" cy="161.8" r="2.0" stroke="#d82626" fill="#d82626"/><circle cx="293.8" cy="161.8" r="2.0" stroke="#d82626" fill="#d82626"/><line x1="293.8" y1="425.8" x2="205.8" y2="425.8" stroke="#d82626" fill="none" stroke-width="3.0"/><polygon points="205.8 425.8 215.8 422.8 213.8 425.8 215.8 428.8" fill="#d82626"/><line x1="205.8" y1="425.8" x2="205.8" y2="161.8" stroke="#d82626" fill="none" stroke-width="3.0"/><polygon points="205.8 161.8 208.8 171.8 205.8 169.8 202.8 171.8" fill="#d82626"/><line x1="205.8" y1="161.8" x2="29.800000000000004" y2="161.8" stroke="#d82626" fill="none" stroke-width="3.0"/><polygon points="29.800000000000004 161.8 39.800000000000004 158.8 37.800000000000004 161.8 39.800000000000004 164.8" fill="#d82626"/><line x1="29.800000000000004" y1="161.8" x2="29.800000000000004" y2="249.8" stroke="#d82626" fill="none" stroke-width="3.0"/><polygon points="29.800000000000004 249.8 26.800000000000004 239.8 29.800000000000004 241.8 32.800000000000004 239.8" fill="#d82626"/><line x1="29.800000000000004" y1="249.8" x2="469.80000000000007" y2="249.8" stroke="#d82626" fill="none" stroke-width="3.0"/><polygon points="469.80000000000007 249.8 459.80000000000007 252.8 461.80000000000007 249.8 459.80000000000007 246.8" fill="#d82626"/><line x1="469.80000000000007" y1="249.8" x2="469.80000000000007" y2="73.80000000000001" stroke="#d82626" fill="none" stroke-width="3.0"/><polygon points="469.80000000000007 73.80000000000001 472.80000000000007 83.80000000000001 469.80000000000007 81.80000000000001 466.80000000000007 83.80000000000001" fill="#d82626"/><line x1="469.80000000000007" y1="73.80000000000001" x2="117.80000000000001" y2="73.80000000000001" stroke="#d82626" fill="none" stroke-width="3.0"/><polygon points="117.80000000000001 73.80000000000001 127.80000000000001 70.80000000000001 125.80000000000001 73.80000000000001 127.80000000000001 76.80000000000001" fill="#d82626"/><line x1="117.80000000000001" y1="73.80000000000001" x2="117.80000000000001" y2="337.8" stroke="#d82626" fill="none" stroke-width="3.0"/><polygon points="117.80000000000001 337.8 114.80000000000001 327.8 117.80000000000001 329.8 120.80000000000001 327.8" fill="#d82626"/><line x1="117.80000000000001" y1="337.8" x2="381.8" y2="337.8" stroke="#d82626" fill="none" stroke-width="3.0"/><polygon points="381.8 337.8 371.8 340.8 373.8 337.8 371.8 334.8" fill="#d82626"/><line x1="381.8" y1="337.8" x2="381.8" y2="161.8" stroke="#d82626" fill="none" stroke-width="3.0"/><polygon points="381.8 161.8 384.8 171.8 381.8 169.8 378.8 171.8" fill="#d82626"/><line x1="381.8" y1="161.8" x2="293.8" y2="161.8" stroke="#d82626" fill="none" stroke-width="3.0"/><polygon points="293.8 161.8 303.8 158.8 301.8 161.8 303.8 164.8" fill="#d82626"/><line x1="293.8" y1="161.8" x2="293.8" y2="425.8" stroke="#d82626" fill="none" stroke-width="3.0"/><polygon points="293.8 425.8 290.8 415.8 293.8 417.8 296.8 415.8" fill="#d82626"/><text x="39.800000000000004" y="270" fill="#000" stroke-width="0.0" font-family="Nimbus Sans" font-size="12.0pt" font-weight="bold">9</text><text x="215.8" y="358" fill="#000" stroke-width="0.0" font-family="Nimbus Sans" font-size="12.0pt" font-weight="bold">8</text><circle cx="219.8" cy="371.8" r="4.0" stroke="#f00" fill="#f00" stroke-width="4.0"/><circle cx="233.8" cy="371.8" r="4.0" stroke="#0f0" fill="#0f0" stroke-width="4.0"/><circle cx="247.8" cy="371.8" r="4.0" stroke="#00a200" fill="#00a200" stroke-width="4.0"/><text x="127.80000000000001" y="270" fill="#000" stroke-width="0.0" font-family="Nimbus Sans" font-size="12.0pt" font-weight="bold">3</text><circle cx="131.8" cy="283.8" r="4.0" stroke="#f00" fill="#f00" stroke-width="4.0"/><text x="215.8" y="270" fill="#000" stroke-width="0.0" font-family="Nimbus Sans" font-size="12.0pt" font-weight="bold">6</text><circle cx="219.8" cy="283.79999999999995" r="4.0" stroke="#00a200" fill="#00a200" stroke-width="4.0"/><text x="127.80000000000001" y="94" fill="#000" stroke-width="0.0" font-family="Nimbus Sans" font-size="12.0pt" font-weight="bold">5</text><text x="127.80000000000001" y="182" fill="#000" stroke-width="0.0" font-family="Nimbus Sans" font-size="12.0pt" font-weight="bold">2</text><circle cx="131.8" cy="195.8" r="4.0" stroke="#0f0" fill="#0f0" stroke-width="4.0"/><circle cx="145.8" cy="195.8" r="4.0" stroke="#00a200" fill="#00a200" stroke-width="4.0"/><text x="39.800000000000004" y="182" fill="#000" stroke-width="0.0" font-family="Nimbus Sans" font-size="12.0pt" font-weight="bold">1</text><circle cx="43.800000000000004" cy="195.8" r="4.0" stroke="#f00" fill="#f00" stroke-width="4.0"/><circle cx="57.800000000000004" cy="195.8" r="4.0" stroke="#0f0" fill="#0f0" stroke-width="4.0"/><circle cx="71.80000000000001" cy="195.8" r="4.0" stroke="#00a200" fill="#00a200" stroke-width="4.0"/><text x="303.8" y="182" fill="#000" stroke-width="0.0" font-family="Nimbus Sans" font-size="12.0pt" font-weight="bold">4</text><circle cx="307.8" cy="195.8" r="4.0" stroke="#f00" fill="#f00" stroke-width="4.0"/><circle cx="321.8" cy="195.8" r="4.0" stroke="#0f0" fill="#0f0" stroke-width="4.0"/><circle cx="335.8" cy="195.8" r="4.0" stroke="#00a200" fill="#00a200" stroke-width="4.0"/><text x="303.8" y="270" fill="#000" stroke-width="0.0" font-family="Nimbus Sans" font-size="12.0pt" font-weight="bold">7</text><circle cx="307.8" cy="283.8" r="4.0" stroke="#0f0" fill="#0f0" stroke-width="4.0"/></svg>