<?xml version="1.0" ?><!DOCTYPE svg  PUBLIC '-//W3C//DTD SVG 1.1//EN'  'http://www.w3.org/Graphics/SVG/1.1/DTD/svg11.dtd'><svg xmlns="http://www.w3.org/2000/svg" width="487.000" height="539.000" viewBox="-1.000 -5.000 487.000 539.000"><text x="10.0" y="21" fill="#d82626" stroke-width="0.0" font-family="Nimbus Sans" font-size="16.0pt" font-weight="bold">0</text><circle cx="396.66666666666663" cy="396.66666666666663" r="2.0" stroke="#d82626" fill="#d82626"/><circle cx="176.66666666666666" cy="396.66666666666663" r="2.0" stroke="#d82626" fill="#d82626"/><circle cx="176.66666666666666" cy="176.66666666666666" r="2.0" stroke="#d82626" fill="#d82626"/><circle cx="470.0" cy="176.66666666666666" r="2.0" stroke="#d82626" fill="#d82626"/><circle cx="470.0" cy="323.3333333333333" r="2.0" stroke="#d82626" fill="#d82626"/><circle cx="250.0" cy="323.3333333333333" r="2.0" stroke="#d82626" fill="#d82626"/><circle cx="250.0" cy="30.0" r="2.0" stroke="#d82626" fill="#d82626"/><circle cx="30.0" cy="30.0" r="2.0" stroke="#d82626" fill="#d82626"/><circle cx="30.0" cy="470.0" r="2.0" stroke="#d82626" fill="#d82626"/><circle cx="323.3333333333333" cy="470.0" r="2.0" stroke="#d82626" fill="#d82626"/><circle cx="323.3333333333333" cy="103.33333333333333" r="2.0" stroke="#d82626" fill="#d82626"/><circle cx="103.33333333333333" cy="103.33333333333333" r="2.0" stroke="#d82626" fill="#d82626"/><circle cx="103.33333333333333" cy="250.0" r="2.0" stroke="#d82626" fill="#d82626"/><circle cx="396.66666666666663" cy="250.0" r="2.0" stroke="#d82626" fill="#d82626"/><line x1="396.66666666666663" y1="396.66666666666663" x2="176.66666666666666" y2="396.66666666666663" stroke="#d82626" fill="none" stroke-width="3.0"/><polygon points="176.66666666666666 396.66666666666663 186.66666666666666 393.66666666666663 184.66666666666666 396.66666666666663 186.66666666666666 399.66666666666663" fill="#d82626"/><line x1="176.66666666666666" y1="396.66666666666663" x2="176.66666666666666" y2="176.66666666666666" stroke="#d82626" fill="none" stroke-width="3.0"/><polygon points="176.66666666666666 176.66666666666666 179.66666666666666 186.66666666666666 176.66666666666666 184.66666666666666 173.66666666666666 186.66666666666666" fill="#d82626"/><line x1="176.66666666666666" y1="176.66666666666666" x2="470.0" y2="176.66666666666666" stroke="#d82626" fill="none" stroke-width="3.0"/><polygon points="470.0 176.66666666666666 460.0 179.66666666666666 462.0 176.66666666666666 460.0 173.66666666666666" fill="#d82626"/><line x1="470.0" y1="176.66666666666666" x2="470.0" y2="323.3333333333333" stroke="#d82626" fill="none" stroke-width="3.0"/><polygon points="470.0 323.3333333333333 467.0 313.3333333333333 470.0 315.3333333333333 473.0 313.3333333333333" fill="#d82626"/><line x1="470.0" y1="323.3333333333333" x2="250.0" y2="323.3333333333333" stroke="#d82626" fill="none" stroke-width="3.0"/><polygon points="250.0 323.3333333333333 260.0 320.3333333333333 258.0 323.3333333333333 260.0 326.3333333333333" fill="#d82626"/><line x1="250.0" y1="323.3333333333333" x2="250.0" y2="30.0" stroke="#d82626" fill="none" stroke-width="3.0"/><polygon points="250.0 30.0 253.0 40.0 250.0 38.0 247.0 40.0" fill="#d82626"/><line x1="250.0" y1="30.0" x2="30.0" y2="30.0" stroke="#d82626" fill="none" stroke-width="3.0"/><polygon points="30.0 30.0 40.0 27.0 38.0 30.0 40.0 33.0" fill="#d82626"/><line x1="30.0" y1="30.0" x2="30.0" y2="470.0" stroke="#d82626" fill="none" stroke-width="3.0"/><polygon points="30.0 470.0 27.0 460.0 30.0 462.0 33.0 460.0" fill="#d82626"/><line x1="30.0" y1="470.0" x2="323.3333333333333" y2="470.0" stroke="#d82626" fill="none" stroke-width="3.0"/><polygon points="323.3333333333333 470.0 313.3333333333333 473.0 315.3333333333333 470.0 313.3333333333333 467.0" fill="#d82626"/><line x1="323.3333333333333" y1="470.0" x2="323.3333333333333" y2="103.33333333333333" stroke="#d82626" fill="none" stroke-width="3.0"/><polygon points="323.3333333333333 103.33333333333333 326.3333333333333 113.33333333333333 323.3333333333333 111.33333333333333 320.3333333333333 113.33333333333333" fill="#d82626"/><line x1="323.3333333333333" y1="103.33333333333333" x2="103.33333333333333" y2="103.33333333333333" stroke="#d82626" fill="none" stroke-width="3.0"/><polygon points="103.33333333333333 103.33333333333333 113.33333333333333 100.33333333333333 111.33333333333333 103.33333333333333 113.33333333333333 106.33333333333333" fill="#d82626"/><line x1="103.33333333333333" y1="103.33333333333333" x2="103.33333333333333" y2="250.0" stroke="#d82626" fill="none" stroke-width="3.0"/><polygon points="103.33333333333333 250.0 100.33333333333333 240.0 103.33333333333333 242.0 106.33333333333333 240.0" fill="#d82626"/><line x1="103.33333333333333" y1="250.0" x2="396.66666666666663" y2="250.0" stroke="#d82626" fill="none" stroke-width="3.0"/><polygon points="396.66666666666663 250.0 386.66666666666663 253.0 388.66666666666663 250.0 386.66666666666663 247.0" fill="#d82626"/><line x1="396.66666666666663" y1="250.0" x2="396.66666666666663" y2="396.66666666666663" stroke="#d82626" fill="none" stroke-width="3.0"/><polygon points="396.66666666666663 396.66666666666663 393.66666666666663 386.66666666666663 396.66666666666663 388.66666666666663 399.66666666666663 386.66666666666663" fill="#d82626"/><text x="40.0" y="491" fill="#000" stroke-width="0.0" font-family="Nimbus Sans" font-size="12.0pt" font-weight="bold">11</text><circle cx="44.0" cy="504.0" r="4.0" stroke="#0f0" fill="#0f0" stroke-width="4.0"/><circle cx="58.0" cy="504.0" r="4.0" stroke="#00ec00" fill="#00ec00" stroke-width="4.0"/><circle cx="72.0" cy="504.0" r="4.0" stroke="#00b500" fill="#00b500" stroke-width="4.0"/><circle cx="86.0" cy="504.0" r="4.0" stroke="#00a200" fill="#00a200" stroke-width="4.0"/><circle cx="44.0" cy="518.0" r="4.0" stroke="#007d00" fill="#007d00" stroke-width="4.0"/><circle cx="58.0" cy="518.0" r="4.0" stroke="#005800" fill="#005800" stroke-width="4.0"/><text x="333.3333333333333" y="344" fill="#000" stroke-width="0.0" font-family="Nimbus Sans" font-size="12.0pt" font-weight="bold">10</text><circle cx="337.3333333333333" cy="357.3333333333333" r="4.0" stroke="#f00" fill="#f00" stroke-width="4.0"/><circle cx="351.3333333333333" cy="357.3333333333333" r="4.0" stroke="#00c700" fill="#00c700" stroke-width="4.0"/><circle cx="365.3333333333333" cy="357.3333333333333" r="4.0" stroke="#00b500" fill="#00b500" stroke-width="4.0"/><circle cx="379.3333333333333" cy="357.3333333333333" r="4.0" stroke="#009000" fill="#009000" stroke-width="4.0"/><circle cx="337.3333333333333" cy="371.3333333333333" r="4.0" stroke="#006b00" fill="#006b00" stroke-width="4.0"/><text x="40.0" y="51" fill="#000" stroke-width="0.0" font-family="Nimbus Sans" font-size="12.0pt" font-weight="bold">3</text><circle cx="44.0" cy="64.0" r="4.0" stroke="#900" fill="#900" stroke-width="4.0"/><circle cx="58.0" cy="64.0" r="4.0" stroke="#00c700" fill="#00c700" stroke-width="4.0"/><circle cx="72.0" cy="64.0" r="4.0" stroke="#006b00" fill="#006b00" stroke-width="4.0"/><circle cx="86.0" cy="64.0" r="4.0" stroke="#005800" fill="#005800" stroke-width="4.0"/><circle cx="44.0" cy="78.0" r="4.0" stroke="#004600" fill="#004600" stroke-width="4.0"/><text x="186.66666666666666" y="271" fill="#000" stroke-width="0.0" font-family="Nimbus Sans" font-size="12.0pt" font-weight="bold">5</text><circle cx="190.66666666666666" cy="284.0" r="4.0" stroke="#00ec00" fill="#00ec00" stroke-width="4.0"/><circle cx="204.66666666666666" cy="284.0" r="4.0" stroke="#00da00" fill="#00da00" stroke-width="4.0"/><circle cx="218.66666666666666" cy="284.0" r="4.0" stroke="#00a200" fill="#00a200" stroke-width="4.0"/><circle cx="232.66666666666666" cy="284.0" r="4.0" stroke="#009000" fill="#009000" stroke-width="4.0"/><circle cx="190.66666666666666" cy="298.0" r="4.0" stroke="#007d00" fill="#007d00" stroke-width="4.0"/><circle cx="204.66666666666666" cy="298.0" r="4.0" stroke="#004600" fill="#004600" stroke-width="4.0"/><text x="186.66666666666666" y="197" fill="#000" stroke-width="0.0" font-family="Nimbus Sans" font-size="12.0pt" font-weight="bold">4</text><circle cx="190.66666666666666" cy="210.66666666666666" r="4.0" stroke="#900" fill="#900" stroke-width="4.0"/><circle cx="204.66666666666666" cy="210.66666666666666" r="4.0" stroke="#0f0" fill="#0f0" stroke-width="4.0"/><circle cx="218.66666666666666" cy="210.66666666666666" r="4.0" stroke="#007d00" fill="#007d00" stroke-width="4.0"/><circle cx="232.66666666666666" cy="210.66666666666666" r="4.0" stroke="#006b00" fill="#006b00" stroke-width="4.0"/><circle cx="190.66666666666666" cy="224.66666666666666" r="4.0" stroke="#005800" fill="#005800" stroke-width="4.0"/><text x="113.33333333333333" y="124" fill="#000" stroke-width="0.0" font-family="Nimbus Sans" font-size="12.0pt" font-weight="bold">2</text><circle cx="117.33333333333333" cy="137.33333333333331" r="4.0" stroke="#f00" fill="#f00" stroke-width="4.0"/><ellipse cx="131.33333333333331" cy="137.33333333333331" rx="3.999999999999993" ry="4.0" stroke="#0f0" fill="#0f0" stroke-width="4.0"/><circle cx="145.33333333333331" cy="137.33333333333331" r="4.0" stroke="#00ec00" fill="#00ec00" stroke-width="4.0"/><circle cx="159.33333333333331" cy="137.33333333333331" r="4.0" stroke="#00da00" fill="#00da00" stroke-width="4.0"/><circle cx="117.33333333333333" cy="151.33333333333331" r="4.0" stroke="#00c700" fill="#00c700" stroke-width="4.0"/><ellipse cx="131.33333333333331" cy="151.33333333333331" rx="3.999999999999993" ry="4.0" stroke="#00b500" fill="#00b500" stroke-width="4.0"/><circle cx="145.33333333333331" cy="151.33333333333331" r="4.0" stroke="#00a200" fill="#00a200" stroke-width="4.0"/><circle cx="159.33333333333331" cy="151.33333333333331" r="4.0" stroke="#009000" fill="#009000" stroke-width="4.0"/><circle cx="117.33333333333333" cy="165.33333333333331" r="4.0" stroke="#007d00" fill="#007d00" stroke-width="4.0"/><ellipse cx="131.33333333333331" cy="165.33333333333331" rx="3.999999999999993" ry="4.0" stroke="#005800" fill="#005800" stroke-width="4.0"/><circle cx="145.33333333333331" cy="165.33333333333331" r="4.0" stroke="#004600" fill="#004600" stroke-width="4.0"/><text x="260.0" y="124" fill="#000" stroke-width="0.0" font-family="Nimbus Sans" font-size="12.0pt" font-weight="bold">1</text><circle cx="264.0" cy="137.33333333333331" r="4.0" stroke="#900" fill="#900" stroke-width="4.0"/><circle cx="278.0" cy="137.33333333333331" r="4.0" stroke="#00da00" fill="#00da00" stroke-width="4.0"/><circle cx="292.0" cy="137.33333333333331" r="4.0" stroke="#007d00" fill="#007d00" stroke-width="4.0"/><circle cx="306.0" cy="137.33333333333331" r="4.0" stroke="#006b00" fill="#006b00" stroke-width="4.0"/><circle cx="264.0" cy="151.33333333333331" r="4.0" stroke="#004600" fill="#004600" stroke-width="4.0"/><text x="260.0" y="197" fill="#000" stroke-width="0.0" font-family="Nimbus Sans" font-size="12.0pt" font-weight="bold">7</text><circle cx="264.0" cy="210.66666666666666" r="4.0" stroke="#00ec00" fill="#00ec00" stroke-width="4.0"/><circle cx="278.0" cy="210.66666666666666" r="4.0" stroke="#00c700" fill="#00c700" stroke-width="4.0"/><circle cx="292.0" cy="210.66666666666666" r="4.0" stroke="#00b500" fill="#00b500" stroke-width="4.0"/><circle cx="306.0" cy="210.66666666666666" r="4.0" stroke="#009000" fill="#009000" stroke-width="4.0"/><circle cx="264.0" cy="224.66666666666666" r="4.0" stroke="#005800" fill="#005800" stroke-width="4.0"/><circle cx="278.0" cy="224.66666666666666" r="4.0" stroke="#004600" fill="#004600" stroke-width="4.0"/><text x="333.3333333333333" y="197" fill="#000" stroke-width="0.0" font-family="Nimbus Sans" font-size="12.0pt" font-weight="bold">9</text><circle cx="337.3333333333333" cy="210.66666666666663" r="4.0" stroke="#f00" fill="#f00" stroke-width="4.0"/><circle cx="351.3333333333333" cy="210.66666666666663" r="4.0" stroke="#00da00" fill="#00da00" stroke-width="4.0"/><circle cx="365.3333333333333" cy="210.66666666666663" r="4.0" stroke="#00a200" fill="#00a200" stroke-width="4.0"/><circle cx="379.3333333333333" cy="210.66666666666663" r="4.0" stroke="#009000" fill="#009000" stroke-width="4.0"/><circle cx="337.3333333333333" cy="224.66666666666663" r="4.0" stroke="#006b00" fill="#006b00" stroke-width="4.0"/><text x="333.3333333333333" y="271" fill="#000" stroke-width="0.0" font-family="Nimbus Sans" font-size="12.0pt" font-weight="bold">8</text><circle cx="337.3333333333333" cy="284.0" r="4.0" stroke="#900" fill="#900" stroke-width="4.0"/><circle cx="351.3333333333333" cy="284.0" r="4.0" stroke="#0f0" fill="#0f0" stroke-width="4.0"/><circle cx="365.3333333333333" cy="284.0" r="4.0" stroke="#00ec00" fill="#00ec00" stroke-width="4.0"/><circle cx="379.3333333333333" cy="284.0" r="4.0" stroke="#00da00" fill="#00da00" stroke-width="4.0"/><circle cx="337.3333333333333" cy="298.0" r="4.0" stroke="#00c700" fill="#00c700" stroke-width="4.0"/><circle cx="351.3333333333333" cy="298.0" r="4.0" stroke="#00b500" fill="#00b500" stroke-width="4.0"/><circle cx="365.3333333333333" cy="298.0" r="4.0" stroke="#00a200" fill="#00a200" stroke-width="4.0"/><circle cx="379.3333333333333" cy="298.0" r="4.0" stroke="#009000" fill="#009000" stroke-width="4.0"/><circle cx="337.3333333333333" cy="312.0" r="4.0" stroke="#007d00" fill="#007d00" stroke-width="4.0"/><circle cx="351.3333333333333" cy="312.0" r="4.0" stroke="#005800" fill="#005800" stroke-width="4.0"/><circle cx="365.3333333333333" cy="312.0" r="4.0" stroke="#004600" fill="#004600" stroke-width="4.0"/><text x="260.0" y="271" fill="#000" stroke-width="0.0" font-family="Nimbus Sans" font-size="12.0pt" font-weight="bold">6</text><circle cx="264.0" cy="284.0" r="4.0" stroke="#f00" fill="#f00" stroke-width="4.0"/><circle cx="278.0" cy="284.0" r="4.0" stroke="#0f0" fill="#0f0" stroke-width="4.0"/><circle cx="292.0" cy="284.0" r="4.0" stroke="#00b500" fill="#00b500" stroke-width="4.0"/><circle cx="306.0" cy="284.0" r="4.0" stroke="#00a200" fill="#00a200" stroke-width="4.0"/><circle cx="264.0" cy="298.0" r="4.0" stroke="#006b00" fill="#006b00" stroke-width="4.0"/></svg>