<?xml version="1.0" ?><!DOCTYPE svg  PUBLIC '-//W3C//DTD SVG 1.1//EN'  'http://www.w3.org/Graphics/SVG/1.1/DTD/svg11.dtd'><svg xmlns="http://www.w3.org/2000/svg" width="486.000" height="490.000" viewBox="-1.000 -5.000 486.000 490.000"><text x="10.0" y="21" fill="#d82626" stroke-width="0.0" font-family="Nimbus Sans" font-size="16.0pt" font-weight="bold">0</text><circle cx="293.8" cy="469.80000000000007" r="2.0" stroke="#d82626" fill="#d82626"/><circle cx="117.80000000000001" cy="469.80000000000007" r="2.0" stroke="#d82626" fill="#d82626"/><circle cx="117.80000000000001" cy="205.8" r="2.0" stroke="#d82626" fill="#d82626"/><circle cx="381.8" cy="205.8" r="2.0" stroke="#d82626" fill="#d82626"/><circle cx="381.8" cy="381.8" r="2.0" stroke="#d82626" fill="#d82626"/><circle cx="205.8" cy="381.8" r="2.0" stroke="#d82626" fill="#d82626"/><circle cx="205.8" cy="117.80000000000001" r="2.0" stroke="#d82626" fill="#d82626"/><circle cx="469.80000000000007" cy="117.80000000000001" r="2.0" stroke="#d82626" fill="#d82626"/><circle cx="469.80000000000007" cy="293.8" r="2.0" stroke="#d82626" fill="#d82626"/><circle cx="29.800000000000004" cy="293.8" r="2.0" stroke="#d82626" fill="#d82626"/><circle cx="29.800000000000004" cy="29.800000000000004" r="2.0" stroke="#d82626" fill="#d82626"/><circle cx="293.8" cy="29.800000000000004" r="2.0" stroke="#d82626" fill="#d82626"/><line x1="293.8" y1="469.80000000000007" x2="117.80000000000001" y2="469.80000000000007" stroke="#d82626" fill="none" stroke-width="3.0"/><polygon points="117.80000000000001 469.80000000000007 127.80000000000001 466.80000000000007 125.80000000000001 469.80000000000007 127.80000000000001 472.80000000000007" fill="#d82626"/><line x1="117.80000000000001" y1="469.80000000000007" x2="117.80000000000001" y2="205.8" stroke="#d82626" fill="none" stroke-width="3.0"/><polygon points="117.80000000000001 205.8 120.80000000000001 215.8 117.80000000000001 213.8 114.80000000000001 215.8" fill="#d82626"/><line x1="117.80000000000001" y1="205.8" x2="381.8" y2="205.8" stroke="#d82626" fill="none" stroke-width="3.0"/><polygon points="381.8 205.8 371.8 208.8 373.8 205.8 371.8 202.8" fill="#d82626"/><line x1="381.8" y1="205.8" x2="381.8" y2="381.8" stroke="#d82626" fill="none" stroke-width="3.0"/><polygon points="381.8 381.8 378.8 371.8 381.8 373.8 384.8 371.8" fill="#d82626"/><line x1="381.8" y1="381.8" x2="205.8" y2="381.8" stroke="#d82626" fill="none" stroke-width="3.0"/><polygon points="205.8 381.8 215.8 378.8 213.8 381.8 215.8 384.8" fill="#d82626"/><line x1="205.8" y1="381.8" x2="205.8" y2="117.80000000000001" stroke="#d82626" fill="none" stroke-width="3.0"/><polygon points="205.8 117.80000000000001 208.8 127.80000000000001 205.8 125.80000000000001 202.8 127.80000000000001" fill="#d82626"/><line x1="205.8" y1="117.80000000000001" x2="469.80000000000007" y2="117.80000000000001" stroke="#d82626" fill="none" stroke-width="3.0"/><polygon points="469.80000000000007 117.80000000000001 459.80000000000007 120.80000000000001 461.80000000000007 117.80000000000001 459.80000000000007 114.80000000000001" fill="#d82626"/><line x1="469.80000000000007" y1="117.80000000000001" x2="469.80000000000007" y2="293.8" stroke="#d82626" fill="none" stroke-width="3.0"/><polygon points="469.80000000000007 293.8 466.80000000000007 283.8 469.80000000000007 285.8 472.80000000000007 283.8" fill="#d82626"/><line x1="469.80000000000007" y1="293.8" x2="29.800000000000004" y2="293.8" stroke="#d82626" fill="none" stroke-width="3.0"/><polygon points="29.800000000000004 293.8 39.800000000000004 290.8 37.800000000000004 293.8 39.800000000000004 296.8" fill="#d82626"/><line x1="29.800000000000004" y1="293.8" x2="29.800000000000004" y2="29.800000000000004" stroke="#d82626" fill="none" stroke-width="3.0"/><polygon points="29.800000000000004 29.800000000000004 32.800000000000004 39.800000000000004 29.800000000000004 37.800000000000004 26.800000000000004 39.800000000000004" fill="#d82626"/><line x1="29.800000000000004" y1="29.800000000000004" x2="293.8" y2="29.800000000000004" stroke="#d82626" fill="none" stroke-width="3.0"/><polygon points="293.8 29.800000000000004 283.8 32.800000000000004 285.8 29.800000000000004 283.8 26.800000000000004" fill="#d82626"/><line x1="293.8" y1="29.800000000000004" x2="293.8" y2="469.80000000000007" stroke="#d82626" fill="none" stroke-width="3.0"/><polygon points="293.8 469.80000000000007 290.8 459.80000000000007 293.8 461.80000000000007 296.8 459.80000000000007" fill="#d82626"/><text x="39.800000000000004" y="314" fill="#000" stroke-width="0.0" font-family="Nimbus Sans" font-size="12.0pt" font-weight="bold">10</text><circle cx="43.800000000000004" cy="327.8" r="4.0" stroke="#eb0000" fill="#eb0000" stroke-width="4.0"/><text x="127.80000000000007" y="314" fill="#000" stroke-width="0.0" font-family="Nimbus Sans" font-size="12.0pt" font-weight="bold">9</text><circle cx="131.80000000000007" cy="327.8" r="4.0" stroke="#f00" fill="#f00" stroke-width="4.0"/><circle cx="145.80000000000007" cy="327.8" r="4.0" stroke="#c20000" fill="#c20000" stroke-width="4.0"/><circle cx="159.80000000000007" cy="327.8" r="4.0" stroke="#ad0000" fill="#ad0000" stroke-width="4.0"/><circle cx="173.80000000000007" cy="327.8" r="4.0" stroke="#900" fill="#900" stroke-width="4.0"/><circle cx="131.80000000000007" cy="341.8" r="4.0" stroke="#850000" fill="#850000" stroke-width="4.0"/><circle cx="145.80000000000007" cy="341.8" r="4.0" stroke="#700000" fill="#700000" stroke-width="4.0"/><text x="39.800000000000004" y="50" fill="#000" stroke-width="0.0" font-family="Nimbus Sans" font-size="12.0pt" font-weight="bold">2</text><ellipse cx="43.800000000000004" cy="63.80000000000001" rx="4.0" ry="4.0000000000000036" stroke="#ad0000" fill="#ad0000" stroke-width="4.0"/><ellipse cx="57.800000000000004" cy="63.80000000000001" rx="4.0" ry="4.0000000000000036" stroke="#900" fill="#900" stroke-width="4.0"/><ellipse cx="71.80000000000001" cy="63.80000000000001" rx="4.0" ry="4.0000000000000036" stroke="#850000" fill="#850000" stroke-width="4.0"/><ellipse cx="85.80000000000001" cy="63.80000000000001" rx="4.0" ry="4.0000000000000036" stroke="#700000" fill="#700000" stroke-width="4.0"/><circle cx="43.800000000000004" cy="77.80000000000001" r="4.0" stroke="#5c0000" fill="#5c0000" stroke-width="4.0"/><circle cx="57.800000000000004" cy="77.80000000000001" r="4.0" stroke="#470000" fill="#470000" stroke-width="4.0"/><text x="127.80000000000001" y="226" fill="#000" stroke-width="0.0" font-family="Nimbus Sans" font-size="12.0pt" font-weight="bold">1</text><circle cx="131.8" cy="239.8" r="4.0" stroke="#f00" fill="#f00" stroke-width="4.0"/><circle cx="145.8" cy="239.8" r="4.0" stroke="#eb0000" fill="#eb0000" stroke-width="4.0"/><circle cx="159.8" cy="239.8" r="4.0" stroke="#d60000" fill="#d60000" stroke-width="4.0"/><circle cx="173.8" cy="239.8" r="4.0" stroke="#c20000" fill="#c20000" stroke-width="4.0"/><circle cx="131.8" cy="253.8" r="4.0" stroke="#5c0000" fill="#5c0000" stroke-width="4.0"/><circle cx="145.8" cy="253.8" r="4.0" stroke="#470000" fill="#470000" stroke-width="4.0"/><text x="215.8" y="138" fill="#000" stroke-width="0.0" font-family="Nimbus Sans" font-size="12.0pt" font-weight="bold">3</text><circle cx="219.8" cy="151.8" r="4.0" stroke="#f00" fill="#f00" stroke-width="4.0"/><circle cx="233.8" cy="151.8" r="4.0" stroke="#eb0000" fill="#eb0000" stroke-width="4.0"/><circle cx="247.8" cy="151.8" r="4.0" stroke="#d60000" fill="#d60000" stroke-width="4.0"/><circle cx="261.8" cy="151.8" r="4.0" stroke="#c20000" fill="#c20000" stroke-width="4.0"/><circle cx="219.8" cy="165.8" r="4.0" stroke="#850000" fill="#850000" stroke-width="4.0"/><circle cx="233.8" cy="165.8" r="4.0" stroke="#700000" fill="#700000" stroke-width="4.0"/><text x="215.8" y="226" fill="#000" stroke-width="0.0" font-family="Nimbus Sans" font-size="12.0pt" font-weight="bold">6</text><circle cx="219.8" cy="239.8" r="4.0" stroke="#900" fill="#900" stroke-width="4.0"/><text x="303.8" y="138" fill="#000" stroke-width="0.0" font-family="Nimbus Sans" font-size="12.0pt" font-weight="bold">4</text><circle cx="307.8" cy="151.79999999999998" r="4.0" stroke="#d60000" fill="#d60000" stroke-width="4.0"/><circle cx="321.8" cy="151.79999999999998" r="4.0" stroke="#c20000" fill="#c20000" stroke-width="4.0"/><circle cx="335.8" cy="151.79999999999998" r="4.0" stroke="#ad0000" fill="#ad0000" stroke-width="4.0"/><circle cx="349.8" cy="151.79999999999998" r="4.0" stroke="#900" fill="#900" stroke-width="4.0"/><circle cx="307.8" cy="165.79999999999998" r="4.0" stroke="#5c0000" fill="#5c0000" stroke-width="4.0"/><circle cx="321.8" cy="165.79999999999998" r="4.0" stroke="#470000" fill="#470000" stroke-width="4.0"/><text x="303.8" y="226" fill="#000" stroke-width="0.0" font-family="Nimbus Sans" font-size="12.0pt" font-weight="bold">5</text><circle cx="307.8" cy="239.8" r="4.0" stroke="#f00" fill="#f00" stroke-width="4.0"/><circle cx="321.8" cy="239.8" r="4.0" stroke="#eb0000" fill="#eb0000" stroke-width="4.0"/><circle cx="335.8" cy="239.8" r="4.0" stroke="#ad0000" fill="#ad0000" stroke-width="4.0"/><circle cx="349.8" cy="239.8" r="4.0" stroke="#850000" fill="#850000" stroke-width="4.0"/><circle cx="307.8" cy="253.8" r="4.0" stroke="#700000" fill="#700000" stroke-width="4.0"/><circle cx="321.8" cy="253.8" r="4.0" stroke="#470000" fill="#470000" stroke-width="4.0"/><text x="303.80000000000007" y="314" fill="#000" stroke-width="0.0" font-family="Nimbus Sans" font-size="12.0pt" font-weight="bold">7</text><circle cx="307.80000000000007" cy="327.8" r="4.0" stroke="#f00" fill="#f00" stroke-width="4.0"/><circle cx="321.80000000000007" cy="327.8" r="4.0" stroke="#d60000" fill="#d60000" stroke-width="4.0"/><circle cx="335.80000000000007" cy="327.8" r="4.0" stroke="#c20000" fill="#c20000" stroke-width="4.0"/><circle cx="349.80000000000007" cy="327.8" r="4.0" stroke="#900" fill="#900" stroke-width="4.0"/><circle cx="307.80000000000007" cy="341.8" r="4.0" stroke="#700000" fill="#700000" stroke-width="4.0"/><circle cx="321.80000000000007" cy="341.8" r="4.0" stroke="#5c0000" fill="#5c0000" stroke-width="4.0"/><text x="215.8" y="314" fill="#000" stroke-width="0.0" font-family="Nimbus Sans" font-size="12.0pt" font-weight="bold">8</text><circle cx="219.8" cy="327.8" r="4.0" stroke="#eb0000" fill="#eb0000" stroke-width="4.0"/><circle cx="233.8" cy="327.8" r="4.0" stroke="#d60000" fill="#d60000" stroke-width="4.0"/><circle cx="247.8" cy="327.8" r="4.0" stroke="#ad0000" fill="#ad0000" stroke-width="4.0"/><circle cx="261.8" cy="327.8" r="4.0" stroke="#850000" fill="#850000" stroke-width="4.0"/><circle cx="219.8" cy="341.8" r="4.0" stroke="#5c0000" fill="#5c0000" stroke-width="4.0"/><circle cx="233.8" cy="341.8" r="4.0" stroke="#470000" fill="#470000" stroke-width="4.0"/></svg>