<?xml version="1.0" ?><!DOCTYPE svg  PUBLIC '-//W3C//DTD SVG 1.1//EN'  'http://www.w3.org/Graphics/SVG/1.1/DTD/svg11.dtd'><svg xmlns="http://www.w3.org/2000/svg" width="487.000" height="491.000" viewBox="-1.000 -5.000 487.000 491.000"><circle cx="103.33333333333333" cy="323.3333333333333" r="2.0" stroke="#d82626" fill="#d82626"/><circle cx="103.33333333333333" cy="103.33333333333333" r="2.0" stroke="#d82626" fill="#d82626"/><circle cx="470.0" cy="103.33333333333333" r="2.0" stroke="#d82626" fill="#d82626"/><circle cx="470.0" cy="470.0" r="2.0" stroke="#d82626" fill="#d82626"/><circle cx="323.3333333333333" cy="470.0" r="2.0" stroke="#d82626" fill="#d82626"/><circle cx="323.3333333333333" cy="30.0" r="2.0" stroke="#d82626" fill="#d82626"/><circle cx="250.0" cy="30.0" r="2.0" stroke="#d82626" fill="#d82626"/><circle cx="250.0" cy="250.0" r="2.0" stroke="#d82626" fill="#d82626"/><circle cx="30.0" cy="250.0" r="2.0" stroke="#d82626" fill="#d82626"/><circle cx="30.0" cy="176.66666666666666" r="2.0" stroke="#d82626" fill="#d82626"/><circle cx="176.66666666666666" cy="176.66666666666666" r="2.0" stroke="#d82626" fill="#d82626"/><circle cx="176.66666666666666" cy="396.66666666666663" r="2.0" stroke="#d82626" fill="#d82626"/><circle cx="396.66666666666663" cy="396.66666666666663" r="2.0" stroke="#d82626" fill="#d82626"/><circle cx="396.66666666666663" cy="323.3333333333333" r="2.0" stroke="#d82626" fill="#d82626"/><line x1="103.33333333333333" y1="323.3333333333333" x2="103.33333333333333" y2="103.33333333333333" stroke="#d82626" fill="none" stroke-width="6.0"/><line x1="103.33333333333333" y1="103.33333333333333" x2="470.0" y2="103.33333333333333" stroke="#d82626" fill="none" stroke-width="6.0"/><line x1="470.0" y1="103.33333333333333" x2="470.0" y2="470.0" stroke="#d82626" fill="none" stroke-width="6.0"/><line x1="470.0" y1="470.0" x2="323.3333333333333" y2="470.0" stroke="#d82626" fill="none" stroke-width="6.0"/><line x1="323.3333333333333" y1="470.0" x2="323.3333333333333" y2="30.0" stroke="#d82626" fill="none" stroke-width="6.0"/><line x1="323.3333333333333" y1="30.0" x2="250.0" y2="30.0" stroke="#d82626" fill="none" stroke-width="6.0"/><line x1="250.0" y1="30.0" x2="250.0" y2="250.0" stroke="#d82626" fill="none" stroke-width="6.0"/><line x1="250.0" y1="250.0" x2="30.0" y2="250.0" stroke="#d82626" fill="none" stroke-width="6.0"/><line x1="30.0" y1="250.0" x2="30.0" y2="176.66666666666666" stroke="#d82626" fill="none" stroke-width="6.0"/><line x1="30.0" y1="176.66666666666666" x2="176.66666666666666" y2="176.66666666666666" stroke="#d82626" fill="none" stroke-width="6.0"/><line x1="176.66666666666666" y1="176.66666666666666" x2="176.66666666666666" y2="396.66666666666663" stroke="#d82626" fill="none" stroke-width="6.0"/><line x1="176.66666666666666" y1="396.66666666666663" x2="396.66666666666663" y2="396.66666666666663" stroke="#d82626" fill="none" stroke-width="6.0"/><line x1="396.66666666666663" y1="396.66666666666663" x2="396.66666666666663" y2="323.3333333333333" stroke="#d82626" fill="none" stroke-width="6.0"/><line x1="396.66666666666663" y1="323.3333333333333" x2="103.33333333333333" y2="323.3333333333333" stroke="#d82626" fill="none" stroke-width="6.0"/><ellipse cx="113.46031746031744" cy="260.1269841269841" rx="5.238095238095234" ry="5.238095238095227" stroke="#0f0" fill="#0f0" stroke-width="0.0"/><text x="113.46031746031744" y="264" fill="#fff" stroke-width="0.0" text-anchor="middle" font-family="Nimbus Sans" font-size="9.0pt">a</text><ellipse cx="40.12698412698413" cy="186.79365079365078" rx="5.238095238095237" ry="5.238095238095241" stroke="#f00" fill="#f00" stroke-width="0.0"/><text x="40.12698412698412" y="191" fill="#fff" stroke-width="0.0" text-anchor="middle" font-family="Nimbus Sans" font-size="9.0pt">A</text><ellipse cx="51.650793650793645" cy="186.79365079365078" rx="5.238095238095237" ry="5.238095238095241" stroke="#0f0" fill="#0f0" stroke-width="0.0"/><text x="51.65079365079364" y="191" fill="#fff" stroke-width="0.0" text-anchor="middle" font-family="Nimbus Sans" font-size="9.0pt">a</text><ellipse cx="113.46031746031744" cy="186.79365079365078" rx="5.238095238095234" ry="5.238095238095241" stroke="#f00" fill="#f00" stroke-width="0.0"/><text x="113.46031746031746" y="191" fill="#fff" stroke-width="0.0" text-anchor="middle" font-family="Nimbus Sans" font-size="9.0pt">A</text><circle cx="113.46031746031744" cy="113.46031746031744" r="5.238095238095234" stroke="#0f0" fill="#0f0" stroke-width="0.0"/><text x="113.46031746031746" y="117" fill="#fff" stroke-width="0.0" text-anchor="middle" font-family="Nimbus Sans" font-size="9.0pt">a</text><ellipse cx="260.1269841269841" cy="40.12698412698413" rx="5.238095238095227" ry="5.238095238095237" stroke="#f00" fill="#f00" stroke-width="0.0"/><text x="260.1269841269841" y="44" fill="#fff" stroke-width="0.0" text-anchor="middle" font-family="Nimbus Sans" font-size="9.0pt">A</text><ellipse cx="271.6507936507937" cy="40.12698412698413" rx="5.238095238095241" ry="5.238095238095237" stroke="#0f0" fill="#0f0" stroke-width="0.0"/><text x="271.6507936507937" y="44" fill="#fff" stroke-width="0.0" text-anchor="middle" font-family="Nimbus Sans" font-size="9.0pt">a</text><circle cx="333.46031746031747" cy="333.46031746031747" r="5.238095238095241" stroke="#f00" fill="#f00" stroke-width="0.0"/><text x="333.46031746031747" y="337" fill="#fff" stroke-width="0.0" text-anchor="middle" font-family="Nimbus Sans" font-size="9.0pt">A</text><circle cx="344.984126984127" cy="333.46031746031747" r="5.238095238095241" stroke="#0f0" fill="#0f0" stroke-width="0.0"/><text x="344.984126984127" y="337" fill="#fff" stroke-width="0.0" text-anchor="middle" font-family="Nimbus Sans" font-size="9.0pt">a</text></svg>