<?xml version="1.0" ?><!DOCTYPE svg  PUBLIC '-//W3C//DTD SVG 1.1//EN'  'http://www.w3.org/Graphics/SVG/1.1/DTD/svg11.dtd'><svg xmlns="http://www.w3.org/2000/svg" width="487.000" height="491.000" viewBox="-1.000 -5.000 487.000 491.000"><circle cx="140.0" cy="30.0" r="2.0" stroke="#d82626" fill="#d82626"/><circle cx="250.0" cy="30.0" r="2.0" stroke="#d82626" fill="#d82626"/><circle cx="250.0" cy="470.0" r="2.0" stroke="#d82626" fill="#d82626"/><circle cx="360.0" cy="470.0" r="2.0" stroke="#d82626" fill="#d82626"/><circle cx="360.0" cy="140.0" r="2.0" stroke="#d82626" fill="#d82626"/><circle cx="30.0" cy="140.0" r="2.0" stroke="#d82626" fill="#d82626"/><circle cx="30.0" cy="250.0" r="2.0" stroke="#d82626" fill="#d82626"/><circle cx="470.0" cy="250.0" r="2.0" stroke="#d82626" fill="#d82626"/><circle cx="470.0" cy="360.0" r="2.0" stroke="#d82626" fill="#d82626"/><circle cx="140.0" cy="360.0" r="2.0" stroke="#d82626" fill="#d82626"/><line x1="140.0" y1="30.0" x2="250.0" y2="30.0" stroke="#d82626" fill="none" stroke-width="6.0"/><line x1="250.0" y1="30.0" x2="250.0" y2="470.0" stroke="#d82626" fill="none" stroke-width="6.0"/><line x1="250.0" y1="470.0" x2="360.0" y2="470.0" stroke="#d82626" fill="none" stroke-width="6.0"/><line x1="360.0" y1="470.0" x2="360.0" y2="140.0" stroke="#d82626" fill="none" stroke-width="6.0"/><line x1="360.0" y1="140.0" x2="30.0" y2="140.0" stroke="#d82626" fill="none" stroke-width="6.0"/><line x1="30.0" y1="140.0" x2="30.0" y2="250.0" stroke="#d82626" fill="none" stroke-width="6.0"/><line x1="30.0" y1="250.0" x2="470.0" y2="250.0" stroke="#d82626" fill="none" stroke-width="6.0"/><line x1="470.0" y1="250.0" x2="470.0" y2="360.0" stroke="#d82626" fill="none" stroke-width="6.0"/><line x1="470.0" y1="360.0" x2="140.0" y2="360.0" stroke="#d82626" fill="none" stroke-width="6.0"/><line x1="140.0" y1="360.0" x2="140.0" y2="30.0" stroke="#d82626" fill="none" stroke-width="6.0"/><rect opacity = "0.8" x="105.0" y="137.75510204081633" width="18.0" height="20.0" stroke="#000" fill="#fff" stroke-width="0.0"/><text x="121.66666666666667" y="154" fill="#000" stroke-width="0.0" text-anchor="end" font-family="Nimbus Sans" font-size="14.0pt" font-weight="bold">-7</text><rect opacity = "0.8" x="157.0" y="117.75510204081633" width="12.0" height="20.0" stroke="#000" fill="#fff" stroke-width="0.0"/><text x="158.33333333333334" y="134" fill="#000" stroke-width="0.0" font-family="Nimbus Sans" font-size="14.0pt" font-weight="bold">6</text><rect opacity = "0.8" x="249.0" y="265.7551020408163" width="18.0" height="20.0" stroke="#000" fill="#fff" stroke-width="0.0"/><text x="250.0" y="282" fill="#000" stroke-width="0.0" font-family="Nimbus Sans" font-size="14.0pt" font-weight="bold">-2</text><rect opacity = "0.8" x="239.0" y="209.75510204081633" width="12.0" height="20.0" stroke="#000" fill="#fff" stroke-width="0.0"/><text x="250.0" y="226" fill="#000" stroke-width="0.0" text-anchor="end" font-family="Nimbus Sans" font-size="14.0pt" font-weight="bold">1</text><rect opacity = "0.8" x="113.0" y="209.75510204081633" width="28.0" height="20.0" stroke="#000" fill="#fff" stroke-width="0.0"/><text x="140.0" y="226" fill="#000" stroke-width="0.0" text-anchor="end" font-family="Nimbus Sans" font-size="14.0pt" font-weight="bold">-13</text><rect opacity = "0.8" x="139.0" y="265.7551020408163" width="22.0" height="20.0" stroke="#000" fill="#fff" stroke-width="0.0"/><text x="140.0" y="282" fill="#000" stroke-width="0.0" font-family="Nimbus Sans" font-size="14.0pt" font-weight="bold">12</text><rect opacity = "0.8" x="343.0" y="319.7551020408163" width="18.0" height="20.0" stroke="#000" fill="#fff" stroke-width="0.0"/><text x="360.0" y="336" fill="#000" stroke-width="0.0" text-anchor="end" font-family="Nimbus Sans" font-size="14.0pt" font-weight="bold">-4</text><rect opacity = "0.8" x="359.0" y="375.7551020408163" width="12.0" height="20.0" stroke="#000" fill="#fff" stroke-width="0.0"/><text x="360.0" y="392" fill="#000" stroke-width="0.0" font-family="Nimbus Sans" font-size="14.0pt" font-weight="bold">3</text><rect opacity = "0.8" x="315.0" y="357.7551020408163" width="28.0" height="20.0" stroke="#000" fill="#fff" stroke-width="0.0"/><text x="341.6666666666667" y="374" fill="#000" stroke-width="0.0" text-anchor="end" font-family="Nimbus Sans" font-size="14.0pt" font-weight="bold">-11</text><rect opacity = "0.8" x="377.0" y="337.7551020408163" width="22.0" height="20.0" stroke="#000" fill="#fff" stroke-width="0.0"/><text x="378.3333333333333" y="354" fill="#000" stroke-width="0.0" font-family="Nimbus Sans" font-size="14.0pt" font-weight="bold">10</text><rect opacity = "0.8" x="215.0" y="137.75510204081633" width="18.0" height="20.0" stroke="#000" fill="#fff" stroke-width="0.0"/><text x="231.66666666666666" y="154" fill="#000" stroke-width="0.0" text-anchor="end" font-family="Nimbus Sans" font-size="14.0pt" font-weight="bold">-6</text><rect opacity = "0.8" x="267.0" y="117.75510204081633" width="12.0" height="20.0" stroke="#000" fill="#fff" stroke-width="0.0"/><text x="268.3333333333333" y="134" fill="#000" stroke-width="0.0" font-family="Nimbus Sans" font-size="14.0pt" font-weight="bold">5</text><rect opacity = "0.8" x="249.0" y="155.75510204081633" width="18.0" height="20.0" stroke="#000" fill="#fff" stroke-width="0.0"/><text x="250.0" y="172" fill="#000" stroke-width="0.0" font-family="Nimbus Sans" font-size="14.0pt" font-weight="bold">-1</text><rect opacity = "0.8" x="229.0" y="99.75510204081633" width="22.0" height="20.0" stroke="#000" fill="#fff" stroke-width="0.0"/><text x="250.0" y="116" fill="#000" stroke-width="0.0" text-anchor="end" font-family="Nimbus Sans" font-size="14.0pt" font-weight="bold">14</text><rect opacity = "0.8" x="157.0" y="227.75510204081633" width="18.0" height="20.0" stroke="#000" fill="#fff" stroke-width="0.0"/><text x="158.33333333333334" y="244" fill="#000" stroke-width="0.0" font-family="Nimbus Sans" font-size="14.0pt" font-weight="bold">-8</text><rect opacity = "0.8" x="111.0" y="247.75510204081633" width="12.0" height="20.0" stroke="#000" fill="#fff" stroke-width="0.0"/><text x="121.66666666666667" y="264" fill="#000" stroke-width="0.0" text-anchor="end" font-family="Nimbus Sans" font-size="14.0pt" font-weight="bold">7</text><rect opacity = "0.8" x="267.0" y="227.75510204081633" width="18.0" height="20.0" stroke="#000" fill="#fff" stroke-width="0.0"/><text x="268.3333333333333" y="244" fill="#000" stroke-width="0.0" font-family="Nimbus Sans" font-size="14.0pt" font-weight="bold">-9</text><rect opacity = "0.8" x="221.0" y="247.75510204081633" width="12.0" height="20.0" stroke="#000" fill="#fff" stroke-width="0.0"/><text x="231.66666666666666" y="264" fill="#000" stroke-width="0.0" text-anchor="end" font-family="Nimbus Sans" font-size="14.0pt" font-weight="bold">8</text><rect opacity = "0.8" x="113.0" y="99.75510204081633" width="28.0" height="20.0" stroke="#000" fill="#fff" stroke-width="0.0"/><text x="140.0" y="116" fill="#000" stroke-width="0.0" text-anchor="end" font-family="Nimbus Sans" font-size="14.0pt" font-weight="bold">-14</text><rect opacity = "0.8" x="139.0" y="155.75510204081633" width="22.0" height="20.0" stroke="#000" fill="#fff" stroke-width="0.0"/><text x="140.0" y="172" fill="#000" stroke-width="0.0" font-family="Nimbus Sans" font-size="14.0pt" font-weight="bold">13</text><rect opacity = "0.8" x="249.0" y="375.7551020408163" width="18.0" height="20.0" stroke="#000" fill="#fff" stroke-width="0.0"/><text x="250.0" y="392" fill="#000" stroke-width="0.0" font-family="Nimbus Sans" font-size="14.0pt" font-weight="bold">-3</text><rect opacity = "0.8" x="239.0" y="319.7551020408163" width="12.0" height="20.0" stroke="#000" fill="#fff" stroke-width="0.0"/><text x="250.0" y="336" fill="#000" stroke-width="0.0" text-anchor="end" font-family="Nimbus Sans" font-size="14.0pt" font-weight="bold">2</text><rect opacity = "0.8" x="377.0" y="227.75510204081633" width="28.0" height="20.0" stroke="#000" fill="#fff" stroke-width="0.0"/><text x="378.3333333333333" y="244" fill="#000" stroke-width="0.0" font-family="Nimbus Sans" font-size="14.0pt" font-weight="bold">-10</text><rect opacity = "0.8" x="331.0" y="247.75510204081633" width="12.0" height="20.0" stroke="#000" fill="#fff" stroke-width="0.0"/><text x="341.6666666666667" y="264" fill="#000" stroke-width="0.0" text-anchor="end" font-family="Nimbus Sans" font-size="14.0pt" font-weight="bold">9</text><rect opacity = "0.8" x="343.0" y="209.75510204081633" width="18.0" height="20.0" stroke="#000" fill="#fff" stroke-width="0.0"/><text x="360.0" y="226" fill="#000" stroke-width="0.0" text-anchor="end" font-family="Nimbus Sans" font-size="14.0pt" font-weight="bold">-5</text><rect opacity = "0.8" x="359.0" y="265.7551020408163" width="12.0" height="20.0" stroke="#000" fill="#fff" stroke-width="0.0"/><text x="360.0" y="282" fill="#000" stroke-width="0.0" font-family="Nimbus Sans" font-size="14.0pt" font-weight="bold">4</text><rect opacity = "0.8" x="205.0" y="357.7551020408163" width="28.0" height="20.0" stroke="#000" fill="#fff" stroke-width="0.0"/><text x="231.66666666666666" y="374" fill="#000" stroke-width="0.0" text-anchor="end" font-family="Nimbus Sans" font-size="14.0pt" font-weight="bold">-12</text><rect opacity = "0.8" x="267.0" y="337.7551020408163" width="22.0" height="20.0" stroke="#000" fill="#fff" stroke-width="0.0"/><text x="268.3333333333333" y="354" fill="#000" stroke-width="0.0" font-family="Nimbus Sans" font-size="14.0pt" font-weight="bold">11</text></svg>