<?xml version="1.0" ?><!DOCTYPE svg  PUBLIC '-//W3C//DTD SVG 1.1//EN'  'http://www.w3.org/Graphics/SVG/1.1/DTD/svg11.dtd'><svg xmlns="http://www.w3.org/2000/svg" width="486.000" height="490.000" viewBox="-1.000 -5.000 486.000 490.000"><circle cx="381.8" cy="117.80000000000001" r="2.0" stroke="#d82626" fill="#d82626"/><circle cx="293.8" cy="117.80000000000001" r="2.0" stroke="#d82626" fill="#d82626"/><circle cx="293.8" cy="469.80000000000007" r="2.0" stroke="#d82626" fill="#d82626"/><circle cx="381.8" cy="469.80000000000007" r="2.0" stroke="#d82626" fill="#d82626"/><circle cx="117.80000000000001" cy="293.8" r="2.0" stroke="#2626d8" fill="#2626d8"/><circle cx="117.80000000000001" cy="381.8" r="2.0" stroke="#2626d8" fill="#2626d8"/><circle cx="469.80000000000007" cy="381.8" r="2.0" stroke="#2626d8" fill="#2626d8"/><circle cx="469.80000000000007" cy="293.8" r="2.0" stroke="#2626d8" fill="#2626d8"/><circle cx="205.8" cy="205.8" r="2.0" stroke="#26d826" fill="#26d826"/><circle cx="469.80000000000007" cy="205.8" r="2.0" stroke="#26d826" fill="#26d826"/><circle cx="469.80000000000007" cy="29.800000000000004" r="2.0" stroke="#26d826" fill="#26d826"/><circle cx="29.800000000000004" cy="29.800000000000004" r="2.0" stroke="#26d826" fill="#26d826"/><circle cx="29.800000000000004" cy="469.80000000000007" r="2.0" stroke="#26d826" fill="#26d826"/><circle cx="205.8" cy="469.80000000000007" r="2.0" stroke="#26d826" fill="#26d826"/><line x1="381.8" y1="117.80000000000001" x2="293.8" y2="117.80000000000001" stroke="#d82626" fill="none" stroke-width="6.0"/><line x1="293.8" y1="117.80000000000001" x2="293.8" y2="469.80000000000007" stroke="#d82626" fill="none" stroke-width="6.0"/><line x1="293.8" y1="469.80000000000007" x2="381.8" y2="469.80000000000007" stroke="#d82626" fill="none" stroke-width="6.0"/><line x1="381.8" y1="469.80000000000007" x2="381.8" y2="117.80000000000001" stroke="#d82626" fill="none" stroke-width="6.0"/><line x1="117.80000000000001" y1="293.8" x2="117.80000000000001" y2="381.8" stroke="#2626d8" fill="none" stroke-width="6.0"/><line x1="117.80000000000001" y1="381.8" x2="469.80000000000007" y2="381.8" stroke="#2626d8" fill="none" stroke-width="6.0"/><line x1="469.80000000000007" y1="381.8" x2="469.80000000000007" y2="293.8" stroke="#2626d8" fill="none" stroke-width="6.0"/><line x1="469.80000000000007" y1="293.8" x2="117.80000000000001" y2="293.8" stroke="#2626d8" fill="none" stroke-width="6.0"/><line x1="205.8" y1="205.8" x2="469.80000000000007" y2="205.8" stroke="#26d826" fill="none" stroke-width="6.0"/><line x1="469.80000000000007" y1="205.8" x2="469.80000000000007" y2="29.800000000000004" stroke="#26d826" fill="none" stroke-width="6.0"/><line x1="469.80000000000007" y1="29.800000000000004" x2="29.800000000000004" y2="29.800000000000004" stroke="#26d826" fill="none" stroke-width="6.0"/><line x1="29.800000000000004" y1="29.800000000000004" x2="29.800000000000004" y2="469.80000000000007" stroke="#26d826" fill="none" stroke-width="6.0"/><line x1="29.800000000000004" y1="469.80000000000007" x2="205.8" y2="469.80000000000007" stroke="#26d826" fill="none" stroke-width="6.0"/><line x1="205.8" y1="469.80000000000007" x2="205.8" y2="205.8" stroke="#26d826" fill="none" stroke-width="6.0"/></svg>