<?xml version="1.0" ?><!DOCTYPE svg  PUBLIC '-//W3C//DTD SVG 1.1//EN'  'http://www.w3.org/Graphics/SVG/1.1/DTD/svg11.dtd'><svg xmlns="http://www.w3.org/2000/svg" width="487.000" height="491.000" viewBox="-1.000 -5.000 487.000 491.000"><circle cx="323.3333333333333" cy="470.0" r="2.0" stroke="#d82626" fill="#d82626"/><circle cx="176.66666666666666" cy="470.0" r="2.0" stroke="#d82626" fill="#d82626"/><circle cx="176.66666666666666" cy="176.66666666666666" r="2.0" stroke="#d82626" fill="#d82626"/><circle cx="470.0" cy="176.66666666666666" r="2.0" stroke="#d82626" fill="#d82626"/><circle cx="470.0" cy="323.3333333333333" r="2.0" stroke="#d82626" fill="#d82626"/><circle cx="30.0" cy="323.3333333333333" r="2.0" stroke="#d82626" fill="#d82626"/><circle cx="30.0" cy="30.0" r="2.0" stroke="#d82626" fill="#d82626"/><circle cx="323.3333333333333" cy="30.0" r="2.0" stroke="#d82626" fill="#d82626"/><line x1="323.3333333333333" y1="470.0" x2="176.66666666666666" y2="470.0" stroke="#d82626" fill="none" stroke-width="3.0"/><line x1="176.66666666666666" y1="470.0" x2="176.66666666666666" y2="176.66666666666666" stroke="#d82626" fill="none" stroke-width="3.0"/><line x1="176.66666666666666" y1="176.66666666666666" x2="470.0" y2="176.66666666666666" stroke="#d82626" fill="none" stroke-width="3.0"/><line x1="470.0" y1="176.66666666666666" x2="470.0" y2="323.3333333333333" stroke="#d82626" fill="none" stroke-width="3.0"/><line x1="470.0" y1="323.3333333333333" x2="30.0" y2="323.3333333333333" stroke="#d82626" fill="none" stroke-width="3.0"/><line x1="30.0" y1="323.3333333333333" x2="30.0" y2="30.0" stroke="#d82626" fill="none" stroke-width="3.0"/><line x1="30.0" y1="30.0" x2="323.3333333333333" y2="30.0" stroke="#d82626" fill="none" stroke-width="3.0"/><line x1="323.3333333333333" y1="30.0" x2="323.3333333333333" y2="470.0" stroke="#d82626" fill="none" stroke-width="3.0"/><circle cx="196.92063492063488" cy="343.58730158730157" r="10.476190476190482" stroke="#f00" fill="#f00" stroke-width="0.0"/><text x="196.92063492063488" y="351" fill="#fff" stroke-width="0.0" text-anchor="middle" font-family="Nimbus Sans" font-size="18.0pt">A</text><circle cx="50.25396825396825" cy="50.25396825396825" r="10.476190476190478" stroke="#f00" fill="#f00" stroke-width="0.0"/><text x="50.25396825396825" y="58" fill="#fff" stroke-width="0.0" text-anchor="middle" font-family="Nimbus Sans" font-size="18.0pt">A</text><circle cx="343.58730158730157" cy="196.9206349206349" r="10.476190476190482" stroke="#f00" fill="#f00" stroke-width="0.0"/><text x="343.58730158730157" y="205" fill="#fff" stroke-width="0.0" text-anchor="middle" font-family="Nimbus Sans" font-size="18.0pt">A</text></svg>