<?xml version="1.0" ?><!DOCTYPE svg  PUBLIC '-//W3C//DTD SVG 1.1//EN'  'http://www.w3.org/Graphics/SVG/1.1/DTD/svg11.dtd'><svg xmlns="http://www.w3.org/2000/svg" width="487.000" height="491.000" viewBox="-1.000 -5.000 487.000 491.000"><circle cx="30.0" cy="360.0" r="2.0" stroke="#d82626" fill="#d82626"/><circle cx="30.0" cy="140.0" r="2.0" stroke="#d82626" fill="#d82626"/><circle cx="470.0" cy="140.0" r="2.0" stroke="#d82626" fill="#d82626"/><circle cx="470.0" cy="360.0" r="2.0" stroke="#d82626" fill="#d82626"/><circle cx="250.0" cy="470.0" r="2.0" stroke="#2626d8" fill="#2626d8"/><circle cx="140.0" cy="470.0" r="2.0" stroke="#2626d8" fill="#2626d8"/><circle cx="140.0" cy="250.0" r="2.0" stroke="#2626d8" fill="#2626d8"/><circle cx="360.0" cy="250.0" r="2.0" stroke="#2626d8" fill="#2626d8"/><circle cx="360.0" cy="30.0" r="2.0" stroke="#2626d8" fill="#2626d8"/><circle cx="250.0" cy="30.0" r="2.0" stroke="#2626d8" fill="#2626d8"/><line x1="30.0" y1="360.0" x2="30.0" y2="140.0" stroke="#d82626" fill="none" stroke-width="6.0"/><line x1="30.0" y1="140.0" x2="470.0" y2="140.0" stroke="#d82626" fill="none" stroke-width="6.0"/><line x1="470.0" y1="140.0" x2="470.0" y2="360.0" stroke="#d82626" fill="none" stroke-width="6.0"/><line x1="470.0" y1="360.0" x2="30.0" y2="360.0" stroke="#d82626" fill="none" stroke-width="6.0"/><line x1="250.0" y1="470.0" x2="140.0" y2="470.0" stroke="#2626d8" fill="none" stroke-width="6.0"/><line x1="140.0" y1="470.0" x2="140.0" y2="250.0" stroke="#2626d8" fill="none" stroke-width="6.0"/><line x1="140.0" y1="250.0" x2="360.0" y2="250.0" stroke="#2626d8" fill="none" stroke-width="6.0"/><line x1="360.0" y1="250.0" x2="360.0" y2="30.0" stroke="#2626d8" fill="none" stroke-width="6.0"/><line x1="360.0" y1="30.0" x2="250.0" y2="30.0" stroke="#2626d8" fill="none" stroke-width="6.0"/><line x1="250.0" y1="30.0" x2="250.0" y2="470.0" stroke="#2626d8" fill="none" stroke-width="6.0"/><text x="37.333333333333336" y="169" fill="#000" stroke-width="0.0" font-family="Nimbus Sans" font-size="22.0pt" font-weight="bold">3</text><ellipse cx="45.19047619047619" cy="184.52380952380952" rx="7.857142857142858" ry="7.857142857142861" stroke="#f00" fill="#f00" stroke-width="0.0"/><text x="45.19047619047619" y="190" fill="#fff" stroke-width="0.0" text-anchor="middle" font-family="Nimbus Sans" font-size="14.0pt">A</text><text x="37.333333333333336" y="389" fill="#000" stroke-width="0.0" font-family="Nimbus Sans" font-size="22.0pt" font-weight="bold">4</text><text x="257.3333333333333" y="279" fill="#000" stroke-width="0.0" font-family="Nimbus Sans" font-size="22.0pt" font-weight="bold">3</text><circle cx="265.19047619047615" cy="294.5238095238095" r="7.857142857142861" stroke="#f00" fill="#f00" stroke-width="0.0"/><text x="265.19047619047615" y="300" fill="#fff" stroke-width="0.0" text-anchor="middle" font-family="Nimbus Sans" font-size="14.0pt">A</text><text x="257.3333333333333" y="59" fill="#000" stroke-width="0.0" font-family="Nimbus Sans" font-size="22.0pt" font-weight="bold">2</text><ellipse cx="265.19047619047615" cy="74.52380952380952" rx="7.857142857142861" ry="7.857142857142854" stroke="#f00" fill="#f00" stroke-width="0.0"/><text x="265.19047619047615" y="80" fill="#fff" stroke-width="0.0" text-anchor="middle" font-family="Nimbus Sans" font-size="14.0pt">A</text><ellipse cx="282.4761904761905" cy="74.52380952380952" rx="7.857142857142861" ry="7.857142857142854" stroke="#900" fill="#900" stroke-width="0.0"/><text x="282.4761904761904" y="80" fill="#fff" stroke-width="0.0" text-anchor="middle" font-family="Nimbus Sans" font-size="14.0pt">B</text><text x="257.3333333333333" y="169" fill="#000" stroke-width="0.0" font-family="Nimbus Sans" font-size="22.0pt" font-weight="bold">3</text><circle cx="265.19047619047615" cy="184.52380952380952" r="7.857142857142861" stroke="#900" fill="#900" stroke-width="0.0"/><text x="265.19047619047615" y="190" fill="#fff" stroke-width="0.0" text-anchor="middle" font-family="Nimbus Sans" font-size="14.0pt">B</text><text x="147.33333333333334" y="389" fill="#000" stroke-width="0.0" font-family="Nimbus Sans" font-size="22.0pt" font-weight="bold">2</text><circle cx="155.1904761904762" cy="404.5238095238095" r="7.857142857142861" stroke="#f00" fill="#f00" stroke-width="0.0"/><text x="155.1904761904762" y="410" fill="#fff" stroke-width="0.0" text-anchor="middle" font-family="Nimbus Sans" font-size="14.0pt">A</text><circle cx="172.47619047619048" cy="404.5238095238095" r="7.857142857142861" stroke="#900" fill="#900" stroke-width="0.0"/><text x="172.47619047619048" y="410" fill="#fff" stroke-width="0.0" text-anchor="middle" font-family="Nimbus Sans" font-size="14.0pt">B</text><text x="147.33333333333334" y="279" fill="#000" stroke-width="0.0" font-family="Nimbus Sans" font-size="22.0pt" font-weight="bold">3</text><circle cx="155.1904761904762" cy="294.5238095238095" r="7.857142857142861" stroke="#900" fill="#900" stroke-width="0.0"/><text x="155.1904761904762" y="300" fill="#fff" stroke-width="0.0" text-anchor="middle" font-family="Nimbus Sans" font-size="14.0pt">B</text></svg>