<?xml version="1.0" encoding="utf-8" standalone="no"?>
<!DOCTYPE svg PUBLIC "-//W3C//DTD SVG 1.1//EN"
  "http://www.w3.org/Graphics/SVG/1.1/DTD/svg11.dtd">
<svg xmlns:xlink="http://www.w3.org/1999/xlink" width="324.9pt" height="324.9pt" viewBox="0 0 324.9 324.9" xmlns="http://www.w3.org/2000/svg" version="1.1">
<!-- Original dimensions: <svg xmlns:xlink="http://www.w3.org/1999/xlink" width="47.864951pt" height="324.9pt" viewBox="0 0 47.864951 324.9" xmlns="http://www.w3.org/2000/svg" version="1.1"> -->
 <metadata>
  <rdf:RDF xmlns:dc="http://purl.org/dc/elements/1.1/" xmlns:cc="http://creativecommons.org/ns#" xmlns:rdf="http://www.w3.org/1999/02/22-rdf-syntax-ns#">
   <cc:Work>
    <dc:type rdf:resource="http://purl.org/dc/dcmitype/StillImage"/>
    <dc:date>2024-08-13T22:51:59.518477</dc:date>
    <dc:format>image/svg+xml</dc:format>
    <dc:creator>
     <cc:Agent>
      <dc:title>Matplotlib v3.6.0, https://matplotlib.org/</dc:title>
     </cc:Agent>
    </dc:creator>
   </cc:Work>
  </rdf:RDF>
 </metadata>
 <defs>
  <style type="text/css">*{stroke-linejoin: round; stroke-linecap: butt}</style>
 </defs>
 <g id="figure_1">
  <g id="patch_1">
   <path d="M 0 324.9 
L 47.864951 324.9 
L 47.864951 0 
L 0 0 
z
" style="fill: #ffffff"/>
  </g>
  <g id="axes_1">
   <g id="patch_2">
    <path d="M 36.925 317.7 
L 37.533162 317.7 
L 37.533162 7.2 
L 36.925 7.2 
z
" style="fill: #ffffff"/>
   </g>
   <g id="matplotlib.axis_1"/>
   <g id="matplotlib.axis_2">
    <g id="ytick_1">
     <g id="line2d_1">
      <defs>
       <path id="m37984f65c2" d="M 0 0 
L -3.5 0 
" style="stroke: #000000; stroke-width: 0.8"/>
      </defs>
      <g>
       <use xlink:href="#m37984f65c2" x="26.925" y="261.969231" style="stroke: #000000; stroke-width: 0.8"/>
      </g>
     </g>
     <g id="text_1">
      <text style="font: 10px 'sans-serif'; text-anchor: end" x="19.925" y="265.76845" transform="rotate(-0 19.925 265.76845)">5</text>
     </g>
    </g>
    <g id="ytick_2">
     <g id="line2d_2">
      <g>
       <use xlink:href="#m37984f65c2" x="26.925" y="311.728846" style="stroke: #000000; stroke-width: 0.8"/>
      </g>
     </g>
     <g id="text_2">
      <text style="font: 10px 'sans-serif'; text-anchor: end" x="19.925" y="315.528065" transform="rotate(-0 19.925 315.528065)">4</text>
     </g>
    </g>
    <g id="ytick_3">
     <g id="line2d_3">
      <g>
       <use xlink:href="#m37984f65c2" x="26.925" y="212.209615" style="stroke: #000000; stroke-width: 0.8"/>
      </g>
     </g>
     <g id="text_3">
      <text style="font: 10px 'sans-serif'; text-anchor: end" x="19.925" y="216.008834" transform="rotate(-0 19.925 216.008834)">6</text>
     </g>
    </g>
    <g id="ytick_4">
     <g id="line2d_4">
      <g>
       <use xlink:href="#m37984f65c2" x="26.925" y="13.171154" style="stroke: #000000; stroke-width: 0.8"/>
      </g>
     </g>
     <g id="text_4">
      <text style="font: 10px 'sans-serif'; text-anchor: end" x="19.925" y="16.970373" transform="rotate(-0 19.925 16.970373)">10</text>
     </g>
    </g>
   </g>
   <g id="line2d_5">
    <path d="M 37.244639 311.728846 
L 36.936695 212.209615 
" clip-path="url(#p3301d6a616)" style="fill: none; stroke: #404040; stroke-width: 2; stroke-linecap: square"/>
   </g>
   <g id="line2d_6">
    <path d="M 37.244639 261.969231 
L 36.936695 212.209615 
" clip-path="url(#p3301d6a616)" style="fill: none; stroke: #000000; stroke-width: 2; stroke-linecap: square"/>
   </g>
   <g id="line2d_7">
    <path d="M 36.936695 212.209615 
L 37.521466 13.171154 
" clip-path="url(#p3301d6a616)" style="fill: none; stroke: #bfbfbf; stroke-width: 2; stroke-linecap: square"/>
   </g>
   <g id="patch_3">
    <path d="M 26.925 317.7 
L 26.925 7.2 
" style="fill: none; stroke: #000000; stroke-width: 0.8; stroke-linejoin: miter; stroke-linecap: square"/>
   </g>
   <g id="patch_4">
    <path style="fill: none; stroke: #000000; stroke-width: 0.8; stroke-linejoin: miter; stroke-linecap: square"/>
   </g>
   <g id="PathCollection_1">
    <defs>
     <path id="C0_0_b78ff53d69" d="M 0 7.071068 
C 1.875269 7.071068 3.673985 6.326016 5 5 
C 6.326016 3.673985 7.071068 1.875269 7.071068 -0 
C 7.071068 -1.875269 6.326016 -3.673985 5 -5 
C 3.673985 -6.326016 1.875269 -7.071068 0 -7.071068 
C -1.875269 -7.071068 -3.673985 -6.326016 -5 -5 
C -6.326016 -3.673985 -7.071068 -1.875269 -7.071068 0 
C -7.071068 1.875269 -6.326016 3.673985 -5 5 
C -3.673985 6.326016 -1.875269 7.071068 0 7.071068 
z
"/>
    </defs>
    <use xlink:href="#C0_0_b78ff53d69" x="36.936695" y="212.209615" style="fill: #b2b2ff; stroke: #000000"/>
    <use xlink:href="#C0_0_b78ff53d69" x="37.521466" y="13.171154" style="fill: #b2b2ff; stroke: #000000"/>
    <use xlink:href="#C0_0_b78ff53d69" x="37.244639" y="261.969231" style="fill: #00ff00; stroke: #000000"/>
    <use xlink:href="#C0_0_b78ff53d69" x="37.244639" y="311.728846" style="fill: #ff0000; stroke: #000000"/>
   </g>
   <g id="text_5">
    <text style="font: 10px 'sans-serif'; text-anchor: middle; fill: #FFFFFF" x="37.244639" y="314.488221" transform="rotate(-0 37.244639 314.488221)">A</text>
   </g>
   <g id="text_6">
    <text style="font: 10px 'sans-serif'; text-anchor: middle; fill: #FFFFFF" x="37.244639" y="264.728606" transform="rotate(-0 37.244639 264.728606)">a</text>
   </g>
  </g>
 </g>
 <defs>
  <clipPath id="p3301d6a616">
   <rect x="36.925" y="7.2" width="0.608162" height="310.5"/>
  </clipPath>
 </defs>
</svg>
