<?xml version="1.0" ?><!DOCTYPE svg  PUBLIC '-//W3C//DTD SVG 1.1//EN'  'http://www.w3.org/Graphics/SVG/1.1/DTD/svg11.dtd'><svg xmlns="http://www.w3.org/2000/svg" width="487.000" height="466.000" viewBox="-1.000 -5.000 487.000 466.000"><circle cx="177.0" cy="152.575" r="2.0" stroke="#d82626" fill="#d82626"/><circle cx="177.0" cy="250.32500000000002" r="2.0" stroke="#d82626" fill="#d82626"/><circle cx="323.6666666666667" cy="250.32500000000002" r="2.0" stroke="#d82626" fill="#d82626"/><circle cx="323.6666666666667" cy="152.575" r="2.0" stroke="#d82626" fill="#d82626"/><circle cx="274.7777777777778" cy="396.95" r="2.0" stroke="#2626d8" fill="#2626d8"/><circle cx="372.5555555555556" cy="396.95" r="2.0" stroke="#2626d8" fill="#2626d8"/><circle cx="372.5555555555556" cy="152.575" r="2.0" stroke="#2626d8" fill="#2626d8"/><circle cx="470.33333333333337" cy="152.575" r="2.0" stroke="#2626d8" fill="#2626d8"/><circle cx="470.33333333333337" cy="445.825" r="2.0" stroke="#2626d8" fill="#2626d8"/><circle cx="79.22222222222223" cy="445.825" r="2.0" stroke="#2626d8" fill="#2626d8"/><circle cx="79.22222222222223" cy="54.825" r="2.0" stroke="#2626d8" fill="#2626d8"/><circle cx="128.11111111111111" cy="54.825" r="2.0" stroke="#2626d8" fill="#2626d8"/><circle cx="128.11111111111111" cy="299.2" r="2.0" stroke="#2626d8" fill="#2626d8"/><circle cx="225.8888888888889" cy="299.2" r="2.0" stroke="#2626d8" fill="#2626d8"/><circle cx="225.8888888888889" cy="103.7" r="2.0" stroke="#2626d8" fill="#2626d8"/><circle cx="30.333333333333336" cy="103.7" r="2.0" stroke="#2626d8" fill="#2626d8"/><circle cx="30.333333333333336" cy="348.075" r="2.0" stroke="#2626d8" fill="#2626d8"/><circle cx="421.44444444444446" cy="348.075" r="2.0" stroke="#2626d8" fill="#2626d8"/><circle cx="421.44444444444446" cy="201.45000000000002" r="2.0" stroke="#2626d8" fill="#2626d8"/><circle cx="274.7777777777778" cy="201.45000000000002" r="2.0" stroke="#2626d8" fill="#2626d8"/><line x1="177.0" y1="152.575" x2="177.0" y2="250.32500000000002" stroke="#d82626" fill="none" stroke-width="6.0"/><line x1="177.0" y1="250.32500000000002" x2="323.6666666666667" y2="250.32500000000002" stroke="#d82626" fill="none" stroke-width="6.0"/><line x1="323.6666666666667" y1="250.32500000000002" x2="323.6666666666667" y2="152.575" stroke="#d82626" fill="none" stroke-width="6.0"/><line x1="323.6666666666667" y1="152.575" x2="177.0" y2="152.575" stroke="#d82626" fill="none" stroke-width="6.0"/><line x1="274.7777777777778" y1="396.95" x2="372.5555555555556" y2="396.95" stroke="#2626d8" fill="none" stroke-width="6.0"/><line x1="372.5555555555556" y1="396.95" x2="372.5555555555556" y2="152.575" stroke="#2626d8" fill="none" stroke-width="6.0"/><line x1="372.5555555555556" y1="152.575" x2="470.33333333333337" y2="152.575" stroke="#2626d8" fill="none" stroke-width="6.0"/><line x1="470.33333333333337" y1="152.575" x2="470.33333333333337" y2="445.825" stroke="#2626d8" fill="none" stroke-width="6.0"/><line x1="470.33333333333337" y1="445.825" x2="79.22222222222223" y2="445.825" stroke="#2626d8" fill="none" stroke-width="6.0"/><line x1="79.22222222222223" y1="445.825" x2="79.22222222222223" y2="54.825" stroke="#2626d8" fill="none" stroke-width="6.0"/><line x1="79.22222222222223" y1="54.825" x2="128.11111111111111" y2="54.825" stroke="#2626d8" fill="none" stroke-width="6.0"/><line x1="128.11111111111111" y1="54.825" x2="128.11111111111111" y2="299.2" stroke="#2626d8" fill="none" stroke-width="6.0"/><line x1="128.11111111111111" y1="299.2" x2="225.8888888888889" y2="299.2" stroke="#2626d8" fill="none" stroke-width="6.0"/><line x1="225.8888888888889" y1="299.2" x2="225.8888888888889" y2="103.7" stroke="#2626d8" fill="none" stroke-width="6.0"/><line x1="225.8888888888889" y1="103.7" x2="30.333333333333336" y2="103.7" stroke="#2626d8" fill="none" stroke-width="6.0"/><line x1="30.333333333333336" y1="103.7" x2="30.333333333333336" y2="348.075" stroke="#2626d8" fill="none" stroke-width="6.0"/><line x1="30.333333333333336" y1="348.075" x2="421.44444444444446" y2="348.075" stroke="#2626d8" fill="none" stroke-width="6.0"/><line x1="421.44444444444446" y1="348.075" x2="421.44444444444446" y2="201.45000000000002" stroke="#2626d8" fill="none" stroke-width="6.0"/><line x1="421.44444444444446" y1="201.45000000000002" x2="274.7777777777778" y2="201.45000000000002" stroke="#2626d8" fill="none" stroke-width="6.0"/><line x1="274.7777777777778" y1="201.45000000000002" x2="274.7777777777778" y2="396.95" stroke="#2626d8" fill="none" stroke-width="6.0"/><text x="180.25925925925927" y="165" fill="#000" stroke-width="0.0" font-family="Nimbus Sans" font-size="9.0pt" font-weight="bold">1</text><circle cx="183.75132275132276" cy="171.58558201058202" r="3.492063492063494" stroke="#f00" fill="#f00" stroke-width="0.0"/><text x="183.75132275132276" y="174" fill="#fff" stroke-width="0.0" text-anchor="middle" font-family="Nimbus Sans" font-size="6.0pt">A</text><text x="131.37037037037038" y="116" fill="#000" stroke-width="0.0" font-family="Nimbus Sans" font-size="9.0pt" font-weight="bold">2</text><text x="229.14814814814818" y="165" fill="#000" stroke-width="0.0" font-family="Nimbus Sans" font-size="9.0pt" font-weight="bold">4</text><text x="82.48148148148148" y="116" fill="#000" stroke-width="0.0" font-family="Nimbus Sans" font-size="9.0pt" font-weight="bold">10</text><text x="278.03703703703707" y="214" fill="#000" stroke-width="0.0" font-family="Nimbus Sans" font-size="9.0pt" font-weight="bold">3</text><circle cx="281.52910052910056" cy="220.46058201058202" r="3.492063492063494" stroke="#f00" fill="#f00" stroke-width="0.0"/><text x="281.52910052910056" y="223" fill="#fff" stroke-width="0.0" text-anchor="middle" font-family="Nimbus Sans" font-size="6.0pt">A</text><text x="278.03703703703707" y="263" fill="#000" stroke-width="0.0" font-family="Nimbus Sans" font-size="9.0pt" font-weight="bold">7</text><text x="33.592592592592595" y="360" fill="#000" stroke-width="0.0" font-family="Nimbus Sans" font-size="9.0pt" font-weight="bold">12</text><text x="278.037037037037" y="360" fill="#000" stroke-width="0.0" font-family="Nimbus Sans" font-size="9.0pt" font-weight="bold">5</text><circle cx="281.5291005291005" cy="367.085582010582" r="3.492063492063494" stroke="#f00" fill="#f00" stroke-width="0.0"/><text x="281.5291005291005" y="370" fill="#fff" stroke-width="0.0" text-anchor="middle" font-family="Nimbus Sans" font-size="6.0pt">A</text><text x="82.48148148148148" y="360" fill="#000" stroke-width="0.0" font-family="Nimbus Sans" font-size="9.0pt" font-weight="bold">8</text><text x="375.81481481481484" y="214" fill="#000" stroke-width="0.0" font-family="Nimbus Sans" font-size="9.0pt" font-weight="bold">6</text><circle cx="379.30687830687833" cy="220.46058201058202" r="3.492063492063494" stroke="#f00" fill="#f00" stroke-width="0.0"/><text x="379.30687830687833" y="223" fill="#fff" stroke-width="0.0" text-anchor="middle" font-family="Nimbus Sans" font-size="6.0pt">A</text><text x="33.592592592592595" y="116" fill="#000" stroke-width="0.0" font-family="Nimbus Sans" font-size="9.0pt" font-weight="bold">9</text><ellipse cx="37.08465608465609" cy="122.71058201058202" rx="3.4920634920634903" ry="3.492063492063494" stroke="#f00" fill="#f00" stroke-width="0.0"/><text x="37.08465608465609" y="125" fill="#fff" stroke-width="0.0" text-anchor="middle" font-family="Nimbus Sans" font-size="6.0pt">A</text><text x="82.48148148148148" y="67" fill="#000" stroke-width="0.0" font-family="Nimbus Sans" font-size="9.0pt" font-weight="bold">11</text><circle cx="85.97354497354497" cy="73.83558201058202" r="3.492063492063494" stroke="#f00" fill="#f00" stroke-width="0.0"/><text x="85.97354497354497" y="76" fill="#fff" stroke-width="0.0" text-anchor="middle" font-family="Nimbus Sans" font-size="6.0pt">A</text></svg>