<?xml version="1.0" ?><!DOCTYPE svg  PUBLIC '-//W3C//DTD SVG 1.1//EN'  'http://www.w3.org/Graphics/SVG/1.1/DTD/svg11.dtd'><svg xmlns="http://www.w3.org/2000/svg" width="487.000" height="454.000" viewBox="-1.000 -5.000 487.000 454.000"><circle cx="323.3333333333333" cy="66.53999999999999" r="2.0" stroke="#d82626" fill="#d82626"/><circle cx="396.66666666666663" cy="66.53999999999999" r="2.0" stroke="#d82626" fill="#d82626"/><circle cx="396.66666666666663" cy="360.14" r="2.0" stroke="#d82626" fill="#d82626"/><circle cx="176.66666666666666" cy="360.14" r="2.0" stroke="#d82626" fill="#d82626"/><circle cx="176.66666666666666" cy="66.53999999999999" r="2.0" stroke="#d82626" fill="#d82626"/><circle cx="250.0" cy="66.53999999999999" r="2.0" stroke="#d82626" fill="#d82626"/><circle cx="250.0" cy="286.74" r="2.0" stroke="#d82626" fill="#d82626"/><circle cx="103.33333333333333" cy="286.74" r="2.0" stroke="#d82626" fill="#d82626"/><circle cx="103.33333333333333" cy="213.34" r="2.0" stroke="#d82626" fill="#d82626"/><circle cx="470.0" cy="213.34" r="2.0" stroke="#d82626" fill="#d82626"/><circle cx="470.0" cy="139.94" r="2.0" stroke="#d82626" fill="#d82626"/><circle cx="30.0" cy="139.94" r="2.0" stroke="#d82626" fill="#d82626"/><circle cx="30.0" cy="433.53999999999996" r="2.0" stroke="#d82626" fill="#d82626"/><circle cx="323.3333333333333" cy="433.53999999999996" r="2.0" stroke="#d82626" fill="#d82626"/><line x1="323.3333333333333" y1="66.53999999999999" x2="396.66666666666663" y2="66.53999999999999" stroke="#d82626" fill="none" stroke-width="6.0"/><line x1="396.66666666666663" y1="66.53999999999999" x2="396.66666666666663" y2="360.14" stroke="#d82626" fill="none" stroke-width="6.0"/><line x1="396.66666666666663" y1="360.14" x2="176.66666666666666" y2="360.14" stroke="#d82626" fill="none" stroke-width="6.0"/><line x1="176.66666666666666" y1="360.14" x2="176.66666666666666" y2="66.53999999999999" stroke="#d82626" fill="none" stroke-width="6.0"/><line x1="176.66666666666666" y1="66.53999999999999" x2="250.0" y2="66.53999999999999" stroke="#d82626" fill="none" stroke-width="6.0"/><line x1="250.0" y1="66.53999999999999" x2="250.0" y2="286.74" stroke="#d82626" fill="none" stroke-width="6.0"/><line x1="250.0" y1="286.74" x2="103.33333333333333" y2="286.74" stroke="#d82626" fill="none" stroke-width="6.0"/><line x1="103.33333333333333" y1="286.74" x2="103.33333333333333" y2="213.34" stroke="#d82626" fill="none" stroke-width="6.0"/><line x1="103.33333333333333" y1="213.34" x2="470.0" y2="213.34" stroke="#d82626" fill="none" stroke-width="6.0"/><line x1="470.0" y1="213.34" x2="470.0" y2="139.94" stroke="#d82626" fill="none" stroke-width="6.0"/><line x1="470.0" y1="139.94" x2="30.0" y2="139.94" stroke="#d82626" fill="none" stroke-width="6.0"/><line x1="30.0" y1="139.94" x2="30.0" y2="433.53999999999996" stroke="#d82626" fill="none" stroke-width="6.0"/><line x1="30.0" y1="433.53999999999996" x2="323.3333333333333" y2="433.53999999999996" stroke="#d82626" fill="none" stroke-width="6.0"/><line x1="323.3333333333333" y1="433.53999999999996" x2="323.3333333333333" y2="66.53999999999999" stroke="#d82626" fill="none" stroke-width="6.0"/><ellipse cx="333.46031746031747" cy="76.66698412698412" rx="5.238095238095241" ry="5.238095238095234" stroke="#f00" fill="#f00" stroke-width="0.0"/><text x="333.46031746031747" y="81" fill="#fff" stroke-width="0.0" text-anchor="middle" font-family="Nimbus Sans" font-size="9.0pt">A</text><ellipse cx="344.984126984127" cy="76.66698412698412" rx="5.238095238095241" ry="5.238095238095234" stroke="#b00" fill="#b00" stroke-width="0.0"/><text x="344.984126984127" y="81" fill="#fff" stroke-width="0.0" text-anchor="middle" font-family="Nimbus Sans" font-size="9.0pt">B</text><ellipse cx="356.5079365079365" cy="76.66698412698412" rx="5.238095238095241" ry="5.238095238095234" stroke="#700" fill="#700" stroke-width="0.0"/><text x="356.5079365079365" y="81" fill="#fff" stroke-width="0.0" text-anchor="middle" font-family="Nimbus Sans" font-size="9.0pt">C</text><circle cx="333.46031746031747" cy="223.46698412698413" r="5.238095238095241" stroke="#b00" fill="#b00" stroke-width="0.0"/><text x="333.46031746031747" y="227" fill="#fff" stroke-width="0.0" text-anchor="middle" font-family="Nimbus Sans" font-size="9.0pt">B</text><circle cx="406.7936507936508" cy="150.06698412698412" r="5.238095238095241" stroke="#f00" fill="#f00" stroke-width="0.0"/><text x="406.7936507936508" y="154" fill="#fff" stroke-width="0.0" text-anchor="middle" font-family="Nimbus Sans" font-size="9.0pt">A</text><circle cx="418.3174603174603" cy="150.06698412698412" r="5.238095238095241" stroke="#b00" fill="#b00" stroke-width="0.0"/><text x="418.3174603174603" y="154" fill="#fff" stroke-width="0.0" text-anchor="middle" font-family="Nimbus Sans" font-size="9.0pt">B</text><circle cx="429.8412698412698" cy="150.06698412698412" r="5.238095238095241" stroke="#700" fill="#700" stroke-width="0.0"/><text x="429.8412698412698" y="154" fill="#fff" stroke-width="0.0" text-anchor="middle" font-family="Nimbus Sans" font-size="9.0pt">C</text><circle cx="186.79365079365078" cy="296.86698412698416" r="5.238095238095241" stroke="#700" fill="#700" stroke-width="0.0"/><text x="186.79365079365078" y="301" fill="#fff" stroke-width="0.0" text-anchor="middle" font-family="Nimbus Sans" font-size="9.0pt">C</text><ellipse cx="113.46031746031744" cy="223.46698412698413" rx="5.238095238095234" ry="5.238095238095241" stroke="#f00" fill="#f00" stroke-width="0.0"/><text x="113.46031746031746" y="227" fill="#fff" stroke-width="0.0" text-anchor="middle" font-family="Nimbus Sans" font-size="9.0pt">A</text><ellipse cx="124.98412698412696" cy="223.46698412698413" rx="5.238095238095234" ry="5.238095238095241" stroke="#b00" fill="#b00" stroke-width="0.0"/><text x="124.98412698412697" y="227" fill="#fff" stroke-width="0.0" text-anchor="middle" font-family="Nimbus Sans" font-size="9.0pt">B</text><circle cx="136.5079365079365" cy="223.46698412698413" r="5.238095238095241" stroke="#700" fill="#700" stroke-width="0.0"/><text x="136.5079365079365" y="227" fill="#fff" stroke-width="0.0" text-anchor="middle" font-family="Nimbus Sans" font-size="9.0pt">C</text><circle cx="186.79365079365078" cy="223.46698412698413" r="5.238095238095241" stroke="#f00" fill="#f00" stroke-width="0.0"/><text x="186.79365079365078" y="227" fill="#fff" stroke-width="0.0" text-anchor="middle" font-family="Nimbus Sans" font-size="9.0pt">A</text><ellipse cx="186.79365079365078" cy="76.66698412698412" rx="5.238095238095241" ry="5.238095238095234" stroke="#f00" fill="#f00" stroke-width="0.0"/><text x="186.79365079365078" y="81" fill="#fff" stroke-width="0.0" text-anchor="middle" font-family="Nimbus Sans" font-size="9.0pt">A</text><ellipse cx="198.3174603174603" cy="76.66698412698412" rx="5.238095238095241" ry="5.238095238095234" stroke="#b00" fill="#b00" stroke-width="0.0"/><text x="198.3174603174603" y="81" fill="#fff" stroke-width="0.0" text-anchor="middle" font-family="Nimbus Sans" font-size="9.0pt">B</text><ellipse cx="209.84126984126982" cy="76.66698412698412" rx="5.238095238095241" ry="5.238095238095234" stroke="#700" fill="#700" stroke-width="0.0"/><text x="209.84126984126982" y="81" fill="#fff" stroke-width="0.0" text-anchor="middle" font-family="Nimbus Sans" font-size="9.0pt">C</text></svg>