<?xml version="1.0" ?><!DOCTYPE svg  PUBLIC '-//W3C//DTD SVG 1.1//EN'  'http://www.w3.org/Graphics/SVG/1.1/DTD/svg11.dtd'><svg xmlns="http://www.w3.org/2000/svg" width="487.000" height="436.000" viewBox="-1.000 -5.000 487.000 436.000"><circle cx="360.0" cy="85.0" r="2.0" stroke="#d82626" fill="#d82626"/><circle cx="415.0" cy="85.0" r="2.0" stroke="#d82626" fill="#d82626"/><circle cx="415.0" cy="415.0" r="2.0" stroke="#d82626" fill="#d82626"/><circle cx="305.0" cy="415.0" r="2.0" stroke="#d82626" fill="#d82626"/><circle cx="305.0" cy="195.0" r="2.0" stroke="#d82626" fill="#d82626"/><circle cx="195.0" cy="195.0" r="2.0" stroke="#d82626" fill="#d82626"/><circle cx="195.0" cy="140.0" r="2.0" stroke="#d82626" fill="#d82626"/><circle cx="470.0" cy="140.0" r="2.0" stroke="#d82626" fill="#d82626"/><circle cx="470.0" cy="360.0" r="2.0" stroke="#d82626" fill="#d82626"/><circle cx="85.0" cy="360.0" r="2.0" stroke="#d82626" fill="#d82626"/><circle cx="85.0" cy="195.0" r="2.0" stroke="#d82626" fill="#d82626"/><circle cx="140.0" cy="195.0" r="2.0" stroke="#d82626" fill="#d82626"/><circle cx="140.0" cy="305.0" r="2.0" stroke="#d82626" fill="#d82626"/><circle cx="250.0" cy="305.0" r="2.0" stroke="#d82626" fill="#d82626"/><circle cx="250.0" cy="85.0" r="2.0" stroke="#d82626" fill="#d82626"/><circle cx="30.0" cy="85.0" r="2.0" stroke="#d82626" fill="#d82626"/><circle cx="30.0" cy="250.0" r="2.0" stroke="#d82626" fill="#d82626"/><circle cx="360.0" cy="250.0" r="2.0" stroke="#d82626" fill="#d82626"/><line x1="360.0" y1="85.0" x2="415.0" y2="85.0" stroke="#d82626" fill="none" stroke-width="6.0"/><line x1="415.0" y1="85.0" x2="415.0" y2="415.0" stroke="#d82626" fill="none" stroke-width="6.0"/><line x1="415.0" y1="415.0" x2="305.0" y2="415.0" stroke="#d82626" fill="none" stroke-width="6.0"/><line x1="305.0" y1="415.0" x2="305.0" y2="195.0" stroke="#d82626" fill="none" stroke-width="6.0"/><line x1="305.0" y1="195.0" x2="195.0" y2="195.0" stroke="#d82626" fill="none" stroke-width="6.0"/><line x1="195.0" y1="195.0" x2="195.0" y2="140.0" stroke="#d82626" fill="none" stroke-width="6.0"/><line x1="195.0" y1="140.0" x2="470.0" y2="140.0" stroke="#d82626" fill="none" stroke-width="6.0"/><line x1="470.0" y1="140.0" x2="470.0" y2="360.0" stroke="#d82626" fill="none" stroke-width="6.0"/><line x1="470.0" y1="360.0" x2="85.0" y2="360.0" stroke="#d82626" fill="none" stroke-width="6.0"/><line x1="85.0" y1="360.0" x2="85.0" y2="195.0" stroke="#d82626" fill="none" stroke-width="6.0"/><line x1="85.0" y1="195.0" x2="140.0" y2="195.0" stroke="#d82626" fill="none" stroke-width="6.0"/><line x1="140.0" y1="195.0" x2="140.0" y2="305.0" stroke="#d82626" fill="none" stroke-width="6.0"/><line x1="140.0" y1="305.0" x2="250.0" y2="305.0" stroke="#d82626" fill="none" stroke-width="6.0"/><line x1="250.0" y1="305.0" x2="250.0" y2="85.0" stroke="#d82626" fill="none" stroke-width="6.0"/><line x1="250.0" y1="85.0" x2="30.0" y2="85.0" stroke="#d82626" fill="none" stroke-width="6.0"/><line x1="30.0" y1="85.0" x2="30.0" y2="250.0" stroke="#d82626" fill="none" stroke-width="6.0"/><line x1="30.0" y1="250.0" x2="360.0" y2="250.0" stroke="#d82626" fill="none" stroke-width="6.0"/><line x1="360.0" y1="250.0" x2="360.0" y2="85.0" stroke="#d82626" fill="none" stroke-width="6.0"/><text x="363.6666666666667" y="100" fill="#000" stroke-width="0.0" font-family="Nimbus Sans" font-size="11.0pt" font-weight="bold">2</text><text x="33.666666666666664" y="265" fill="#000" stroke-width="0.0" font-family="Nimbus Sans" font-size="11.0pt" font-weight="bold">1</text><text x="308.6666666666667" y="375" fill="#000" stroke-width="0.0" font-family="Nimbus Sans" font-size="11.0pt" font-weight="bold">5</text><text x="88.66666666666667" y="265" fill="#000" stroke-width="0.0" font-family="Nimbus Sans" font-size="11.0pt" font-weight="bold">6</text><text x="308.6666666666667" y="265" fill="#000" stroke-width="0.0" font-family="Nimbus Sans" font-size="11.0pt" font-weight="bold">4</text><text x="253.66666666666666" y="210" fill="#000" stroke-width="0.0" font-family="Nimbus Sans" font-size="11.0pt" font-weight="bold">7</text><text x="253.66666666666666" y="155" fill="#000" stroke-width="0.0" font-family="Nimbus Sans" font-size="11.0pt" font-weight="bold">8</text><text x="33.666666666666664" y="100" fill="#000" stroke-width="0.0" font-family="Nimbus Sans" font-size="11.0pt" font-weight="bold">9</text><text x="198.66666666666666" y="155" fill="#000" stroke-width="0.0" font-family="Nimbus Sans" font-size="11.0pt" font-weight="bold">10</text><text x="418.6666666666667" y="155" fill="#000" stroke-width="0.0" font-family="Nimbus Sans" font-size="11.0pt" font-weight="bold">3</text><text x="88.66666666666667" y="210" fill="#000" stroke-width="0.0" font-family="Nimbus Sans" font-size="11.0pt" font-weight="bold">11</text><text x="143.66666666666666" y="265" fill="#000" stroke-width="0.0" font-family="Nimbus Sans" font-size="11.0pt" font-weight="bold">12</text></svg>