<?xml version="1.0" ?><!DOCTYPE svg  PUBLIC '-//W3C//DTD SVG 1.1//EN'  'http://www.w3.org/Graphics/SVG/1.1/DTD/svg11.dtd'><svg xmlns="http://www.w3.org/2000/svg" width="487.000" height="463.000" viewBox="-1.000 -5.000 487.000 463.000"><circle cx="30.0" cy="112.5" r="2.0" stroke="#d82626" fill="#d82626"/><circle cx="30.0" cy="222.5" r="2.0" stroke="#d82626" fill="#d82626"/><circle cx="250.0" cy="222.5" r="2.0" stroke="#d82626" fill="#d82626"/><circle cx="250.0" cy="442.5" r="2.0" stroke="#d82626" fill="#d82626"/><circle cx="140.0" cy="442.5" r="2.0" stroke="#d82626" fill="#d82626"/><circle cx="140.0" cy="57.5" r="2.0" stroke="#d82626" fill="#d82626"/><circle cx="85.0" cy="57.5" r="2.0" stroke="#d82626" fill="#d82626"/><circle cx="85.0" cy="167.5" r="2.0" stroke="#d82626" fill="#d82626"/><circle cx="415.0" cy="167.5" r="2.0" stroke="#d82626" fill="#d82626"/><circle cx="415.0" cy="277.5" r="2.0" stroke="#d82626" fill="#d82626"/><circle cx="195.0" cy="277.5" r="2.0" stroke="#d82626" fill="#d82626"/><circle cx="195.0" cy="387.5" r="2.0" stroke="#d82626" fill="#d82626"/><circle cx="470.0" cy="387.5" r="2.0" stroke="#d82626" fill="#d82626"/><circle cx="470.0" cy="112.5" r="2.0" stroke="#d82626" fill="#d82626"/><circle cx="360.0" cy="112.5" r="2.0" stroke="#d82626" fill="#d82626"/><circle cx="360.0" cy="332.5" r="2.0" stroke="#d82626" fill="#d82626"/><circle cx="305.0" cy="332.5" r="2.0" stroke="#d82626" fill="#d82626"/><circle cx="305.0" cy="112.5" r="2.0" stroke="#d82626" fill="#d82626"/><line x1="30.0" y1="112.5" x2="30.0" y2="222.5" stroke="#d82626" fill="none" stroke-width="6.0"/><line x1="30.0" y1="222.5" x2="250.0" y2="222.5" stroke="#d82626" fill="none" stroke-width="6.0"/><line x1="250.0" y1="222.5" x2="250.0" y2="442.5" stroke="#d82626" fill="none" stroke-width="6.0"/><line x1="250.0" y1="442.5" x2="140.0" y2="442.5" stroke="#d82626" fill="none" stroke-width="6.0"/><line x1="140.0" y1="442.5" x2="140.0" y2="57.5" stroke="#d82626" fill="none" stroke-width="6.0"/><line x1="140.0" y1="57.5" x2="85.0" y2="57.5" stroke="#d82626" fill="none" stroke-width="6.0"/><line x1="85.0" y1="57.5" x2="85.0" y2="167.5" stroke="#d82626" fill="none" stroke-width="6.0"/><line x1="85.0" y1="167.5" x2="415.0" y2="167.5" stroke="#d82626" fill="none" stroke-width="6.0"/><line x1="415.0" y1="167.5" x2="415.0" y2="277.5" stroke="#d82626" fill="none" stroke-width="6.0"/><line x1="415.0" y1="277.5" x2="195.0" y2="277.5" stroke="#d82626" fill="none" stroke-width="6.0"/><line x1="195.0" y1="277.5" x2="195.0" y2="387.5" stroke="#d82626" fill="none" stroke-width="6.0"/><line x1="195.0" y1="387.5" x2="470.0" y2="387.5" stroke="#d82626" fill="none" stroke-width="6.0"/><line x1="470.0" y1="387.5" x2="470.0" y2="112.5" stroke="#d82626" fill="none" stroke-width="6.0"/><line x1="470.0" y1="112.5" x2="360.0" y2="112.5" stroke="#d82626" fill="none" stroke-width="6.0"/><line x1="360.0" y1="112.5" x2="360.0" y2="332.5" stroke="#d82626" fill="none" stroke-width="6.0"/><line x1="360.0" y1="332.5" x2="305.0" y2="332.5" stroke="#d82626" fill="none" stroke-width="6.0"/><line x1="305.0" y1="332.5" x2="305.0" y2="112.5" stroke="#d82626" fill="none" stroke-width="6.0"/><line x1="305.0" y1="112.5" x2="30.0" y2="112.5" stroke="#d82626" fill="none" stroke-width="6.0"/><text x="33.666666666666664" y="127" fill="#000" stroke-width="0.0" font-family="Nimbus Sans" font-size="11.0pt" font-weight="bold">3</text><ellipse cx="37.59523809523809" cy="134.76190476190476" rx="3.928571428571427" ry="3.9285714285714306" stroke="#0f0" fill="#0f0" stroke-width="0.0"/><text x="37.595238095238095" y="137" fill="#fff" stroke-width="0.0" text-anchor="middle" font-family="Nimbus Sans" font-size="7.0pt">a</text><text x="33.666666666666664" y="237" fill="#000" stroke-width="0.0" font-family="Nimbus Sans" font-size="11.0pt" font-weight="bold">6</text><text x="143.66666666666666" y="182" fill="#000" stroke-width="0.0" font-family="Nimbus Sans" font-size="11.0pt" font-weight="bold">5</text><text x="143.66666666666666" y="237" fill="#000" stroke-width="0.0" font-family="Nimbus Sans" font-size="11.0pt" font-weight="bold">3</text><text x="253.66666666666666" y="292" fill="#000" stroke-width="0.0" font-family="Nimbus Sans" font-size="11.0pt" font-weight="bold">5</text><text x="198.66666666666666" y="292" fill="#000" stroke-width="0.0" font-family="Nimbus Sans" font-size="11.0pt" font-weight="bold">2</text><ellipse cx="202.59523809523807" cy="299.7619047619047" rx="3.9285714285714306" ry="3.9285714285714164" stroke="#f00" fill="#f00" stroke-width="0.0"/><text x="202.59523809523807" y="302" fill="#fff" stroke-width="0.0" text-anchor="middle" font-family="Nimbus Sans" font-size="7.0pt">A</text><ellipse cx="211.23809523809524" cy="299.7619047619047" rx="3.9285714285714306" ry="3.9285714285714164" stroke="#0f0" fill="#0f0" stroke-width="0.0"/><text x="211.2380952380952" y="302" fill="#fff" stroke-width="0.0" text-anchor="middle" font-family="Nimbus Sans" font-size="7.0pt">a</text><text x="88.66666666666667" y="72" fill="#000" stroke-width="0.0" font-family="Nimbus Sans" font-size="11.0pt" font-weight="bold">2</text><circle cx="92.5952380952381" cy="79.76190476190476" r="3.9285714285714306" stroke="#f00" fill="#f00" stroke-width="0.0"/><text x="92.5952380952381" y="82" fill="#fff" stroke-width="0.0" text-anchor="middle" font-family="Nimbus Sans" font-size="7.0pt">A</text><circle cx="101.23809523809524" cy="79.76190476190476" r="3.9285714285714306" stroke="#0f0" fill="#0f0" stroke-width="0.0"/><text x="101.23809523809524" y="82" fill="#fff" stroke-width="0.0" text-anchor="middle" font-family="Nimbus Sans" font-size="7.0pt">a</text><text x="88.66666666666667" y="127" fill="#000" stroke-width="0.0" font-family="Nimbus Sans" font-size="11.0pt" font-weight="bold">3</text><circle cx="92.5952380952381" cy="134.76190476190476" r="3.9285714285714306" stroke="#f00" fill="#f00" stroke-width="0.0"/><text x="92.5952380952381" y="137" fill="#fff" stroke-width="0.0" text-anchor="middle" font-family="Nimbus Sans" font-size="7.0pt">A</text><text x="143.66666666666666" y="127" fill="#000" stroke-width="0.0" font-family="Nimbus Sans" font-size="11.0pt" font-weight="bold">3</text><circle cx="147.59523809523807" cy="134.76190476190476" r="3.9285714285714306" stroke="#0f0" fill="#0f0" stroke-width="0.0"/><text x="147.59523809523807" y="137" fill="#fff" stroke-width="0.0" text-anchor="middle" font-family="Nimbus Sans" font-size="7.0pt">a</text><text x="308.6666666666667" y="182" fill="#000" stroke-width="0.0" font-family="Nimbus Sans" font-size="11.0pt" font-weight="bold">4</text><text x="363.6666666666667" y="182" fill="#000" stroke-width="0.0" font-family="Nimbus Sans" font-size="11.0pt" font-weight="bold">2</text><ellipse cx="367.5952380952381" cy="189.76190476190476" rx="3.9285714285714164" ry="3.9285714285714306" stroke="#f00" fill="#f00" stroke-width="0.0"/><text x="367.59523809523813" y="192" fill="#fff" stroke-width="0.0" text-anchor="middle" font-family="Nimbus Sans" font-size="7.0pt">A</text><ellipse cx="376.2380952380953" cy="189.76190476190476" rx="3.9285714285714164" ry="3.9285714285714306" stroke="#0f0" fill="#0f0" stroke-width="0.0"/><text x="376.2380952380953" y="192" fill="#fff" stroke-width="0.0" text-anchor="middle" font-family="Nimbus Sans" font-size="7.0pt">a</text><text x="308.6666666666667" y="292" fill="#000" stroke-width="0.0" font-family="Nimbus Sans" font-size="11.0pt" font-weight="bold">2</text><circle cx="312.5952380952381" cy="299.7619047619047" r="3.9285714285714164" stroke="#f00" fill="#f00" stroke-width="0.0"/><text x="312.59523809523813" y="302" fill="#fff" stroke-width="0.0" text-anchor="middle" font-family="Nimbus Sans" font-size="7.0pt">A</text><circle cx="321.2380952380953" cy="299.7619047619047" r="3.9285714285714164" stroke="#0f0" fill="#0f0" stroke-width="0.0"/><text x="321.2380952380953" y="302" fill="#fff" stroke-width="0.0" text-anchor="middle" font-family="Nimbus Sans" font-size="7.0pt">a</text></svg>