<?xml version="1.0" ?><!DOCTYPE svg  PUBLIC '-//W3C//DTD SVG 1.1//EN'  'http://www.w3.org/Graphics/SVG/1.1/DTD/svg11.dtd'><svg xmlns="http://www.w3.org/2000/svg" width="486.000" height="446.000" viewBox="-1.000 -5.000 486.000 446.000"><circle cx="469.80000000000007" cy="161.8" r="2.0" stroke="#d82626" fill="#d82626"/><circle cx="469.80000000000007" cy="249.8" r="2.0" stroke="#d82626" fill="#d82626"/><circle cx="29.800000000000004" cy="249.8" r="2.0" stroke="#d82626" fill="#d82626"/><circle cx="29.800000000000004" cy="161.8" r="2.0" stroke="#d82626" fill="#d82626"/><circle cx="381.8" cy="337.8" r="2.0" stroke="#2626d8" fill="#2626d8"/><circle cx="381.8" cy="73.80000000000001" r="2.0" stroke="#2626d8" fill="#2626d8"/><circle cx="293.8" cy="73.80000000000001" r="2.0" stroke="#2626d8" fill="#2626d8"/><circle cx="293.8" cy="425.8" r="2.0" stroke="#2626d8" fill="#2626d8"/><circle cx="205.8" cy="425.8" r="2.0" stroke="#2626d8" fill="#2626d8"/><circle cx="205.8" cy="73.80000000000001" r="2.0" stroke="#2626d8" fill="#2626d8"/><circle cx="117.80000000000001" cy="73.80000000000001" r="2.0" stroke="#2626d8" fill="#2626d8"/><circle cx="117.80000000000001" cy="337.8" r="2.0" stroke="#2626d8" fill="#2626d8"/><line x1="469.80000000000007" y1="161.8" x2="469.80000000000007" y2="249.8" stroke="#d82626" fill="none" stroke-width="6.0"/><line x1="469.80000000000007" y1="249.8" x2="29.800000000000004" y2="249.8" stroke="#d82626" fill="none" stroke-width="6.0"/><line x1="29.800000000000004" y1="249.8" x2="29.800000000000004" y2="161.8" stroke="#d82626" fill="none" stroke-width="6.0"/><line x1="29.800000000000004" y1="161.8" x2="469.80000000000007" y2="161.8" stroke="#d82626" fill="none" stroke-width="6.0"/><line x1="381.8" y1="337.8" x2="381.8" y2="73.80000000000001" stroke="#2626d8" fill="none" stroke-width="6.0"/><line x1="381.8" y1="73.80000000000001" x2="293.8" y2="73.80000000000001" stroke="#2626d8" fill="none" stroke-width="6.0"/><line x1="293.8" y1="73.80000000000001" x2="293.8" y2="425.8" stroke="#2626d8" fill="none" stroke-width="6.0"/><line x1="293.8" y1="425.8" x2="205.8" y2="425.8" stroke="#2626d8" fill="none" stroke-width="6.0"/><line x1="205.8" y1="425.8" x2="205.8" y2="73.80000000000001" stroke="#2626d8" fill="none" stroke-width="6.0"/><line x1="205.8" y1="73.80000000000001" x2="117.80000000000001" y2="73.80000000000001" stroke="#2626d8" fill="none" stroke-width="6.0"/><line x1="117.80000000000001" y1="73.80000000000001" x2="117.80000000000001" y2="337.8" stroke="#2626d8" fill="none" stroke-width="6.0"/><line x1="117.80000000000001" y1="337.8" x2="381.8" y2="337.8" stroke="#2626d8" fill="none" stroke-width="6.0"/></svg>