<?xml version="1.0" ?><!DOCTYPE svg  PUBLIC '-//W3C//DTD SVG 1.1//EN'  'http://www.w3.org/Graphics/SVG/1.1/DTD/svg11.dtd'><svg xmlns="http://www.w3.org/2000/svg" width="486.000" height="490.000" viewBox="-1.000 -5.000 486.000 490.000"><circle cx="29.800000000000004" cy="117.80000000000001" r="2.0" stroke="#d82626" fill="#d82626"/><circle cx="29.800000000000004" cy="381.8" r="2.0" stroke="#d82626" fill="#d82626"/><circle cx="469.80000000000007" cy="381.8" r="2.0" stroke="#d82626" fill="#d82626"/><circle cx="469.80000000000007" cy="205.8" r="2.0" stroke="#d82626" fill="#d82626"/><circle cx="205.8" cy="205.8" r="2.0" stroke="#d82626" fill="#d82626"/><circle cx="205.8" cy="469.80000000000007" r="2.0" stroke="#d82626" fill="#d82626"/><circle cx="117.80000000000001" cy="469.80000000000007" r="2.0" stroke="#d82626" fill="#d82626"/><circle cx="117.80000000000001" cy="29.800000000000004" r="2.0" stroke="#d82626" fill="#d82626"/><circle cx="293.8" cy="29.800000000000004" r="2.0" stroke="#d82626" fill="#d82626"/><circle cx="293.8" cy="293.8" r="2.0" stroke="#d82626" fill="#d82626"/><circle cx="381.8" cy="293.8" r="2.0" stroke="#d82626" fill="#d82626"/><circle cx="381.8" cy="117.80000000000001" r="2.0" stroke="#d82626" fill="#d82626"/><line x1="29.800000000000004" y1="117.80000000000001" x2="29.800000000000004" y2="381.8" stroke="#d82626" fill="none" stroke-width="6.0"/><line x1="29.800000000000004" y1="381.8" x2="469.80000000000007" y2="381.8" stroke="#d82626" fill="none" stroke-width="6.0"/><line x1="469.80000000000007" y1="381.8" x2="469.80000000000007" y2="205.8" stroke="#d82626" fill="none" stroke-width="6.0"/><line x1="469.80000000000007" y1="205.8" x2="205.8" y2="205.8" stroke="#d82626" fill="none" stroke-width="6.0"/><line x1="205.8" y1="205.8" x2="205.8" y2="469.80000000000007" stroke="#d82626" fill="none" stroke-width="6.0"/><line x1="205.8" y1="469.80000000000007" x2="117.80000000000001" y2="469.80000000000007" stroke="#d82626" fill="none" stroke-width="6.0"/><line x1="117.80000000000001" y1="469.80000000000007" x2="117.80000000000001" y2="29.800000000000004" stroke="#d82626" fill="none" stroke-width="6.0"/><line x1="117.80000000000001" y1="29.800000000000004" x2="293.8" y2="29.800000000000004" stroke="#d82626" fill="none" stroke-width="6.0"/><line x1="293.8" y1="29.800000000000004" x2="293.8" y2="293.8" stroke="#d82626" fill="none" stroke-width="6.0"/><line x1="293.8" y1="293.8" x2="381.8" y2="293.8" stroke="#d82626" fill="none" stroke-width="6.0"/><line x1="381.8" y1="293.8" x2="381.8" y2="117.80000000000001" stroke="#d82626" fill="none" stroke-width="6.0"/><line x1="381.8" y1="117.80000000000001" x2="29.800000000000004" y2="117.80000000000001" stroke="#d82626" fill="none" stroke-width="6.0"/><text x="35.66666666666667" y="141" fill="#000" stroke-width="0.0" font-family="Nimbus Sans" font-size="17.0pt" font-weight="bold">7</text><text x="35.66666666666667" y="405" fill="#000" stroke-width="0.0" font-family="Nimbus Sans" font-size="17.0pt" font-weight="bold">8</text><text x="123.66666666666667" y="141" fill="#000" stroke-width="0.0" font-family="Nimbus Sans" font-size="17.0pt" font-weight="bold">6</text><text x="123.66666666666667" y="405" fill="#000" stroke-width="0.0" font-family="Nimbus Sans" font-size="17.0pt" font-weight="bold">1</text><text x="211.66666666666669" y="229" fill="#000" stroke-width="0.0" font-family="Nimbus Sans" font-size="17.0pt" font-weight="bold">3</text><text x="299.6666666666667" y="229" fill="#000" stroke-width="0.0" font-family="Nimbus Sans" font-size="17.0pt" font-weight="bold">2</text><text x="299.6666666666667" y="141" fill="#000" stroke-width="0.0" font-family="Nimbus Sans" font-size="17.0pt" font-weight="bold">4</text><text x="123.66666666666667" y="53" fill="#000" stroke-width="0.0" font-family="Nimbus Sans" font-size="17.0pt" font-weight="bold">5</text></svg>