<?xml version="1.0" ?><!DOCTYPE svg  PUBLIC '-//W3C//DTD SVG 1.1//EN'  'http://www.w3.org/Graphics/SVG/1.1/DTD/svg11.dtd'><svg xmlns="http://www.w3.org/2000/svg" width="487.000" height="463.000" viewBox="-1.000 -5.000 487.000 463.000"><circle cx="85.0" cy="222.5" r="2.0" stroke="#d82626" fill="#d82626"/><circle cx="85.0" cy="112.5" r="2.0" stroke="#d82626" fill="#d82626"/><circle cx="305.0" cy="112.5" r="2.0" stroke="#d82626" fill="#d82626"/><circle cx="305.0" cy="387.5" r="2.0" stroke="#d82626" fill="#d82626"/><circle cx="470.0" cy="387.5" r="2.0" stroke="#d82626" fill="#d82626"/><circle cx="470.0" cy="222.5" r="2.0" stroke="#d82626" fill="#d82626"/><circle cx="415.0" cy="442.5" r="2.0" stroke="#2626d8" fill="#2626d8"/><circle cx="360.0" cy="442.5" r="2.0" stroke="#2626d8" fill="#2626d8"/><circle cx="360.0" cy="332.5" r="2.0" stroke="#2626d8" fill="#2626d8"/><circle cx="195.0" cy="332.5" r="2.0" stroke="#2626d8" fill="#2626d8"/><circle cx="195.0" cy="167.5" r="2.0" stroke="#2626d8" fill="#2626d8"/><circle cx="140.0" cy="167.5" r="2.0" stroke="#2626d8" fill="#2626d8"/><circle cx="140.0" cy="387.5" r="2.0" stroke="#2626d8" fill="#2626d8"/><circle cx="250.0" cy="387.5" r="2.0" stroke="#2626d8" fill="#2626d8"/><circle cx="250.0" cy="277.5" r="2.0" stroke="#2626d8" fill="#2626d8"/><circle cx="30.0" cy="277.5" r="2.0" stroke="#2626d8" fill="#2626d8"/><circle cx="30.0" cy="57.5" r="2.0" stroke="#2626d8" fill="#2626d8"/><circle cx="415.0" cy="57.5" r="2.0" stroke="#2626d8" fill="#2626d8"/><line x1="85.0" y1="222.5" x2="85.0" y2="112.5" stroke="#d82626" fill="none" stroke-width="6.0"/><line x1="85.0" y1="112.5" x2="305.0" y2="112.5" stroke="#d82626" fill="none" stroke-width="6.0"/><line x1="305.0" y1="112.5" x2="305.0" y2="387.5" stroke="#d82626" fill="none" stroke-width="6.0"/><line x1="305.0" y1="387.5" x2="470.0" y2="387.5" stroke="#d82626" fill="none" stroke-width="6.0"/><line x1="470.0" y1="387.5" x2="470.0" y2="222.5" stroke="#d82626" fill="none" stroke-width="6.0"/><line x1="470.0" y1="222.5" x2="85.0" y2="222.5" stroke="#d82626" fill="none" stroke-width="6.0"/><line x1="415.0" y1="442.5" x2="360.0" y2="442.5" stroke="#2626d8" fill="none" stroke-width="6.0"/><line x1="360.0" y1="442.5" x2="360.0" y2="332.5" stroke="#2626d8" fill="none" stroke-width="6.0"/><line x1="360.0" y1="332.5" x2="195.0" y2="332.5" stroke="#2626d8" fill="none" stroke-width="6.0"/><line x1="195.0" y1="332.5" x2="195.0" y2="167.5" stroke="#2626d8" fill="none" stroke-width="6.0"/><line x1="195.0" y1="167.5" x2="140.0" y2="167.5" stroke="#2626d8" fill="none" stroke-width="6.0"/><line x1="140.0" y1="167.5" x2="140.0" y2="387.5" stroke="#2626d8" fill="none" stroke-width="6.0"/><line x1="140.0" y1="387.5" x2="250.0" y2="387.5" stroke="#2626d8" fill="none" stroke-width="6.0"/><line x1="250.0" y1="387.5" x2="250.0" y2="277.5" stroke="#2626d8" fill="none" stroke-width="6.0"/><line x1="250.0" y1="277.5" x2="30.0" y2="277.5" stroke="#2626d8" fill="none" stroke-width="6.0"/><line x1="30.0" y1="277.5" x2="30.0" y2="57.5" stroke="#2626d8" fill="none" stroke-width="6.0"/><line x1="30.0" y1="57.5" x2="415.0" y2="57.5" stroke="#2626d8" fill="none" stroke-width="6.0"/><line x1="415.0" y1="57.5" x2="415.0" y2="442.5" stroke="#2626d8" fill="none" stroke-width="6.0"/><rect opacity = "0.8" x="177.0" y="221.87755102040816" width="10.0" height="10.0" stroke="#000" fill="#fff" stroke-width="0.0"/><text x="185.83333333333334" y="230" fill="#000" stroke-width="0.0" text-anchor="end" font-family="Nimbus Sans" font-size="7.0pt" font-weight="bold">-7</text><rect opacity = "0.8" x="203.0" y="211.87755102040816" width="7.0" height="10.0" stroke="#000" fill="#fff" stroke-width="0.0"/><text x="204.16666666666666" y="220" fill="#000" stroke-width="0.0" font-family="Nimbus Sans" font-size="7.0pt" font-weight="bold">6</text><rect opacity = "0.8" x="304.0" y="340.8775510204082" width="10.0" height="10.0" stroke="#000" fill="#fff" stroke-width="0.0"/><text x="305.0" y="349" fill="#000" stroke-width="0.0" font-family="Nimbus Sans" font-size="7.0pt" font-weight="bold">-2</text><rect opacity = "0.8" x="299.0" y="311.8775510204082" width="7.0" height="10.0" stroke="#000" fill="#fff" stroke-width="0.0"/><text x="305.0" y="320" fill="#000" stroke-width="0.0" text-anchor="end" font-family="Nimbus Sans" font-size="7.0pt" font-weight="bold">1</text><rect opacity = "0.8" x="346.0" y="366.8775510204082" width="15.0" height="10.0" stroke="#000" fill="#fff" stroke-width="0.0"/><text x="360.0" y="375" fill="#000" stroke-width="0.0" text-anchor="end" font-family="Nimbus Sans" font-size="7.0pt" font-weight="bold">-10</text><rect opacity = "0.8" x="359.0" y="395.8775510204082" width="7.0" height="10.0" stroke="#000" fill="#fff" stroke-width="0.0"/><text x="360.0" y="404" fill="#000" stroke-width="0.0" font-family="Nimbus Sans" font-size="7.0pt" font-weight="bold">9</text><rect opacity = "0.8" x="397.0" y="221.87755102040816" width="10.0" height="10.0" stroke="#000" fill="#fff" stroke-width="0.0"/><text x="405.8333333333333" y="230" fill="#000" stroke-width="0.0" text-anchor="end" font-family="Nimbus Sans" font-size="7.0pt" font-weight="bold">-5</text><rect opacity = "0.8" x="423.0" y="211.87755102040816" width="7.0" height="10.0" stroke="#000" fill="#fff" stroke-width="0.0"/><text x="424.1666666666667" y="220" fill="#000" stroke-width="0.0" font-family="Nimbus Sans" font-size="7.0pt" font-weight="bold">4</text><rect opacity = "0.8" x="423.0" y="376.8775510204082" width="10.0" height="10.0" stroke="#000" fill="#fff" stroke-width="0.0"/><text x="424.1666666666667" y="385" fill="#000" stroke-width="0.0" font-family="Nimbus Sans" font-size="7.0pt" font-weight="bold">-4</text><rect opacity = "0.8" x="400.0" y="386.8775510204082" width="7.0" height="10.0" stroke="#000" fill="#fff" stroke-width="0.0"/><text x="405.8333333333333" y="395" fill="#000" stroke-width="0.0" text-anchor="end" font-family="Nimbus Sans" font-size="7.0pt" font-weight="bold">3</text><rect opacity = "0.8" x="282.0" y="331.8775510204082" width="15.0" height="10.0" stroke="#000" fill="#fff" stroke-width="0.0"/><text x="295.8333333333333" y="340" fill="#000" stroke-width="0.0" text-anchor="end" font-family="Nimbus Sans" font-size="7.0pt" font-weight="bold">-11</text><rect opacity = "0.8" x="313.0" y="321.8775510204082" width="12.0" height="10.0" stroke="#000" fill="#fff" stroke-width="0.0"/><text x="314.1666666666667" y="330" fill="#000" stroke-width="0.0" font-family="Nimbus Sans" font-size="7.0pt" font-weight="bold">10</text><rect opacity = "0.8" x="227.0" y="331.8775510204082" width="15.0" height="10.0" stroke="#000" fill="#fff" stroke-width="0.0"/><text x="240.83333333333334" y="340" fill="#000" stroke-width="0.0" text-anchor="end" font-family="Nimbus Sans" font-size="7.0pt" font-weight="bold">-12</text><rect opacity = "0.8" x="258.0" y="321.8775510204082" width="12.0" height="10.0" stroke="#000" fill="#fff" stroke-width="0.0"/><text x="259.1666666666667" y="330" fill="#000" stroke-width="0.0" font-family="Nimbus Sans" font-size="7.0pt" font-weight="bold">11</text><rect opacity = "0.8" x="368.0" y="376.8775510204082" width="10.0" height="10.0" stroke="#000" fill="#fff" stroke-width="0.0"/><text x="369.1666666666667" y="385" fill="#000" stroke-width="0.0" font-family="Nimbus Sans" font-size="7.0pt" font-weight="bold">-3</text><rect opacity = "0.8" x="345.0" y="386.8775510204082" width="7.0" height="10.0" stroke="#000" fill="#fff" stroke-width="0.0"/><text x="350.8333333333333" y="395" fill="#000" stroke-width="0.0" text-anchor="end" font-family="Nimbus Sans" font-size="7.0pt" font-weight="bold">2</text><rect opacity = "0.8" x="172.0" y="276.8775510204082" width="15.0" height="10.0" stroke="#000" fill="#fff" stroke-width="0.0"/><text x="185.83333333333334" y="285" fill="#000" stroke-width="0.0" text-anchor="end" font-family="Nimbus Sans" font-size="7.0pt" font-weight="bold">-18</text><rect opacity = "0.8" x="203.0" y="266.8775510204082" width="12.0" height="10.0" stroke="#000" fill="#fff" stroke-width="0.0"/><text x="204.16666666666666" y="275" fill="#000" stroke-width="0.0" font-family="Nimbus Sans" font-size="7.0pt" font-weight="bold">17</text><rect opacity = "0.8" x="181.0" y="256.8775510204082" width="15.0" height="10.0" stroke="#000" fill="#fff" stroke-width="0.0"/><text x="195.0" y="265" fill="#000" stroke-width="0.0" text-anchor="end" font-family="Nimbus Sans" font-size="7.0pt" font-weight="bold">-13</text><rect opacity = "0.8" x="194.0" y="285.8775510204082" width="12.0" height="10.0" stroke="#000" fill="#fff" stroke-width="0.0"/><text x="195.0" y="294" fill="#000" stroke-width="0.0" font-family="Nimbus Sans" font-size="7.0pt" font-weight="bold">12</text><rect opacity = "0.8" x="139.0" y="230.87755102040816" width="15.0" height="10.0" stroke="#000" fill="#fff" stroke-width="0.0"/><text x="140.0" y="239" fill="#000" stroke-width="0.0" font-family="Nimbus Sans" font-size="7.0pt" font-weight="bold">-15</text><rect opacity = "0.8" x="129.0" y="201.87755102040816" width="12.0" height="10.0" stroke="#000" fill="#fff" stroke-width="0.0"/><text x="140.0" y="210" fill="#000" stroke-width="0.0" text-anchor="end" font-family="Nimbus Sans" font-size="7.0pt" font-weight="bold">14</text><rect opacity = "0.8" x="122.0" y="221.87755102040816" width="10.0" height="10.0" stroke="#000" fill="#fff" stroke-width="0.0"/><text x="130.83333333333334" y="230" fill="#000" stroke-width="0.0" text-anchor="end" font-family="Nimbus Sans" font-size="7.0pt" font-weight="bold">-8</text><rect opacity = "0.8" x="148.0" y="211.87755102040816" width="7.0" height="10.0" stroke="#000" fill="#fff" stroke-width="0.0"/><text x="149.16666666666666" y="220" fill="#000" stroke-width="0.0" font-family="Nimbus Sans" font-size="7.0pt" font-weight="bold">7</text><rect opacity = "0.8" x="304.0" y="230.87755102040816" width="10.0" height="10.0" stroke="#000" fill="#fff" stroke-width="0.0"/><text x="305.0" y="239" fill="#000" stroke-width="0.0" font-family="Nimbus Sans" font-size="7.0pt" font-weight="bold">-1</text><rect opacity = "0.8" x="299.0" y="201.87755102040816" width="7.0" height="10.0" stroke="#000" fill="#fff" stroke-width="0.0"/><text x="305.0" y="210" fill="#000" stroke-width="0.0" text-anchor="end" font-family="Nimbus Sans" font-size="7.0pt" font-weight="bold">8</text><rect opacity = "0.8" x="139.0" y="285.8775510204082" width="15.0" height="10.0" stroke="#000" fill="#fff" stroke-width="0.0"/><text x="140.0" y="294" fill="#000" stroke-width="0.0" font-family="Nimbus Sans" font-size="7.0pt" font-weight="bold">-16</text><rect opacity = "0.8" x="129.0" y="256.8775510204082" width="12.0" height="10.0" stroke="#000" fill="#fff" stroke-width="0.0"/><text x="140.0" y="265" fill="#000" stroke-width="0.0" text-anchor="end" font-family="Nimbus Sans" font-size="7.0pt" font-weight="bold">15</text><rect opacity = "0.8" x="414.0" y="230.87755102040816" width="15.0" height="10.0" stroke="#000" fill="#fff" stroke-width="0.0"/><text x="415.0" y="239" fill="#000" stroke-width="0.0" font-family="Nimbus Sans" font-size="7.0pt" font-weight="bold">-20</text><rect opacity = "0.8" x="404.0" y="201.87755102040816" width="12.0" height="10.0" stroke="#000" fill="#fff" stroke-width="0.0"/><text x="415.0" y="210" fill="#000" stroke-width="0.0" text-anchor="end" font-family="Nimbus Sans" font-size="7.0pt" font-weight="bold">19</text><rect opacity = "0.8" x="236.0" y="311.8775510204082" width="15.0" height="10.0" stroke="#000" fill="#fff" stroke-width="0.0"/><text x="250.0" y="320" fill="#000" stroke-width="0.0" text-anchor="end" font-family="Nimbus Sans" font-size="7.0pt" font-weight="bold">-17</text><rect opacity = "0.8" x="249.0" y="340.8775510204082" width="12.0" height="10.0" stroke="#000" fill="#fff" stroke-width="0.0"/><text x="250.0" y="349" fill="#000" stroke-width="0.0" font-family="Nimbus Sans" font-size="7.0pt" font-weight="bold">16</text><rect opacity = "0.8" x="181.0" y="201.87755102040816" width="15.0" height="10.0" stroke="#000" fill="#fff" stroke-width="0.0"/><text x="195.0" y="210" fill="#000" stroke-width="0.0" text-anchor="end" font-family="Nimbus Sans" font-size="7.0pt" font-weight="bold">-14</text><rect opacity = "0.8" x="194.0" y="230.87755102040816" width="12.0" height="10.0" stroke="#000" fill="#fff" stroke-width="0.0"/><text x="195.0" y="239" fill="#000" stroke-width="0.0" font-family="Nimbus Sans" font-size="7.0pt" font-weight="bold">13</text><rect opacity = "0.8" x="117.0" y="276.8775510204082" width="15.0" height="10.0" stroke="#000" fill="#fff" stroke-width="0.0"/><text x="130.83333333333334" y="285" fill="#000" stroke-width="0.0" text-anchor="end" font-family="Nimbus Sans" font-size="7.0pt" font-weight="bold">-19</text><rect opacity = "0.8" x="148.0" y="266.8775510204082" width="12.0" height="10.0" stroke="#000" fill="#fff" stroke-width="0.0"/><text x="149.16666666666666" y="275" fill="#000" stroke-width="0.0" font-family="Nimbus Sans" font-size="7.0pt" font-weight="bold">18</text><rect opacity = "0.8" x="287.0" y="221.87755102040816" width="10.0" height="10.0" stroke="#000" fill="#fff" stroke-width="0.0"/><text x="295.8333333333333" y="230" fill="#000" stroke-width="0.0" text-anchor="end" font-family="Nimbus Sans" font-size="7.0pt" font-weight="bold">-6</text><rect opacity = "0.8" x="313.0" y="211.87755102040816" width="7.0" height="10.0" stroke="#000" fill="#fff" stroke-width="0.0"/><text x="314.1666666666667" y="220" fill="#000" stroke-width="0.0" font-family="Nimbus Sans" font-size="7.0pt" font-weight="bold">5</text><rect opacity = "0.8" x="414.0" y="395.8775510204082" width="10.0" height="10.0" stroke="#000" fill="#fff" stroke-width="0.0"/><text x="415.0" y="404" fill="#000" stroke-width="0.0" font-family="Nimbus Sans" font-size="7.0pt" font-weight="bold">-9</text><rect opacity = "0.8" x="404.0" y="366.8775510204082" width="12.0" height="10.0" stroke="#000" fill="#fff" stroke-width="0.0"/><text x="415.0" y="375" fill="#000" stroke-width="0.0" text-anchor="end" font-family="Nimbus Sans" font-size="7.0pt" font-weight="bold">20</text></svg>