<?xml version="1.0" ?><!DOCTYPE svg  PUBLIC '-//W3C//DTD SVG 1.1//EN'  'http://www.w3.org/Graphics/SVG/1.1/DTD/svg11.dtd'><svg xmlns="http://www.w3.org/2000/svg" width="487.000" height="436.000" viewBox="-1.000 -5.000 487.000 436.000"><circle cx="30.0" cy="195.0" r="2.0" stroke="#d82626" fill="#d82626"/><circle cx="30.0" cy="360.0" r="2.0" stroke="#d82626" fill="#d82626"/><circle cx="470.0" cy="360.0" r="2.0" stroke="#d82626" fill="#d82626"/><circle cx="470.0" cy="85.0" r="2.0" stroke="#d82626" fill="#d82626"/><circle cx="250.0" cy="85.0" r="2.0" stroke="#d82626" fill="#d82626"/><circle cx="250.0" cy="195.0" r="2.0" stroke="#d82626" fill="#d82626"/><circle cx="415.0" cy="195.0" r="2.0" stroke="#d82626" fill="#d82626"/><circle cx="415.0" cy="250.0" r="2.0" stroke="#d82626" fill="#d82626"/><circle cx="85.0" cy="250.0" r="2.0" stroke="#d82626" fill="#d82626"/><circle cx="85.0" cy="140.0" r="2.0" stroke="#d82626" fill="#d82626"/><circle cx="140.0" cy="140.0" r="2.0" stroke="#d82626" fill="#d82626"/><circle cx="140.0" cy="415.0" r="2.0" stroke="#d82626" fill="#d82626"/><circle cx="360.0" cy="415.0" r="2.0" stroke="#d82626" fill="#d82626"/><circle cx="360.0" cy="140.0" r="2.0" stroke="#d82626" fill="#d82626"/><circle cx="305.0" cy="140.0" r="2.0" stroke="#d82626" fill="#d82626"/><circle cx="305.0" cy="305.0" r="2.0" stroke="#d82626" fill="#d82626"/><circle cx="195.0" cy="305.0" r="2.0" stroke="#d82626" fill="#d82626"/><circle cx="195.0" cy="195.0" r="2.0" stroke="#d82626" fill="#d82626"/><line x1="30.0" y1="195.0" x2="30.0" y2="360.0" stroke="#d82626" fill="none" stroke-width="6.0"/><line x1="30.0" y1="360.0" x2="470.0" y2="360.0" stroke="#d82626" fill="none" stroke-width="6.0"/><line x1="470.0" y1="360.0" x2="470.0" y2="85.0" stroke="#d82626" fill="none" stroke-width="6.0"/><line x1="470.0" y1="85.0" x2="250.0" y2="85.0" stroke="#d82626" fill="none" stroke-width="6.0"/><line x1="250.0" y1="85.0" x2="250.0" y2="195.0" stroke="#d82626" fill="none" stroke-width="6.0"/><line x1="250.0" y1="195.0" x2="415.0" y2="195.0" stroke="#d82626" fill="none" stroke-width="6.0"/><line x1="415.0" y1="195.0" x2="415.0" y2="250.0" stroke="#d82626" fill="none" stroke-width="6.0"/><line x1="415.0" y1="250.0" x2="85.0" y2="250.0" stroke="#d82626" fill="none" stroke-width="6.0"/><line x1="85.0" y1="250.0" x2="85.0" y2="140.0" stroke="#d82626" fill="none" stroke-width="6.0"/><line x1="85.0" y1="140.0" x2="140.0" y2="140.0" stroke="#d82626" fill="none" stroke-width="6.0"/><line x1="140.0" y1="140.0" x2="140.0" y2="415.0" stroke="#d82626" fill="none" stroke-width="6.0"/><line x1="140.0" y1="415.0" x2="360.0" y2="415.0" stroke="#d82626" fill="none" stroke-width="6.0"/><line x1="360.0" y1="415.0" x2="360.0" y2="140.0" stroke="#d82626" fill="none" stroke-width="6.0"/><line x1="360.0" y1="140.0" x2="305.0" y2="140.0" stroke="#d82626" fill="none" stroke-width="6.0"/><line x1="305.0" y1="140.0" x2="305.0" y2="305.0" stroke="#d82626" fill="none" stroke-width="6.0"/><line x1="305.0" y1="305.0" x2="195.0" y2="305.0" stroke="#d82626" fill="none" stroke-width="6.0"/><line x1="195.0" y1="305.0" x2="195.0" y2="195.0" stroke="#d82626" fill="none" stroke-width="6.0"/><line x1="195.0" y1="195.0" x2="30.0" y2="195.0" stroke="#d82626" fill="none" stroke-width="6.0"/><text x="33.666666666666664" y="210" fill="#000" stroke-width="0.0" font-family="Nimbus Sans" font-size="11.0pt" font-weight="bold">3</text><ellipse cx="37.59523809523809" cy="217.26190476190476" rx="3.928571428571427" ry="3.9285714285714306" stroke="#0f0" fill="#0f0" stroke-width="0.0"/><text x="37.595238095238095" y="220" fill="#fff" stroke-width="0.0" text-anchor="middle" font-family="Nimbus Sans" font-size="7.0pt">a</text><text x="33.666666666666664" y="375" fill="#000" stroke-width="0.0" font-family="Nimbus Sans" font-size="11.0pt" font-weight="bold">7</text><text x="253.66666666666666" y="100" fill="#000" stroke-width="0.0" font-family="Nimbus Sans" font-size="11.0pt" font-weight="bold">4</text><text x="363.6666666666667" y="210" fill="#000" stroke-width="0.0" font-family="Nimbus Sans" font-size="11.0pt" font-weight="bold">2</text><ellipse cx="367.5952380952381" cy="217.26190476190476" rx="3.9285714285714164" ry="3.9285714285714306" stroke="#f00" fill="#f00" stroke-width="0.0"/><text x="367.59523809523813" y="220" fill="#fff" stroke-width="0.0" text-anchor="middle" font-family="Nimbus Sans" font-size="7.0pt">A</text><ellipse cx="376.2380952380953" cy="217.26190476190476" rx="3.9285714285714164" ry="3.9285714285714306" stroke="#0f0" fill="#0f0" stroke-width="0.0"/><text x="376.2380952380953" y="220" fill="#fff" stroke-width="0.0" text-anchor="middle" font-family="Nimbus Sans" font-size="7.0pt">a</text><text x="308.6666666666667" y="155" fill="#000" stroke-width="0.0" font-family="Nimbus Sans" font-size="11.0pt" font-weight="bold">2</text><ellipse cx="312.5952380952381" cy="162.26190476190476" rx="3.9285714285714164" ry="3.9285714285714306" stroke="#f00" fill="#f00" stroke-width="0.0"/><text x="312.59523809523813" y="165" fill="#fff" stroke-width="0.0" text-anchor="middle" font-family="Nimbus Sans" font-size="7.0pt">A</text><ellipse cx="321.2380952380953" cy="162.26190476190476" rx="3.9285714285714164" ry="3.9285714285714306" stroke="#0f0" fill="#0f0" stroke-width="0.0"/><text x="321.2380952380953" y="165" fill="#fff" stroke-width="0.0" text-anchor="middle" font-family="Nimbus Sans" font-size="7.0pt">a</text><text x="308.6666666666667" y="210" fill="#000" stroke-width="0.0" font-family="Nimbus Sans" font-size="11.0pt" font-weight="bold">4</text><text x="198.66666666666666" y="265" fill="#000" stroke-width="0.0" font-family="Nimbus Sans" font-size="11.0pt" font-weight="bold">2</text><ellipse cx="202.59523809523807" cy="272.2619047619047" rx="3.9285714285714306" ry="3.9285714285714164" stroke="#f00" fill="#f00" stroke-width="0.0"/><text x="202.59523809523807" y="275" fill="#fff" stroke-width="0.0" text-anchor="middle" font-family="Nimbus Sans" font-size="7.0pt">A</text><ellipse cx="211.23809523809524" cy="272.2619047619047" rx="3.9285714285714306" ry="3.9285714285714164" stroke="#0f0" fill="#0f0" stroke-width="0.0"/><text x="211.2380952380952" y="275" fill="#fff" stroke-width="0.0" text-anchor="middle" font-family="Nimbus Sans" font-size="7.0pt">a</text><text x="88.66666666666667" y="210" fill="#000" stroke-width="0.0" font-family="Nimbus Sans" font-size="11.0pt" font-weight="bold">3</text><circle cx="92.5952380952381" cy="217.26190476190476" r="3.9285714285714306" stroke="#f00" fill="#f00" stroke-width="0.0"/><text x="92.5952380952381" y="220" fill="#fff" stroke-width="0.0" text-anchor="middle" font-family="Nimbus Sans" font-size="7.0pt">A</text><text x="143.66666666666666" y="265" fill="#000" stroke-width="0.0" font-family="Nimbus Sans" font-size="11.0pt" font-weight="bold">6</text><text x="143.66666666666666" y="210" fill="#000" stroke-width="0.0" font-family="Nimbus Sans" font-size="11.0pt" font-weight="bold">3</text><circle cx="147.59523809523807" cy="217.26190476190476" r="3.9285714285714306" stroke="#0f0" fill="#0f0" stroke-width="0.0"/><text x="147.59523809523807" y="220" fill="#fff" stroke-width="0.0" text-anchor="middle" font-family="Nimbus Sans" font-size="7.0pt">a</text><text x="88.66666666666667" y="155" fill="#000" stroke-width="0.0" font-family="Nimbus Sans" font-size="11.0pt" font-weight="bold">2</text><circle cx="92.5952380952381" cy="162.26190476190476" r="3.9285714285714306" stroke="#f00" fill="#f00" stroke-width="0.0"/><text x="92.5952380952381" y="165" fill="#fff" stroke-width="0.0" text-anchor="middle" font-family="Nimbus Sans" font-size="7.0pt">A</text><circle cx="101.23809523809524" cy="162.26190476190476" r="3.9285714285714306" stroke="#0f0" fill="#0f0" stroke-width="0.0"/><text x="101.23809523809524" y="165" fill="#fff" stroke-width="0.0" text-anchor="middle" font-family="Nimbus Sans" font-size="7.0pt">a</text><text x="143.66666666666666" y="375" fill="#000" stroke-width="0.0" font-family="Nimbus Sans" font-size="11.0pt" font-weight="bold">2</text><ellipse cx="147.59523809523807" cy="382.2619047619047" rx="3.9285714285714306" ry="3.9285714285714164" stroke="#f00" fill="#f00" stroke-width="0.0"/><text x="147.59523809523807" y="385" fill="#fff" stroke-width="0.0" text-anchor="middle" font-family="Nimbus Sans" font-size="7.0pt">A</text><ellipse cx="156.23809523809524" cy="382.2619047619047" rx="3.9285714285714306" ry="3.9285714285714164" stroke="#0f0" fill="#0f0" stroke-width="0.0"/><text x="156.2380952380952" y="385" fill="#fff" stroke-width="0.0" text-anchor="middle" font-family="Nimbus Sans" font-size="7.0pt">a</text></svg>