<?xml version="1.0" ?><!DOCTYPE svg  PUBLIC '-//W3C//DTD SVG 1.1//EN'  'http://www.w3.org/Graphics/SVG/1.1/DTD/svg11.dtd'><svg xmlns="http://www.w3.org/2000/svg" width="487.000" height="491.000" viewBox="-1.000 -5.000 487.000 491.000"><circle cx="470.0" cy="176.66666666666666" r="2.0" stroke="#d82626" fill="#d82626"/><circle cx="470.0" cy="470.0" r="2.0" stroke="#d82626" fill="#d82626"/><circle cx="30.0" cy="470.0" r="2.0" stroke="#d82626" fill="#d82626"/><circle cx="30.0" cy="176.66666666666666" r="2.0" stroke="#d82626" fill="#d82626"/><circle cx="323.3333333333333" cy="323.3333333333333" r="2.0" stroke="#2626d8" fill="#2626d8"/><circle cx="176.66666666666666" cy="323.3333333333333" r="2.0" stroke="#2626d8" fill="#2626d8"/><circle cx="176.66666666666666" cy="30.0" r="2.0" stroke="#2626d8" fill="#2626d8"/><circle cx="323.3333333333333" cy="30.0" r="2.0" stroke="#2626d8" fill="#2626d8"/><line x1="470.0" y1="176.66666666666666" x2="470.0" y2="470.0" stroke="#d82626" fill="none" stroke-width="6.0"/><line x1="470.0" y1="470.0" x2="30.0" y2="470.0" stroke="#d82626" fill="none" stroke-width="6.0"/><line x1="30.0" y1="470.0" x2="30.0" y2="176.66666666666666" stroke="#d82626" fill="none" stroke-width="6.0"/><line x1="30.0" y1="176.66666666666666" x2="470.0" y2="176.66666666666666" stroke="#d82626" fill="none" stroke-width="6.0"/><line x1="323.3333333333333" y1="323.3333333333333" x2="176.66666666666666" y2="323.3333333333333" stroke="#2626d8" fill="none" stroke-width="6.0"/><line x1="176.66666666666666" y1="323.3333333333333" x2="176.66666666666666" y2="30.0" stroke="#2626d8" fill="none" stroke-width="6.0"/><line x1="176.66666666666666" y1="30.0" x2="323.3333333333333" y2="30.0" stroke="#2626d8" fill="none" stroke-width="6.0"/><line x1="323.3333333333333" y1="30.0" x2="323.3333333333333" y2="323.3333333333333" stroke="#2626d8" fill="none" stroke-width="6.0"/><rect opacity = "0.8" x="155.0" y="124.00680272108843" width="23.0" height="25.0" stroke="#000" fill="#fff" stroke-width="0.0"/><text x="176.66666666666666" y="145" fill="#000" stroke-width="0.0" text-anchor="end" font-family="Nimbus Sans" font-size="18.0pt" font-weight="bold">-4</text><rect opacity = "0.8" x="176.0" y="198.00680272108843" width="15.0" height="25.0" stroke="#000" fill="#fff" stroke-width="0.0"/><text x="176.66666666666666" y="219" fill="#000" stroke-width="0.0" font-family="Nimbus Sans" font-size="18.0pt" font-weight="bold">3</text><rect opacity = "0.8" x="200.0" y="149.00680272108843" width="23.0" height="25.0" stroke="#000" fill="#fff" stroke-width="0.0"/><text x="201.1111111111111" y="170" fill="#000" stroke-width="0.0" font-family="Nimbus Sans" font-size="18.0pt" font-weight="bold">-1</text><rect opacity = "0.8" x="138.0" y="174.00680272108843" width="15.0" height="25.0" stroke="#000" fill="#fff" stroke-width="0.0"/><text x="152.22222222222223" y="195" fill="#000" stroke-width="0.0" text-anchor="end" font-family="Nimbus Sans" font-size="18.0pt" font-weight="bold">2</text><rect opacity = "0.8" x="347.0" y="149.00680272108843" width="23.0" height="25.0" stroke="#000" fill="#fff" stroke-width="0.0"/><text x="347.77777777777777" y="170" fill="#000" stroke-width="0.0" font-family="Nimbus Sans" font-size="18.0pt" font-weight="bold">-2</text><rect opacity = "0.8" x="285.0" y="174.00680272108843" width="15.0" height="25.0" stroke="#000" fill="#fff" stroke-width="0.0"/><text x="298.88888888888886" y="195" fill="#000" stroke-width="0.0" text-anchor="end" font-family="Nimbus Sans" font-size="18.0pt" font-weight="bold">1</text><rect opacity = "0.8" x="322.0" y="198.00680272108843" width="23.0" height="25.0" stroke="#000" fill="#fff" stroke-width="0.0"/><text x="323.3333333333333" y="219" fill="#000" stroke-width="0.0" font-family="Nimbus Sans" font-size="18.0pt" font-weight="bold">-3</text><rect opacity = "0.8" x="309.0" y="124.00680272108843" width="15.0" height="25.0" stroke="#000" fill="#fff" stroke-width="0.0"/><text x="323.3333333333333" y="145" fill="#000" stroke-width="0.0" text-anchor="end" font-family="Nimbus Sans" font-size="18.0pt" font-weight="bold">4</text></svg>