<?xml version="1.0" ?><!DOCTYPE svg  PUBLIC '-//W3C//DTD SVG 1.1//EN'  'http://www.w3.org/Graphics/SVG/1.1/DTD/svg11.dtd'><svg xmlns="http://www.w3.org/2000/svg" width="487.000" height="436.000" viewBox="-1.000 -5.000 487.000 436.000"><circle cx="415.0" cy="250.0" r="2.0" stroke="#d82626" fill="#d82626"/><circle cx="360.0" cy="250.0" r="2.0" stroke="#d82626" fill="#d82626"/><circle cx="360.0" cy="360.0" r="2.0" stroke="#d82626" fill="#d82626"/><circle cx="305.0" cy="360.0" r="2.0" stroke="#d82626" fill="#d82626"/><circle cx="305.0" cy="85.0" r="2.0" stroke="#d82626" fill="#d82626"/><circle cx="30.0" cy="85.0" r="2.0" stroke="#d82626" fill="#d82626"/><circle cx="30.0" cy="195.0" r="2.0" stroke="#d82626" fill="#d82626"/><circle cx="250.0" cy="195.0" r="2.0" stroke="#d82626" fill="#d82626"/><circle cx="250.0" cy="250.0" r="2.0" stroke="#d82626" fill="#d82626"/><circle cx="85.0" cy="250.0" r="2.0" stroke="#d82626" fill="#d82626"/><circle cx="85.0" cy="140.0" r="2.0" stroke="#d82626" fill="#d82626"/><circle cx="140.0" cy="140.0" r="2.0" stroke="#d82626" fill="#d82626"/><circle cx="140.0" cy="305.0" r="2.0" stroke="#d82626" fill="#d82626"/><circle cx="470.0" cy="305.0" r="2.0" stroke="#d82626" fill="#d82626"/><circle cx="470.0" cy="140.0" r="2.0" stroke="#d82626" fill="#d82626"/><circle cx="195.0" cy="140.0" r="2.0" stroke="#d82626" fill="#d82626"/><circle cx="195.0" cy="415.0" r="2.0" stroke="#d82626" fill="#d82626"/><circle cx="415.0" cy="415.0" r="2.0" stroke="#d82626" fill="#d82626"/><line x1="415.0" y1="250.0" x2="360.0" y2="250.0" stroke="#d82626" fill="none" stroke-width="6.0"/><line x1="360.0" y1="250.0" x2="360.0" y2="360.0" stroke="#d82626" fill="none" stroke-width="6.0"/><line x1="360.0" y1="360.0" x2="305.0" y2="360.0" stroke="#d82626" fill="none" stroke-width="6.0"/><line x1="305.0" y1="360.0" x2="305.0" y2="85.0" stroke="#d82626" fill="none" stroke-width="6.0"/><line x1="305.0" y1="85.0" x2="30.0" y2="85.0" stroke="#d82626" fill="none" stroke-width="6.0"/><line x1="30.0" y1="85.0" x2="30.0" y2="195.0" stroke="#d82626" fill="none" stroke-width="6.0"/><line x1="30.0" y1="195.0" x2="250.0" y2="195.0" stroke="#d82626" fill="none" stroke-width="6.0"/><line x1="250.0" y1="195.0" x2="250.0" y2="250.0" stroke="#d82626" fill="none" stroke-width="6.0"/><line x1="250.0" y1="250.0" x2="85.0" y2="250.0" stroke="#d82626" fill="none" stroke-width="6.0"/><line x1="85.0" y1="250.0" x2="85.0" y2="140.0" stroke="#d82626" fill="none" stroke-width="6.0"/><line x1="85.0" y1="140.0" x2="140.0" y2="140.0" stroke="#d82626" fill="none" stroke-width="6.0"/><line x1="140.0" y1="140.0" x2="140.0" y2="305.0" stroke="#d82626" fill="none" stroke-width="6.0"/><line x1="140.0" y1="305.0" x2="470.0" y2="305.0" stroke="#d82626" fill="none" stroke-width="6.0"/><line x1="470.0" y1="305.0" x2="470.0" y2="140.0" stroke="#d82626" fill="none" stroke-width="6.0"/><line x1="470.0" y1="140.0" x2="195.0" y2="140.0" stroke="#d82626" fill="none" stroke-width="6.0"/><line x1="195.0" y1="140.0" x2="195.0" y2="415.0" stroke="#d82626" fill="none" stroke-width="6.0"/><line x1="195.0" y1="415.0" x2="415.0" y2="415.0" stroke="#d82626" fill="none" stroke-width="6.0"/><line x1="415.0" y1="415.0" x2="415.0" y2="250.0" stroke="#d82626" fill="none" stroke-width="6.0"/><rect opacity = "0.8" x="368.0" y="293.8775510204082" width="15.0" height="10.0" stroke="#000" fill="#fff" stroke-width="0.0"/><text x="369.1666666666667" y="302" fill="#000" stroke-width="0.0" font-family="Nimbus Sans" font-size="7.0pt" font-weight="bold">-14</text><rect opacity = "0.8" x="340.0" y="303.8775510204082" width="12.0" height="10.0" stroke="#000" fill="#fff" stroke-width="0.0"/><text x="350.8333333333333" y="312" fill="#000" stroke-width="0.0" text-anchor="end" font-family="Nimbus Sans" font-size="7.0pt" font-weight="bold">13</text><rect opacity = "0.8" x="296.0" y="119.87755102040816" width="10.0" height="10.0" stroke="#000" fill="#fff" stroke-width="0.0"/><text x="305.0" y="128" fill="#000" stroke-width="0.0" text-anchor="end" font-family="Nimbus Sans" font-size="7.0pt" font-weight="bold">-3</text><rect opacity = "0.8" x="304.0" y="147.87755102040816" width="7.0" height="10.0" stroke="#000" fill="#fff" stroke-width="0.0"/><text x="305.0" y="156" fill="#000" stroke-width="0.0" font-family="Nimbus Sans" font-size="7.0pt" font-weight="bold">2</text><rect opacity = "0.8" x="148.0" y="183.87755102040816" width="10.0" height="10.0" stroke="#000" fill="#fff" stroke-width="0.0"/><text x="149.16666666666666" y="192" fill="#000" stroke-width="0.0" font-family="Nimbus Sans" font-size="7.0pt" font-weight="bold">-5</text><rect opacity = "0.8" x="125.0" y="193.87755102040816" width="7.0" height="10.0" stroke="#000" fill="#fff" stroke-width="0.0"/><text x="130.83333333333334" y="202" fill="#000" stroke-width="0.0" text-anchor="end" font-family="Nimbus Sans" font-size="7.0pt" font-weight="bold">4</text><rect opacity = "0.8" x="139.0" y="202.87755102040816" width="15.0" height="10.0" stroke="#000" fill="#fff" stroke-width="0.0"/><text x="140.0" y="211" fill="#000" stroke-width="0.0" font-family="Nimbus Sans" font-size="7.0pt" font-weight="bold">-10</text><rect opacity = "0.8" x="134.0" y="174.87755102040816" width="7.0" height="10.0" stroke="#000" fill="#fff" stroke-width="0.0"/><text x="140.0" y="183" fill="#000" stroke-width="0.0" text-anchor="end" font-family="Nimbus Sans" font-size="7.0pt" font-weight="bold">9</text><rect opacity = "0.8" x="139.0" y="257.8775510204082" width="15.0" height="10.0" stroke="#000" fill="#fff" stroke-width="0.0"/><text x="140.0" y="266" fill="#000" stroke-width="0.0" font-family="Nimbus Sans" font-size="7.0pt" font-weight="bold">-11</text><rect opacity = "0.8" x="129.0" y="229.87755102040816" width="12.0" height="10.0" stroke="#000" fill="#fff" stroke-width="0.0"/><text x="140.0" y="238" fill="#000" stroke-width="0.0" text-anchor="end" font-family="Nimbus Sans" font-size="7.0pt" font-weight="bold">10</text><rect opacity = "0.8" x="203.0" y="183.87755102040816" width="10.0" height="10.0" stroke="#000" fill="#fff" stroke-width="0.0"/><text x="204.16666666666666" y="192" fill="#000" stroke-width="0.0" font-family="Nimbus Sans" font-size="7.0pt" font-weight="bold">-6</text><rect opacity = "0.8" x="180.0" y="193.87755102040816" width="7.0" height="10.0" stroke="#000" fill="#fff" stroke-width="0.0"/><text x="185.83333333333334" y="202" fill="#000" stroke-width="0.0" text-anchor="end" font-family="Nimbus Sans" font-size="7.0pt" font-weight="bold">5</text><rect opacity = "0.8" x="194.0" y="257.8775510204082" width="15.0" height="10.0" stroke="#000" fill="#fff" stroke-width="0.0"/><text x="195.0" y="266" fill="#000" stroke-width="0.0" font-family="Nimbus Sans" font-size="7.0pt" font-weight="bold">-18</text><rect opacity = "0.8" x="184.0" y="229.87755102040816" width="12.0" height="10.0" stroke="#000" fill="#fff" stroke-width="0.0"/><text x="195.0" y="238" fill="#000" stroke-width="0.0" text-anchor="end" font-family="Nimbus Sans" font-size="7.0pt" font-weight="bold">17</text><rect opacity = "0.8" x="177.0" y="248.87755102040816" width="10.0" height="10.000000000000028" stroke="#000" fill="#fff" stroke-width="0.0"/><text x="185.83333333333334" y="257" fill="#000" stroke-width="0.0" text-anchor="end" font-family="Nimbus Sans" font-size="7.0pt" font-weight="bold">-7</text><rect opacity = "0.8" x="203.0" y="238.87755102040816" width="7.0" height="10.0" stroke="#000" fill="#fff" stroke-width="0.0"/><text x="204.16666666666666" y="247" fill="#000" stroke-width="0.0" font-family="Nimbus Sans" font-size="7.0pt" font-weight="bold">6</text><rect opacity = "0.8" x="76.0" y="174.87755102040816" width="10.0" height="10.0" stroke="#000" fill="#fff" stroke-width="0.0"/><text x="85.0" y="183" fill="#000" stroke-width="0.0" text-anchor="end" font-family="Nimbus Sans" font-size="7.0pt" font-weight="bold">-9</text><rect opacity = "0.8" x="84.0" y="202.87755102040816" width="7.0" height="10.0" stroke="#000" fill="#fff" stroke-width="0.0"/><text x="85.0" y="211" fill="#000" stroke-width="0.0" font-family="Nimbus Sans" font-size="7.0pt" font-weight="bold">8</text><rect opacity = "0.8" x="203.0" y="293.8775510204082" width="15.0" height="10.0" stroke="#000" fill="#fff" stroke-width="0.0"/><text x="204.16666666666666" y="302" fill="#000" stroke-width="0.0" font-family="Nimbus Sans" font-size="7.0pt" font-weight="bold">-12</text><rect opacity = "0.8" x="175.0" y="303.8775510204082" width="12.0" height="10.0" stroke="#000" fill="#fff" stroke-width="0.0"/><text x="185.83333333333334" y="312" fill="#000" stroke-width="0.0" text-anchor="end" font-family="Nimbus Sans" font-size="7.0pt" font-weight="bold">11</text><rect opacity = "0.8" x="401.0" y="284.8775510204082" width="15.0" height="10.0" stroke="#000" fill="#fff" stroke-width="0.0"/><text x="415.0" y="293" fill="#000" stroke-width="0.0" text-anchor="end" font-family="Nimbus Sans" font-size="7.0pt" font-weight="bold">-20</text><rect opacity = "0.8" x="414.0" y="312.8775510204082" width="12.0" height="10.0" stroke="#000" fill="#fff" stroke-width="0.0"/><text x="415.0" y="321" fill="#000" stroke-width="0.0" font-family="Nimbus Sans" font-size="7.0pt" font-weight="bold">19</text><rect opacity = "0.8" x="313.0" y="293.8775510204082" width="15.0" height="10.0" stroke="#000" fill="#fff" stroke-width="0.0"/><text x="314.1666666666667" y="302" fill="#000" stroke-width="0.0" font-family="Nimbus Sans" font-size="7.0pt" font-weight="bold">-13</text><rect opacity = "0.8" x="285.0" y="303.8775510204082" width="12.0" height="10.0" stroke="#000" fill="#fff" stroke-width="0.0"/><text x="295.8333333333333" y="312" fill="#000" stroke-width="0.0" text-anchor="end" font-family="Nimbus Sans" font-size="7.0pt" font-weight="bold">12</text><rect opacity = "0.8" x="296.0" y="284.8775510204082" width="10.0" height="10.0" stroke="#000" fill="#fff" stroke-width="0.0"/><text x="305.0" y="293" fill="#000" stroke-width="0.0" text-anchor="end" font-family="Nimbus Sans" font-size="7.0pt" font-weight="bold">-2</text><rect opacity = "0.8" x="304.0" y="312.8775510204082" width="7.0" height="10.0" stroke="#000" fill="#fff" stroke-width="0.0"/><text x="305.0" y="321" fill="#000" stroke-width="0.0" font-family="Nimbus Sans" font-size="7.0pt" font-weight="bold">1</text><rect opacity = "0.8" x="423.0" y="293.8775510204082" width="15.0" height="10.0" stroke="#000" fill="#fff" stroke-width="0.0"/><text x="424.1666666666667" y="302" fill="#000" stroke-width="0.0" font-family="Nimbus Sans" font-size="7.0pt" font-weight="bold">-15</text><rect opacity = "0.8" x="395.0" y="303.8775510204082" width="12.0" height="10.0" stroke="#000" fill="#fff" stroke-width="0.0"/><text x="405.8333333333333" y="312" fill="#000" stroke-width="0.0" text-anchor="end" font-family="Nimbus Sans" font-size="7.0pt" font-weight="bold">14</text><rect opacity = "0.8" x="282.0" y="138.87755102040816" width="15.0" height="10.0" stroke="#000" fill="#fff" stroke-width="0.0"/><text x="295.8333333333333" y="147" fill="#000" stroke-width="0.0" text-anchor="end" font-family="Nimbus Sans" font-size="7.0pt" font-weight="bold">-16</text><rect opacity = "0.8" x="313.0" y="128.87755102040816" width="12.0" height="10.0" stroke="#000" fill="#fff" stroke-width="0.0"/><text x="314.1666666666667" y="137" fill="#000" stroke-width="0.0" font-family="Nimbus Sans" font-size="7.0pt" font-weight="bold">15</text><rect opacity = "0.8" x="359.0" y="312.8775510204082" width="10.0" height="10.0" stroke="#000" fill="#fff" stroke-width="0.0"/><text x="360.0" y="321" fill="#000" stroke-width="0.0" font-family="Nimbus Sans" font-size="7.0pt" font-weight="bold">-1</text><rect opacity = "0.8" x="349.0" y="284.8775510204082" width="12.0" height="10.0" stroke="#000" fill="#fff" stroke-width="0.0"/><text x="360.0" y="293" fill="#000" stroke-width="0.0" text-anchor="end" font-family="Nimbus Sans" font-size="7.0pt" font-weight="bold">20</text><rect opacity = "0.8" x="93.0" y="183.87755102040816" width="10.0" height="10.0" stroke="#000" fill="#fff" stroke-width="0.0"/><text x="94.16666666666667" y="192" fill="#000" stroke-width="0.0" font-family="Nimbus Sans" font-size="7.0pt" font-weight="bold">-4</text><rect opacity = "0.8" x="70.0" y="193.87755102040816" width="7.0" height="10.0" stroke="#000" fill="#fff" stroke-width="0.0"/><text x="75.83333333333333" y="202" fill="#000" stroke-width="0.0" text-anchor="end" font-family="Nimbus Sans" font-size="7.0pt" font-weight="bold">3</text><rect opacity = "0.8" x="194.0" y="202.87755102040816" width="15.0" height="10.0" stroke="#000" fill="#fff" stroke-width="0.0"/><text x="195.0" y="211" fill="#000" stroke-width="0.0" font-family="Nimbus Sans" font-size="7.0pt" font-weight="bold">-17</text><rect opacity = "0.8" x="184.0" y="174.87755102040816" width="12.0" height="10.0" stroke="#000" fill="#fff" stroke-width="0.0"/><text x="195.0" y="183" fill="#000" stroke-width="0.0" text-anchor="end" font-family="Nimbus Sans" font-size="7.0pt" font-weight="bold">16</text><rect opacity = "0.8" x="122.0" y="248.87755102040816" width="10.0" height="10.000000000000028" stroke="#000" fill="#fff" stroke-width="0.0"/><text x="130.83333333333334" y="257" fill="#000" stroke-width="0.0" text-anchor="end" font-family="Nimbus Sans" font-size="7.0pt" font-weight="bold">-8</text><rect opacity = "0.8" x="148.0" y="238.87755102040816" width="7.0" height="10.0" stroke="#000" fill="#fff" stroke-width="0.0"/><text x="149.16666666666666" y="247" fill="#000" stroke-width="0.0" font-family="Nimbus Sans" font-size="7.0pt" font-weight="bold">7</text><rect opacity = "0.8" x="194.0" y="312.8775510204082" width="15.0" height="10.0" stroke="#000" fill="#fff" stroke-width="0.0"/><text x="195.0" y="321" fill="#000" stroke-width="0.0" font-family="Nimbus Sans" font-size="7.0pt" font-weight="bold">-19</text><rect opacity = "0.8" x="184.0" y="284.8775510204082" width="12.0" height="10.0" stroke="#000" fill="#fff" stroke-width="0.0"/><text x="195.0" y="293" fill="#000" stroke-width="0.0" text-anchor="end" font-family="Nimbus Sans" font-size="7.0pt" font-weight="bold">18</text></svg>