<?xml version="1.0" ?><!DOCTYPE svg  PUBLIC '-//W3C//DTD SVG 1.1//EN'  'http://www.w3.org/Graphics/SVG/1.1/DTD/svg11.dtd'><svg xmlns="http://www.w3.org/2000/svg" width="487.000" height="491.000" viewBox="-1.000 -5.000 487.000 491.000"><circle cx="396.66666666666663" cy="396.66666666666663" r="2.0" stroke="#d82626" fill="#d82626"/><circle cx="396.66666666666663" cy="323.3333333333333" r="2.0" stroke="#d82626" fill="#d82626"/><circle cx="176.66666666666666" cy="323.3333333333333" r="2.0" stroke="#d82626" fill="#d82626"/><circle cx="176.66666666666666" cy="30.0" r="2.0" stroke="#d82626" fill="#d82626"/><circle cx="30.0" cy="30.0" r="2.0" stroke="#d82626" fill="#d82626"/><circle cx="30.0" cy="250.0" r="2.0" stroke="#d82626" fill="#d82626"/><circle cx="470.0" cy="250.0" r="2.0" stroke="#d82626" fill="#d82626"/><circle cx="470.0" cy="470.0" r="2.0" stroke="#d82626" fill="#d82626"/><circle cx="323.3333333333333" cy="470.0" r="2.0" stroke="#d82626" fill="#d82626"/><circle cx="323.3333333333333" cy="176.66666666666666" r="2.0" stroke="#d82626" fill="#d82626"/><circle cx="103.33333333333333" cy="176.66666666666666" r="2.0" stroke="#d82626" fill="#d82626"/><circle cx="103.33333333333333" cy="103.33333333333333" r="2.0" stroke="#d82626" fill="#d82626"/><circle cx="250.0" cy="103.33333333333333" r="2.0" stroke="#d82626" fill="#d82626"/><circle cx="250.0" cy="396.66666666666663" r="2.0" stroke="#d82626" fill="#d82626"/><line x1="396.66666666666663" y1="396.66666666666663" x2="396.66666666666663" y2="323.3333333333333" stroke="#d82626" fill="none" stroke-width="6.0"/><line x1="396.66666666666663" y1="323.3333333333333" x2="176.66666666666666" y2="323.3333333333333" stroke="#d82626" fill="none" stroke-width="6.0"/><line x1="176.66666666666666" y1="323.3333333333333" x2="176.66666666666666" y2="30.0" stroke="#d82626" fill="none" stroke-width="6.0"/><line x1="176.66666666666666" y1="30.0" x2="30.0" y2="30.0" stroke="#d82626" fill="none" stroke-width="6.0"/><line x1="30.0" y1="30.0" x2="30.0" y2="250.0" stroke="#d82626" fill="none" stroke-width="6.0"/><line x1="30.0" y1="250.0" x2="470.0" y2="250.0" stroke="#d82626" fill="none" stroke-width="6.0"/><line x1="470.0" y1="250.0" x2="470.0" y2="470.0" stroke="#d82626" fill="none" stroke-width="6.0"/><line x1="470.0" y1="470.0" x2="323.3333333333333" y2="470.0" stroke="#d82626" fill="none" stroke-width="6.0"/><line x1="323.3333333333333" y1="470.0" x2="323.3333333333333" y2="176.66666666666666" stroke="#d82626" fill="none" stroke-width="6.0"/><line x1="323.3333333333333" y1="176.66666666666666" x2="103.33333333333333" y2="176.66666666666666" stroke="#d82626" fill="none" stroke-width="6.0"/><line x1="103.33333333333333" y1="176.66666666666666" x2="103.33333333333333" y2="103.33333333333333" stroke="#d82626" fill="none" stroke-width="6.0"/><line x1="103.33333333333333" y1="103.33333333333333" x2="250.0" y2="103.33333333333333" stroke="#d82626" fill="none" stroke-width="6.0"/><line x1="250.0" y1="103.33333333333333" x2="250.0" y2="396.66666666666663" stroke="#d82626" fill="none" stroke-width="6.0"/><line x1="250.0" y1="396.66666666666663" x2="396.66666666666663" y2="396.66666666666663" stroke="#d82626" fill="none" stroke-width="6.0"/></svg>