<?xml version="1.0" ?><!DOCTYPE svg  PUBLIC '-//W3C//DTD SVG 1.1//EN'  'http://www.w3.org/Graphics/SVG/1.1/DTD/svg11.dtd'><svg xmlns="http://www.w3.org/2000/svg" width="487.000" height="425.000" viewBox="-1.000 -5.000 487.000 425.000"><text x="10.0" y="21" fill="#d82626" stroke-width="0.0" font-family="Nimbus Sans" font-size="16.0pt" font-weight="bold">0</text><circle cx="162.4" cy="228.4" r="2.0" stroke="#d82626" fill="#d82626"/><circle cx="74.4" cy="228.4" r="2.0" stroke="#d82626" fill="#d82626"/><circle cx="74.4" cy="360.40000000000003" r="2.0" stroke="#d82626" fill="#d82626"/><circle cx="382.40000000000003" cy="360.40000000000003" r="2.0" stroke="#d82626" fill="#d82626"/><circle cx="382.40000000000003" cy="96.4" r="2.0" stroke="#d82626" fill="#d82626"/><circle cx="470.40000000000003" cy="96.4" r="2.0" stroke="#d82626" fill="#d82626"/><circle cx="470.40000000000003" cy="316.40000000000003" r="2.0" stroke="#d82626" fill="#d82626"/><circle cx="294.40000000000003" cy="316.40000000000003" r="2.0" stroke="#d82626" fill="#d82626"/><circle cx="294.40000000000003" cy="184.4" r="2.0" stroke="#d82626" fill="#d82626"/><circle cx="338.40000000000003" cy="184.4" r="2.0" stroke="#d82626" fill="#d82626"/><circle cx="338.40000000000003" cy="228.4" r="2.0" stroke="#d82626" fill="#d82626"/><circle cx="250.40000000000003" cy="228.4" r="2.0" stroke="#d82626" fill="#d82626"/><circle cx="250.40000000000003" cy="140.4" r="2.0" stroke="#d82626" fill="#d82626"/><circle cx="426.40000000000003" cy="140.4" r="2.0" stroke="#d82626" fill="#d82626"/><circle cx="426.40000000000003" cy="272.4" r="2.0" stroke="#d82626" fill="#d82626"/><circle cx="118.4" cy="272.4" r="2.0" stroke="#d82626" fill="#d82626"/><circle cx="118.4" cy="316.40000000000003" r="2.0" stroke="#d82626" fill="#d82626"/><circle cx="206.4" cy="316.40000000000003" r="2.0" stroke="#d82626" fill="#d82626"/><circle cx="206.4" cy="184.4" r="2.0" stroke="#d82626" fill="#d82626"/><ellipse cx="30.400000000000006" cy="184.4" rx="2.0000000000000018" ry="2.0" stroke="#d82626" fill="#d82626"/><ellipse cx="30.400000000000006" cy="404.40000000000003" rx="2.0000000000000018" ry="2.0" stroke="#d82626" fill="#d82626"/><circle cx="162.4" cy="404.40000000000003" r="2.0" stroke="#d82626" fill="#d82626"/><line x1="162.4" y1="228.4" x2="74.4" y2="228.4" stroke="#d82626" fill="none" stroke-width="3.0"/><polygon points="74.4 228.4 84.4 225.4 82.4 228.4 84.4 231.4" fill="#d82626"/><line x1="74.4" y1="228.4" x2="74.4" y2="360.40000000000003" stroke="#d82626" fill="none" stroke-width="3.0"/><polygon points="74.4 360.40000000000003 71.4 350.40000000000003 74.4 352.40000000000003 77.4 350.40000000000003" fill="#d82626"/><line x1="74.4" y1="360.40000000000003" x2="382.40000000000003" y2="360.40000000000003" stroke="#d82626" fill="none" stroke-width="3.0"/><polygon points="382.40000000000003 360.40000000000003 372.40000000000003 363.40000000000003 374.40000000000003 360.40000000000003 372.40000000000003 357.40000000000003" fill="#d82626"/><line x1="382.40000000000003" y1="360.40000000000003" x2="382.40000000000003" y2="96.4" stroke="#d82626" fill="none" stroke-width="3.0"/><polygon points="382.40000000000003 96.4 385.40000000000003 106.4 382.40000000000003 104.4 379.40000000000003 106.4" fill="#d82626"/><line x1="382.40000000000003" y1="96.4" x2="470.40000000000003" y2="96.4" stroke="#d82626" fill="none" stroke-width="3.0"/><polygon points="470.40000000000003 96.4 460.40000000000003 99.4 462.40000000000003 96.4 460.40000000000003 93.4" fill="#d82626"/><line x1="470.40000000000003" y1="96.4" x2="470.40000000000003" y2="316.40000000000003" stroke="#d82626" fill="none" stroke-width="3.0"/><polygon points="470.40000000000003 316.40000000000003 467.40000000000003 306.40000000000003 470.40000000000003 308.40000000000003 473.40000000000003 306.40000000000003" fill="#d82626"/><line x1="470.40000000000003" y1="316.40000000000003" x2="294.40000000000003" y2="316.40000000000003" stroke="#d82626" fill="none" stroke-width="3.0"/><polygon points="294.40000000000003 316.40000000000003 304.40000000000003 313.40000000000003 302.40000000000003 316.40000000000003 304.40000000000003 319.40000000000003" fill="#d82626"/><line x1="294.40000000000003" y1="316.40000000000003" x2="294.40000000000003" y2="184.4" stroke="#d82626" fill="none" stroke-width="3.0"/><polygon points="294.40000000000003 184.4 297.40000000000003 194.4 294.40000000000003 192.4 291.40000000000003 194.4" fill="#d82626"/><line x1="294.40000000000003" y1="184.4" x2="338.40000000000003" y2="184.4" stroke="#d82626" fill="none" stroke-width="3.0"/><polygon points="338.40000000000003 184.4 328.40000000000003 187.4 330.40000000000003 184.4 328.40000000000003 181.4" fill="#d82626"/><line x1="338.40000000000003" y1="184.4" x2="338.40000000000003" y2="228.4" stroke="#d82626" fill="none" stroke-width="3.0"/><polygon points="338.40000000000003 228.4 335.40000000000003 218.4 338.40000000000003 220.4 341.40000000000003 218.4" fill="#d82626"/><line x1="338.40000000000003" y1="228.4" x2="250.40000000000003" y2="228.4" stroke="#d82626" fill="none" stroke-width="3.0"/><polygon points="250.40000000000003 228.4 260.40000000000003 225.4 258.40000000000003 228.4 260.40000000000003 231.4" fill="#d82626"/><line x1="250.40000000000003" y1="228.4" x2="250.40000000000003" y2="140.4" stroke="#d82626" fill="none" stroke-width="3.0"/><polygon points="250.40000000000003 140.4 253.40000000000003 150.4 250.40000000000003 148.4 247.40000000000003 150.4" fill="#d82626"/><line x1="250.40000000000003" y1="140.4" x2="426.40000000000003" y2="140.4" stroke="#d82626" fill="none" stroke-width="3.0"/><polygon points="426.40000000000003 140.4 416.40000000000003 143.4 418.40000000000003 140.4 416.40000000000003 137.4" fill="#d82626"/><line x1="426.40000000000003" y1="140.4" x2="426.40000000000003" y2="272.4" stroke="#d82626" fill="none" stroke-width="3.0"/><polygon points="426.40000000000003 272.4 423.40000000000003 262.4 426.40000000000003 264.4 429.40000000000003 262.4" fill="#d82626"/><line x1="426.40000000000003" y1="272.4" x2="118.4" y2="272.4" stroke="#d82626" fill="none" stroke-width="3.0"/><polygon points="118.4 272.4 128.4 269.4 126.4 272.4 128.4 275.4" fill="#d82626"/><line x1="118.4" y1="272.4" x2="118.4" y2="316.40000000000003" stroke="#d82626" fill="none" stroke-width="3.0"/><polygon points="118.4 316.40000000000003 115.4 306.40000000000003 118.4 308.40000000000003 121.4 306.40000000000003" fill="#d82626"/><line x1="118.4" y1="316.40000000000003" x2="206.4" y2="316.40000000000003" stroke="#d82626" fill="none" stroke-width="3.0"/><polygon points="206.4 316.40000000000003 196.4 319.40000000000003 198.4 316.40000000000003 196.4 313.40000000000003" fill="#d82626"/><line x1="206.4" y1="316.40000000000003" x2="206.4" y2="184.4" stroke="#d82626" fill="none" stroke-width="3.0"/><polygon points="206.4 184.4 209.4 194.4 206.4 192.4 203.4 194.4" fill="#d82626"/><line x1="206.4" y1="184.4" x2="30.400000000000002" y2="184.4" stroke="#d82626" fill="none" stroke-width="3.0"/><polygon points="30.400000000000002 184.4 40.400000000000006 181.4 38.400000000000006 184.4 40.400000000000006 187.4" fill="#d82626"/><line x1="30.400000000000002" y1="184.4" x2="30.400000000000002" y2="404.40000000000003" stroke="#d82626" fill="none" stroke-width="3.0"/><polygon points="30.400000000000002 404.40000000000003 27.400000000000002 394.40000000000003 30.400000000000002 396.40000000000003 33.400000000000006 394.40000000000003" fill="#d82626"/><line x1="30.400000000000002" y1="404.40000000000003" x2="162.4" y2="404.40000000000003" stroke="#d82626" fill="none" stroke-width="3.0"/><polygon points="162.4 404.40000000000003 152.4 407.40000000000003 154.4 404.40000000000003 152.4 401.40000000000003" fill="#d82626"/><line x1="162.4" y1="404.40000000000003" x2="162.4" y2="228.4" stroke="#d82626" fill="none" stroke-width="3.0"/><polygon points="162.4 228.4 165.4 238.4 162.4 236.4 159.4 238.4" fill="#d82626"/></svg>