<?xml version="1.0" ?><!DOCTYPE svg  PUBLIC '-//W3C//DTD SVG 1.1//EN'  'http://www.w3.org/Graphics/SVG/1.1/DTD/svg11.dtd'><svg xmlns="http://www.w3.org/2000/svg" width="486.000" height="490.000" viewBox="-1.000 -5.000 486.000 490.000"><text x="10.0" y="21" fill="#d82626" stroke-width="0.0" font-family="Nimbus Sans" font-size="16.0pt" font-weight="bold">0</text><circle cx="117.80000000000001" cy="293.8" r="2.0" stroke="#d82626" fill="#d82626"/><circle cx="117.80000000000001" cy="469.80000000000007" r="2.0" stroke="#d82626" fill="#d82626"/><circle cx="205.8" cy="469.80000000000007" r="2.0" stroke="#d82626" fill="#d82626"/><circle cx="205.8" cy="29.800000000000004" r="2.0" stroke="#d82626" fill="#d82626"/><circle cx="469.80000000000007" cy="29.800000000000004" r="2.0" stroke="#d82626" fill="#d82626"/><circle cx="469.80000000000007" cy="205.8" r="2.0" stroke="#d82626" fill="#d82626"/><circle cx="29.800000000000004" cy="205.8" r="2.0" stroke="#d82626" fill="#d82626"/><circle cx="29.800000000000004" cy="381.8" r="2.0" stroke="#d82626" fill="#d82626"/><circle cx="293.8" cy="381.8" r="2.0" stroke="#d82626" fill="#d82626"/><circle cx="293.8" cy="117.80000000000001" r="2.0" stroke="#d82626" fill="#d82626"/><circle cx="381.8" cy="117.80000000000001" r="2.0" stroke="#d82626" fill="#d82626"/><circle cx="381.8" cy="293.8" r="2.0" stroke="#d82626" fill="#d82626"/><line x1="117.80000000000001" y1="293.8" x2="117.80000000000001" y2="469.80000000000007" stroke="#d82626" fill="none" stroke-width="3.0"/><polygon points="117.80000000000001 469.80000000000007 114.80000000000001 459.80000000000007 117.80000000000001 461.80000000000007 120.80000000000001 459.80000000000007" fill="#d82626"/><line x1="117.80000000000001" y1="469.80000000000007" x2="205.8" y2="469.80000000000007" stroke="#d82626" fill="none" stroke-width="3.0"/><polygon points="205.8 469.80000000000007 195.8 472.80000000000007 197.8 469.80000000000007 195.8 466.80000000000007" fill="#d82626"/><line x1="205.8" y1="469.80000000000007" x2="205.8" y2="29.800000000000004" stroke="#d82626" fill="none" stroke-width="3.0"/><polygon points="205.8 29.800000000000004 208.8 39.800000000000004 205.8 37.800000000000004 202.8 39.800000000000004" fill="#d82626"/><line x1="205.8" y1="29.800000000000004" x2="469.80000000000007" y2="29.800000000000004" stroke="#d82626" fill="none" stroke-width="3.0"/><polygon points="469.80000000000007 29.800000000000004 459.80000000000007 32.800000000000004 461.80000000000007 29.800000000000004 459.80000000000007 26.800000000000004" fill="#d82626"/><line x1="469.80000000000007" y1="29.800000000000004" x2="469.80000000000007" y2="205.8" stroke="#d82626" fill="none" stroke-width="3.0"/><polygon points="469.80000000000007 205.8 466.80000000000007 195.8 469.80000000000007 197.8 472.80000000000007 195.8" fill="#d82626"/><line x1="469.80000000000007" y1="205.8" x2="29.800000000000004" y2="205.8" stroke="#d82626" fill="none" stroke-width="3.0"/><polygon points="29.800000000000004 205.8 39.800000000000004 202.8 37.800000000000004 205.8 39.800000000000004 208.8" fill="#d82626"/><line x1="29.800000000000004" y1="205.8" x2="29.800000000000004" y2="381.8" stroke="#d82626" fill="none" stroke-width="3.0"/><polygon points="29.800000000000004 381.8 26.800000000000004 371.8 29.800000000000004 373.8 32.800000000000004 371.8" fill="#d82626"/><line x1="29.800000000000004" y1="381.8" x2="293.8" y2="381.8" stroke="#d82626" fill="none" stroke-width="3.0"/><polygon points="293.8 381.8 283.8 384.8 285.8 381.8 283.8 378.8" fill="#d82626"/><line x1="293.8" y1="381.8" x2="293.8" y2="117.80000000000001" stroke="#d82626" fill="none" stroke-width="3.0"/><polygon points="293.8 117.80000000000001 296.8 127.80000000000001 293.8 125.80000000000001 290.8 127.80000000000001" fill="#d82626"/><line x1="293.8" y1="117.80000000000001" x2="381.8" y2="117.80000000000001" stroke="#d82626" fill="none" stroke-width="3.0"/><polygon points="381.8 117.80000000000001 371.8 120.80000000000001 373.8 117.80000000000001 371.8 114.80000000000001" fill="#d82626"/><line x1="381.8" y1="117.80000000000001" x2="381.8" y2="293.8" stroke="#d82626" fill="none" stroke-width="3.0"/><polygon points="381.8 293.8 378.8 283.8 381.8 285.8 384.8 283.8" fill="#d82626"/><line x1="381.8" y1="293.8" x2="117.80000000000001" y2="293.8" stroke="#d82626" fill="none" stroke-width="3.0"/><polygon points="117.80000000000001 293.8 127.80000000000001 290.8 125.80000000000001 293.8 127.80000000000001 296.8" fill="#d82626"/><text x="35.66666666666667" y="229" fill="#000" stroke-width="0.0" font-family="Nimbus Sans" font-size="17.0pt" font-weight="bold"></text><circle cx="41.16666666666667" cy="240.03333333333336" r="5.5" stroke="#f00" fill="#f00" stroke-width="0.5"/><text x="41.16666666666667" y="244" fill="#fff" stroke-width="0.0" text-anchor="middle" font-family="Nimbus Sans" font-size="9.0pt">A</text><circle cx="53.81666666666667" cy="240.03333333333336" r="5.5" stroke="#070" fill="#070" stroke-width="0.5"/><text x="53.81666666666667" y="244" fill="#fff" stroke-width="0.0" text-anchor="middle" font-family="Nimbus Sans" font-size="9.0pt">c</text><text x="123.66666666666667" y="317" fill="#000" stroke-width="0.0" font-family="Nimbus Sans" font-size="17.0pt" font-weight="bold"></text><ellipse cx="129.16666666666669" cy="328.03333333333336" rx="5.500000000000007" ry="5.5" stroke="#900" fill="#900" stroke-width="0.5"/><text x="129.16666666666669" y="332" fill="#fff" stroke-width="0.0" text-anchor="middle" font-family="Nimbus Sans" font-size="9.0pt">B</text><circle cx="141.81666666666666" cy="328.03333333333336" r="5.5" stroke="#0f0" fill="#0f0" stroke-width="0.5"/><text x="141.81666666666666" y="332" fill="#fff" stroke-width="0.0" text-anchor="middle" font-family="Nimbus Sans" font-size="9.0pt">a</text><circle cx="154.46666666666667" cy="328.03333333333336" r="5.5" stroke="#0b0" fill="#0b0" stroke-width="0.5"/><text x="154.46666666666667" y="332" fill="#fff" stroke-width="0.0" text-anchor="middle" font-family="Nimbus Sans" font-size="9.0pt">b</text><circle cx="167.11666666666667" cy="328.03333333333336" r="5.5" stroke="#070" fill="#070" stroke-width="0.5"/><text x="167.11666666666667" y="332" fill="#fff" stroke-width="0.0" text-anchor="middle" font-family="Nimbus Sans" font-size="9.0pt">c</text><text x="123.66666666666667" y="405" fill="#000" stroke-width="0.0" font-family="Nimbus Sans" font-size="17.0pt" font-weight="bold"></text><ellipse cx="129.16666666666669" cy="416.03333333333336" rx="5.500000000000007" ry="5.5" stroke="#f00" fill="#f00" stroke-width="0.5"/><text x="129.16666666666669" y="420" fill="#fff" stroke-width="0.0" text-anchor="middle" font-family="Nimbus Sans" font-size="9.0pt">A</text><circle cx="141.81666666666666" cy="416.03333333333336" r="5.5" stroke="#900" fill="#900" stroke-width="0.5"/><text x="141.81666666666666" y="420" fill="#fff" stroke-width="0.0" text-anchor="middle" font-family="Nimbus Sans" font-size="9.0pt">B</text><circle cx="154.46666666666667" cy="416.03333333333336" r="5.5" stroke="#0f0" fill="#0f0" stroke-width="0.5"/><text x="154.46666666666667" y="420" fill="#fff" stroke-width="0.0" text-anchor="middle" font-family="Nimbus Sans" font-size="9.0pt">a</text><circle cx="167.11666666666667" cy="416.03333333333336" r="5.5" stroke="#0b0" fill="#0b0" stroke-width="0.5"/><text x="167.11666666666667" y="420" fill="#fff" stroke-width="0.0" text-anchor="middle" font-family="Nimbus Sans" font-size="9.0pt">b</text><circle cx="179.76666666666668" cy="416.03333333333336" r="5.5" stroke="#070" fill="#070" stroke-width="0.5"/><text x="179.76666666666668" y="420" fill="#fff" stroke-width="0.0" text-anchor="middle" font-family="Nimbus Sans" font-size="9.0pt">c</text><text x="35.66666666666667" y="405" fill="#000" stroke-width="0.0" font-family="Nimbus Sans" font-size="17.0pt" font-weight="bold"></text><text x="211.66666666666669" y="53" fill="#000" stroke-width="0.0" font-family="Nimbus Sans" font-size="17.0pt" font-weight="bold"></text><ellipse cx="217.16666666666669" cy="64.03333333333333" rx="5.5" ry="5.4999999999999964" stroke="#0f0" fill="#0f0" stroke-width="0.5"/><text x="217.16666666666669" y="68" fill="#fff" stroke-width="0.0" text-anchor="middle" font-family="Nimbus Sans" font-size="9.0pt">a</text><ellipse cx="229.8166666666667" cy="64.03333333333333" rx="5.5" ry="5.4999999999999964" stroke="#070" fill="#070" stroke-width="0.5"/><text x="229.8166666666667" y="68" fill="#fff" stroke-width="0.0" text-anchor="middle" font-family="Nimbus Sans" font-size="9.0pt">c</text><text x="211.66666666666669" y="229" fill="#000" stroke-width="0.0" font-family="Nimbus Sans" font-size="17.0pt" font-weight="bold"></text><circle cx="217.16666666666669" cy="240.03333333333336" r="5.5" stroke="#900" fill="#900" stroke-width="0.5"/><text x="217.16666666666669" y="244" fill="#fff" stroke-width="0.0" text-anchor="middle" font-family="Nimbus Sans" font-size="9.0pt">B</text><text x="211.66666666666669" y="317" fill="#000" stroke-width="0.0" font-family="Nimbus Sans" font-size="17.0pt" font-weight="bold"></text><circle cx="217.16666666666669" cy="328.03333333333336" r="5.5" stroke="#f00" fill="#f00" stroke-width="0.5"/><text x="217.16666666666669" y="332" fill="#fff" stroke-width="0.0" text-anchor="middle" font-family="Nimbus Sans" font-size="9.0pt">A</text><circle cx="229.8166666666667" cy="328.03333333333336" r="5.5" stroke="#0b0" fill="#0b0" stroke-width="0.5"/><text x="229.8166666666667" y="332" fill="#fff" stroke-width="0.0" text-anchor="middle" font-family="Nimbus Sans" font-size="9.0pt">b</text><text x="299.6666666666667" y="141" fill="#000" stroke-width="0.0" font-family="Nimbus Sans" font-size="17.0pt" font-weight="bold"></text><circle cx="305.1666666666667" cy="152.03333333333336" r="5.5" stroke="#f00" fill="#f00" stroke-width="0.5"/><text x="305.1666666666667" y="156" fill="#fff" stroke-width="0.0" text-anchor="middle" font-family="Nimbus Sans" font-size="9.0pt">A</text><circle cx="317.81666666666666" cy="152.03333333333336" r="5.5" stroke="#900" fill="#900" stroke-width="0.5"/><text x="317.81666666666666" y="156" fill="#fff" stroke-width="0.0" text-anchor="middle" font-family="Nimbus Sans" font-size="9.0pt">B</text><circle cx="330.4666666666667" cy="152.03333333333336" r="5.5" stroke="#0f0" fill="#0f0" stroke-width="0.5"/><text x="330.4666666666667" y="156" fill="#fff" stroke-width="0.0" text-anchor="middle" font-family="Nimbus Sans" font-size="9.0pt">a</text><circle cx="343.1166666666667" cy="152.03333333333336" r="5.5" stroke="#0b0" fill="#0b0" stroke-width="0.5"/><text x="343.1166666666667" y="156" fill="#fff" stroke-width="0.0" text-anchor="middle" font-family="Nimbus Sans" font-size="9.0pt">b</text><circle cx="355.7666666666667" cy="152.03333333333336" r="5.5" stroke="#070" fill="#070" stroke-width="0.5"/><text x="355.7666666666667" y="156" fill="#fff" stroke-width="0.0" text-anchor="middle" font-family="Nimbus Sans" font-size="9.0pt">c</text><text x="299.6666666666667" y="229" fill="#000" stroke-width="0.0" font-family="Nimbus Sans" font-size="17.0pt" font-weight="bold"></text><circle cx="305.1666666666667" cy="240.03333333333336" r="5.5" stroke="#0f0" fill="#0f0" stroke-width="0.5"/><text x="305.1666666666667" y="244" fill="#fff" stroke-width="0.0" text-anchor="middle" font-family="Nimbus Sans" font-size="9.0pt">a</text><circle cx="317.81666666666666" cy="240.03333333333336" r="5.5" stroke="#0b0" fill="#0b0" stroke-width="0.5"/><text x="317.81666666666666" y="244" fill="#fff" stroke-width="0.0" text-anchor="middle" font-family="Nimbus Sans" font-size="9.0pt">b</text></svg>