<?xml version="1.0" ?><!DOCTYPE svg  PUBLIC '-//W3C//DTD SVG 1.1//EN'  'http://www.w3.org/Graphics/SVG/1.1/DTD/svg11.dtd'><svg xmlns="http://www.w3.org/2000/svg" width="487.000" height="403.000" viewBox="-1.000 -5.000 487.000 403.000"><text x="10.0" y="21" fill="#d82626" stroke-width="0.0" font-family="Nimbus Sans" font-size="16.0pt" font-weight="bold">0</text><circle cx="162.4" cy="206.4" r="2.0" stroke="#d82626" fill="#d82626"/><circle cx="74.4" cy="206.4" r="2.0" stroke="#d82626" fill="#d82626"/><circle cx="74.4" cy="338.40000000000003" r="2.0" stroke="#d82626" fill="#d82626"/><circle cx="382.40000000000003" cy="338.40000000000003" r="2.0" stroke="#d82626" fill="#d82626"/><circle cx="382.40000000000003" cy="118.4" r="2.0" stroke="#d82626" fill="#d82626"/><circle cx="470.40000000000003" cy="118.4" r="2.0" stroke="#d82626" fill="#d82626"/><circle cx="470.40000000000003" cy="294.4" r="2.0" stroke="#d82626" fill="#d82626"/><circle cx="250.40000000000003" cy="294.4" r="2.0" stroke="#d82626" fill="#d82626"/><circle cx="250.40000000000003" cy="118.4" r="2.0" stroke="#d82626" fill="#d82626"/><circle cx="338.40000000000003" cy="118.4" r="2.0" stroke="#d82626" fill="#d82626"/><circle cx="338.40000000000003" cy="206.4" r="2.0" stroke="#d82626" fill="#d82626"/><circle cx="294.40000000000003" cy="206.4" r="2.0" stroke="#d82626" fill="#d82626"/><circle cx="294.40000000000003" cy="162.4" r="2.0" stroke="#d82626" fill="#d82626"/><circle cx="426.40000000000003" cy="162.4" r="2.0" stroke="#d82626" fill="#d82626"/><circle cx="426.40000000000003" cy="250.4" r="2.0" stroke="#d82626" fill="#d82626"/><circle cx="118.4" cy="250.4" r="2.0" stroke="#d82626" fill="#d82626"/><circle cx="118.4" cy="294.4" r="2.0" stroke="#d82626" fill="#d82626"/><circle cx="206.4" cy="294.4" r="2.0" stroke="#d82626" fill="#d82626"/><circle cx="206.4" cy="162.4" r="2.0" stroke="#d82626" fill="#d82626"/><ellipse cx="30.400000000000006" cy="162.4" rx="2.0000000000000018" ry="2.0" stroke="#d82626" fill="#d82626"/><ellipse cx="30.400000000000006" cy="382.40000000000003" rx="2.0000000000000018" ry="2.0" stroke="#d82626" fill="#d82626"/><circle cx="162.4" cy="382.40000000000003" r="2.0" stroke="#d82626" fill="#d82626"/><line x1="162.4" y1="206.4" x2="74.4" y2="206.4" stroke="#d82626" fill="none" stroke-width="3.0"/><polygon points="74.4 206.4 84.4 203.4 82.4 206.4 84.4 209.4" fill="#d82626"/><line x1="74.4" y1="206.4" x2="74.4" y2="338.40000000000003" stroke="#d82626" fill="none" stroke-width="3.0"/><polygon points="74.4 338.40000000000003 71.4 328.40000000000003 74.4 330.40000000000003 77.4 328.40000000000003" fill="#d82626"/><line x1="74.4" y1="338.40000000000003" x2="382.40000000000003" y2="338.40000000000003" stroke="#d82626" fill="none" stroke-width="3.0"/><polygon points="382.40000000000003 338.40000000000003 372.40000000000003 341.40000000000003 374.40000000000003 338.40000000000003 372.40000000000003 335.40000000000003" fill="#d82626"/><line x1="382.40000000000003" y1="338.40000000000003" x2="382.40000000000003" y2="118.4" stroke="#d82626" fill="none" stroke-width="3.0"/><polygon points="382.40000000000003 118.4 385.40000000000003 128.4 382.40000000000003 126.4 379.40000000000003 128.4" fill="#d82626"/><line x1="382.40000000000003" y1="118.4" x2="470.40000000000003" y2="118.4" stroke="#d82626" fill="none" stroke-width="3.0"/><polygon points="470.40000000000003 118.4 460.40000000000003 121.4 462.40000000000003 118.4 460.40000000000003 115.4" fill="#d82626"/><line x1="470.40000000000003" y1="118.4" x2="470.40000000000003" y2="294.4" stroke="#d82626" fill="none" stroke-width="3.0"/><polygon points="470.40000000000003 294.4 467.40000000000003 284.4 470.40000000000003 286.4 473.40000000000003 284.4" fill="#d82626"/><line x1="470.40000000000003" y1="294.4" x2="250.40000000000003" y2="294.4" stroke="#d82626" fill="none" stroke-width="3.0"/><polygon points="250.40000000000003 294.4 260.40000000000003 291.4 258.40000000000003 294.4 260.40000000000003 297.4" fill="#d82626"/><line x1="250.40000000000003" y1="294.4" x2="250.40000000000003" y2="118.4" stroke="#d82626" fill="none" stroke-width="3.0"/><polygon points="250.40000000000003 118.4 253.40000000000003 128.4 250.40000000000003 126.4 247.40000000000003 128.4" fill="#d82626"/><line x1="250.40000000000003" y1="118.4" x2="338.40000000000003" y2="118.4" stroke="#d82626" fill="none" stroke-width="3.0"/><polygon points="338.40000000000003 118.4 328.40000000000003 121.4 330.40000000000003 118.4 328.40000000000003 115.4" fill="#d82626"/><line x1="338.40000000000003" y1="118.4" x2="338.40000000000003" y2="206.4" stroke="#d82626" fill="none" stroke-width="3.0"/><polygon points="338.40000000000003 206.4 335.40000000000003 196.4 338.40000000000003 198.4 341.40000000000003 196.4" fill="#d82626"/><line x1="338.40000000000003" y1="206.4" x2="294.40000000000003" y2="206.4" stroke="#d82626" fill="none" stroke-width="3.0"/><polygon points="294.40000000000003 206.4 304.40000000000003 203.4 302.40000000000003 206.4 304.40000000000003 209.4" fill="#d82626"/><line x1="294.40000000000003" y1="206.4" x2="294.40000000000003" y2="162.4" stroke="#d82626" fill="none" stroke-width="3.0"/><polygon points="294.40000000000003 162.4 297.40000000000003 172.4 294.40000000000003 170.4 291.40000000000003 172.4" fill="#d82626"/><line x1="294.40000000000003" y1="162.4" x2="426.40000000000003" y2="162.4" stroke="#d82626" fill="none" stroke-width="3.0"/><polygon points="426.40000000000003 162.4 416.40000000000003 165.4 418.40000000000003 162.4 416.40000000000003 159.4" fill="#d82626"/><line x1="426.40000000000003" y1="162.4" x2="426.40000000000003" y2="250.4" stroke="#d82626" fill="none" stroke-width="3.0"/><polygon points="426.40000000000003 250.4 423.40000000000003 240.4 426.40000000000003 242.4 429.40000000000003 240.4" fill="#d82626"/><line x1="426.40000000000003" y1="250.4" x2="118.4" y2="250.4" stroke="#d82626" fill="none" stroke-width="3.0"/><polygon points="118.4 250.4 128.4 247.4 126.4 250.4 128.4 253.4" fill="#d82626"/><line x1="118.4" y1="250.4" x2="118.4" y2="294.4" stroke="#d82626" fill="none" stroke-width="3.0"/><polygon points="118.4 294.4 115.4 284.4 118.4 286.4 121.4 284.4" fill="#d82626"/><line x1="118.4" y1="294.4" x2="206.4" y2="294.4" stroke="#d82626" fill="none" stroke-width="3.0"/><polygon points="206.4 294.4 196.4 297.4 198.4 294.4 196.4 291.4" fill="#d82626"/><line x1="206.4" y1="294.4" x2="206.4" y2="162.4" stroke="#d82626" fill="none" stroke-width="3.0"/><polygon points="206.4 162.4 209.4 172.4 206.4 170.4 203.4 172.4" fill="#d82626"/><line x1="206.4" y1="162.4" x2="30.400000000000002" y2="162.4" stroke="#d82626" fill="none" stroke-width="3.0"/><polygon points="30.400000000000002 162.4 40.400000000000006 159.4 38.400000000000006 162.4 40.400000000000006 165.4" fill="#d82626"/><line x1="30.400000000000002" y1="162.4" x2="30.400000000000002" y2="382.40000000000003" stroke="#d82626" fill="none" stroke-width="3.0"/><polygon points="30.400000000000002 382.40000000000003 27.400000000000002 372.40000000000003 30.400000000000002 374.40000000000003 33.400000000000006 372.40000000000003" fill="#d82626"/><line x1="30.400000000000002" y1="382.40000000000003" x2="162.4" y2="382.40000000000003" stroke="#d82626" fill="none" stroke-width="3.0"/><polygon points="162.4 382.40000000000003 152.4 385.40000000000003 154.4 382.40000000000003 152.4 379.40000000000003" fill="#d82626"/><line x1="162.4" y1="382.40000000000003" x2="162.4" y2="206.4" stroke="#d82626" fill="none" stroke-width="3.0"/><polygon points="162.4 206.4 165.4 216.4 162.4 214.4 159.4 216.4" fill="#d82626"/></svg>