<?xml version="1.0" ?><!DOCTYPE svg  PUBLIC '-//W3C//DTD SVG 1.1//EN'  'http://www.w3.org/Graphics/SVG/1.1/DTD/svg11.dtd'><svg xmlns="http://www.w3.org/2000/svg" width="486.000" height="459.000" viewBox="-1.000 -5.000 486.000 459.000"><circle cx="469.7142857142857" cy="186.86666666666667" r="2.0" stroke="#d82626" fill="#d82626"/><circle cx="469.7142857142857" cy="375.3666666666667" r="2.0" stroke="#d82626" fill="#d82626"/><circle cx="155.42857142857142" cy="375.3666666666667" r="2.0" stroke="#d82626" fill="#d82626"/><circle cx="155.42857142857142" cy="186.86666666666667" r="2.0" stroke="#d82626" fill="#d82626"/><circle cx="344.0" cy="61.2" r="2.0" stroke="#2626d8" fill="#2626d8"/><circle cx="29.714285714285715" cy="61.2" r="2.0" stroke="#2626d8" fill="#2626d8"/><circle cx="29.714285714285715" cy="312.5333333333333" r="2.0" stroke="#2626d8" fill="#2626d8"/><circle cx="344.0" cy="312.5333333333333" r="2.0" stroke="#2626d8" fill="#2626d8"/><circle cx="406.85714285714283" cy="249.7" r="2.0" stroke="#26d826" fill="#26d826"/><circle cx="281.1428571428571" cy="249.7" r="2.0" stroke="#26d826" fill="#26d826"/><circle cx="281.1428571428571" cy="124.03333333333333" r="2.0" stroke="#26d826" fill="#26d826"/><circle cx="406.85714285714283" cy="124.03333333333333" r="2.0" stroke="#26d826" fill="#26d826"/><circle cx="218.28571428571428" cy="124.03333333333333" r="2.0" stroke="#26d8d8" fill="#26d8d8"/><circle cx="92.57142857142857" cy="124.03333333333333" r="2.0" stroke="#26d8d8" fill="#26d8d8"/><circle cx="92.57142857142857" cy="438.2" r="2.0" stroke="#26d8d8" fill="#26d8d8"/><circle cx="218.28571428571428" cy="438.2" r="2.0" stroke="#26d8d8" fill="#26d8d8"/><line x1="469.7142857142857" y1="186.86666666666667" x2="469.7142857142857" y2="375.3666666666667" stroke="#d82626" fill="none" stroke-width="3.0"/><polygon points="469.7142857142857 375.3666666666667 466.7142857142857 365.3666666666667 469.7142857142857 367.3666666666667 472.7142857142857 365.3666666666667" fill="#d82626"/><line x1="469.7142857142857" y1="375.3666666666667" x2="155.42857142857142" y2="375.3666666666667" stroke="#d82626" fill="none" stroke-width="3.0"/><polygon points="155.42857142857142 375.3666666666667 165.42857142857142 372.3666666666667 163.42857142857142 375.3666666666667 165.42857142857142 378.3666666666667" fill="#d82626"/><line x1="155.42857142857142" y1="375.3666666666667" x2="155.42857142857142" y2="186.86666666666667" stroke="#d82626" fill="none" stroke-width="3.0"/><polygon points="155.42857142857142 186.86666666666667 158.42857142857142 196.86666666666667 155.42857142857142 194.86666666666667 152.42857142857142 196.86666666666667" fill="#d82626"/><line x1="155.42857142857142" y1="186.86666666666667" x2="469.7142857142857" y2="186.86666666666667" stroke="#d82626" fill="none" stroke-width="3.0"/><polygon points="469.7142857142857 186.86666666666667 459.7142857142857 189.86666666666667 461.7142857142857 186.86666666666667 459.7142857142857 183.86666666666667" fill="#d82626"/><line x1="344.0" y1="61.2" x2="29.714285714285715" y2="61.2" stroke="#2626d8" fill="none" stroke-width="3.0"/><polygon points="29.714285714285715 61.2 39.714285714285715 58.2 37.714285714285715 61.2 39.714285714285715 64.2" fill="#2626d8"/><line x1="29.714285714285715" y1="61.2" x2="29.714285714285715" y2="312.5333333333333" stroke="#2626d8" fill="none" stroke-width="3.0"/><polygon points="29.714285714285715 312.5333333333333 26.714285714285715 302.5333333333333 29.714285714285715 304.5333333333333 32.714285714285715 302.5333333333333" fill="#2626d8"/><line x1="29.714285714285715" y1="312.5333333333333" x2="344.0" y2="312.5333333333333" stroke="#2626d8" fill="none" stroke-width="3.0"/><polygon points="344.0 312.5333333333333 334.0 315.5333333333333 336.0 312.5333333333333 334.0 309.5333333333333" fill="#2626d8"/><line x1="344.0" y1="312.5333333333333" x2="344.0" y2="61.2" stroke="#2626d8" fill="none" stroke-width="3.0"/><polygon points="344.0 61.2 347.0 71.2 344.0 69.2 341.0 71.2" fill="#2626d8"/><line x1="406.85714285714283" y1="249.7" x2="281.1428571428571" y2="249.7" stroke="#26d826" fill="none" stroke-width="3.0"/><polygon points="281.1428571428571 249.7 291.1428571428571 246.7 289.1428571428571 249.7 291.1428571428571 252.7" fill="#26d826"/><line x1="281.1428571428571" y1="249.7" x2="281.1428571428571" y2="124.03333333333333" stroke="#26d826" fill="none" stroke-width="3.0"/><polygon points="281.1428571428571 124.03333333333333 284.1428571428571 134.03333333333333 281.1428571428571 132.03333333333333 278.1428571428571 134.03333333333333" fill="#26d826"/><line x1="281.1428571428571" y1="124.03333333333333" x2="406.85714285714283" y2="124.03333333333333" stroke="#26d826" fill="none" stroke-width="3.0"/><polygon points="406.85714285714283 124.03333333333333 396.85714285714283 127.03333333333333 398.85714285714283 124.03333333333333 396.85714285714283 121.03333333333333" fill="#26d826"/><line x1="406.85714285714283" y1="124.03333333333333" x2="406.85714285714283" y2="249.7" stroke="#26d826" fill="none" stroke-width="3.0"/><polygon points="406.85714285714283 249.7 403.85714285714283 239.7 406.85714285714283 241.7 409.85714285714283 239.7" fill="#26d826"/><line x1="218.28571428571428" y1="124.03333333333333" x2="92.57142857142857" y2="124.03333333333333" stroke="#26d8d8" fill="none" stroke-width="3.0"/><polygon points="92.57142857142857 124.03333333333333 102.57142857142857 121.03333333333333 100.57142857142857 124.03333333333333 102.57142857142857 127.03333333333333" fill="#26d8d8"/><line x1="92.57142857142857" y1="124.03333333333333" x2="92.57142857142857" y2="438.2" stroke="#26d8d8" fill="none" stroke-width="3.0"/><polygon points="92.57142857142857 438.2 89.57142857142857 428.2 92.57142857142857 430.2 95.57142857142857 428.2" fill="#26d8d8"/><line x1="92.57142857142857" y1="438.2" x2="218.28571428571428" y2="438.2" stroke="#26d8d8" fill="none" stroke-width="3.0"/><polygon points="218.28571428571428 438.2 208.28571428571428 441.2 210.28571428571428 438.2 208.28571428571428 435.2" fill="#26d8d8"/><line x1="218.28571428571428" y1="438.2" x2="218.28571428571428" y2="124.03333333333333" stroke="#26d8d8" fill="none" stroke-width="3.0"/><polygon points="218.28571428571428 124.03333333333333 221.28571428571428 134.03333333333333 218.28571428571428 132.03333333333333 215.28571428571428 134.03333333333333" fill="#26d8d8"/></svg>