<?xml version="1.0" ?><!DOCTYPE svg  PUBLIC '-//W3C//DTD SVG 1.1//EN'  'http://www.w3.org/Graphics/SVG/1.1/DTD/svg11.dtd'><svg xmlns="http://www.w3.org/2000/svg" width="486.000" height="490.000" viewBox="-1.000 -5.000 486.000 490.000"><circle cx="469.80000000000007" cy="205.8" r="2.0" stroke="#d82626" fill="#d82626"/><circle cx="469.80000000000007" cy="469.80000000000007" r="2.0" stroke="#d82626" fill="#d82626"/><circle cx="29.800000000000004" cy="469.80000000000007" r="2.0" stroke="#d82626" fill="#d82626"/><circle cx="29.800000000000004" cy="205.8" r="2.0" stroke="#d82626" fill="#d82626"/><circle cx="205.8" cy="29.800000000000004" r="2.0" stroke="#2626d8" fill="#2626d8"/><circle cx="381.8" cy="29.800000000000004" r="2.0" stroke="#2626d8" fill="#2626d8"/><circle cx="381.8" cy="381.8" r="2.0" stroke="#2626d8" fill="#2626d8"/><circle cx="205.8" cy="381.8" r="2.0" stroke="#2626d8" fill="#2626d8"/><circle cx="293.8" cy="293.8" r="2.0" stroke="#26d826" fill="#26d826"/><circle cx="117.80000000000001" cy="293.8" r="2.0" stroke="#26d826" fill="#26d826"/><circle cx="117.80000000000001" cy="117.80000000000001" r="2.0" stroke="#26d826" fill="#26d826"/><circle cx="293.8" cy="117.80000000000001" r="2.0" stroke="#26d826" fill="#26d826"/><line x1="469.80000000000007" y1="205.8" x2="469.80000000000007" y2="469.80000000000007" stroke="#d82626" fill="none" stroke-width="3.0"/><polygon points="469.80000000000007 469.80000000000007 466.80000000000007 459.80000000000007 469.80000000000007 461.80000000000007 472.80000000000007 459.80000000000007" fill="#d82626"/><line x1="469.80000000000007" y1="469.80000000000007" x2="29.800000000000004" y2="469.80000000000007" stroke="#d82626" fill="none" stroke-width="3.0"/><polygon points="29.800000000000004 469.80000000000007 39.800000000000004 466.80000000000007 37.800000000000004 469.80000000000007 39.800000000000004 472.80000000000007" fill="#d82626"/><line x1="29.800000000000004" y1="469.80000000000007" x2="29.800000000000004" y2="205.8" stroke="#d82626" fill="none" stroke-width="3.0"/><polygon points="29.800000000000004 205.8 32.800000000000004 215.8 29.800000000000004 213.8 26.800000000000004 215.8" fill="#d82626"/><line x1="29.800000000000004" y1="205.8" x2="469.80000000000007" y2="205.8" stroke="#d82626" fill="none" stroke-width="3.0"/><polygon points="469.80000000000007 205.8 459.80000000000007 208.8 461.80000000000007 205.8 459.80000000000007 202.8" fill="#d82626"/><line x1="205.8" y1="29.800000000000004" x2="381.8" y2="29.800000000000004" stroke="#2626d8" fill="none" stroke-width="3.0"/><polygon points="381.8 29.800000000000004 371.8 32.800000000000004 373.8 29.800000000000004 371.8 26.800000000000004" fill="#2626d8"/><line x1="381.8" y1="29.800000000000004" x2="381.8" y2="381.8" stroke="#2626d8" fill="none" stroke-width="3.0"/><polygon points="381.8 381.8 378.8 371.8 381.8 373.8 384.8 371.8" fill="#2626d8"/><line x1="381.8" y1="381.8" x2="205.8" y2="381.8" stroke="#2626d8" fill="none" stroke-width="3.0"/><polygon points="205.8 381.8 215.8 378.8 213.8 381.8 215.8 384.8" fill="#2626d8"/><line x1="205.8" y1="381.8" x2="205.8" y2="29.800000000000004" stroke="#2626d8" fill="none" stroke-width="3.0"/><polygon points="205.8 29.800000000000004 208.8 39.800000000000004 205.8 37.800000000000004 202.8 39.800000000000004" fill="#2626d8"/><line x1="293.8" y1="293.8" x2="117.80000000000001" y2="293.8" stroke="#26d826" fill="none" stroke-width="3.0"/><polygon points="117.80000000000001 293.8 127.80000000000001 290.8 125.80000000000001 293.8 127.80000000000001 296.8" fill="#26d826"/><line x1="117.80000000000001" y1="293.8" x2="117.80000000000001" y2="117.80000000000001" stroke="#26d826" fill="none" stroke-width="3.0"/><polygon points="117.80000000000001 117.80000000000001 120.80000000000001 127.80000000000001 117.80000000000001 125.80000000000001 114.80000000000001 127.80000000000001" fill="#26d826"/><line x1="117.80000000000001" y1="117.80000000000001" x2="293.8" y2="117.80000000000001" stroke="#26d826" fill="none" stroke-width="3.0"/><polygon points="293.8 117.80000000000001 283.8 120.80000000000001 285.8 117.80000000000001 283.8 114.80000000000001" fill="#26d826"/><line x1="293.8" y1="117.80000000000001" x2="293.8" y2="293.8" stroke="#26d826" fill="none" stroke-width="3.0"/><polygon points="293.8 293.8 290.8 283.8 293.8 285.8 296.8 283.8" fill="#26d826"/></svg>