<?xml version="1.0" ?><!DOCTYPE svg  PUBLIC '-//W3C//DTD SVG 1.1//EN'  'http://www.w3.org/Graphics/SVG/1.1/DTD/svg11.dtd'><svg xmlns="http://www.w3.org/2000/svg" width="486.000" height="490.000" viewBox="-1.000 -5.000 486.000 490.000"><circle cx="117.80000000000001" cy="293.8" r="2.0" stroke="#d82626" fill="#d82626"/><circle cx="117.80000000000001" cy="469.80000000000007" r="2.0" stroke="#d82626" fill="#d82626"/><circle cx="205.8" cy="469.80000000000007" r="2.0" stroke="#d82626" fill="#d82626"/><circle cx="205.8" cy="29.800000000000004" r="2.0" stroke="#d82626" fill="#d82626"/><circle cx="469.80000000000007" cy="29.800000000000004" r="2.0" stroke="#d82626" fill="#d82626"/><circle cx="469.80000000000007" cy="205.8" r="2.0" stroke="#d82626" fill="#d82626"/><circle cx="29.800000000000004" cy="205.8" r="2.0" stroke="#d82626" fill="#d82626"/><circle cx="29.800000000000004" cy="381.8" r="2.0" stroke="#d82626" fill="#d82626"/><circle cx="293.8" cy="381.8" r="2.0" stroke="#d82626" fill="#d82626"/><circle cx="293.8" cy="117.80000000000001" r="2.0" stroke="#d82626" fill="#d82626"/><circle cx="381.8" cy="117.80000000000001" r="2.0" stroke="#d82626" fill="#d82626"/><circle cx="381.8" cy="293.8" r="2.0" stroke="#d82626" fill="#d82626"/><line x1="117.80000000000001" y1="293.8" x2="117.80000000000001" y2="469.80000000000007" stroke="#d82626" fill="none" stroke-width="3.0"/><polygon points="117.80000000000001 469.80000000000007 114.80000000000001 459.80000000000007 117.80000000000001 461.80000000000007 120.80000000000001 459.80000000000007" fill="#d82626"/><line x1="117.80000000000001" y1="469.80000000000007" x2="205.8" y2="469.80000000000007" stroke="#d82626" fill="none" stroke-width="3.0"/><polygon points="205.8 469.80000000000007 195.8 472.80000000000007 197.8 469.80000000000007 195.8 466.80000000000007" fill="#d82626"/><line x1="205.8" y1="469.80000000000007" x2="205.8" y2="29.800000000000004" stroke="#d82626" fill="none" stroke-width="3.0"/><polygon points="205.8 29.800000000000004 208.8 39.800000000000004 205.8 37.800000000000004 202.8 39.800000000000004" fill="#d82626"/><line x1="205.8" y1="29.800000000000004" x2="469.80000000000007" y2="29.800000000000004" stroke="#d82626" fill="none" stroke-width="3.0"/><polygon points="469.80000000000007 29.800000000000004 459.80000000000007 32.800000000000004 461.80000000000007 29.800000000000004 459.80000000000007 26.800000000000004" fill="#d82626"/><line x1="469.80000000000007" y1="29.800000000000004" x2="469.80000000000007" y2="205.8" stroke="#d82626" fill="none" stroke-width="3.0"/><polygon points="469.80000000000007 205.8 466.80000000000007 195.8 469.80000000000007 197.8 472.80000000000007 195.8" fill="#d82626"/><line x1="469.80000000000007" y1="205.8" x2="29.800000000000004" y2="205.8" stroke="#d82626" fill="none" stroke-width="3.0"/><polygon points="29.800000000000004 205.8 39.800000000000004 202.8 37.800000000000004 205.8 39.800000000000004 208.8" fill="#d82626"/><line x1="29.800000000000004" y1="205.8" x2="29.800000000000004" y2="381.8" stroke="#d82626" fill="none" stroke-width="3.0"/><polygon points="29.800000000000004 381.8 26.800000000000004 371.8 29.800000000000004 373.8 32.800000000000004 371.8" fill="#d82626"/><line x1="29.800000000000004" y1="381.8" x2="293.8" y2="381.8" stroke="#d82626" fill="none" stroke-width="3.0"/><polygon points="293.8 381.8 283.8 384.8 285.8 381.8 283.8 378.8" fill="#d82626"/><line x1="293.8" y1="381.8" x2="293.8" y2="117.80000000000001" stroke="#d82626" fill="none" stroke-width="3.0"/><polygon points="293.8 117.80000000000001 296.8 127.80000000000001 293.8 125.80000000000001 290.8 127.80000000000001" fill="#d82626"/><line x1="293.8" y1="117.80000000000001" x2="381.8" y2="117.80000000000001" stroke="#d82626" fill="none" stroke-width="3.0"/><polygon points="381.8 117.80000000000001 371.8 120.80000000000001 373.8 117.80000000000001 371.8 114.80000000000001" fill="#d82626"/><line x1="381.8" y1="117.80000000000001" x2="381.8" y2="293.8" stroke="#d82626" fill="none" stroke-width="3.0"/><polygon points="381.8 293.8 378.8 283.8 381.8 285.8 384.8 283.8" fill="#d82626"/><line x1="381.8" y1="293.8" x2="117.80000000000001" y2="293.8" stroke="#d82626" fill="none" stroke-width="3.0"/><polygon points="117.80000000000001 293.8 127.80000000000001 290.8 125.80000000000001 293.8 127.80000000000001 296.8" fill="#d82626"/><text x="38.60000000000001" y="232" fill="#000" stroke-width="0.0" font-family="Nimbus Sans" font-size="17.0pt" font-weight="bold"></text><ellipse cx="49.60000000000001" cy="251.39999999999998" rx="11.0" ry="10.999999999999986" stroke="#f00" fill="#f00" stroke-width="0.0"/><text x="49.60000000000001" y="259" fill="#fff" stroke-width="0.0" text-anchor="middle" font-family="Nimbus Sans" font-size="19.0pt">A</text><text x="126.60000000000001" y="320" fill="#000" stroke-width="0.0" font-family="Nimbus Sans" font-size="17.0pt" font-weight="bold"></text><ellipse cx="137.60000000000002" cy="339.40000000000003" rx="11.000000000000007" ry="11.0" stroke="#900" fill="#900" stroke-width="0.0"/><text x="137.60000000000002" y="347" fill="#fff" stroke-width="0.0" text-anchor="middle" font-family="Nimbus Sans" font-size="19.0pt">B</text><text x="126.60000000000001" y="408" fill="#000" stroke-width="0.0" font-family="Nimbus Sans" font-size="17.0pt" font-weight="bold"></text><ellipse cx="137.60000000000002" cy="427.40000000000003" rx="11.000000000000007" ry="11.0" stroke="#f00" fill="#f00" stroke-width="0.0"/><text x="137.60000000000002" y="435" fill="#fff" stroke-width="0.0" text-anchor="middle" font-family="Nimbus Sans" font-size="19.0pt">A</text><circle cx="161.8" cy="427.40000000000003" r="11.0" stroke="#900" fill="#900" stroke-width="0.0"/><text x="161.8" y="435" fill="#fff" stroke-width="0.0" text-anchor="middle" font-family="Nimbus Sans" font-size="19.0pt">B</text><text x="38.60000000000001" y="408" fill="#000" stroke-width="0.0" font-family="Nimbus Sans" font-size="17.0pt" font-weight="bold"></text><text x="214.60000000000002" y="56" fill="#000" stroke-width="0.0" font-family="Nimbus Sans" font-size="17.0pt" font-weight="bold"></text><text x="214.60000000000002" y="232" fill="#000" stroke-width="0.0" font-family="Nimbus Sans" font-size="17.0pt" font-weight="bold"></text><ellipse cx="225.60000000000002" cy="251.39999999999998" rx="11.0" ry="10.999999999999986" stroke="#900" fill="#900" stroke-width="0.0"/><text x="225.60000000000002" y="259" fill="#fff" stroke-width="0.0" text-anchor="middle" font-family="Nimbus Sans" font-size="19.0pt">B</text><text x="214.60000000000002" y="320" fill="#000" stroke-width="0.0" font-family="Nimbus Sans" font-size="17.0pt" font-weight="bold"></text><circle cx="225.60000000000002" cy="339.40000000000003" r="11.0" stroke="#f00" fill="#f00" stroke-width="0.0"/><text x="225.60000000000002" y="347" fill="#fff" stroke-width="0.0" text-anchor="middle" font-family="Nimbus Sans" font-size="19.0pt">A</text><text x="302.6" y="144" fill="#000" stroke-width="0.0" font-family="Nimbus Sans" font-size="17.0pt" font-weight="bold"></text><circle cx="313.6" cy="163.4" r="11.0" stroke="#f00" fill="#f00" stroke-width="0.0"/><text x="313.6" y="171" fill="#fff" stroke-width="0.0" text-anchor="middle" font-family="Nimbus Sans" font-size="19.0pt">A</text><circle cx="337.8" cy="163.4" r="11.0" stroke="#900" fill="#900" stroke-width="0.0"/><text x="337.8" y="171" fill="#fff" stroke-width="0.0" text-anchor="middle" font-family="Nimbus Sans" font-size="19.0pt">B</text><text x="302.6" y="232" fill="#000" stroke-width="0.0" font-family="Nimbus Sans" font-size="17.0pt" font-weight="bold"></text></svg>