<?xml version="1.0" ?><!DOCTYPE svg  PUBLIC '-//W3C//DTD SVG 1.1//EN'  'http://www.w3.org/Graphics/SVG/1.1/DTD/svg11.dtd'><svg xmlns="http://www.w3.org/2000/svg" width="472.000" height="472.000" viewBox="14.000 14.000 472.000 472.000"><path d="M140.0 360.0 C79.24867751861274,360.0 29.999999999999996,310.75132248138726 30.0,250.0 C30.000000000000007,159.5220471995687 144.6626144237921,140.0 250.0,140.0" stroke="#d82626" fill="none" stroke-width="5.0" stroke-linecap="round"/><path d="M250.0 140.0 C283.6666666666667,140.0 317.3333333333333,140.0 351.0,140.0" stroke="#d82626" fill="none" stroke-width="5.0" stroke-linecap="round"/><path d="M369.0 140.0 C426.4925943374969,140.0 470.0,190.8176905657782 470.0,250.0 C470.0,337.42698996617264 360.6184787010331,360.0 259.0,360.0" stroke="#d82626" fill="none" stroke-width="5.0" stroke-linecap="round"/><path d="M240.99999999999997 360.0 C207.33333333333331,360.0 173.66666666666666,360.0 140.0,360.0" stroke="#d82626" fill="none" stroke-width="5.0" stroke-linecap="round"/><path d="M250.0 360.0 C250.0,412.66869278810395 240.23897640021565,470.0 195.0,470.0 C152.76785967518765,470.0 140.0,417.9481963859541 140.0,369.0" stroke="#2626d8" fill="none" stroke-width="5.0" stroke-linecap="round"/><path d="M140.0 351.0 C140.0,293.5074056625031 190.81769056577818,250.0 250.0,250.0" stroke="#2626d8" fill="none" stroke-width="5.0" stroke-linecap="round"/><path d="M250.0 250.0 C310.75132248138726,250.0 360.0,200.7513224813873 360.0,140.0" stroke="#2626d8" fill="none" stroke-width="5.0" stroke-linecap="round"/><path d="M360.0 140.0 C360.0,87.33130721189602 350.2389764002156,29.999999999999993 305.0,30.0 C262.76785967518765,30.000000000000004 250.0,82.05180361404592 250.0,131.0" stroke="#2626d8" fill="none" stroke-width="5.0" stroke-linecap="round"/><path d="M250.0 149.0 C250.0,179.66666666666666 250.0,210.33333333333334 250.0,241.0" stroke="#2626d8" fill="none" stroke-width="5.0" stroke-linecap="round"/><path d="M250.0 259.0 C250.0,292.6666666666667 250.0,326.3333333333333 250.0,360.0" stroke="#2626d8" fill="none" stroke-width="5.0" stroke-linecap="round"/></svg>