<?xml version="1.0" ?><!DOCTYPE svg  PUBLIC '-//W3C//DTD SVG 1.1//EN'  'http://www.w3.org/Graphics/SVG/1.1/DTD/svg11.dtd'><svg xmlns="http://www.w3.org/2000/svg" width="486.000" height="490.000" viewBox="-1.000 -5.000 486.000 490.000"><circle cx="469.80000000000007" cy="205.8" r="2.0" stroke="#d82626" fill="#d82626"/><circle cx="469.80000000000007" cy="293.8" r="2.0" stroke="#d82626" fill="#d82626"/><circle cx="117.80000000000001" cy="293.8" r="2.0" stroke="#d82626" fill="#d82626"/><circle cx="117.80000000000001" cy="117.80000000000001" r="2.0" stroke="#d82626" fill="#d82626"/><circle cx="381.8" cy="117.80000000000001" r="2.0" stroke="#d82626" fill="#d82626"/><circle cx="381.8" cy="381.8" r="2.0" stroke="#d82626" fill="#d82626"/><circle cx="205.8" cy="381.8" r="2.0" stroke="#d82626" fill="#d82626"/><circle cx="205.8" cy="29.800000000000004" r="2.0" stroke="#d82626" fill="#d82626"/><circle cx="29.800000000000004" cy="29.800000000000004" r="2.0" stroke="#d82626" fill="#d82626"/><circle cx="29.800000000000004" cy="469.80000000000007" r="2.0" stroke="#d82626" fill="#d82626"/><circle cx="293.8" cy="469.80000000000007" r="2.0" stroke="#d82626" fill="#d82626"/><circle cx="293.8" cy="205.8" r="2.0" stroke="#d82626" fill="#d82626"/><line x1="469.80000000000007" y1="205.8" x2="469.80000000000007" y2="293.8" stroke="#d82626" fill="none" stroke-width="6.0"/><line x1="469.80000000000007" y1="293.8" x2="117.80000000000001" y2="293.8" stroke="#d82626" fill="none" stroke-width="6.0"/><line x1="117.80000000000001" y1="293.8" x2="117.80000000000001" y2="117.80000000000001" stroke="#d82626" fill="none" stroke-width="6.0"/><line x1="117.80000000000001" y1="117.80000000000001" x2="381.8" y2="117.80000000000001" stroke="#d82626" fill="none" stroke-width="6.0"/><line x1="381.8" y1="117.80000000000001" x2="381.8" y2="381.8" stroke="#d82626" fill="none" stroke-width="6.0"/><line x1="381.8" y1="381.8" x2="205.8" y2="381.8" stroke="#d82626" fill="none" stroke-width="6.0"/><line x1="205.8" y1="381.8" x2="205.8" y2="29.800000000000004" stroke="#d82626" fill="none" stroke-width="6.0"/><line x1="205.8" y1="29.800000000000004" x2="29.800000000000004" y2="29.800000000000004" stroke="#d82626" fill="none" stroke-width="6.0"/><line x1="29.800000000000004" y1="29.800000000000004" x2="29.800000000000004" y2="469.80000000000007" stroke="#d82626" fill="none" stroke-width="6.0"/><line x1="29.800000000000004" y1="469.80000000000007" x2="293.8" y2="469.80000000000007" stroke="#d82626" fill="none" stroke-width="6.0"/><line x1="293.8" y1="469.80000000000007" x2="293.8" y2="205.8" stroke="#d82626" fill="none" stroke-width="6.0"/><line x1="293.8" y1="205.8" x2="469.80000000000007" y2="205.8" stroke="#d82626" fill="none" stroke-width="6.0"/><ellipse cx="393.95238095238096" cy="217.95238095238096" rx="6.285714285714278" ry="6.285714285714292" stroke="#f00" fill="#f00" stroke-width="0.0"/><text x="393.95238095238096" y="223" fill="#fff" stroke-width="0.0" text-anchor="middle" font-family="Nimbus Sans" font-size="11.0pt">A</text><ellipse cx="407.7809523809524" cy="217.95238095238096" rx="6.285714285714278" ry="6.285714285714292" stroke="#b00" fill="#b00" stroke-width="0.0"/><text x="407.7809523809524" y="223" fill="#fff" stroke-width="0.0" text-anchor="middle" font-family="Nimbus Sans" font-size="11.0pt">B</text><ellipse cx="421.6095238095238" cy="217.95238095238096" rx="6.285714285714278" ry="6.285714285714292" stroke="#700" fill="#700" stroke-width="0.0"/><text x="421.6095238095238" y="223" fill="#fff" stroke-width="0.0" text-anchor="middle" font-family="Nimbus Sans" font-size="11.0pt">C</text><circle cx="305.95238095238096" cy="305.95238095238096" r="6.285714285714278" stroke="#f00" fill="#f00" stroke-width="0.0"/><text x="305.95238095238096" y="311" fill="#fff" stroke-width="0.0" text-anchor="middle" font-family="Nimbus Sans" font-size="11.0pt">A</text><circle cx="319.7809523809524" cy="305.95238095238096" r="6.285714285714278" stroke="#700" fill="#700" stroke-width="0.0"/><text x="319.7809523809524" y="311" fill="#fff" stroke-width="0.0" text-anchor="middle" font-family="Nimbus Sans" font-size="11.0pt">C</text><ellipse cx="305.95238095238096" cy="217.95238095238096" rx="6.285714285714278" ry="6.285714285714292" stroke="#b00" fill="#b00" stroke-width="0.0"/><text x="305.95238095238096" y="223" fill="#fff" stroke-width="0.0" text-anchor="middle" font-family="Nimbus Sans" font-size="11.0pt">B</text><circle cx="41.952380952380956" cy="41.952380952380956" r="6.285714285714285" stroke="#f00" fill="#f00" stroke-width="0.0"/><text x="41.952380952380956" y="47" fill="#fff" stroke-width="0.0" text-anchor="middle" font-family="Nimbus Sans" font-size="11.0pt">A</text><circle cx="129.95238095238096" cy="129.95238095238096" r="6.285714285714285" stroke="#f00" fill="#f00" stroke-width="0.0"/><text x="129.95238095238096" y="135" fill="#fff" stroke-width="0.0" text-anchor="middle" font-family="Nimbus Sans" font-size="11.0pt">A</text><ellipse cx="143.78095238095239" cy="129.95238095238096" rx="6.285714285714292" ry="6.285714285714285" stroke="#b00" fill="#b00" stroke-width="0.0"/><text x="143.78095238095239" y="135" fill="#fff" stroke-width="0.0" text-anchor="middle" font-family="Nimbus Sans" font-size="11.0pt">B</text><ellipse cx="157.6095238095238" cy="129.95238095238096" rx="6.285714285714292" ry="6.285714285714285" stroke="#700" fill="#700" stroke-width="0.0"/><text x="157.6095238095238" y="135" fill="#fff" stroke-width="0.0" text-anchor="middle" font-family="Nimbus Sans" font-size="11.0pt">C</text><ellipse cx="217.95238095238096" cy="305.95238095238096" rx="6.285714285714292" ry="6.285714285714278" stroke="#b00" fill="#b00" stroke-width="0.0"/><text x="217.95238095238096" y="311" fill="#fff" stroke-width="0.0" text-anchor="middle" font-family="Nimbus Sans" font-size="11.0pt">B</text><ellipse cx="231.78095238095239" cy="305.95238095238096" rx="6.285714285714292" ry="6.285714285714278" stroke="#700" fill="#700" stroke-width="0.0"/><text x="231.78095238095239" y="311" fill="#fff" stroke-width="0.0" text-anchor="middle" font-family="Nimbus Sans" font-size="11.0pt">C</text></svg>