<?xml version="1.0" ?><!DOCTYPE svg  PUBLIC '-//W3C//DTD SVG 1.1//EN'  'http://www.w3.org/Graphics/SVG/1.1/DTD/svg11.dtd'><svg xmlns="http://www.w3.org/2000/svg" width="487.000" height="522.000" viewBox="-1.000 -5.000 487.000 522.000"><circle cx="360.0" cy="360.0" r="2.0" stroke="#d82626" fill="#d82626"/><circle cx="250.0" cy="360.0" r="2.0" stroke="#d82626" fill="#d82626"/><circle cx="250.0" cy="30.0" r="2.0" stroke="#d82626" fill="#d82626"/><circle cx="140.0" cy="30.0" r="2.0" stroke="#d82626" fill="#d82626"/><circle cx="140.0" cy="250.0" r="2.0" stroke="#d82626" fill="#d82626"/><circle cx="470.0" cy="250.0" r="2.0" stroke="#d82626" fill="#d82626"/><circle cx="470.0" cy="470.0" r="2.0" stroke="#d82626" fill="#d82626"/><circle cx="30.0" cy="470.0" r="2.0" stroke="#d82626" fill="#d82626"/><circle cx="30.0" cy="140.0" r="2.0" stroke="#d82626" fill="#d82626"/><circle cx="360.0" cy="140.0" r="2.0" stroke="#d82626" fill="#d82626"/><line x1="360.0" y1="360.0" x2="250.0" y2="360.0" stroke="#d82626" fill="none" stroke-width="6.0"/><line x1="250.0" y1="360.0" x2="250.0" y2="30.0" stroke="#d82626" fill="none" stroke-width="6.0"/><line x1="250.0" y1="30.0" x2="140.0" y2="30.0" stroke="#d82626" fill="none" stroke-width="6.0"/><line x1="140.0" y1="30.0" x2="140.0" y2="250.0" stroke="#d82626" fill="none" stroke-width="6.0"/><line x1="140.0" y1="250.0" x2="470.0" y2="250.0" stroke="#d82626" fill="none" stroke-width="6.0"/><line x1="470.0" y1="250.0" x2="470.0" y2="470.0" stroke="#d82626" fill="none" stroke-width="6.0"/><line x1="470.0" y1="470.0" x2="30.0" y2="470.0" stroke="#d82626" fill="none" stroke-width="6.0"/><line x1="30.0" y1="470.0" x2="30.0" y2="140.0" stroke="#d82626" fill="none" stroke-width="6.0"/><line x1="30.0" y1="140.0" x2="360.0" y2="140.0" stroke="#d82626" fill="none" stroke-width="6.0"/><line x1="360.0" y1="140.0" x2="360.0" y2="360.0" stroke="#d82626" fill="none" stroke-width="6.0"/><text x="37.333333333333336" y="169" fill="#000" stroke-width="0.0" font-family="Nimbus Sans" font-size="22.0pt" font-weight="bold">2</text><text x="257.3333333333333" y="279" fill="#000" stroke-width="0.0" font-family="Nimbus Sans" font-size="22.0pt" font-weight="bold">4</text><text x="37.333333333333336" y="499" fill="#000" stroke-width="0.0" font-family="Nimbus Sans" font-size="22.0pt" font-weight="bold">5</text><text x="147.33333333333334" y="59" fill="#000" stroke-width="0.0" font-family="Nimbus Sans" font-size="22.0pt" font-weight="bold">6</text><text x="147.33333333333334" y="169" fill="#000" stroke-width="0.0" font-family="Nimbus Sans" font-size="22.0pt" font-weight="bold">1</text><text x="257.3333333333333" y="169" fill="#000" stroke-width="0.0" font-family="Nimbus Sans" font-size="22.0pt" font-weight="bold">3</text></svg>